M48
; DRILL file {KiCad 8.0.1} date 2024-04-12T14:20:24+0200
; FORMAT={-:-/ absolute / inch / decimal}
; #@! TF.CreationDate,2024-04-12T14:20:24+02:00
; #@! TF.GenerationSoftware,Kicad,Pcbnew,8.0.1
; #@! TF.FileFunction,Plated,1,2,PTH
FMAT,2
INCH
; #@! TA.AperFunction,Plated,PTH,ViaDrill
T1C0.0118
; #@! TA.AperFunction,Plated,PTH,ComponentDrill
T2C0.0374
; #@! TA.AperFunction,Plated,PTH,ComponentDrill
T3C0.0472
; #@! TA.AperFunction,Plated,PTH,ComponentDrill
T4C0.0512
; #@! TA.AperFunction,Plated,PTH,ComponentDrill
T5C0.0630
; #@! TA.AperFunction,Plated,PTH,ComponentDrill
T6C0.0709
%
G90
G05
T1
X2.6378Y-3.1496
X3.878Y-3.1496
X5.1378Y-3.1496
X6.378Y-3.1496
T2
X2.6378Y-3.6024
X2.7362Y-3.6024
X2.8346Y-3.6024
X3.2087Y-3.6024
X3.3071Y-3.6024
X3.4055Y-3.6024
X3.5039Y-3.6024
X3.6024Y-3.6024
X3.9764Y-3.6024
X4.0748Y-3.6024
X4.1732Y-3.6024
X5.1378Y-3.6024
X5.2362Y-3.6024
X5.3346Y-3.6024
X5.7087Y-3.6024
X5.8071Y-3.6024
X5.9055Y-3.6024
X6.0039Y-3.6024
X6.1024Y-3.6024
X6.4764Y-3.6024
X6.5748Y-3.6024
X6.6732Y-3.6024
X7.4409Y-3.6142
X7.5394Y-3.6142
X7.6378Y-3.6142
X8.2283Y-3.6142
X8.3268Y-3.6142
X8.4252Y-3.6142
X8.8189Y-3.5827
X8.9173Y-3.2559
X8.9173Y-3.5827
X9.0157Y-3.2559
X9.0157Y-3.5827
X9.1142Y-3.2559
X9.1142Y-3.5827
X9.2126Y-3.5827
T3
X2.7831Y-2.8449
X4.0314Y-2.8449
X5.2797Y-2.8449
X6.528Y-2.8449
T4
X3.2087Y-3.1299
X3.2087Y-3.3268
X3.4055Y-3.1299
X3.4055Y-3.3268
X3.6024Y-3.1299
X3.6024Y-3.3268
X5.7087Y-3.1299
X5.7087Y-3.3268
X5.9055Y-3.1299
X5.9055Y-3.3268
X6.1024Y-3.1299
X6.1024Y-3.3268
X7.3819Y-3.3465
X7.5394Y-3.3465
X7.6969Y-3.3465
X8.1693Y-3.3386
X8.3268Y-3.3386
X8.4843Y-3.3386
X8.6614Y-2.9134
X8.8386Y-2.9134
X8.9119Y-2.3957
X8.9316Y-2.6831
X9.0157Y-2.9134
X9.093Y-2.2421
X9.1914Y-2.5098
X9.1929Y-2.9134
X9.2977Y-2.5571
X9.3701Y-2.9134
T5
X2.6331Y-2.6697
X2.9331Y-2.6947
X3.8814Y-2.6697
X4.1814Y-2.6947
X5.1297Y-2.6697
X5.4297Y-2.6947
X6.378Y-2.6697
X6.678Y-2.6947
T6
X7.374Y-2.5466
X7.5315Y-2.397
X7.6969Y-2.5859
X8.1693Y-2.5464
X8.3268Y-2.3968
X8.4921Y-2.5857
M30
