%TF.GenerationSoftware,KiCad,Pcbnew,8.0.1*%
%TF.CreationDate,2024-04-12T14:20:23+02:00*%
%TF.ProjectId,C-Audio Input-Board (CIB),432d4175-6469-46f2-9049-6e7075742d42,rev?*%
%TF.SameCoordinates,Original*%
%TF.FileFunction,Soldermask,Top*%
%TF.FilePolarity,Negative*%
%FSLAX46Y46*%
G04 Gerber Fmt 4.6, Leading zero omitted, Abs format (unit mm)*
G04 Created by KiCad (PCBNEW 8.0.1) date 2024-04-12 14:20:23*
%MOMM*%
%LPD*%
G01*
G04 APERTURE LIST*
G04 Aperture macros list*
%AMRoundRect*
0 Rectangle with rounded corners*
0 $1 Rounding radius*
0 $2 $3 $4 $5 $6 $7 $8 $9 X,Y pos of 4 corners*
0 Add a 4 corners polygon primitive as box body*
4,1,4,$2,$3,$4,$5,$6,$7,$8,$9,$2,$3,0*
0 Add four circle primitives for the rounded corners*
1,1,$1+$1,$2,$3*
1,1,$1+$1,$4,$5*
1,1,$1+$1,$6,$7*
1,1,$1+$1,$8,$9*
0 Add four rect primitives between the rounded corners*
20,1,$1+$1,$2,$3,$4,$5,0*
20,1,$1+$1,$4,$5,$6,$7,0*
20,1,$1+$1,$6,$7,$8,$9,0*
20,1,$1+$1,$8,$9,$2,$3,0*%
%AMFreePoly0*
4,1,6,1.000000,0.000000,0.500000,-0.750000,-0.500000,-0.750000,-0.500000,0.750000,0.500000,0.750000,1.000000,0.000000,1.000000,0.000000,$1*%
%AMFreePoly1*
4,1,6,0.500000,-0.750000,-0.650000,-0.750000,-0.150000,0.000000,-0.650000,0.750000,0.500000,0.750000,0.500000,-0.750000,0.500000,-0.750000,$1*%
G04 Aperture macros list end*
%ADD10FreePoly0,90.000000*%
%ADD11FreePoly1,90.000000*%
%ADD12RoundRect,0.250000X-0.600000X-0.725000X0.600000X-0.725000X0.600000X0.725000X-0.600000X0.725000X0*%
%ADD13O,1.700000X1.950000*%
%ADD14C,1.600000*%
%ADD15C,3.400000*%
%ADD16C,2.900000*%
%ADD17C,2.600000*%
%ADD18RoundRect,0.250000X0.600000X0.725000X-0.600000X0.725000X-0.600000X-0.725000X0.600000X-0.725000X0*%
%ADD19C,3.500000*%
%ADD20C,3.000000*%
%ADD21O,2.200000X4.000000*%
%ADD22O,4.000000X2.200000*%
%ADD23R,2.200000X4.000000*%
G04 APERTURE END LIST*
D10*
%TO.C,JP2*%
X98500000Y-77950000D03*
D11*
X98500000Y-76500000D03*
%TD*%
D12*
%TO.C,J17*%
X130500000Y-91500000D03*
D13*
X133000000Y-91500000D03*
X135500000Y-91500000D03*
%TD*%
D14*
%TO.C,J13*%
X169620000Y-64000000D03*
X162000000Y-58920000D03*
D15*
X162000000Y-67810000D03*
X169620000Y-68445000D03*
D16*
X165810000Y-72260000D03*
%TD*%
D17*
%TO.C,J26*%
X211500000Y-84800000D03*
%TD*%
D12*
%TO.C,J18*%
X145000000Y-91500000D03*
D13*
X147500000Y-91500000D03*
X150000000Y-91500000D03*
X152500000Y-91500000D03*
X155000000Y-91500000D03*
%TD*%
D10*
%TO.C,JP4*%
X162000000Y-78000000D03*
D11*
X162000000Y-76550000D03*
%TD*%
D18*
%TO.C,J32*%
X194000000Y-91800000D03*
D13*
X191500000Y-91800000D03*
X189000000Y-91800000D03*
%TD*%
D17*
%TO.C,J8*%
X91500000Y-79500000D03*
%TD*%
%TO.C,J25*%
X207500000Y-84800000D03*
%TD*%
%TO.C,J15*%
X145000000Y-84500000D03*
%TD*%
D19*
%TO.C,H3*%
X53500000Y-91000000D03*
%TD*%
D12*
%TO.C,J40*%
X226500000Y-82700000D03*
D13*
X229000000Y-82700000D03*
X231500000Y-82700000D03*
%TD*%
D19*
%TO.C,H5*%
X179000000Y-91000000D03*
%TD*%
D17*
%TO.C,J14*%
X145000000Y-79500000D03*
%TD*%
D19*
%TO.C,H4*%
X242500000Y-91000000D03*
%TD*%
D17*
%TO.C,J16*%
X150000000Y-84500000D03*
%TD*%
%TO.C,J34*%
X220000000Y-74000000D03*
%TD*%
D10*
%TO.C,JP3*%
X130500000Y-77950000D03*
D11*
X130500000Y-76500000D03*
%TD*%
D17*
%TO.C,J24*%
X215500000Y-84800000D03*
%TD*%
D14*
%TO.C,J12*%
X137913332Y-64000000D03*
X130293332Y-58920000D03*
D15*
X130293332Y-67810000D03*
X137913332Y-68445000D03*
D16*
X134103332Y-72260000D03*
%TD*%
D12*
%TO.C,J6*%
X67000000Y-91500000D03*
D13*
X69500000Y-91500000D03*
X72000000Y-91500000D03*
%TD*%
D17*
%TO.C,J30*%
X187500000Y-85000000D03*
%TD*%
%TO.C,J3*%
X81500000Y-79500000D03*
%TD*%
%TO.C,J10*%
X86500000Y-79500000D03*
%TD*%
%TO.C,J31*%
X191500000Y-85000000D03*
%TD*%
%TO.C,J9*%
X91500000Y-84500000D03*
%TD*%
%TO.C,J37*%
X224500000Y-74000000D03*
%TD*%
%TO.C,J36*%
X229000000Y-74000000D03*
%TD*%
D14*
%TO.C,J1*%
X74500000Y-64000000D03*
X66880000Y-58920000D03*
D15*
X66880000Y-67810000D03*
X74500000Y-68445000D03*
D16*
X70690000Y-72260000D03*
%TD*%
D18*
%TO.C,J27*%
X214000000Y-91800000D03*
D13*
X211500000Y-91800000D03*
X209000000Y-91800000D03*
%TD*%
D20*
%TO.C,J23*%
X215700000Y-65678007D03*
X207500000Y-64678007D03*
X211500000Y-60878007D03*
%TD*%
D12*
%TO.C,J22*%
X164500000Y-91500000D03*
D13*
X167000000Y-91500000D03*
X169500000Y-91500000D03*
%TD*%
D17*
%TO.C,J29*%
X195500000Y-85000000D03*
%TD*%
%TO.C,J19*%
X155000000Y-79500000D03*
%TD*%
%TO.C,J5*%
X86500000Y-84500000D03*
%TD*%
D21*
%TO.C,J33*%
X236162487Y-64950000D03*
X233462487Y-63750000D03*
D22*
X230962487Y-56950000D03*
D23*
X226362487Y-60850000D03*
D22*
X226862487Y-68150000D03*
%TD*%
D12*
%TO.C,J39*%
X224000000Y-91000000D03*
D13*
X226500000Y-91000000D03*
X229000000Y-91000000D03*
X231500000Y-91000000D03*
X234000000Y-91000000D03*
%TD*%
D12*
%TO.C,J7*%
X81500000Y-91500000D03*
D13*
X84000000Y-91500000D03*
X86500000Y-91500000D03*
X89000000Y-91500000D03*
X91500000Y-91500000D03*
%TD*%
D17*
%TO.C,J35*%
X238000000Y-74000000D03*
%TD*%
%TO.C,J4*%
X81500000Y-84500000D03*
%TD*%
D10*
%TO.C,JP1*%
X67000000Y-78000000D03*
D11*
X67000000Y-76550000D03*
%TD*%
D19*
%TO.C,H2*%
X242500000Y-59000000D03*
%TD*%
D20*
%TO.C,J28*%
X195500000Y-65683007D03*
X187300000Y-64683007D03*
X191300000Y-60883007D03*
%TD*%
D12*
%TO.C,J11*%
X101000000Y-91500000D03*
D13*
X103500000Y-91500000D03*
X106000000Y-91500000D03*
%TD*%
D17*
%TO.C,J38*%
X233500000Y-74000000D03*
%TD*%
%TO.C,J20*%
X155000000Y-84500000D03*
%TD*%
%TO.C,J21*%
X150000000Y-79500000D03*
%TD*%
D14*
%TO.C,J2*%
X106206666Y-64000000D03*
X98586666Y-58920000D03*
D15*
X98586666Y-67810000D03*
X106206666Y-68445000D03*
D16*
X102396666Y-72260000D03*
%TD*%
D19*
%TO.C,H1*%
X53500000Y-59000000D03*
%TD*%
M02*
