%TF.GenerationSoftware,KiCad,Pcbnew,8.0.1*%
%TF.CreationDate,2024-04-12T14:20:24+02:00*%
%TF.ProjectId,C-Audio Input-Board (CIB),432d4175-6469-46f2-9049-6e7075742d42,rev?*%
%TF.SameCoordinates,Original*%
%TF.FileFunction,Drillmap*%
%TF.FilePolarity,Positive*%
%FSLAX45Y45*%
G04 Gerber Fmt 4.5, Leading zero omitted, Abs format (unit mm)*
G04 Created by KiCad (PCBNEW 8.0.1) date 2024-04-12 14:20:24*
%MOMM*%
%LPD*%
G01*
G04 APERTURE LIST*
%ADD10C,0.050000*%
%ADD11C,0.120000*%
%ADD12C,0.200000*%
%ADD13C,0.100000*%
%ADD14C,0.130000*%
%ADD15C,0.160000*%
%ADD16C,0.180000*%
G04 APERTURE END LIST*
D10*
X24650000Y-5650000D02*
X24650000Y-9350000D01*
X24650000Y-9350000D02*
G75*
G02*
X24500000Y-9500000I-150000J0D01*
G01*
X24500000Y-5500000D02*
G75*
G02*
X24650000Y-5650000I0J-150000D01*
G01*
X24500000Y-9500000D02*
X5100000Y-9500000D01*
X5100000Y-9500000D02*
G75*
G02*
X4950000Y-9350000I0J150000D01*
G01*
X5100000Y-5500000D02*
X24500000Y-5500000D01*
X4950000Y-9350000D02*
X4950000Y-5650000D01*
X4950000Y-5650000D02*
G75*
G02*
X5100000Y-5500000I150000J0D01*
G01*
D11*
X20530000Y-6327801D02*
X20350000Y-6327801D01*
X20350000Y-6007801D01*
X20530000Y-6007801D01*
X20530000Y-6327801D01*
X21950000Y-6327801D02*
X21770000Y-6327801D01*
X21770000Y-6007801D01*
X21950000Y-6007801D01*
X21950000Y-6327801D01*
X18510000Y-6328301D02*
X18330000Y-6328301D01*
X18330000Y-6008301D01*
X18510000Y-6008301D01*
X18510000Y-6328301D01*
X19930000Y-6328301D02*
X19750000Y-6328301D01*
X19750000Y-6008301D01*
X19930000Y-6008301D01*
X19930000Y-6328301D01*
D12*
D13*
X6685000Y-7985000D02*
X6715000Y-8015000D01*
X6715000Y-7985000D02*
X6685000Y-8015000D01*
X9835000Y-7985000D02*
X9865000Y-8015000D01*
X9865000Y-7985000D02*
X9835000Y-8015000D01*
X13035000Y-7985000D02*
X13065000Y-8015000D01*
X13065000Y-7985000D02*
X13035000Y-8015000D01*
X16185000Y-7985000D02*
X16215000Y-8015000D01*
X16215000Y-7985000D02*
X16185000Y-8015000D01*
X6747500Y-9150000D02*
G75*
G02*
X6652500Y-9150000I-47500J0D01*
G01*
X6652500Y-9150000D02*
G75*
G02*
X6747500Y-9150000I47500J0D01*
G01*
X6997500Y-9150000D02*
G75*
G02*
X6902500Y-9150000I-47500J0D01*
G01*
X6902500Y-9150000D02*
G75*
G02*
X6997500Y-9150000I47500J0D01*
G01*
X7247500Y-9150000D02*
G75*
G02*
X7152500Y-9150000I-47500J0D01*
G01*
X7152500Y-9150000D02*
G75*
G02*
X7247500Y-9150000I47500J0D01*
G01*
X8197500Y-9150000D02*
G75*
G02*
X8102500Y-9150000I-47500J0D01*
G01*
X8102500Y-9150000D02*
G75*
G02*
X8197500Y-9150000I47500J0D01*
G01*
X8447500Y-9150000D02*
G75*
G02*
X8352500Y-9150000I-47500J0D01*
G01*
X8352500Y-9150000D02*
G75*
G02*
X8447500Y-9150000I47500J0D01*
G01*
X8697500Y-9150000D02*
G75*
G02*
X8602500Y-9150000I-47500J0D01*
G01*
X8602500Y-9150000D02*
G75*
G02*
X8697500Y-9150000I47500J0D01*
G01*
X8947500Y-9150000D02*
G75*
G02*
X8852500Y-9150000I-47500J0D01*
G01*
X8852500Y-9150000D02*
G75*
G02*
X8947500Y-9150000I47500J0D01*
G01*
X9197500Y-9150000D02*
G75*
G02*
X9102500Y-9150000I-47500J0D01*
G01*
X9102500Y-9150000D02*
G75*
G02*
X9197500Y-9150000I47500J0D01*
G01*
X10147500Y-9150000D02*
G75*
G02*
X10052500Y-9150000I-47500J0D01*
G01*
X10052500Y-9150000D02*
G75*
G02*
X10147500Y-9150000I47500J0D01*
G01*
X10397500Y-9150000D02*
G75*
G02*
X10302500Y-9150000I-47500J0D01*
G01*
X10302500Y-9150000D02*
G75*
G02*
X10397500Y-9150000I47500J0D01*
G01*
X10647500Y-9150000D02*
G75*
G02*
X10552500Y-9150000I-47500J0D01*
G01*
X10552500Y-9150000D02*
G75*
G02*
X10647500Y-9150000I47500J0D01*
G01*
X13097500Y-9150000D02*
G75*
G02*
X13002500Y-9150000I-47500J0D01*
G01*
X13002500Y-9150000D02*
G75*
G02*
X13097500Y-9150000I47500J0D01*
G01*
X13347500Y-9150000D02*
G75*
G02*
X13252500Y-9150000I-47500J0D01*
G01*
X13252500Y-9150000D02*
G75*
G02*
X13347500Y-9150000I47500J0D01*
G01*
X13597500Y-9150000D02*
G75*
G02*
X13502500Y-9150000I-47500J0D01*
G01*
X13502500Y-9150000D02*
G75*
G02*
X13597500Y-9150000I47500J0D01*
G01*
X14547500Y-9150000D02*
G75*
G02*
X14452500Y-9150000I-47500J0D01*
G01*
X14452500Y-9150000D02*
G75*
G02*
X14547500Y-9150000I47500J0D01*
G01*
X14797500Y-9150000D02*
G75*
G02*
X14702500Y-9150000I-47500J0D01*
G01*
X14702500Y-9150000D02*
G75*
G02*
X14797500Y-9150000I47500J0D01*
G01*
X15047500Y-9150000D02*
G75*
G02*
X14952500Y-9150000I-47500J0D01*
G01*
X14952500Y-9150000D02*
G75*
G02*
X15047500Y-9150000I47500J0D01*
G01*
X15297500Y-9150000D02*
G75*
G02*
X15202500Y-9150000I-47500J0D01*
G01*
X15202500Y-9150000D02*
G75*
G02*
X15297500Y-9150000I47500J0D01*
G01*
X15547500Y-9150000D02*
G75*
G02*
X15452500Y-9150000I-47500J0D01*
G01*
X15452500Y-9150000D02*
G75*
G02*
X15547500Y-9150000I47500J0D01*
G01*
X16497500Y-9150000D02*
G75*
G02*
X16402500Y-9150000I-47500J0D01*
G01*
X16402500Y-9150000D02*
G75*
G02*
X16497500Y-9150000I47500J0D01*
G01*
X16747500Y-9150000D02*
G75*
G02*
X16652500Y-9150000I-47500J0D01*
G01*
X16652500Y-9150000D02*
G75*
G02*
X16747500Y-9150000I47500J0D01*
G01*
X16997500Y-9150000D02*
G75*
G02*
X16902500Y-9150000I-47500J0D01*
G01*
X16902500Y-9150000D02*
G75*
G02*
X16997500Y-9150000I47500J0D01*
G01*
X18947500Y-9180000D02*
G75*
G02*
X18852500Y-9180000I-47500J0D01*
G01*
X18852500Y-9180000D02*
G75*
G02*
X18947500Y-9180000I47500J0D01*
G01*
X19197500Y-9180000D02*
G75*
G02*
X19102500Y-9180000I-47500J0D01*
G01*
X19102500Y-9180000D02*
G75*
G02*
X19197500Y-9180000I47500J0D01*
G01*
X19447500Y-9180000D02*
G75*
G02*
X19352500Y-9180000I-47500J0D01*
G01*
X19352500Y-9180000D02*
G75*
G02*
X19447500Y-9180000I47500J0D01*
G01*
X20947500Y-9180000D02*
G75*
G02*
X20852500Y-9180000I-47500J0D01*
G01*
X20852500Y-9180000D02*
G75*
G02*
X20947500Y-9180000I47500J0D01*
G01*
X21197500Y-9180000D02*
G75*
G02*
X21102500Y-9180000I-47500J0D01*
G01*
X21102500Y-9180000D02*
G75*
G02*
X21197500Y-9180000I47500J0D01*
G01*
X21447500Y-9180000D02*
G75*
G02*
X21352500Y-9180000I-47500J0D01*
G01*
X21352500Y-9180000D02*
G75*
G02*
X21447500Y-9180000I47500J0D01*
G01*
X22447500Y-9100000D02*
G75*
G02*
X22352500Y-9100000I-47500J0D01*
G01*
X22352500Y-9100000D02*
G75*
G02*
X22447500Y-9100000I47500J0D01*
G01*
X22697500Y-8270000D02*
G75*
G02*
X22602500Y-8270000I-47500J0D01*
G01*
X22602500Y-8270000D02*
G75*
G02*
X22697500Y-8270000I47500J0D01*
G01*
X22697500Y-9100000D02*
G75*
G02*
X22602500Y-9100000I-47500J0D01*
G01*
X22602500Y-9100000D02*
G75*
G02*
X22697500Y-9100000I47500J0D01*
G01*
X22947500Y-8270000D02*
G75*
G02*
X22852500Y-8270000I-47500J0D01*
G01*
X22852500Y-8270000D02*
G75*
G02*
X22947500Y-8270000I47500J0D01*
G01*
X22947500Y-9100000D02*
G75*
G02*
X22852500Y-9100000I-47500J0D01*
G01*
X22852500Y-9100000D02*
G75*
G02*
X22947500Y-9100000I47500J0D01*
G01*
X23197500Y-8270000D02*
G75*
G02*
X23102500Y-8270000I-47500J0D01*
G01*
X23102500Y-8270000D02*
G75*
G02*
X23197500Y-8270000I47500J0D01*
G01*
X23197500Y-9100000D02*
G75*
G02*
X23102500Y-9100000I-47500J0D01*
G01*
X23102500Y-9100000D02*
G75*
G02*
X23197500Y-9100000I47500J0D01*
G01*
X23447500Y-9100000D02*
G75*
G02*
X23352500Y-9100000I-47500J0D01*
G01*
X23352500Y-9100000D02*
G75*
G02*
X23447500Y-9100000I47500J0D01*
G01*
D11*
X7069000Y-7166000D02*
X7069000Y-7286000D01*
X7009000Y-7226000D02*
X7129000Y-7226000D01*
X10239667Y-7166000D02*
X10239667Y-7286000D01*
X10179667Y-7226000D02*
X10299667Y-7226000D01*
X13410333Y-7166000D02*
X13410333Y-7286000D01*
X13350333Y-7226000D02*
X13470333Y-7226000D01*
X16581000Y-7166000D02*
X16581000Y-7286000D01*
X16521000Y-7226000D02*
X16641000Y-7226000D01*
D14*
X8195962Y-7995962D02*
X8195962Y-7904038D01*
X8104038Y-7904038D01*
X8104038Y-7995962D01*
X8195962Y-7995962D01*
X8195962Y-8495962D02*
X8195962Y-8404038D01*
X8104038Y-8404038D01*
X8104038Y-8495962D01*
X8195962Y-8495962D01*
X8695962Y-7995962D02*
X8695962Y-7904038D01*
X8604038Y-7904038D01*
X8604038Y-7995962D01*
X8695962Y-7995962D01*
X8695962Y-8495962D02*
X8695962Y-8404038D01*
X8604038Y-8404038D01*
X8604038Y-8495962D01*
X8695962Y-8495962D01*
X9195962Y-7995962D02*
X9195962Y-7904038D01*
X9104038Y-7904038D01*
X9104038Y-7995962D01*
X9195962Y-7995962D01*
X9195962Y-8495962D02*
X9195962Y-8404038D01*
X9104038Y-8404038D01*
X9104038Y-8495962D01*
X9195962Y-8495962D01*
X14545962Y-7995962D02*
X14545962Y-7904038D01*
X14454038Y-7904038D01*
X14454038Y-7995962D01*
X14545962Y-7995962D01*
X14545962Y-8495962D02*
X14545962Y-8404038D01*
X14454038Y-8404038D01*
X14454038Y-8495962D01*
X14545962Y-8495962D01*
X15045962Y-7995962D02*
X15045962Y-7904038D01*
X14954038Y-7904038D01*
X14954038Y-7995962D01*
X15045962Y-7995962D01*
X15045962Y-8495962D02*
X15045962Y-8404038D01*
X14954038Y-8404038D01*
X14954038Y-8495962D01*
X15045962Y-8495962D01*
X15545962Y-7995962D02*
X15545962Y-7904038D01*
X15454038Y-7904038D01*
X15454038Y-7995962D01*
X15545962Y-7995962D01*
X15545962Y-8495962D02*
X15545962Y-8404038D01*
X15454038Y-8404038D01*
X15454038Y-8495962D01*
X15545962Y-8495962D01*
X18795962Y-8545962D02*
X18795962Y-8454038D01*
X18704038Y-8454038D01*
X18704038Y-8545962D01*
X18795962Y-8545962D01*
X19195962Y-8545962D02*
X19195962Y-8454038D01*
X19104038Y-8454038D01*
X19104038Y-8545962D01*
X19195962Y-8545962D01*
X19595962Y-8545962D02*
X19595962Y-8454038D01*
X19504038Y-8454038D01*
X19504038Y-8545962D01*
X19595962Y-8545962D01*
X20795962Y-8525962D02*
X20795962Y-8434038D01*
X20704038Y-8434038D01*
X20704038Y-8525962D01*
X20795962Y-8525962D01*
X21195962Y-8525962D02*
X21195962Y-8434038D01*
X21104038Y-8434038D01*
X21104038Y-8525962D01*
X21195962Y-8525962D01*
X21595962Y-8525962D02*
X21595962Y-8434038D01*
X21504038Y-8434038D01*
X21504038Y-8525962D01*
X21595962Y-8525962D01*
X22045962Y-7445962D02*
X22045962Y-7354038D01*
X21954038Y-7354038D01*
X21954038Y-7445962D01*
X22045962Y-7445962D01*
X22495962Y-7445962D02*
X22495962Y-7354038D01*
X22404038Y-7354038D01*
X22404038Y-7445962D01*
X22495962Y-7445962D01*
X22682211Y-6130962D02*
X22682211Y-6039038D01*
X22590286Y-6039038D01*
X22590286Y-6130962D01*
X22682211Y-6130962D01*
X22732211Y-6860962D02*
X22732211Y-6769038D01*
X22640286Y-6769038D01*
X22640286Y-6860962D01*
X22732211Y-6860962D01*
X22945962Y-7445962D02*
X22945962Y-7354038D01*
X22854038Y-7354038D01*
X22854038Y-7445962D01*
X22945962Y-7445962D01*
X23142211Y-5740962D02*
X23142211Y-5649038D01*
X23050286Y-5649038D01*
X23050286Y-5740962D01*
X23142211Y-5740962D01*
X23392211Y-6420962D02*
X23392211Y-6329038D01*
X23300286Y-6329038D01*
X23300286Y-6420962D01*
X23392211Y-6420962D01*
X23395962Y-7445962D02*
X23395962Y-7354038D01*
X23304038Y-7354038D01*
X23304038Y-7445962D01*
X23395962Y-7445962D01*
X23662211Y-6540962D02*
X23662211Y-6449038D01*
X23570286Y-6449038D01*
X23570286Y-6540962D01*
X23662211Y-6540962D01*
X23845962Y-7445962D02*
X23845962Y-7354038D01*
X23754038Y-7354038D01*
X23754038Y-7445962D01*
X23845962Y-7445962D01*
D15*
X6688000Y-6861000D02*
X6768000Y-6781000D01*
X6688000Y-6701000D01*
X6608000Y-6781000D01*
X6688000Y-6861000D01*
X7450000Y-6924500D02*
X7530000Y-6844500D01*
X7450000Y-6764500D01*
X7370000Y-6844500D01*
X7450000Y-6924500D01*
X9858667Y-6861000D02*
X9938667Y-6781000D01*
X9858667Y-6701000D01*
X9778667Y-6781000D01*
X9858667Y-6861000D01*
X10620667Y-6924500D02*
X10700667Y-6844500D01*
X10620667Y-6764500D01*
X10540667Y-6844500D01*
X10620667Y-6924500D01*
X13029333Y-6861000D02*
X13109333Y-6781000D01*
X13029333Y-6701000D01*
X12949333Y-6781000D01*
X13029333Y-6861000D01*
X13791333Y-6924500D02*
X13871333Y-6844500D01*
X13791333Y-6764500D01*
X13711333Y-6844500D01*
X13791333Y-6924500D01*
X16200000Y-6861000D02*
X16280000Y-6781000D01*
X16200000Y-6701000D01*
X16120000Y-6781000D01*
X16200000Y-6861000D01*
X16962000Y-6924500D02*
X17042000Y-6844500D01*
X16962000Y-6764500D01*
X16882000Y-6844500D01*
X16962000Y-6924500D01*
D16*
X18640000Y-6378301D02*
X18820000Y-6558301D01*
X18820000Y-6378301D02*
X18640000Y-6558301D01*
X18820000Y-6468301D02*
G75*
G02*
X18640000Y-6468301I-90000J0D01*
G01*
X18640000Y-6468301D02*
G75*
G02*
X18820000Y-6468301I90000J0D01*
G01*
X19040000Y-5998301D02*
X19220000Y-6178301D01*
X19220000Y-5998301D02*
X19040000Y-6178301D01*
X19220000Y-6088301D02*
G75*
G02*
X19040000Y-6088301I-90000J0D01*
G01*
X19040000Y-6088301D02*
G75*
G02*
X19220000Y-6088301I90000J0D01*
G01*
X19460000Y-6478301D02*
X19640000Y-6658301D01*
X19640000Y-6478301D02*
X19460000Y-6658301D01*
X19640000Y-6568301D02*
G75*
G02*
X19460000Y-6568301I-90000J0D01*
G01*
X19460000Y-6568301D02*
G75*
G02*
X19640000Y-6568301I90000J0D01*
G01*
X20660000Y-6377801D02*
X20840000Y-6557801D01*
X20840000Y-6377801D02*
X20660000Y-6557801D01*
X20840000Y-6467801D02*
G75*
G02*
X20660000Y-6467801I-90000J0D01*
G01*
X20660000Y-6467801D02*
G75*
G02*
X20840000Y-6467801I90000J0D01*
G01*
X21060000Y-5997801D02*
X21240000Y-6177801D01*
X21240000Y-5997801D02*
X21060000Y-6177801D01*
X21240000Y-6087801D02*
G75*
G02*
X21060000Y-6087801I-90000J0D01*
G01*
X21060000Y-6087801D02*
G75*
G02*
X21240000Y-6087801I90000J0D01*
G01*
X21480000Y-6477801D02*
X21660000Y-6657801D01*
X21660000Y-6477801D02*
X21480000Y-6657801D01*
X21660000Y-6567801D02*
G75*
G02*
X21480000Y-6567801I-90000J0D01*
G01*
X21480000Y-6567801D02*
G75*
G02*
X21660000Y-6567801I90000J0D01*
G01*
D12*
X5208277Y-9813984D02*
X5208277Y-9613984D01*
X5208277Y-9613984D02*
X5255896Y-9613984D01*
X5255896Y-9613984D02*
X5284467Y-9623508D01*
X5284467Y-9623508D02*
X5303515Y-9642555D01*
X5303515Y-9642555D02*
X5313039Y-9661603D01*
X5313039Y-9661603D02*
X5322563Y-9699698D01*
X5322563Y-9699698D02*
X5322563Y-9728270D01*
X5322563Y-9728270D02*
X5313039Y-9766365D01*
X5313039Y-9766365D02*
X5303515Y-9785412D01*
X5303515Y-9785412D02*
X5284467Y-9804460D01*
X5284467Y-9804460D02*
X5255896Y-9813984D01*
X5255896Y-9813984D02*
X5208277Y-9813984D01*
X5408277Y-9813984D02*
X5408277Y-9680650D01*
X5408277Y-9718746D02*
X5417801Y-9699698D01*
X5417801Y-9699698D02*
X5427324Y-9690174D01*
X5427324Y-9690174D02*
X5446372Y-9680650D01*
X5446372Y-9680650D02*
X5465420Y-9680650D01*
X5532086Y-9813984D02*
X5532086Y-9680650D01*
X5532086Y-9613984D02*
X5522563Y-9623508D01*
X5522563Y-9623508D02*
X5532086Y-9633031D01*
X5532086Y-9633031D02*
X5541610Y-9623508D01*
X5541610Y-9623508D02*
X5532086Y-9613984D01*
X5532086Y-9613984D02*
X5532086Y-9633031D01*
X5655896Y-9813984D02*
X5636848Y-9804460D01*
X5636848Y-9804460D02*
X5627324Y-9785412D01*
X5627324Y-9785412D02*
X5627324Y-9613984D01*
X5760658Y-9813984D02*
X5741610Y-9804460D01*
X5741610Y-9804460D02*
X5732086Y-9785412D01*
X5732086Y-9785412D02*
X5732086Y-9613984D01*
X5989229Y-9813984D02*
X5989229Y-9613984D01*
X5989229Y-9613984D02*
X6055896Y-9756841D01*
X6055896Y-9756841D02*
X6122562Y-9613984D01*
X6122562Y-9613984D02*
X6122562Y-9813984D01*
X6303515Y-9813984D02*
X6303515Y-9709222D01*
X6303515Y-9709222D02*
X6293991Y-9690174D01*
X6293991Y-9690174D02*
X6274943Y-9680650D01*
X6274943Y-9680650D02*
X6236848Y-9680650D01*
X6236848Y-9680650D02*
X6217801Y-9690174D01*
X6303515Y-9804460D02*
X6284467Y-9813984D01*
X6284467Y-9813984D02*
X6236848Y-9813984D01*
X6236848Y-9813984D02*
X6217801Y-9804460D01*
X6217801Y-9804460D02*
X6208277Y-9785412D01*
X6208277Y-9785412D02*
X6208277Y-9766365D01*
X6208277Y-9766365D02*
X6217801Y-9747317D01*
X6217801Y-9747317D02*
X6236848Y-9737793D01*
X6236848Y-9737793D02*
X6284467Y-9737793D01*
X6284467Y-9737793D02*
X6303515Y-9728270D01*
X6398753Y-9680650D02*
X6398753Y-9880650D01*
X6398753Y-9690174D02*
X6417801Y-9680650D01*
X6417801Y-9680650D02*
X6455896Y-9680650D01*
X6455896Y-9680650D02*
X6474943Y-9690174D01*
X6474943Y-9690174D02*
X6484467Y-9699698D01*
X6484467Y-9699698D02*
X6493991Y-9718746D01*
X6493991Y-9718746D02*
X6493991Y-9775889D01*
X6493991Y-9775889D02*
X6484467Y-9794936D01*
X6484467Y-9794936D02*
X6474943Y-9804460D01*
X6474943Y-9804460D02*
X6455896Y-9813984D01*
X6455896Y-9813984D02*
X6417801Y-9813984D01*
X6417801Y-9813984D02*
X6398753Y-9804460D01*
X6579705Y-9794936D02*
X6589229Y-9804460D01*
X6589229Y-9804460D02*
X6579705Y-9813984D01*
X6579705Y-9813984D02*
X6570182Y-9804460D01*
X6570182Y-9804460D02*
X6579705Y-9794936D01*
X6579705Y-9794936D02*
X6579705Y-9813984D01*
X6579705Y-9690174D02*
X6589229Y-9699698D01*
X6589229Y-9699698D02*
X6579705Y-9709222D01*
X6579705Y-9709222D02*
X6570182Y-9699698D01*
X6570182Y-9699698D02*
X6579705Y-9690174D01*
X6579705Y-9690174D02*
X6579705Y-9709222D01*
D13*
X4917500Y-10127500D02*
X4947500Y-10157500D01*
X4947500Y-10127500D02*
X4917500Y-10157500D01*
D12*
X5246372Y-10033984D02*
X5265420Y-10033984D01*
X5265420Y-10033984D02*
X5284467Y-10043508D01*
X5284467Y-10043508D02*
X5293991Y-10053031D01*
X5293991Y-10053031D02*
X5303515Y-10072079D01*
X5303515Y-10072079D02*
X5313039Y-10110174D01*
X5313039Y-10110174D02*
X5313039Y-10157793D01*
X5313039Y-10157793D02*
X5303515Y-10195889D01*
X5303515Y-10195889D02*
X5293991Y-10214936D01*
X5293991Y-10214936D02*
X5284467Y-10224460D01*
X5284467Y-10224460D02*
X5265420Y-10233984D01*
X5265420Y-10233984D02*
X5246372Y-10233984D01*
X5246372Y-10233984D02*
X5227324Y-10224460D01*
X5227324Y-10224460D02*
X5217801Y-10214936D01*
X5217801Y-10214936D02*
X5208277Y-10195889D01*
X5208277Y-10195889D02*
X5198753Y-10157793D01*
X5198753Y-10157793D02*
X5198753Y-10110174D01*
X5198753Y-10110174D02*
X5208277Y-10072079D01*
X5208277Y-10072079D02*
X5217801Y-10053031D01*
X5217801Y-10053031D02*
X5227324Y-10043508D01*
X5227324Y-10043508D02*
X5246372Y-10033984D01*
X5398753Y-10214936D02*
X5408277Y-10224460D01*
X5408277Y-10224460D02*
X5398753Y-10233984D01*
X5398753Y-10233984D02*
X5389229Y-10224460D01*
X5389229Y-10224460D02*
X5398753Y-10214936D01*
X5398753Y-10214936D02*
X5398753Y-10233984D01*
X5474944Y-10033984D02*
X5598753Y-10033984D01*
X5598753Y-10033984D02*
X5532086Y-10110174D01*
X5532086Y-10110174D02*
X5560658Y-10110174D01*
X5560658Y-10110174D02*
X5579705Y-10119698D01*
X5579705Y-10119698D02*
X5589229Y-10129222D01*
X5589229Y-10129222D02*
X5598753Y-10148270D01*
X5598753Y-10148270D02*
X5598753Y-10195889D01*
X5598753Y-10195889D02*
X5589229Y-10214936D01*
X5589229Y-10214936D02*
X5579705Y-10224460D01*
X5579705Y-10224460D02*
X5560658Y-10233984D01*
X5560658Y-10233984D02*
X5503515Y-10233984D01*
X5503515Y-10233984D02*
X5484467Y-10224460D01*
X5484467Y-10224460D02*
X5474944Y-10214936D01*
X5722562Y-10033984D02*
X5741610Y-10033984D01*
X5741610Y-10033984D02*
X5760658Y-10043508D01*
X5760658Y-10043508D02*
X5770182Y-10053031D01*
X5770182Y-10053031D02*
X5779705Y-10072079D01*
X5779705Y-10072079D02*
X5789229Y-10110174D01*
X5789229Y-10110174D02*
X5789229Y-10157793D01*
X5789229Y-10157793D02*
X5779705Y-10195889D01*
X5779705Y-10195889D02*
X5770182Y-10214936D01*
X5770182Y-10214936D02*
X5760658Y-10224460D01*
X5760658Y-10224460D02*
X5741610Y-10233984D01*
X5741610Y-10233984D02*
X5722562Y-10233984D01*
X5722562Y-10233984D02*
X5703515Y-10224460D01*
X5703515Y-10224460D02*
X5693991Y-10214936D01*
X5693991Y-10214936D02*
X5684467Y-10195889D01*
X5684467Y-10195889D02*
X5674943Y-10157793D01*
X5674943Y-10157793D02*
X5674943Y-10110174D01*
X5674943Y-10110174D02*
X5684467Y-10072079D01*
X5684467Y-10072079D02*
X5693991Y-10053031D01*
X5693991Y-10053031D02*
X5703515Y-10043508D01*
X5703515Y-10043508D02*
X5722562Y-10033984D01*
X5913039Y-10033984D02*
X5932086Y-10033984D01*
X5932086Y-10033984D02*
X5951134Y-10043508D01*
X5951134Y-10043508D02*
X5960658Y-10053031D01*
X5960658Y-10053031D02*
X5970182Y-10072079D01*
X5970182Y-10072079D02*
X5979705Y-10110174D01*
X5979705Y-10110174D02*
X5979705Y-10157793D01*
X5979705Y-10157793D02*
X5970182Y-10195889D01*
X5970182Y-10195889D02*
X5960658Y-10214936D01*
X5960658Y-10214936D02*
X5951134Y-10224460D01*
X5951134Y-10224460D02*
X5932086Y-10233984D01*
X5932086Y-10233984D02*
X5913039Y-10233984D01*
X5913039Y-10233984D02*
X5893991Y-10224460D01*
X5893991Y-10224460D02*
X5884467Y-10214936D01*
X5884467Y-10214936D02*
X5874943Y-10195889D01*
X5874943Y-10195889D02*
X5865420Y-10157793D01*
X5865420Y-10157793D02*
X5865420Y-10110174D01*
X5865420Y-10110174D02*
X5874943Y-10072079D01*
X5874943Y-10072079D02*
X5884467Y-10053031D01*
X5884467Y-10053031D02*
X5893991Y-10043508D01*
X5893991Y-10043508D02*
X5913039Y-10033984D01*
X6065420Y-10233984D02*
X6065420Y-10100650D01*
X6065420Y-10119698D02*
X6074943Y-10110174D01*
X6074943Y-10110174D02*
X6093991Y-10100650D01*
X6093991Y-10100650D02*
X6122563Y-10100650D01*
X6122563Y-10100650D02*
X6141610Y-10110174D01*
X6141610Y-10110174D02*
X6151134Y-10129222D01*
X6151134Y-10129222D02*
X6151134Y-10233984D01*
X6151134Y-10129222D02*
X6160658Y-10110174D01*
X6160658Y-10110174D02*
X6179705Y-10100650D01*
X6179705Y-10100650D02*
X6208277Y-10100650D01*
X6208277Y-10100650D02*
X6227324Y-10110174D01*
X6227324Y-10110174D02*
X6236848Y-10129222D01*
X6236848Y-10129222D02*
X6236848Y-10233984D01*
X6332086Y-10233984D02*
X6332086Y-10100650D01*
X6332086Y-10119698D02*
X6341610Y-10110174D01*
X6341610Y-10110174D02*
X6360658Y-10100650D01*
X6360658Y-10100650D02*
X6389229Y-10100650D01*
X6389229Y-10100650D02*
X6408277Y-10110174D01*
X6408277Y-10110174D02*
X6417801Y-10129222D01*
X6417801Y-10129222D02*
X6417801Y-10233984D01*
X6417801Y-10129222D02*
X6427324Y-10110174D01*
X6427324Y-10110174D02*
X6446372Y-10100650D01*
X6446372Y-10100650D02*
X6474943Y-10100650D01*
X6474943Y-10100650D02*
X6493991Y-10110174D01*
X6493991Y-10110174D02*
X6503515Y-10129222D01*
X6503515Y-10129222D02*
X6503515Y-10233984D01*
X6893991Y-10024460D02*
X6722563Y-10281603D01*
X7151134Y-10033984D02*
X7170182Y-10033984D01*
X7170182Y-10033984D02*
X7189229Y-10043508D01*
X7189229Y-10043508D02*
X7198753Y-10053031D01*
X7198753Y-10053031D02*
X7208277Y-10072079D01*
X7208277Y-10072079D02*
X7217801Y-10110174D01*
X7217801Y-10110174D02*
X7217801Y-10157793D01*
X7217801Y-10157793D02*
X7208277Y-10195889D01*
X7208277Y-10195889D02*
X7198753Y-10214936D01*
X7198753Y-10214936D02*
X7189229Y-10224460D01*
X7189229Y-10224460D02*
X7170182Y-10233984D01*
X7170182Y-10233984D02*
X7151134Y-10233984D01*
X7151134Y-10233984D02*
X7132086Y-10224460D01*
X7132086Y-10224460D02*
X7122563Y-10214936D01*
X7122563Y-10214936D02*
X7113039Y-10195889D01*
X7113039Y-10195889D02*
X7103515Y-10157793D01*
X7103515Y-10157793D02*
X7103515Y-10110174D01*
X7103515Y-10110174D02*
X7113039Y-10072079D01*
X7113039Y-10072079D02*
X7122563Y-10053031D01*
X7122563Y-10053031D02*
X7132086Y-10043508D01*
X7132086Y-10043508D02*
X7151134Y-10033984D01*
X7303515Y-10214936D02*
X7313039Y-10224460D01*
X7313039Y-10224460D02*
X7303515Y-10233984D01*
X7303515Y-10233984D02*
X7293991Y-10224460D01*
X7293991Y-10224460D02*
X7303515Y-10214936D01*
X7303515Y-10214936D02*
X7303515Y-10233984D01*
X7436848Y-10033984D02*
X7455896Y-10033984D01*
X7455896Y-10033984D02*
X7474944Y-10043508D01*
X7474944Y-10043508D02*
X7484467Y-10053031D01*
X7484467Y-10053031D02*
X7493991Y-10072079D01*
X7493991Y-10072079D02*
X7503515Y-10110174D01*
X7503515Y-10110174D02*
X7503515Y-10157793D01*
X7503515Y-10157793D02*
X7493991Y-10195889D01*
X7493991Y-10195889D02*
X7484467Y-10214936D01*
X7484467Y-10214936D02*
X7474944Y-10224460D01*
X7474944Y-10224460D02*
X7455896Y-10233984D01*
X7455896Y-10233984D02*
X7436848Y-10233984D01*
X7436848Y-10233984D02*
X7417801Y-10224460D01*
X7417801Y-10224460D02*
X7408277Y-10214936D01*
X7408277Y-10214936D02*
X7398753Y-10195889D01*
X7398753Y-10195889D02*
X7389229Y-10157793D01*
X7389229Y-10157793D02*
X7389229Y-10110174D01*
X7389229Y-10110174D02*
X7398753Y-10072079D01*
X7398753Y-10072079D02*
X7408277Y-10053031D01*
X7408277Y-10053031D02*
X7417801Y-10043508D01*
X7417801Y-10043508D02*
X7436848Y-10033984D01*
X7693991Y-10233984D02*
X7579706Y-10233984D01*
X7636848Y-10233984D02*
X7636848Y-10033984D01*
X7636848Y-10033984D02*
X7617801Y-10062555D01*
X7617801Y-10062555D02*
X7598753Y-10081603D01*
X7598753Y-10081603D02*
X7579706Y-10091127D01*
X7884467Y-10233984D02*
X7770182Y-10233984D01*
X7827325Y-10233984D02*
X7827325Y-10033984D01*
X7827325Y-10033984D02*
X7808277Y-10062555D01*
X7808277Y-10062555D02*
X7789229Y-10081603D01*
X7789229Y-10081603D02*
X7770182Y-10091127D01*
X7998753Y-10119698D02*
X7979706Y-10110174D01*
X7979706Y-10110174D02*
X7970182Y-10100650D01*
X7970182Y-10100650D02*
X7960658Y-10081603D01*
X7960658Y-10081603D02*
X7960658Y-10072079D01*
X7960658Y-10072079D02*
X7970182Y-10053031D01*
X7970182Y-10053031D02*
X7979706Y-10043508D01*
X7979706Y-10043508D02*
X7998753Y-10033984D01*
X7998753Y-10033984D02*
X8036848Y-10033984D01*
X8036848Y-10033984D02*
X8055896Y-10043508D01*
X8055896Y-10043508D02*
X8065420Y-10053031D01*
X8065420Y-10053031D02*
X8074944Y-10072079D01*
X8074944Y-10072079D02*
X8074944Y-10081603D01*
X8074944Y-10081603D02*
X8065420Y-10100650D01*
X8065420Y-10100650D02*
X8055896Y-10110174D01*
X8055896Y-10110174D02*
X8036848Y-10119698D01*
X8036848Y-10119698D02*
X7998753Y-10119698D01*
X7998753Y-10119698D02*
X7979706Y-10129222D01*
X7979706Y-10129222D02*
X7970182Y-10138746D01*
X7970182Y-10138746D02*
X7960658Y-10157793D01*
X7960658Y-10157793D02*
X7960658Y-10195889D01*
X7960658Y-10195889D02*
X7970182Y-10214936D01*
X7970182Y-10214936D02*
X7979706Y-10224460D01*
X7979706Y-10224460D02*
X7998753Y-10233984D01*
X7998753Y-10233984D02*
X8036848Y-10233984D01*
X8036848Y-10233984D02*
X8055896Y-10224460D01*
X8055896Y-10224460D02*
X8065420Y-10214936D01*
X8065420Y-10214936D02*
X8074944Y-10195889D01*
X8074944Y-10195889D02*
X8074944Y-10157793D01*
X8074944Y-10157793D02*
X8065420Y-10138746D01*
X8065420Y-10138746D02*
X8055896Y-10129222D01*
X8055896Y-10129222D02*
X8036848Y-10119698D01*
X8151134Y-10033984D02*
X8151134Y-10072079D01*
X8227325Y-10033984D02*
X8227325Y-10072079D01*
X8522563Y-10310174D02*
X8513039Y-10300650D01*
X8513039Y-10300650D02*
X8493991Y-10272079D01*
X8493991Y-10272079D02*
X8484468Y-10253031D01*
X8484468Y-10253031D02*
X8474944Y-10224460D01*
X8474944Y-10224460D02*
X8465420Y-10176841D01*
X8465420Y-10176841D02*
X8465420Y-10138746D01*
X8465420Y-10138746D02*
X8474944Y-10091127D01*
X8474944Y-10091127D02*
X8484468Y-10062555D01*
X8484468Y-10062555D02*
X8493991Y-10043508D01*
X8493991Y-10043508D02*
X8513039Y-10014936D01*
X8513039Y-10014936D02*
X8522563Y-10005412D01*
X8684468Y-10100650D02*
X8684468Y-10233984D01*
X8636849Y-10024460D02*
X8589230Y-10167317D01*
X8589230Y-10167317D02*
X8713039Y-10167317D01*
X8941611Y-10233984D02*
X8941611Y-10033984D01*
X9027325Y-10233984D02*
X9027325Y-10129222D01*
X9027325Y-10129222D02*
X9017801Y-10110174D01*
X9017801Y-10110174D02*
X8998753Y-10100650D01*
X8998753Y-10100650D02*
X8970182Y-10100650D01*
X8970182Y-10100650D02*
X8951134Y-10110174D01*
X8951134Y-10110174D02*
X8941611Y-10119698D01*
X9151134Y-10233984D02*
X9132087Y-10224460D01*
X9132087Y-10224460D02*
X9122563Y-10214936D01*
X9122563Y-10214936D02*
X9113039Y-10195889D01*
X9113039Y-10195889D02*
X9113039Y-10138746D01*
X9113039Y-10138746D02*
X9122563Y-10119698D01*
X9122563Y-10119698D02*
X9132087Y-10110174D01*
X9132087Y-10110174D02*
X9151134Y-10100650D01*
X9151134Y-10100650D02*
X9179706Y-10100650D01*
X9179706Y-10100650D02*
X9198753Y-10110174D01*
X9198753Y-10110174D02*
X9208277Y-10119698D01*
X9208277Y-10119698D02*
X9217801Y-10138746D01*
X9217801Y-10138746D02*
X9217801Y-10195889D01*
X9217801Y-10195889D02*
X9208277Y-10214936D01*
X9208277Y-10214936D02*
X9198753Y-10224460D01*
X9198753Y-10224460D02*
X9179706Y-10233984D01*
X9179706Y-10233984D02*
X9151134Y-10233984D01*
X9332087Y-10233984D02*
X9313039Y-10224460D01*
X9313039Y-10224460D02*
X9303515Y-10205412D01*
X9303515Y-10205412D02*
X9303515Y-10033984D01*
X9484468Y-10224460D02*
X9465420Y-10233984D01*
X9465420Y-10233984D02*
X9427325Y-10233984D01*
X9427325Y-10233984D02*
X9408277Y-10224460D01*
X9408277Y-10224460D02*
X9398753Y-10205412D01*
X9398753Y-10205412D02*
X9398753Y-10129222D01*
X9398753Y-10129222D02*
X9408277Y-10110174D01*
X9408277Y-10110174D02*
X9427325Y-10100650D01*
X9427325Y-10100650D02*
X9465420Y-10100650D01*
X9465420Y-10100650D02*
X9484468Y-10110174D01*
X9484468Y-10110174D02*
X9493992Y-10129222D01*
X9493992Y-10129222D02*
X9493992Y-10148270D01*
X9493992Y-10148270D02*
X9398753Y-10167317D01*
X9570182Y-10224460D02*
X9589230Y-10233984D01*
X9589230Y-10233984D02*
X9627325Y-10233984D01*
X9627325Y-10233984D02*
X9646373Y-10224460D01*
X9646373Y-10224460D02*
X9655896Y-10205412D01*
X9655896Y-10205412D02*
X9655896Y-10195889D01*
X9655896Y-10195889D02*
X9646373Y-10176841D01*
X9646373Y-10176841D02*
X9627325Y-10167317D01*
X9627325Y-10167317D02*
X9598753Y-10167317D01*
X9598753Y-10167317D02*
X9579706Y-10157793D01*
X9579706Y-10157793D02*
X9570182Y-10138746D01*
X9570182Y-10138746D02*
X9570182Y-10129222D01*
X9570182Y-10129222D02*
X9579706Y-10110174D01*
X9579706Y-10110174D02*
X9598753Y-10100650D01*
X9598753Y-10100650D02*
X9627325Y-10100650D01*
X9627325Y-10100650D02*
X9646373Y-10110174D01*
X9722563Y-10310174D02*
X9732087Y-10300650D01*
X9732087Y-10300650D02*
X9751134Y-10272079D01*
X9751134Y-10272079D02*
X9760658Y-10253031D01*
X9760658Y-10253031D02*
X9770182Y-10224460D01*
X9770182Y-10224460D02*
X9779706Y-10176841D01*
X9779706Y-10176841D02*
X9779706Y-10138746D01*
X9779706Y-10138746D02*
X9770182Y-10091127D01*
X9770182Y-10091127D02*
X9760658Y-10062555D01*
X9760658Y-10062555D02*
X9751134Y-10043508D01*
X9751134Y-10043508D02*
X9732087Y-10014936D01*
X9732087Y-10014936D02*
X9722563Y-10005412D01*
D13*
X4947500Y-10406500D02*
G75*
G02*
X4852500Y-10406500I-47500J0D01*
G01*
X4852500Y-10406500D02*
G75*
G02*
X4947500Y-10406500I47500J0D01*
G01*
D12*
X5246372Y-10297984D02*
X5265420Y-10297984D01*
X5265420Y-10297984D02*
X5284467Y-10307508D01*
X5284467Y-10307508D02*
X5293991Y-10317031D01*
X5293991Y-10317031D02*
X5303515Y-10336079D01*
X5303515Y-10336079D02*
X5313039Y-10374174D01*
X5313039Y-10374174D02*
X5313039Y-10421793D01*
X5313039Y-10421793D02*
X5303515Y-10459889D01*
X5303515Y-10459889D02*
X5293991Y-10478936D01*
X5293991Y-10478936D02*
X5284467Y-10488460D01*
X5284467Y-10488460D02*
X5265420Y-10497984D01*
X5265420Y-10497984D02*
X5246372Y-10497984D01*
X5246372Y-10497984D02*
X5227324Y-10488460D01*
X5227324Y-10488460D02*
X5217801Y-10478936D01*
X5217801Y-10478936D02*
X5208277Y-10459889D01*
X5208277Y-10459889D02*
X5198753Y-10421793D01*
X5198753Y-10421793D02*
X5198753Y-10374174D01*
X5198753Y-10374174D02*
X5208277Y-10336079D01*
X5208277Y-10336079D02*
X5217801Y-10317031D01*
X5217801Y-10317031D02*
X5227324Y-10307508D01*
X5227324Y-10307508D02*
X5246372Y-10297984D01*
X5398753Y-10478936D02*
X5408277Y-10488460D01*
X5408277Y-10488460D02*
X5398753Y-10497984D01*
X5398753Y-10497984D02*
X5389229Y-10488460D01*
X5389229Y-10488460D02*
X5398753Y-10478936D01*
X5398753Y-10478936D02*
X5398753Y-10497984D01*
X5503515Y-10497984D02*
X5541610Y-10497984D01*
X5541610Y-10497984D02*
X5560658Y-10488460D01*
X5560658Y-10488460D02*
X5570182Y-10478936D01*
X5570182Y-10478936D02*
X5589229Y-10450365D01*
X5589229Y-10450365D02*
X5598753Y-10412270D01*
X5598753Y-10412270D02*
X5598753Y-10336079D01*
X5598753Y-10336079D02*
X5589229Y-10317031D01*
X5589229Y-10317031D02*
X5579705Y-10307508D01*
X5579705Y-10307508D02*
X5560658Y-10297984D01*
X5560658Y-10297984D02*
X5522563Y-10297984D01*
X5522563Y-10297984D02*
X5503515Y-10307508D01*
X5503515Y-10307508D02*
X5493991Y-10317031D01*
X5493991Y-10317031D02*
X5484467Y-10336079D01*
X5484467Y-10336079D02*
X5484467Y-10383698D01*
X5484467Y-10383698D02*
X5493991Y-10402746D01*
X5493991Y-10402746D02*
X5503515Y-10412270D01*
X5503515Y-10412270D02*
X5522563Y-10421793D01*
X5522563Y-10421793D02*
X5560658Y-10421793D01*
X5560658Y-10421793D02*
X5579705Y-10412270D01*
X5579705Y-10412270D02*
X5589229Y-10402746D01*
X5589229Y-10402746D02*
X5598753Y-10383698D01*
X5779705Y-10297984D02*
X5684467Y-10297984D01*
X5684467Y-10297984D02*
X5674943Y-10393222D01*
X5674943Y-10393222D02*
X5684467Y-10383698D01*
X5684467Y-10383698D02*
X5703515Y-10374174D01*
X5703515Y-10374174D02*
X5751134Y-10374174D01*
X5751134Y-10374174D02*
X5770182Y-10383698D01*
X5770182Y-10383698D02*
X5779705Y-10393222D01*
X5779705Y-10393222D02*
X5789229Y-10412270D01*
X5789229Y-10412270D02*
X5789229Y-10459889D01*
X5789229Y-10459889D02*
X5779705Y-10478936D01*
X5779705Y-10478936D02*
X5770182Y-10488460D01*
X5770182Y-10488460D02*
X5751134Y-10497984D01*
X5751134Y-10497984D02*
X5703515Y-10497984D01*
X5703515Y-10497984D02*
X5684467Y-10488460D01*
X5684467Y-10488460D02*
X5674943Y-10478936D01*
X5913039Y-10297984D02*
X5932086Y-10297984D01*
X5932086Y-10297984D02*
X5951134Y-10307508D01*
X5951134Y-10307508D02*
X5960658Y-10317031D01*
X5960658Y-10317031D02*
X5970182Y-10336079D01*
X5970182Y-10336079D02*
X5979705Y-10374174D01*
X5979705Y-10374174D02*
X5979705Y-10421793D01*
X5979705Y-10421793D02*
X5970182Y-10459889D01*
X5970182Y-10459889D02*
X5960658Y-10478936D01*
X5960658Y-10478936D02*
X5951134Y-10488460D01*
X5951134Y-10488460D02*
X5932086Y-10497984D01*
X5932086Y-10497984D02*
X5913039Y-10497984D01*
X5913039Y-10497984D02*
X5893991Y-10488460D01*
X5893991Y-10488460D02*
X5884467Y-10478936D01*
X5884467Y-10478936D02*
X5874943Y-10459889D01*
X5874943Y-10459889D02*
X5865420Y-10421793D01*
X5865420Y-10421793D02*
X5865420Y-10374174D01*
X5865420Y-10374174D02*
X5874943Y-10336079D01*
X5874943Y-10336079D02*
X5884467Y-10317031D01*
X5884467Y-10317031D02*
X5893991Y-10307508D01*
X5893991Y-10307508D02*
X5913039Y-10297984D01*
X6065420Y-10497984D02*
X6065420Y-10364650D01*
X6065420Y-10383698D02*
X6074943Y-10374174D01*
X6074943Y-10374174D02*
X6093991Y-10364650D01*
X6093991Y-10364650D02*
X6122563Y-10364650D01*
X6122563Y-10364650D02*
X6141610Y-10374174D01*
X6141610Y-10374174D02*
X6151134Y-10393222D01*
X6151134Y-10393222D02*
X6151134Y-10497984D01*
X6151134Y-10393222D02*
X6160658Y-10374174D01*
X6160658Y-10374174D02*
X6179705Y-10364650D01*
X6179705Y-10364650D02*
X6208277Y-10364650D01*
X6208277Y-10364650D02*
X6227324Y-10374174D01*
X6227324Y-10374174D02*
X6236848Y-10393222D01*
X6236848Y-10393222D02*
X6236848Y-10497984D01*
X6332086Y-10497984D02*
X6332086Y-10364650D01*
X6332086Y-10383698D02*
X6341610Y-10374174D01*
X6341610Y-10374174D02*
X6360658Y-10364650D01*
X6360658Y-10364650D02*
X6389229Y-10364650D01*
X6389229Y-10364650D02*
X6408277Y-10374174D01*
X6408277Y-10374174D02*
X6417801Y-10393222D01*
X6417801Y-10393222D02*
X6417801Y-10497984D01*
X6417801Y-10393222D02*
X6427324Y-10374174D01*
X6427324Y-10374174D02*
X6446372Y-10364650D01*
X6446372Y-10364650D02*
X6474943Y-10364650D01*
X6474943Y-10364650D02*
X6493991Y-10374174D01*
X6493991Y-10374174D02*
X6503515Y-10393222D01*
X6503515Y-10393222D02*
X6503515Y-10497984D01*
X6893991Y-10288460D02*
X6722563Y-10545603D01*
X7151134Y-10297984D02*
X7170182Y-10297984D01*
X7170182Y-10297984D02*
X7189229Y-10307508D01*
X7189229Y-10307508D02*
X7198753Y-10317031D01*
X7198753Y-10317031D02*
X7208277Y-10336079D01*
X7208277Y-10336079D02*
X7217801Y-10374174D01*
X7217801Y-10374174D02*
X7217801Y-10421793D01*
X7217801Y-10421793D02*
X7208277Y-10459889D01*
X7208277Y-10459889D02*
X7198753Y-10478936D01*
X7198753Y-10478936D02*
X7189229Y-10488460D01*
X7189229Y-10488460D02*
X7170182Y-10497984D01*
X7170182Y-10497984D02*
X7151134Y-10497984D01*
X7151134Y-10497984D02*
X7132086Y-10488460D01*
X7132086Y-10488460D02*
X7122563Y-10478936D01*
X7122563Y-10478936D02*
X7113039Y-10459889D01*
X7113039Y-10459889D02*
X7103515Y-10421793D01*
X7103515Y-10421793D02*
X7103515Y-10374174D01*
X7103515Y-10374174D02*
X7113039Y-10336079D01*
X7113039Y-10336079D02*
X7122563Y-10317031D01*
X7122563Y-10317031D02*
X7132086Y-10307508D01*
X7132086Y-10307508D02*
X7151134Y-10297984D01*
X7303515Y-10478936D02*
X7313039Y-10488460D01*
X7313039Y-10488460D02*
X7303515Y-10497984D01*
X7303515Y-10497984D02*
X7293991Y-10488460D01*
X7293991Y-10488460D02*
X7303515Y-10478936D01*
X7303515Y-10478936D02*
X7303515Y-10497984D01*
X7436848Y-10297984D02*
X7455896Y-10297984D01*
X7455896Y-10297984D02*
X7474944Y-10307508D01*
X7474944Y-10307508D02*
X7484467Y-10317031D01*
X7484467Y-10317031D02*
X7493991Y-10336079D01*
X7493991Y-10336079D02*
X7503515Y-10374174D01*
X7503515Y-10374174D02*
X7503515Y-10421793D01*
X7503515Y-10421793D02*
X7493991Y-10459889D01*
X7493991Y-10459889D02*
X7484467Y-10478936D01*
X7484467Y-10478936D02*
X7474944Y-10488460D01*
X7474944Y-10488460D02*
X7455896Y-10497984D01*
X7455896Y-10497984D02*
X7436848Y-10497984D01*
X7436848Y-10497984D02*
X7417801Y-10488460D01*
X7417801Y-10488460D02*
X7408277Y-10478936D01*
X7408277Y-10478936D02*
X7398753Y-10459889D01*
X7398753Y-10459889D02*
X7389229Y-10421793D01*
X7389229Y-10421793D02*
X7389229Y-10374174D01*
X7389229Y-10374174D02*
X7398753Y-10336079D01*
X7398753Y-10336079D02*
X7408277Y-10317031D01*
X7408277Y-10317031D02*
X7417801Y-10307508D01*
X7417801Y-10307508D02*
X7436848Y-10297984D01*
X7570182Y-10297984D02*
X7693991Y-10297984D01*
X7693991Y-10297984D02*
X7627325Y-10374174D01*
X7627325Y-10374174D02*
X7655896Y-10374174D01*
X7655896Y-10374174D02*
X7674944Y-10383698D01*
X7674944Y-10383698D02*
X7684467Y-10393222D01*
X7684467Y-10393222D02*
X7693991Y-10412270D01*
X7693991Y-10412270D02*
X7693991Y-10459889D01*
X7693991Y-10459889D02*
X7684467Y-10478936D01*
X7684467Y-10478936D02*
X7674944Y-10488460D01*
X7674944Y-10488460D02*
X7655896Y-10497984D01*
X7655896Y-10497984D02*
X7598753Y-10497984D01*
X7598753Y-10497984D02*
X7579706Y-10488460D01*
X7579706Y-10488460D02*
X7570182Y-10478936D01*
X7760658Y-10297984D02*
X7893991Y-10297984D01*
X7893991Y-10297984D02*
X7808277Y-10497984D01*
X8055896Y-10364650D02*
X8055896Y-10497984D01*
X8008277Y-10288460D02*
X7960658Y-10431317D01*
X7960658Y-10431317D02*
X8084467Y-10431317D01*
X8151134Y-10297984D02*
X8151134Y-10336079D01*
X8227325Y-10297984D02*
X8227325Y-10336079D01*
X8522563Y-10574174D02*
X8513039Y-10564650D01*
X8513039Y-10564650D02*
X8493991Y-10536079D01*
X8493991Y-10536079D02*
X8484468Y-10517031D01*
X8484468Y-10517031D02*
X8474944Y-10488460D01*
X8474944Y-10488460D02*
X8465420Y-10440841D01*
X8465420Y-10440841D02*
X8465420Y-10402746D01*
X8465420Y-10402746D02*
X8474944Y-10355127D01*
X8474944Y-10355127D02*
X8484468Y-10326555D01*
X8484468Y-10326555D02*
X8493991Y-10307508D01*
X8493991Y-10307508D02*
X8513039Y-10278936D01*
X8513039Y-10278936D02*
X8522563Y-10269412D01*
X8579706Y-10297984D02*
X8703515Y-10297984D01*
X8703515Y-10297984D02*
X8636849Y-10374174D01*
X8636849Y-10374174D02*
X8665420Y-10374174D01*
X8665420Y-10374174D02*
X8684468Y-10383698D01*
X8684468Y-10383698D02*
X8693991Y-10393222D01*
X8693991Y-10393222D02*
X8703515Y-10412270D01*
X8703515Y-10412270D02*
X8703515Y-10459889D01*
X8703515Y-10459889D02*
X8693991Y-10478936D01*
X8693991Y-10478936D02*
X8684468Y-10488460D01*
X8684468Y-10488460D02*
X8665420Y-10497984D01*
X8665420Y-10497984D02*
X8608277Y-10497984D01*
X8608277Y-10497984D02*
X8589230Y-10488460D01*
X8589230Y-10488460D02*
X8579706Y-10478936D01*
X8874944Y-10297984D02*
X8836849Y-10297984D01*
X8836849Y-10297984D02*
X8817801Y-10307508D01*
X8817801Y-10307508D02*
X8808277Y-10317031D01*
X8808277Y-10317031D02*
X8789230Y-10345603D01*
X8789230Y-10345603D02*
X8779706Y-10383698D01*
X8779706Y-10383698D02*
X8779706Y-10459889D01*
X8779706Y-10459889D02*
X8789230Y-10478936D01*
X8789230Y-10478936D02*
X8798753Y-10488460D01*
X8798753Y-10488460D02*
X8817801Y-10497984D01*
X8817801Y-10497984D02*
X8855896Y-10497984D01*
X8855896Y-10497984D02*
X8874944Y-10488460D01*
X8874944Y-10488460D02*
X8884468Y-10478936D01*
X8884468Y-10478936D02*
X8893991Y-10459889D01*
X8893991Y-10459889D02*
X8893991Y-10412270D01*
X8893991Y-10412270D02*
X8884468Y-10393222D01*
X8884468Y-10393222D02*
X8874944Y-10383698D01*
X8874944Y-10383698D02*
X8855896Y-10374174D01*
X8855896Y-10374174D02*
X8817801Y-10374174D01*
X8817801Y-10374174D02*
X8798753Y-10383698D01*
X8798753Y-10383698D02*
X8789230Y-10393222D01*
X8789230Y-10393222D02*
X8779706Y-10412270D01*
X9132087Y-10497984D02*
X9132087Y-10297984D01*
X9217801Y-10497984D02*
X9217801Y-10393222D01*
X9217801Y-10393222D02*
X9208277Y-10374174D01*
X9208277Y-10374174D02*
X9189230Y-10364650D01*
X9189230Y-10364650D02*
X9160658Y-10364650D01*
X9160658Y-10364650D02*
X9141611Y-10374174D01*
X9141611Y-10374174D02*
X9132087Y-10383698D01*
X9341611Y-10497984D02*
X9322563Y-10488460D01*
X9322563Y-10488460D02*
X9313039Y-10478936D01*
X9313039Y-10478936D02*
X9303515Y-10459889D01*
X9303515Y-10459889D02*
X9303515Y-10402746D01*
X9303515Y-10402746D02*
X9313039Y-10383698D01*
X9313039Y-10383698D02*
X9322563Y-10374174D01*
X9322563Y-10374174D02*
X9341611Y-10364650D01*
X9341611Y-10364650D02*
X9370182Y-10364650D01*
X9370182Y-10364650D02*
X9389230Y-10374174D01*
X9389230Y-10374174D02*
X9398753Y-10383698D01*
X9398753Y-10383698D02*
X9408277Y-10402746D01*
X9408277Y-10402746D02*
X9408277Y-10459889D01*
X9408277Y-10459889D02*
X9398753Y-10478936D01*
X9398753Y-10478936D02*
X9389230Y-10488460D01*
X9389230Y-10488460D02*
X9370182Y-10497984D01*
X9370182Y-10497984D02*
X9341611Y-10497984D01*
X9522563Y-10497984D02*
X9503515Y-10488460D01*
X9503515Y-10488460D02*
X9493992Y-10469412D01*
X9493992Y-10469412D02*
X9493992Y-10297984D01*
X9674944Y-10488460D02*
X9655896Y-10497984D01*
X9655896Y-10497984D02*
X9617801Y-10497984D01*
X9617801Y-10497984D02*
X9598753Y-10488460D01*
X9598753Y-10488460D02*
X9589230Y-10469412D01*
X9589230Y-10469412D02*
X9589230Y-10393222D01*
X9589230Y-10393222D02*
X9598753Y-10374174D01*
X9598753Y-10374174D02*
X9617801Y-10364650D01*
X9617801Y-10364650D02*
X9655896Y-10364650D01*
X9655896Y-10364650D02*
X9674944Y-10374174D01*
X9674944Y-10374174D02*
X9684468Y-10393222D01*
X9684468Y-10393222D02*
X9684468Y-10412270D01*
X9684468Y-10412270D02*
X9589230Y-10431317D01*
X9760658Y-10488460D02*
X9779706Y-10497984D01*
X9779706Y-10497984D02*
X9817801Y-10497984D01*
X9817801Y-10497984D02*
X9836849Y-10488460D01*
X9836849Y-10488460D02*
X9846373Y-10469412D01*
X9846373Y-10469412D02*
X9846373Y-10459889D01*
X9846373Y-10459889D02*
X9836849Y-10440841D01*
X9836849Y-10440841D02*
X9817801Y-10431317D01*
X9817801Y-10431317D02*
X9789230Y-10431317D01*
X9789230Y-10431317D02*
X9770182Y-10421793D01*
X9770182Y-10421793D02*
X9760658Y-10402746D01*
X9760658Y-10402746D02*
X9760658Y-10393222D01*
X9760658Y-10393222D02*
X9770182Y-10374174D01*
X9770182Y-10374174D02*
X9789230Y-10364650D01*
X9789230Y-10364650D02*
X9817801Y-10364650D01*
X9817801Y-10364650D02*
X9836849Y-10374174D01*
X9913039Y-10574174D02*
X9922563Y-10564650D01*
X9922563Y-10564650D02*
X9941611Y-10536079D01*
X9941611Y-10536079D02*
X9951134Y-10517031D01*
X9951134Y-10517031D02*
X9960658Y-10488460D01*
X9960658Y-10488460D02*
X9970182Y-10440841D01*
X9970182Y-10440841D02*
X9970182Y-10402746D01*
X9970182Y-10402746D02*
X9960658Y-10355127D01*
X9960658Y-10355127D02*
X9951134Y-10326555D01*
X9951134Y-10326555D02*
X9941611Y-10307508D01*
X9941611Y-10307508D02*
X9922563Y-10278936D01*
X9922563Y-10278936D02*
X9913039Y-10269412D01*
D11*
X4887500Y-10610500D02*
X4887500Y-10730500D01*
X4827500Y-10670500D02*
X4947500Y-10670500D01*
D12*
X5313039Y-10761984D02*
X5198753Y-10761984D01*
X5255896Y-10761984D02*
X5255896Y-10561984D01*
X5255896Y-10561984D02*
X5236848Y-10590555D01*
X5236848Y-10590555D02*
X5217801Y-10609603D01*
X5217801Y-10609603D02*
X5198753Y-10619127D01*
X5398753Y-10742936D02*
X5408277Y-10752460D01*
X5408277Y-10752460D02*
X5398753Y-10761984D01*
X5398753Y-10761984D02*
X5389229Y-10752460D01*
X5389229Y-10752460D02*
X5398753Y-10742936D01*
X5398753Y-10742936D02*
X5398753Y-10761984D01*
X5484467Y-10581031D02*
X5493991Y-10571508D01*
X5493991Y-10571508D02*
X5513039Y-10561984D01*
X5513039Y-10561984D02*
X5560658Y-10561984D01*
X5560658Y-10561984D02*
X5579705Y-10571508D01*
X5579705Y-10571508D02*
X5589229Y-10581031D01*
X5589229Y-10581031D02*
X5598753Y-10600079D01*
X5598753Y-10600079D02*
X5598753Y-10619127D01*
X5598753Y-10619127D02*
X5589229Y-10647698D01*
X5589229Y-10647698D02*
X5474944Y-10761984D01*
X5474944Y-10761984D02*
X5598753Y-10761984D01*
X5722562Y-10561984D02*
X5741610Y-10561984D01*
X5741610Y-10561984D02*
X5760658Y-10571508D01*
X5760658Y-10571508D02*
X5770182Y-10581031D01*
X5770182Y-10581031D02*
X5779705Y-10600079D01*
X5779705Y-10600079D02*
X5789229Y-10638174D01*
X5789229Y-10638174D02*
X5789229Y-10685793D01*
X5789229Y-10685793D02*
X5779705Y-10723889D01*
X5779705Y-10723889D02*
X5770182Y-10742936D01*
X5770182Y-10742936D02*
X5760658Y-10752460D01*
X5760658Y-10752460D02*
X5741610Y-10761984D01*
X5741610Y-10761984D02*
X5722562Y-10761984D01*
X5722562Y-10761984D02*
X5703515Y-10752460D01*
X5703515Y-10752460D02*
X5693991Y-10742936D01*
X5693991Y-10742936D02*
X5684467Y-10723889D01*
X5684467Y-10723889D02*
X5674943Y-10685793D01*
X5674943Y-10685793D02*
X5674943Y-10638174D01*
X5674943Y-10638174D02*
X5684467Y-10600079D01*
X5684467Y-10600079D02*
X5693991Y-10581031D01*
X5693991Y-10581031D02*
X5703515Y-10571508D01*
X5703515Y-10571508D02*
X5722562Y-10561984D01*
X5913039Y-10561984D02*
X5932086Y-10561984D01*
X5932086Y-10561984D02*
X5951134Y-10571508D01*
X5951134Y-10571508D02*
X5960658Y-10581031D01*
X5960658Y-10581031D02*
X5970182Y-10600079D01*
X5970182Y-10600079D02*
X5979705Y-10638174D01*
X5979705Y-10638174D02*
X5979705Y-10685793D01*
X5979705Y-10685793D02*
X5970182Y-10723889D01*
X5970182Y-10723889D02*
X5960658Y-10742936D01*
X5960658Y-10742936D02*
X5951134Y-10752460D01*
X5951134Y-10752460D02*
X5932086Y-10761984D01*
X5932086Y-10761984D02*
X5913039Y-10761984D01*
X5913039Y-10761984D02*
X5893991Y-10752460D01*
X5893991Y-10752460D02*
X5884467Y-10742936D01*
X5884467Y-10742936D02*
X5874943Y-10723889D01*
X5874943Y-10723889D02*
X5865420Y-10685793D01*
X5865420Y-10685793D02*
X5865420Y-10638174D01*
X5865420Y-10638174D02*
X5874943Y-10600079D01*
X5874943Y-10600079D02*
X5884467Y-10581031D01*
X5884467Y-10581031D02*
X5893991Y-10571508D01*
X5893991Y-10571508D02*
X5913039Y-10561984D01*
X6065420Y-10761984D02*
X6065420Y-10628650D01*
X6065420Y-10647698D02*
X6074943Y-10638174D01*
X6074943Y-10638174D02*
X6093991Y-10628650D01*
X6093991Y-10628650D02*
X6122563Y-10628650D01*
X6122563Y-10628650D02*
X6141610Y-10638174D01*
X6141610Y-10638174D02*
X6151134Y-10657222D01*
X6151134Y-10657222D02*
X6151134Y-10761984D01*
X6151134Y-10657222D02*
X6160658Y-10638174D01*
X6160658Y-10638174D02*
X6179705Y-10628650D01*
X6179705Y-10628650D02*
X6208277Y-10628650D01*
X6208277Y-10628650D02*
X6227324Y-10638174D01*
X6227324Y-10638174D02*
X6236848Y-10657222D01*
X6236848Y-10657222D02*
X6236848Y-10761984D01*
X6332086Y-10761984D02*
X6332086Y-10628650D01*
X6332086Y-10647698D02*
X6341610Y-10638174D01*
X6341610Y-10638174D02*
X6360658Y-10628650D01*
X6360658Y-10628650D02*
X6389229Y-10628650D01*
X6389229Y-10628650D02*
X6408277Y-10638174D01*
X6408277Y-10638174D02*
X6417801Y-10657222D01*
X6417801Y-10657222D02*
X6417801Y-10761984D01*
X6417801Y-10657222D02*
X6427324Y-10638174D01*
X6427324Y-10638174D02*
X6446372Y-10628650D01*
X6446372Y-10628650D02*
X6474943Y-10628650D01*
X6474943Y-10628650D02*
X6493991Y-10638174D01*
X6493991Y-10638174D02*
X6503515Y-10657222D01*
X6503515Y-10657222D02*
X6503515Y-10761984D01*
X6893991Y-10552460D02*
X6722563Y-10809603D01*
X7151134Y-10561984D02*
X7170182Y-10561984D01*
X7170182Y-10561984D02*
X7189229Y-10571508D01*
X7189229Y-10571508D02*
X7198753Y-10581031D01*
X7198753Y-10581031D02*
X7208277Y-10600079D01*
X7208277Y-10600079D02*
X7217801Y-10638174D01*
X7217801Y-10638174D02*
X7217801Y-10685793D01*
X7217801Y-10685793D02*
X7208277Y-10723889D01*
X7208277Y-10723889D02*
X7198753Y-10742936D01*
X7198753Y-10742936D02*
X7189229Y-10752460D01*
X7189229Y-10752460D02*
X7170182Y-10761984D01*
X7170182Y-10761984D02*
X7151134Y-10761984D01*
X7151134Y-10761984D02*
X7132086Y-10752460D01*
X7132086Y-10752460D02*
X7122563Y-10742936D01*
X7122563Y-10742936D02*
X7113039Y-10723889D01*
X7113039Y-10723889D02*
X7103515Y-10685793D01*
X7103515Y-10685793D02*
X7103515Y-10638174D01*
X7103515Y-10638174D02*
X7113039Y-10600079D01*
X7113039Y-10600079D02*
X7122563Y-10581031D01*
X7122563Y-10581031D02*
X7132086Y-10571508D01*
X7132086Y-10571508D02*
X7151134Y-10561984D01*
X7303515Y-10742936D02*
X7313039Y-10752460D01*
X7313039Y-10752460D02*
X7303515Y-10761984D01*
X7303515Y-10761984D02*
X7293991Y-10752460D01*
X7293991Y-10752460D02*
X7303515Y-10742936D01*
X7303515Y-10742936D02*
X7303515Y-10761984D01*
X7436848Y-10561984D02*
X7455896Y-10561984D01*
X7455896Y-10561984D02*
X7474944Y-10571508D01*
X7474944Y-10571508D02*
X7484467Y-10581031D01*
X7484467Y-10581031D02*
X7493991Y-10600079D01*
X7493991Y-10600079D02*
X7503515Y-10638174D01*
X7503515Y-10638174D02*
X7503515Y-10685793D01*
X7503515Y-10685793D02*
X7493991Y-10723889D01*
X7493991Y-10723889D02*
X7484467Y-10742936D01*
X7484467Y-10742936D02*
X7474944Y-10752460D01*
X7474944Y-10752460D02*
X7455896Y-10761984D01*
X7455896Y-10761984D02*
X7436848Y-10761984D01*
X7436848Y-10761984D02*
X7417801Y-10752460D01*
X7417801Y-10752460D02*
X7408277Y-10742936D01*
X7408277Y-10742936D02*
X7398753Y-10723889D01*
X7398753Y-10723889D02*
X7389229Y-10685793D01*
X7389229Y-10685793D02*
X7389229Y-10638174D01*
X7389229Y-10638174D02*
X7398753Y-10600079D01*
X7398753Y-10600079D02*
X7408277Y-10581031D01*
X7408277Y-10581031D02*
X7417801Y-10571508D01*
X7417801Y-10571508D02*
X7436848Y-10561984D01*
X7674944Y-10628650D02*
X7674944Y-10761984D01*
X7627325Y-10552460D02*
X7579706Y-10695317D01*
X7579706Y-10695317D02*
X7703515Y-10695317D01*
X7760658Y-10561984D02*
X7893991Y-10561984D01*
X7893991Y-10561984D02*
X7808277Y-10761984D01*
X7960658Y-10581031D02*
X7970182Y-10571508D01*
X7970182Y-10571508D02*
X7989229Y-10561984D01*
X7989229Y-10561984D02*
X8036848Y-10561984D01*
X8036848Y-10561984D02*
X8055896Y-10571508D01*
X8055896Y-10571508D02*
X8065420Y-10581031D01*
X8065420Y-10581031D02*
X8074944Y-10600079D01*
X8074944Y-10600079D02*
X8074944Y-10619127D01*
X8074944Y-10619127D02*
X8065420Y-10647698D01*
X8065420Y-10647698D02*
X7951134Y-10761984D01*
X7951134Y-10761984D02*
X8074944Y-10761984D01*
X8151134Y-10561984D02*
X8151134Y-10600079D01*
X8227325Y-10561984D02*
X8227325Y-10600079D01*
X8522563Y-10838174D02*
X8513039Y-10828650D01*
X8513039Y-10828650D02*
X8493991Y-10800079D01*
X8493991Y-10800079D02*
X8484468Y-10781031D01*
X8484468Y-10781031D02*
X8474944Y-10752460D01*
X8474944Y-10752460D02*
X8465420Y-10704841D01*
X8465420Y-10704841D02*
X8465420Y-10666746D01*
X8465420Y-10666746D02*
X8474944Y-10619127D01*
X8474944Y-10619127D02*
X8484468Y-10590555D01*
X8484468Y-10590555D02*
X8493991Y-10571508D01*
X8493991Y-10571508D02*
X8513039Y-10542936D01*
X8513039Y-10542936D02*
X8522563Y-10533412D01*
X8684468Y-10628650D02*
X8684468Y-10761984D01*
X8636849Y-10552460D02*
X8589230Y-10695317D01*
X8589230Y-10695317D02*
X8713039Y-10695317D01*
X8941611Y-10761984D02*
X8941611Y-10561984D01*
X9027325Y-10761984D02*
X9027325Y-10657222D01*
X9027325Y-10657222D02*
X9017801Y-10638174D01*
X9017801Y-10638174D02*
X8998753Y-10628650D01*
X8998753Y-10628650D02*
X8970182Y-10628650D01*
X8970182Y-10628650D02*
X8951134Y-10638174D01*
X8951134Y-10638174D02*
X8941611Y-10647698D01*
X9151134Y-10761984D02*
X9132087Y-10752460D01*
X9132087Y-10752460D02*
X9122563Y-10742936D01*
X9122563Y-10742936D02*
X9113039Y-10723889D01*
X9113039Y-10723889D02*
X9113039Y-10666746D01*
X9113039Y-10666746D02*
X9122563Y-10647698D01*
X9122563Y-10647698D02*
X9132087Y-10638174D01*
X9132087Y-10638174D02*
X9151134Y-10628650D01*
X9151134Y-10628650D02*
X9179706Y-10628650D01*
X9179706Y-10628650D02*
X9198753Y-10638174D01*
X9198753Y-10638174D02*
X9208277Y-10647698D01*
X9208277Y-10647698D02*
X9217801Y-10666746D01*
X9217801Y-10666746D02*
X9217801Y-10723889D01*
X9217801Y-10723889D02*
X9208277Y-10742936D01*
X9208277Y-10742936D02*
X9198753Y-10752460D01*
X9198753Y-10752460D02*
X9179706Y-10761984D01*
X9179706Y-10761984D02*
X9151134Y-10761984D01*
X9332087Y-10761984D02*
X9313039Y-10752460D01*
X9313039Y-10752460D02*
X9303515Y-10733412D01*
X9303515Y-10733412D02*
X9303515Y-10561984D01*
X9484468Y-10752460D02*
X9465420Y-10761984D01*
X9465420Y-10761984D02*
X9427325Y-10761984D01*
X9427325Y-10761984D02*
X9408277Y-10752460D01*
X9408277Y-10752460D02*
X9398753Y-10733412D01*
X9398753Y-10733412D02*
X9398753Y-10657222D01*
X9398753Y-10657222D02*
X9408277Y-10638174D01*
X9408277Y-10638174D02*
X9427325Y-10628650D01*
X9427325Y-10628650D02*
X9465420Y-10628650D01*
X9465420Y-10628650D02*
X9484468Y-10638174D01*
X9484468Y-10638174D02*
X9493992Y-10657222D01*
X9493992Y-10657222D02*
X9493992Y-10676270D01*
X9493992Y-10676270D02*
X9398753Y-10695317D01*
X9570182Y-10752460D02*
X9589230Y-10761984D01*
X9589230Y-10761984D02*
X9627325Y-10761984D01*
X9627325Y-10761984D02*
X9646373Y-10752460D01*
X9646373Y-10752460D02*
X9655896Y-10733412D01*
X9655896Y-10733412D02*
X9655896Y-10723889D01*
X9655896Y-10723889D02*
X9646373Y-10704841D01*
X9646373Y-10704841D02*
X9627325Y-10695317D01*
X9627325Y-10695317D02*
X9598753Y-10695317D01*
X9598753Y-10695317D02*
X9579706Y-10685793D01*
X9579706Y-10685793D02*
X9570182Y-10666746D01*
X9570182Y-10666746D02*
X9570182Y-10657222D01*
X9570182Y-10657222D02*
X9579706Y-10638174D01*
X9579706Y-10638174D02*
X9598753Y-10628650D01*
X9598753Y-10628650D02*
X9627325Y-10628650D01*
X9627325Y-10628650D02*
X9646373Y-10638174D01*
X9722563Y-10838174D02*
X9732087Y-10828650D01*
X9732087Y-10828650D02*
X9751134Y-10800079D01*
X9751134Y-10800079D02*
X9760658Y-10781031D01*
X9760658Y-10781031D02*
X9770182Y-10752460D01*
X9770182Y-10752460D02*
X9779706Y-10704841D01*
X9779706Y-10704841D02*
X9779706Y-10666746D01*
X9779706Y-10666746D02*
X9770182Y-10619127D01*
X9770182Y-10619127D02*
X9760658Y-10590555D01*
X9760658Y-10590555D02*
X9751134Y-10571508D01*
X9751134Y-10571508D02*
X9732087Y-10542936D01*
X9732087Y-10542936D02*
X9722563Y-10533412D01*
D14*
X4928462Y-10980462D02*
X4928462Y-10888538D01*
X4836538Y-10888538D01*
X4836538Y-10980462D01*
X4928462Y-10980462D01*
D12*
X5313039Y-11025984D02*
X5198753Y-11025984D01*
X5255896Y-11025984D02*
X5255896Y-10825984D01*
X5255896Y-10825984D02*
X5236848Y-10854555D01*
X5236848Y-10854555D02*
X5217801Y-10873603D01*
X5217801Y-10873603D02*
X5198753Y-10883127D01*
X5398753Y-11006936D02*
X5408277Y-11016460D01*
X5408277Y-11016460D02*
X5398753Y-11025984D01*
X5398753Y-11025984D02*
X5389229Y-11016460D01*
X5389229Y-11016460D02*
X5398753Y-11006936D01*
X5398753Y-11006936D02*
X5398753Y-11025984D01*
X5474944Y-10825984D02*
X5598753Y-10825984D01*
X5598753Y-10825984D02*
X5532086Y-10902174D01*
X5532086Y-10902174D02*
X5560658Y-10902174D01*
X5560658Y-10902174D02*
X5579705Y-10911698D01*
X5579705Y-10911698D02*
X5589229Y-10921222D01*
X5589229Y-10921222D02*
X5598753Y-10940270D01*
X5598753Y-10940270D02*
X5598753Y-10987889D01*
X5598753Y-10987889D02*
X5589229Y-11006936D01*
X5589229Y-11006936D02*
X5579705Y-11016460D01*
X5579705Y-11016460D02*
X5560658Y-11025984D01*
X5560658Y-11025984D02*
X5503515Y-11025984D01*
X5503515Y-11025984D02*
X5484467Y-11016460D01*
X5484467Y-11016460D02*
X5474944Y-11006936D01*
X5722562Y-10825984D02*
X5741610Y-10825984D01*
X5741610Y-10825984D02*
X5760658Y-10835508D01*
X5760658Y-10835508D02*
X5770182Y-10845031D01*
X5770182Y-10845031D02*
X5779705Y-10864079D01*
X5779705Y-10864079D02*
X5789229Y-10902174D01*
X5789229Y-10902174D02*
X5789229Y-10949793D01*
X5789229Y-10949793D02*
X5779705Y-10987889D01*
X5779705Y-10987889D02*
X5770182Y-11006936D01*
X5770182Y-11006936D02*
X5760658Y-11016460D01*
X5760658Y-11016460D02*
X5741610Y-11025984D01*
X5741610Y-11025984D02*
X5722562Y-11025984D01*
X5722562Y-11025984D02*
X5703515Y-11016460D01*
X5703515Y-11016460D02*
X5693991Y-11006936D01*
X5693991Y-11006936D02*
X5684467Y-10987889D01*
X5684467Y-10987889D02*
X5674943Y-10949793D01*
X5674943Y-10949793D02*
X5674943Y-10902174D01*
X5674943Y-10902174D02*
X5684467Y-10864079D01*
X5684467Y-10864079D02*
X5693991Y-10845031D01*
X5693991Y-10845031D02*
X5703515Y-10835508D01*
X5703515Y-10835508D02*
X5722562Y-10825984D01*
X5913039Y-10825984D02*
X5932086Y-10825984D01*
X5932086Y-10825984D02*
X5951134Y-10835508D01*
X5951134Y-10835508D02*
X5960658Y-10845031D01*
X5960658Y-10845031D02*
X5970182Y-10864079D01*
X5970182Y-10864079D02*
X5979705Y-10902174D01*
X5979705Y-10902174D02*
X5979705Y-10949793D01*
X5979705Y-10949793D02*
X5970182Y-10987889D01*
X5970182Y-10987889D02*
X5960658Y-11006936D01*
X5960658Y-11006936D02*
X5951134Y-11016460D01*
X5951134Y-11016460D02*
X5932086Y-11025984D01*
X5932086Y-11025984D02*
X5913039Y-11025984D01*
X5913039Y-11025984D02*
X5893991Y-11016460D01*
X5893991Y-11016460D02*
X5884467Y-11006936D01*
X5884467Y-11006936D02*
X5874943Y-10987889D01*
X5874943Y-10987889D02*
X5865420Y-10949793D01*
X5865420Y-10949793D02*
X5865420Y-10902174D01*
X5865420Y-10902174D02*
X5874943Y-10864079D01*
X5874943Y-10864079D02*
X5884467Y-10845031D01*
X5884467Y-10845031D02*
X5893991Y-10835508D01*
X5893991Y-10835508D02*
X5913039Y-10825984D01*
X6065420Y-11025984D02*
X6065420Y-10892650D01*
X6065420Y-10911698D02*
X6074943Y-10902174D01*
X6074943Y-10902174D02*
X6093991Y-10892650D01*
X6093991Y-10892650D02*
X6122563Y-10892650D01*
X6122563Y-10892650D02*
X6141610Y-10902174D01*
X6141610Y-10902174D02*
X6151134Y-10921222D01*
X6151134Y-10921222D02*
X6151134Y-11025984D01*
X6151134Y-10921222D02*
X6160658Y-10902174D01*
X6160658Y-10902174D02*
X6179705Y-10892650D01*
X6179705Y-10892650D02*
X6208277Y-10892650D01*
X6208277Y-10892650D02*
X6227324Y-10902174D01*
X6227324Y-10902174D02*
X6236848Y-10921222D01*
X6236848Y-10921222D02*
X6236848Y-11025984D01*
X6332086Y-11025984D02*
X6332086Y-10892650D01*
X6332086Y-10911698D02*
X6341610Y-10902174D01*
X6341610Y-10902174D02*
X6360658Y-10892650D01*
X6360658Y-10892650D02*
X6389229Y-10892650D01*
X6389229Y-10892650D02*
X6408277Y-10902174D01*
X6408277Y-10902174D02*
X6417801Y-10921222D01*
X6417801Y-10921222D02*
X6417801Y-11025984D01*
X6417801Y-10921222D02*
X6427324Y-10902174D01*
X6427324Y-10902174D02*
X6446372Y-10892650D01*
X6446372Y-10892650D02*
X6474943Y-10892650D01*
X6474943Y-10892650D02*
X6493991Y-10902174D01*
X6493991Y-10902174D02*
X6503515Y-10921222D01*
X6503515Y-10921222D02*
X6503515Y-11025984D01*
X6893991Y-10816460D02*
X6722563Y-11073603D01*
X7151134Y-10825984D02*
X7170182Y-10825984D01*
X7170182Y-10825984D02*
X7189229Y-10835508D01*
X7189229Y-10835508D02*
X7198753Y-10845031D01*
X7198753Y-10845031D02*
X7208277Y-10864079D01*
X7208277Y-10864079D02*
X7217801Y-10902174D01*
X7217801Y-10902174D02*
X7217801Y-10949793D01*
X7217801Y-10949793D02*
X7208277Y-10987889D01*
X7208277Y-10987889D02*
X7198753Y-11006936D01*
X7198753Y-11006936D02*
X7189229Y-11016460D01*
X7189229Y-11016460D02*
X7170182Y-11025984D01*
X7170182Y-11025984D02*
X7151134Y-11025984D01*
X7151134Y-11025984D02*
X7132086Y-11016460D01*
X7132086Y-11016460D02*
X7122563Y-11006936D01*
X7122563Y-11006936D02*
X7113039Y-10987889D01*
X7113039Y-10987889D02*
X7103515Y-10949793D01*
X7103515Y-10949793D02*
X7103515Y-10902174D01*
X7103515Y-10902174D02*
X7113039Y-10864079D01*
X7113039Y-10864079D02*
X7122563Y-10845031D01*
X7122563Y-10845031D02*
X7132086Y-10835508D01*
X7132086Y-10835508D02*
X7151134Y-10825984D01*
X7303515Y-11006936D02*
X7313039Y-11016460D01*
X7313039Y-11016460D02*
X7303515Y-11025984D01*
X7303515Y-11025984D02*
X7293991Y-11016460D01*
X7293991Y-11016460D02*
X7303515Y-11006936D01*
X7303515Y-11006936D02*
X7303515Y-11025984D01*
X7436848Y-10825984D02*
X7455896Y-10825984D01*
X7455896Y-10825984D02*
X7474944Y-10835508D01*
X7474944Y-10835508D02*
X7484467Y-10845031D01*
X7484467Y-10845031D02*
X7493991Y-10864079D01*
X7493991Y-10864079D02*
X7503515Y-10902174D01*
X7503515Y-10902174D02*
X7503515Y-10949793D01*
X7503515Y-10949793D02*
X7493991Y-10987889D01*
X7493991Y-10987889D02*
X7484467Y-11006936D01*
X7484467Y-11006936D02*
X7474944Y-11016460D01*
X7474944Y-11016460D02*
X7455896Y-11025984D01*
X7455896Y-11025984D02*
X7436848Y-11025984D01*
X7436848Y-11025984D02*
X7417801Y-11016460D01*
X7417801Y-11016460D02*
X7408277Y-11006936D01*
X7408277Y-11006936D02*
X7398753Y-10987889D01*
X7398753Y-10987889D02*
X7389229Y-10949793D01*
X7389229Y-10949793D02*
X7389229Y-10902174D01*
X7389229Y-10902174D02*
X7398753Y-10864079D01*
X7398753Y-10864079D02*
X7408277Y-10845031D01*
X7408277Y-10845031D02*
X7417801Y-10835508D01*
X7417801Y-10835508D02*
X7436848Y-10825984D01*
X7684467Y-10825984D02*
X7589229Y-10825984D01*
X7589229Y-10825984D02*
X7579706Y-10921222D01*
X7579706Y-10921222D02*
X7589229Y-10911698D01*
X7589229Y-10911698D02*
X7608277Y-10902174D01*
X7608277Y-10902174D02*
X7655896Y-10902174D01*
X7655896Y-10902174D02*
X7674944Y-10911698D01*
X7674944Y-10911698D02*
X7684467Y-10921222D01*
X7684467Y-10921222D02*
X7693991Y-10940270D01*
X7693991Y-10940270D02*
X7693991Y-10987889D01*
X7693991Y-10987889D02*
X7684467Y-11006936D01*
X7684467Y-11006936D02*
X7674944Y-11016460D01*
X7674944Y-11016460D02*
X7655896Y-11025984D01*
X7655896Y-11025984D02*
X7608277Y-11025984D01*
X7608277Y-11025984D02*
X7589229Y-11016460D01*
X7589229Y-11016460D02*
X7579706Y-11006936D01*
X7884467Y-11025984D02*
X7770182Y-11025984D01*
X7827325Y-11025984D02*
X7827325Y-10825984D01*
X7827325Y-10825984D02*
X7808277Y-10854555D01*
X7808277Y-10854555D02*
X7789229Y-10873603D01*
X7789229Y-10873603D02*
X7770182Y-10883127D01*
X7960658Y-10845031D02*
X7970182Y-10835508D01*
X7970182Y-10835508D02*
X7989229Y-10825984D01*
X7989229Y-10825984D02*
X8036848Y-10825984D01*
X8036848Y-10825984D02*
X8055896Y-10835508D01*
X8055896Y-10835508D02*
X8065420Y-10845031D01*
X8065420Y-10845031D02*
X8074944Y-10864079D01*
X8074944Y-10864079D02*
X8074944Y-10883127D01*
X8074944Y-10883127D02*
X8065420Y-10911698D01*
X8065420Y-10911698D02*
X7951134Y-11025984D01*
X7951134Y-11025984D02*
X8074944Y-11025984D01*
X8151134Y-10825984D02*
X8151134Y-10864079D01*
X8227325Y-10825984D02*
X8227325Y-10864079D01*
X8522563Y-11102174D02*
X8513039Y-11092650D01*
X8513039Y-11092650D02*
X8493991Y-11064079D01*
X8493991Y-11064079D02*
X8484468Y-11045031D01*
X8484468Y-11045031D02*
X8474944Y-11016460D01*
X8474944Y-11016460D02*
X8465420Y-10968841D01*
X8465420Y-10968841D02*
X8465420Y-10930746D01*
X8465420Y-10930746D02*
X8474944Y-10883127D01*
X8474944Y-10883127D02*
X8484468Y-10854555D01*
X8484468Y-10854555D02*
X8493991Y-10835508D01*
X8493991Y-10835508D02*
X8513039Y-10806936D01*
X8513039Y-10806936D02*
X8522563Y-10797412D01*
X8589230Y-10845031D02*
X8598753Y-10835508D01*
X8598753Y-10835508D02*
X8617801Y-10825984D01*
X8617801Y-10825984D02*
X8665420Y-10825984D01*
X8665420Y-10825984D02*
X8684468Y-10835508D01*
X8684468Y-10835508D02*
X8693991Y-10845031D01*
X8693991Y-10845031D02*
X8703515Y-10864079D01*
X8703515Y-10864079D02*
X8703515Y-10883127D01*
X8703515Y-10883127D02*
X8693991Y-10911698D01*
X8693991Y-10911698D02*
X8579706Y-11025984D01*
X8579706Y-11025984D02*
X8703515Y-11025984D01*
X8817801Y-10911698D02*
X8798753Y-10902174D01*
X8798753Y-10902174D02*
X8789230Y-10892650D01*
X8789230Y-10892650D02*
X8779706Y-10873603D01*
X8779706Y-10873603D02*
X8779706Y-10864079D01*
X8779706Y-10864079D02*
X8789230Y-10845031D01*
X8789230Y-10845031D02*
X8798753Y-10835508D01*
X8798753Y-10835508D02*
X8817801Y-10825984D01*
X8817801Y-10825984D02*
X8855896Y-10825984D01*
X8855896Y-10825984D02*
X8874944Y-10835508D01*
X8874944Y-10835508D02*
X8884468Y-10845031D01*
X8884468Y-10845031D02*
X8893991Y-10864079D01*
X8893991Y-10864079D02*
X8893991Y-10873603D01*
X8893991Y-10873603D02*
X8884468Y-10892650D01*
X8884468Y-10892650D02*
X8874944Y-10902174D01*
X8874944Y-10902174D02*
X8855896Y-10911698D01*
X8855896Y-10911698D02*
X8817801Y-10911698D01*
X8817801Y-10911698D02*
X8798753Y-10921222D01*
X8798753Y-10921222D02*
X8789230Y-10930746D01*
X8789230Y-10930746D02*
X8779706Y-10949793D01*
X8779706Y-10949793D02*
X8779706Y-10987889D01*
X8779706Y-10987889D02*
X8789230Y-11006936D01*
X8789230Y-11006936D02*
X8798753Y-11016460D01*
X8798753Y-11016460D02*
X8817801Y-11025984D01*
X8817801Y-11025984D02*
X8855896Y-11025984D01*
X8855896Y-11025984D02*
X8874944Y-11016460D01*
X8874944Y-11016460D02*
X8884468Y-11006936D01*
X8884468Y-11006936D02*
X8893991Y-10987889D01*
X8893991Y-10987889D02*
X8893991Y-10949793D01*
X8893991Y-10949793D02*
X8884468Y-10930746D01*
X8884468Y-10930746D02*
X8874944Y-10921222D01*
X8874944Y-10921222D02*
X8855896Y-10911698D01*
X9132087Y-11025984D02*
X9132087Y-10825984D01*
X9217801Y-11025984D02*
X9217801Y-10921222D01*
X9217801Y-10921222D02*
X9208277Y-10902174D01*
X9208277Y-10902174D02*
X9189230Y-10892650D01*
X9189230Y-10892650D02*
X9160658Y-10892650D01*
X9160658Y-10892650D02*
X9141611Y-10902174D01*
X9141611Y-10902174D02*
X9132087Y-10911698D01*
X9341611Y-11025984D02*
X9322563Y-11016460D01*
X9322563Y-11016460D02*
X9313039Y-11006936D01*
X9313039Y-11006936D02*
X9303515Y-10987889D01*
X9303515Y-10987889D02*
X9303515Y-10930746D01*
X9303515Y-10930746D02*
X9313039Y-10911698D01*
X9313039Y-10911698D02*
X9322563Y-10902174D01*
X9322563Y-10902174D02*
X9341611Y-10892650D01*
X9341611Y-10892650D02*
X9370182Y-10892650D01*
X9370182Y-10892650D02*
X9389230Y-10902174D01*
X9389230Y-10902174D02*
X9398753Y-10911698D01*
X9398753Y-10911698D02*
X9408277Y-10930746D01*
X9408277Y-10930746D02*
X9408277Y-10987889D01*
X9408277Y-10987889D02*
X9398753Y-11006936D01*
X9398753Y-11006936D02*
X9389230Y-11016460D01*
X9389230Y-11016460D02*
X9370182Y-11025984D01*
X9370182Y-11025984D02*
X9341611Y-11025984D01*
X9522563Y-11025984D02*
X9503515Y-11016460D01*
X9503515Y-11016460D02*
X9493992Y-10997412D01*
X9493992Y-10997412D02*
X9493992Y-10825984D01*
X9674944Y-11016460D02*
X9655896Y-11025984D01*
X9655896Y-11025984D02*
X9617801Y-11025984D01*
X9617801Y-11025984D02*
X9598753Y-11016460D01*
X9598753Y-11016460D02*
X9589230Y-10997412D01*
X9589230Y-10997412D02*
X9589230Y-10921222D01*
X9589230Y-10921222D02*
X9598753Y-10902174D01*
X9598753Y-10902174D02*
X9617801Y-10892650D01*
X9617801Y-10892650D02*
X9655896Y-10892650D01*
X9655896Y-10892650D02*
X9674944Y-10902174D01*
X9674944Y-10902174D02*
X9684468Y-10921222D01*
X9684468Y-10921222D02*
X9684468Y-10940270D01*
X9684468Y-10940270D02*
X9589230Y-10959317D01*
X9760658Y-11016460D02*
X9779706Y-11025984D01*
X9779706Y-11025984D02*
X9817801Y-11025984D01*
X9817801Y-11025984D02*
X9836849Y-11016460D01*
X9836849Y-11016460D02*
X9846373Y-10997412D01*
X9846373Y-10997412D02*
X9846373Y-10987889D01*
X9846373Y-10987889D02*
X9836849Y-10968841D01*
X9836849Y-10968841D02*
X9817801Y-10959317D01*
X9817801Y-10959317D02*
X9789230Y-10959317D01*
X9789230Y-10959317D02*
X9770182Y-10949793D01*
X9770182Y-10949793D02*
X9760658Y-10930746D01*
X9760658Y-10930746D02*
X9760658Y-10921222D01*
X9760658Y-10921222D02*
X9770182Y-10902174D01*
X9770182Y-10902174D02*
X9789230Y-10892650D01*
X9789230Y-10892650D02*
X9817801Y-10892650D01*
X9817801Y-10892650D02*
X9836849Y-10902174D01*
X9913039Y-11102174D02*
X9922563Y-11092650D01*
X9922563Y-11092650D02*
X9941611Y-11064079D01*
X9941611Y-11064079D02*
X9951134Y-11045031D01*
X9951134Y-11045031D02*
X9960658Y-11016460D01*
X9960658Y-11016460D02*
X9970182Y-10968841D01*
X9970182Y-10968841D02*
X9970182Y-10930746D01*
X9970182Y-10930746D02*
X9960658Y-10883127D01*
X9960658Y-10883127D02*
X9951134Y-10854555D01*
X9951134Y-10854555D02*
X9941611Y-10835508D01*
X9941611Y-10835508D02*
X9922563Y-10806936D01*
X9922563Y-10806936D02*
X9913039Y-10797412D01*
D15*
X4867500Y-11278500D02*
X4947500Y-11198500D01*
X4867500Y-11118500D01*
X4787500Y-11198500D01*
X4867500Y-11278500D01*
D12*
X5313039Y-11289984D02*
X5198753Y-11289984D01*
X5255896Y-11289984D02*
X5255896Y-11089984D01*
X5255896Y-11089984D02*
X5236848Y-11118555D01*
X5236848Y-11118555D02*
X5217801Y-11137603D01*
X5217801Y-11137603D02*
X5198753Y-11147127D01*
X5398753Y-11270936D02*
X5408277Y-11280460D01*
X5408277Y-11280460D02*
X5398753Y-11289984D01*
X5398753Y-11289984D02*
X5389229Y-11280460D01*
X5389229Y-11280460D02*
X5398753Y-11270936D01*
X5398753Y-11270936D02*
X5398753Y-11289984D01*
X5579705Y-11089984D02*
X5541610Y-11089984D01*
X5541610Y-11089984D02*
X5522563Y-11099508D01*
X5522563Y-11099508D02*
X5513039Y-11109031D01*
X5513039Y-11109031D02*
X5493991Y-11137603D01*
X5493991Y-11137603D02*
X5484467Y-11175698D01*
X5484467Y-11175698D02*
X5484467Y-11251888D01*
X5484467Y-11251888D02*
X5493991Y-11270936D01*
X5493991Y-11270936D02*
X5503515Y-11280460D01*
X5503515Y-11280460D02*
X5522563Y-11289984D01*
X5522563Y-11289984D02*
X5560658Y-11289984D01*
X5560658Y-11289984D02*
X5579705Y-11280460D01*
X5579705Y-11280460D02*
X5589229Y-11270936D01*
X5589229Y-11270936D02*
X5598753Y-11251888D01*
X5598753Y-11251888D02*
X5598753Y-11204269D01*
X5598753Y-11204269D02*
X5589229Y-11185222D01*
X5589229Y-11185222D02*
X5579705Y-11175698D01*
X5579705Y-11175698D02*
X5560658Y-11166174D01*
X5560658Y-11166174D02*
X5522563Y-11166174D01*
X5522563Y-11166174D02*
X5503515Y-11175698D01*
X5503515Y-11175698D02*
X5493991Y-11185222D01*
X5493991Y-11185222D02*
X5484467Y-11204269D01*
X5722562Y-11089984D02*
X5741610Y-11089984D01*
X5741610Y-11089984D02*
X5760658Y-11099508D01*
X5760658Y-11099508D02*
X5770182Y-11109031D01*
X5770182Y-11109031D02*
X5779705Y-11128079D01*
X5779705Y-11128079D02*
X5789229Y-11166174D01*
X5789229Y-11166174D02*
X5789229Y-11213793D01*
X5789229Y-11213793D02*
X5779705Y-11251888D01*
X5779705Y-11251888D02*
X5770182Y-11270936D01*
X5770182Y-11270936D02*
X5760658Y-11280460D01*
X5760658Y-11280460D02*
X5741610Y-11289984D01*
X5741610Y-11289984D02*
X5722562Y-11289984D01*
X5722562Y-11289984D02*
X5703515Y-11280460D01*
X5703515Y-11280460D02*
X5693991Y-11270936D01*
X5693991Y-11270936D02*
X5684467Y-11251888D01*
X5684467Y-11251888D02*
X5674943Y-11213793D01*
X5674943Y-11213793D02*
X5674943Y-11166174D01*
X5674943Y-11166174D02*
X5684467Y-11128079D01*
X5684467Y-11128079D02*
X5693991Y-11109031D01*
X5693991Y-11109031D02*
X5703515Y-11099508D01*
X5703515Y-11099508D02*
X5722562Y-11089984D01*
X5913039Y-11089984D02*
X5932086Y-11089984D01*
X5932086Y-11089984D02*
X5951134Y-11099508D01*
X5951134Y-11099508D02*
X5960658Y-11109031D01*
X5960658Y-11109031D02*
X5970182Y-11128079D01*
X5970182Y-11128079D02*
X5979705Y-11166174D01*
X5979705Y-11166174D02*
X5979705Y-11213793D01*
X5979705Y-11213793D02*
X5970182Y-11251888D01*
X5970182Y-11251888D02*
X5960658Y-11270936D01*
X5960658Y-11270936D02*
X5951134Y-11280460D01*
X5951134Y-11280460D02*
X5932086Y-11289984D01*
X5932086Y-11289984D02*
X5913039Y-11289984D01*
X5913039Y-11289984D02*
X5893991Y-11280460D01*
X5893991Y-11280460D02*
X5884467Y-11270936D01*
X5884467Y-11270936D02*
X5874943Y-11251888D01*
X5874943Y-11251888D02*
X5865420Y-11213793D01*
X5865420Y-11213793D02*
X5865420Y-11166174D01*
X5865420Y-11166174D02*
X5874943Y-11128079D01*
X5874943Y-11128079D02*
X5884467Y-11109031D01*
X5884467Y-11109031D02*
X5893991Y-11099508D01*
X5893991Y-11099508D02*
X5913039Y-11089984D01*
X6065420Y-11289984D02*
X6065420Y-11156650D01*
X6065420Y-11175698D02*
X6074943Y-11166174D01*
X6074943Y-11166174D02*
X6093991Y-11156650D01*
X6093991Y-11156650D02*
X6122563Y-11156650D01*
X6122563Y-11156650D02*
X6141610Y-11166174D01*
X6141610Y-11166174D02*
X6151134Y-11185222D01*
X6151134Y-11185222D02*
X6151134Y-11289984D01*
X6151134Y-11185222D02*
X6160658Y-11166174D01*
X6160658Y-11166174D02*
X6179705Y-11156650D01*
X6179705Y-11156650D02*
X6208277Y-11156650D01*
X6208277Y-11156650D02*
X6227324Y-11166174D01*
X6227324Y-11166174D02*
X6236848Y-11185222D01*
X6236848Y-11185222D02*
X6236848Y-11289984D01*
X6332086Y-11289984D02*
X6332086Y-11156650D01*
X6332086Y-11175698D02*
X6341610Y-11166174D01*
X6341610Y-11166174D02*
X6360658Y-11156650D01*
X6360658Y-11156650D02*
X6389229Y-11156650D01*
X6389229Y-11156650D02*
X6408277Y-11166174D01*
X6408277Y-11166174D02*
X6417801Y-11185222D01*
X6417801Y-11185222D02*
X6417801Y-11289984D01*
X6417801Y-11185222D02*
X6427324Y-11166174D01*
X6427324Y-11166174D02*
X6446372Y-11156650D01*
X6446372Y-11156650D02*
X6474943Y-11156650D01*
X6474943Y-11156650D02*
X6493991Y-11166174D01*
X6493991Y-11166174D02*
X6503515Y-11185222D01*
X6503515Y-11185222D02*
X6503515Y-11289984D01*
X6893991Y-11080460D02*
X6722563Y-11337603D01*
X7151134Y-11089984D02*
X7170182Y-11089984D01*
X7170182Y-11089984D02*
X7189229Y-11099508D01*
X7189229Y-11099508D02*
X7198753Y-11109031D01*
X7198753Y-11109031D02*
X7208277Y-11128079D01*
X7208277Y-11128079D02*
X7217801Y-11166174D01*
X7217801Y-11166174D02*
X7217801Y-11213793D01*
X7217801Y-11213793D02*
X7208277Y-11251888D01*
X7208277Y-11251888D02*
X7198753Y-11270936D01*
X7198753Y-11270936D02*
X7189229Y-11280460D01*
X7189229Y-11280460D02*
X7170182Y-11289984D01*
X7170182Y-11289984D02*
X7151134Y-11289984D01*
X7151134Y-11289984D02*
X7132086Y-11280460D01*
X7132086Y-11280460D02*
X7122563Y-11270936D01*
X7122563Y-11270936D02*
X7113039Y-11251888D01*
X7113039Y-11251888D02*
X7103515Y-11213793D01*
X7103515Y-11213793D02*
X7103515Y-11166174D01*
X7103515Y-11166174D02*
X7113039Y-11128079D01*
X7113039Y-11128079D02*
X7122563Y-11109031D01*
X7122563Y-11109031D02*
X7132086Y-11099508D01*
X7132086Y-11099508D02*
X7151134Y-11089984D01*
X7303515Y-11270936D02*
X7313039Y-11280460D01*
X7313039Y-11280460D02*
X7303515Y-11289984D01*
X7303515Y-11289984D02*
X7293991Y-11280460D01*
X7293991Y-11280460D02*
X7303515Y-11270936D01*
X7303515Y-11270936D02*
X7303515Y-11289984D01*
X7436848Y-11089984D02*
X7455896Y-11089984D01*
X7455896Y-11089984D02*
X7474944Y-11099508D01*
X7474944Y-11099508D02*
X7484467Y-11109031D01*
X7484467Y-11109031D02*
X7493991Y-11128079D01*
X7493991Y-11128079D02*
X7503515Y-11166174D01*
X7503515Y-11166174D02*
X7503515Y-11213793D01*
X7503515Y-11213793D02*
X7493991Y-11251888D01*
X7493991Y-11251888D02*
X7484467Y-11270936D01*
X7484467Y-11270936D02*
X7474944Y-11280460D01*
X7474944Y-11280460D02*
X7455896Y-11289984D01*
X7455896Y-11289984D02*
X7436848Y-11289984D01*
X7436848Y-11289984D02*
X7417801Y-11280460D01*
X7417801Y-11280460D02*
X7408277Y-11270936D01*
X7408277Y-11270936D02*
X7398753Y-11251888D01*
X7398753Y-11251888D02*
X7389229Y-11213793D01*
X7389229Y-11213793D02*
X7389229Y-11166174D01*
X7389229Y-11166174D02*
X7398753Y-11128079D01*
X7398753Y-11128079D02*
X7408277Y-11109031D01*
X7408277Y-11109031D02*
X7417801Y-11099508D01*
X7417801Y-11099508D02*
X7436848Y-11089984D01*
X7674944Y-11089984D02*
X7636848Y-11089984D01*
X7636848Y-11089984D02*
X7617801Y-11099508D01*
X7617801Y-11099508D02*
X7608277Y-11109031D01*
X7608277Y-11109031D02*
X7589229Y-11137603D01*
X7589229Y-11137603D02*
X7579706Y-11175698D01*
X7579706Y-11175698D02*
X7579706Y-11251888D01*
X7579706Y-11251888D02*
X7589229Y-11270936D01*
X7589229Y-11270936D02*
X7598753Y-11280460D01*
X7598753Y-11280460D02*
X7617801Y-11289984D01*
X7617801Y-11289984D02*
X7655896Y-11289984D01*
X7655896Y-11289984D02*
X7674944Y-11280460D01*
X7674944Y-11280460D02*
X7684467Y-11270936D01*
X7684467Y-11270936D02*
X7693991Y-11251888D01*
X7693991Y-11251888D02*
X7693991Y-11204269D01*
X7693991Y-11204269D02*
X7684467Y-11185222D01*
X7684467Y-11185222D02*
X7674944Y-11175698D01*
X7674944Y-11175698D02*
X7655896Y-11166174D01*
X7655896Y-11166174D02*
X7617801Y-11166174D01*
X7617801Y-11166174D02*
X7598753Y-11175698D01*
X7598753Y-11175698D02*
X7589229Y-11185222D01*
X7589229Y-11185222D02*
X7579706Y-11204269D01*
X7760658Y-11089984D02*
X7884467Y-11089984D01*
X7884467Y-11089984D02*
X7817801Y-11166174D01*
X7817801Y-11166174D02*
X7846372Y-11166174D01*
X7846372Y-11166174D02*
X7865420Y-11175698D01*
X7865420Y-11175698D02*
X7874944Y-11185222D01*
X7874944Y-11185222D02*
X7884467Y-11204269D01*
X7884467Y-11204269D02*
X7884467Y-11251888D01*
X7884467Y-11251888D02*
X7874944Y-11270936D01*
X7874944Y-11270936D02*
X7865420Y-11280460D01*
X7865420Y-11280460D02*
X7846372Y-11289984D01*
X7846372Y-11289984D02*
X7789229Y-11289984D01*
X7789229Y-11289984D02*
X7770182Y-11280460D01*
X7770182Y-11280460D02*
X7760658Y-11270936D01*
X8008277Y-11089984D02*
X8027325Y-11089984D01*
X8027325Y-11089984D02*
X8046372Y-11099508D01*
X8046372Y-11099508D02*
X8055896Y-11109031D01*
X8055896Y-11109031D02*
X8065420Y-11128079D01*
X8065420Y-11128079D02*
X8074944Y-11166174D01*
X8074944Y-11166174D02*
X8074944Y-11213793D01*
X8074944Y-11213793D02*
X8065420Y-11251888D01*
X8065420Y-11251888D02*
X8055896Y-11270936D01*
X8055896Y-11270936D02*
X8046372Y-11280460D01*
X8046372Y-11280460D02*
X8027325Y-11289984D01*
X8027325Y-11289984D02*
X8008277Y-11289984D01*
X8008277Y-11289984D02*
X7989229Y-11280460D01*
X7989229Y-11280460D02*
X7979706Y-11270936D01*
X7979706Y-11270936D02*
X7970182Y-11251888D01*
X7970182Y-11251888D02*
X7960658Y-11213793D01*
X7960658Y-11213793D02*
X7960658Y-11166174D01*
X7960658Y-11166174D02*
X7970182Y-11128079D01*
X7970182Y-11128079D02*
X7979706Y-11109031D01*
X7979706Y-11109031D02*
X7989229Y-11099508D01*
X7989229Y-11099508D02*
X8008277Y-11089984D01*
X8151134Y-11089984D02*
X8151134Y-11128079D01*
X8227325Y-11089984D02*
X8227325Y-11128079D01*
X8522563Y-11366174D02*
X8513039Y-11356650D01*
X8513039Y-11356650D02*
X8493991Y-11328079D01*
X8493991Y-11328079D02*
X8484468Y-11309031D01*
X8484468Y-11309031D02*
X8474944Y-11280460D01*
X8474944Y-11280460D02*
X8465420Y-11232841D01*
X8465420Y-11232841D02*
X8465420Y-11194746D01*
X8465420Y-11194746D02*
X8474944Y-11147127D01*
X8474944Y-11147127D02*
X8484468Y-11118555D01*
X8484468Y-11118555D02*
X8493991Y-11099508D01*
X8493991Y-11099508D02*
X8513039Y-11070936D01*
X8513039Y-11070936D02*
X8522563Y-11061412D01*
X8627325Y-11175698D02*
X8608277Y-11166174D01*
X8608277Y-11166174D02*
X8598753Y-11156650D01*
X8598753Y-11156650D02*
X8589230Y-11137603D01*
X8589230Y-11137603D02*
X8589230Y-11128079D01*
X8589230Y-11128079D02*
X8598753Y-11109031D01*
X8598753Y-11109031D02*
X8608277Y-11099508D01*
X8608277Y-11099508D02*
X8627325Y-11089984D01*
X8627325Y-11089984D02*
X8665420Y-11089984D01*
X8665420Y-11089984D02*
X8684468Y-11099508D01*
X8684468Y-11099508D02*
X8693991Y-11109031D01*
X8693991Y-11109031D02*
X8703515Y-11128079D01*
X8703515Y-11128079D02*
X8703515Y-11137603D01*
X8703515Y-11137603D02*
X8693991Y-11156650D01*
X8693991Y-11156650D02*
X8684468Y-11166174D01*
X8684468Y-11166174D02*
X8665420Y-11175698D01*
X8665420Y-11175698D02*
X8627325Y-11175698D01*
X8627325Y-11175698D02*
X8608277Y-11185222D01*
X8608277Y-11185222D02*
X8598753Y-11194746D01*
X8598753Y-11194746D02*
X8589230Y-11213793D01*
X8589230Y-11213793D02*
X8589230Y-11251888D01*
X8589230Y-11251888D02*
X8598753Y-11270936D01*
X8598753Y-11270936D02*
X8608277Y-11280460D01*
X8608277Y-11280460D02*
X8627325Y-11289984D01*
X8627325Y-11289984D02*
X8665420Y-11289984D01*
X8665420Y-11289984D02*
X8684468Y-11280460D01*
X8684468Y-11280460D02*
X8693991Y-11270936D01*
X8693991Y-11270936D02*
X8703515Y-11251888D01*
X8703515Y-11251888D02*
X8703515Y-11213793D01*
X8703515Y-11213793D02*
X8693991Y-11194746D01*
X8693991Y-11194746D02*
X8684468Y-11185222D01*
X8684468Y-11185222D02*
X8665420Y-11175698D01*
X8941611Y-11289984D02*
X8941611Y-11089984D01*
X9027325Y-11289984D02*
X9027325Y-11185222D01*
X9027325Y-11185222D02*
X9017801Y-11166174D01*
X9017801Y-11166174D02*
X8998753Y-11156650D01*
X8998753Y-11156650D02*
X8970182Y-11156650D01*
X8970182Y-11156650D02*
X8951134Y-11166174D01*
X8951134Y-11166174D02*
X8941611Y-11175698D01*
X9151134Y-11289984D02*
X9132087Y-11280460D01*
X9132087Y-11280460D02*
X9122563Y-11270936D01*
X9122563Y-11270936D02*
X9113039Y-11251888D01*
X9113039Y-11251888D02*
X9113039Y-11194746D01*
X9113039Y-11194746D02*
X9122563Y-11175698D01*
X9122563Y-11175698D02*
X9132087Y-11166174D01*
X9132087Y-11166174D02*
X9151134Y-11156650D01*
X9151134Y-11156650D02*
X9179706Y-11156650D01*
X9179706Y-11156650D02*
X9198753Y-11166174D01*
X9198753Y-11166174D02*
X9208277Y-11175698D01*
X9208277Y-11175698D02*
X9217801Y-11194746D01*
X9217801Y-11194746D02*
X9217801Y-11251888D01*
X9217801Y-11251888D02*
X9208277Y-11270936D01*
X9208277Y-11270936D02*
X9198753Y-11280460D01*
X9198753Y-11280460D02*
X9179706Y-11289984D01*
X9179706Y-11289984D02*
X9151134Y-11289984D01*
X9332087Y-11289984D02*
X9313039Y-11280460D01*
X9313039Y-11280460D02*
X9303515Y-11261412D01*
X9303515Y-11261412D02*
X9303515Y-11089984D01*
X9484468Y-11280460D02*
X9465420Y-11289984D01*
X9465420Y-11289984D02*
X9427325Y-11289984D01*
X9427325Y-11289984D02*
X9408277Y-11280460D01*
X9408277Y-11280460D02*
X9398753Y-11261412D01*
X9398753Y-11261412D02*
X9398753Y-11185222D01*
X9398753Y-11185222D02*
X9408277Y-11166174D01*
X9408277Y-11166174D02*
X9427325Y-11156650D01*
X9427325Y-11156650D02*
X9465420Y-11156650D01*
X9465420Y-11156650D02*
X9484468Y-11166174D01*
X9484468Y-11166174D02*
X9493992Y-11185222D01*
X9493992Y-11185222D02*
X9493992Y-11204269D01*
X9493992Y-11204269D02*
X9398753Y-11223317D01*
X9570182Y-11280460D02*
X9589230Y-11289984D01*
X9589230Y-11289984D02*
X9627325Y-11289984D01*
X9627325Y-11289984D02*
X9646373Y-11280460D01*
X9646373Y-11280460D02*
X9655896Y-11261412D01*
X9655896Y-11261412D02*
X9655896Y-11251888D01*
X9655896Y-11251888D02*
X9646373Y-11232841D01*
X9646373Y-11232841D02*
X9627325Y-11223317D01*
X9627325Y-11223317D02*
X9598753Y-11223317D01*
X9598753Y-11223317D02*
X9579706Y-11213793D01*
X9579706Y-11213793D02*
X9570182Y-11194746D01*
X9570182Y-11194746D02*
X9570182Y-11185222D01*
X9570182Y-11185222D02*
X9579706Y-11166174D01*
X9579706Y-11166174D02*
X9598753Y-11156650D01*
X9598753Y-11156650D02*
X9627325Y-11156650D01*
X9627325Y-11156650D02*
X9646373Y-11166174D01*
X9722563Y-11366174D02*
X9732087Y-11356650D01*
X9732087Y-11356650D02*
X9751134Y-11328079D01*
X9751134Y-11328079D02*
X9760658Y-11309031D01*
X9760658Y-11309031D02*
X9770182Y-11280460D01*
X9770182Y-11280460D02*
X9779706Y-11232841D01*
X9779706Y-11232841D02*
X9779706Y-11194746D01*
X9779706Y-11194746D02*
X9770182Y-11147127D01*
X9770182Y-11147127D02*
X9760658Y-11118555D01*
X9760658Y-11118555D02*
X9751134Y-11099508D01*
X9751134Y-11099508D02*
X9732087Y-11070936D01*
X9732087Y-11070936D02*
X9722563Y-11061412D01*
D16*
X4767500Y-11388500D02*
X4947500Y-11568500D01*
X4947500Y-11388500D02*
X4767500Y-11568500D01*
X4947500Y-11478500D02*
G75*
G02*
X4767500Y-11478500I-90000J0D01*
G01*
X4767500Y-11478500D02*
G75*
G02*
X4947500Y-11478500I90000J0D01*
G01*
D12*
X5313039Y-11569984D02*
X5198753Y-11569984D01*
X5255896Y-11569984D02*
X5255896Y-11369984D01*
X5255896Y-11369984D02*
X5236848Y-11398555D01*
X5236848Y-11398555D02*
X5217801Y-11417603D01*
X5217801Y-11417603D02*
X5198753Y-11427127D01*
X5398753Y-11550936D02*
X5408277Y-11560460D01*
X5408277Y-11560460D02*
X5398753Y-11569984D01*
X5398753Y-11569984D02*
X5389229Y-11560460D01*
X5389229Y-11560460D02*
X5398753Y-11550936D01*
X5398753Y-11550936D02*
X5398753Y-11569984D01*
X5522563Y-11455698D02*
X5503515Y-11446174D01*
X5503515Y-11446174D02*
X5493991Y-11436650D01*
X5493991Y-11436650D02*
X5484467Y-11417603D01*
X5484467Y-11417603D02*
X5484467Y-11408079D01*
X5484467Y-11408079D02*
X5493991Y-11389031D01*
X5493991Y-11389031D02*
X5503515Y-11379508D01*
X5503515Y-11379508D02*
X5522563Y-11369984D01*
X5522563Y-11369984D02*
X5560658Y-11369984D01*
X5560658Y-11369984D02*
X5579705Y-11379508D01*
X5579705Y-11379508D02*
X5589229Y-11389031D01*
X5589229Y-11389031D02*
X5598753Y-11408079D01*
X5598753Y-11408079D02*
X5598753Y-11417603D01*
X5598753Y-11417603D02*
X5589229Y-11436650D01*
X5589229Y-11436650D02*
X5579705Y-11446174D01*
X5579705Y-11446174D02*
X5560658Y-11455698D01*
X5560658Y-11455698D02*
X5522563Y-11455698D01*
X5522563Y-11455698D02*
X5503515Y-11465222D01*
X5503515Y-11465222D02*
X5493991Y-11474746D01*
X5493991Y-11474746D02*
X5484467Y-11493793D01*
X5484467Y-11493793D02*
X5484467Y-11531888D01*
X5484467Y-11531888D02*
X5493991Y-11550936D01*
X5493991Y-11550936D02*
X5503515Y-11560460D01*
X5503515Y-11560460D02*
X5522563Y-11569984D01*
X5522563Y-11569984D02*
X5560658Y-11569984D01*
X5560658Y-11569984D02*
X5579705Y-11560460D01*
X5579705Y-11560460D02*
X5589229Y-11550936D01*
X5589229Y-11550936D02*
X5598753Y-11531888D01*
X5598753Y-11531888D02*
X5598753Y-11493793D01*
X5598753Y-11493793D02*
X5589229Y-11474746D01*
X5589229Y-11474746D02*
X5579705Y-11465222D01*
X5579705Y-11465222D02*
X5560658Y-11455698D01*
X5722562Y-11369984D02*
X5741610Y-11369984D01*
X5741610Y-11369984D02*
X5760658Y-11379508D01*
X5760658Y-11379508D02*
X5770182Y-11389031D01*
X5770182Y-11389031D02*
X5779705Y-11408079D01*
X5779705Y-11408079D02*
X5789229Y-11446174D01*
X5789229Y-11446174D02*
X5789229Y-11493793D01*
X5789229Y-11493793D02*
X5779705Y-11531888D01*
X5779705Y-11531888D02*
X5770182Y-11550936D01*
X5770182Y-11550936D02*
X5760658Y-11560460D01*
X5760658Y-11560460D02*
X5741610Y-11569984D01*
X5741610Y-11569984D02*
X5722562Y-11569984D01*
X5722562Y-11569984D02*
X5703515Y-11560460D01*
X5703515Y-11560460D02*
X5693991Y-11550936D01*
X5693991Y-11550936D02*
X5684467Y-11531888D01*
X5684467Y-11531888D02*
X5674943Y-11493793D01*
X5674943Y-11493793D02*
X5674943Y-11446174D01*
X5674943Y-11446174D02*
X5684467Y-11408079D01*
X5684467Y-11408079D02*
X5693991Y-11389031D01*
X5693991Y-11389031D02*
X5703515Y-11379508D01*
X5703515Y-11379508D02*
X5722562Y-11369984D01*
X5913039Y-11369984D02*
X5932086Y-11369984D01*
X5932086Y-11369984D02*
X5951134Y-11379508D01*
X5951134Y-11379508D02*
X5960658Y-11389031D01*
X5960658Y-11389031D02*
X5970182Y-11408079D01*
X5970182Y-11408079D02*
X5979705Y-11446174D01*
X5979705Y-11446174D02*
X5979705Y-11493793D01*
X5979705Y-11493793D02*
X5970182Y-11531888D01*
X5970182Y-11531888D02*
X5960658Y-11550936D01*
X5960658Y-11550936D02*
X5951134Y-11560460D01*
X5951134Y-11560460D02*
X5932086Y-11569984D01*
X5932086Y-11569984D02*
X5913039Y-11569984D01*
X5913039Y-11569984D02*
X5893991Y-11560460D01*
X5893991Y-11560460D02*
X5884467Y-11550936D01*
X5884467Y-11550936D02*
X5874943Y-11531888D01*
X5874943Y-11531888D02*
X5865420Y-11493793D01*
X5865420Y-11493793D02*
X5865420Y-11446174D01*
X5865420Y-11446174D02*
X5874943Y-11408079D01*
X5874943Y-11408079D02*
X5884467Y-11389031D01*
X5884467Y-11389031D02*
X5893991Y-11379508D01*
X5893991Y-11379508D02*
X5913039Y-11369984D01*
X6065420Y-11569984D02*
X6065420Y-11436650D01*
X6065420Y-11455698D02*
X6074943Y-11446174D01*
X6074943Y-11446174D02*
X6093991Y-11436650D01*
X6093991Y-11436650D02*
X6122563Y-11436650D01*
X6122563Y-11436650D02*
X6141610Y-11446174D01*
X6141610Y-11446174D02*
X6151134Y-11465222D01*
X6151134Y-11465222D02*
X6151134Y-11569984D01*
X6151134Y-11465222D02*
X6160658Y-11446174D01*
X6160658Y-11446174D02*
X6179705Y-11436650D01*
X6179705Y-11436650D02*
X6208277Y-11436650D01*
X6208277Y-11436650D02*
X6227324Y-11446174D01*
X6227324Y-11446174D02*
X6236848Y-11465222D01*
X6236848Y-11465222D02*
X6236848Y-11569984D01*
X6332086Y-11569984D02*
X6332086Y-11436650D01*
X6332086Y-11455698D02*
X6341610Y-11446174D01*
X6341610Y-11446174D02*
X6360658Y-11436650D01*
X6360658Y-11436650D02*
X6389229Y-11436650D01*
X6389229Y-11436650D02*
X6408277Y-11446174D01*
X6408277Y-11446174D02*
X6417801Y-11465222D01*
X6417801Y-11465222D02*
X6417801Y-11569984D01*
X6417801Y-11465222D02*
X6427324Y-11446174D01*
X6427324Y-11446174D02*
X6446372Y-11436650D01*
X6446372Y-11436650D02*
X6474943Y-11436650D01*
X6474943Y-11436650D02*
X6493991Y-11446174D01*
X6493991Y-11446174D02*
X6503515Y-11465222D01*
X6503515Y-11465222D02*
X6503515Y-11569984D01*
X6893991Y-11360460D02*
X6722563Y-11617603D01*
X7151134Y-11369984D02*
X7170182Y-11369984D01*
X7170182Y-11369984D02*
X7189229Y-11379508D01*
X7189229Y-11379508D02*
X7198753Y-11389031D01*
X7198753Y-11389031D02*
X7208277Y-11408079D01*
X7208277Y-11408079D02*
X7217801Y-11446174D01*
X7217801Y-11446174D02*
X7217801Y-11493793D01*
X7217801Y-11493793D02*
X7208277Y-11531888D01*
X7208277Y-11531888D02*
X7198753Y-11550936D01*
X7198753Y-11550936D02*
X7189229Y-11560460D01*
X7189229Y-11560460D02*
X7170182Y-11569984D01*
X7170182Y-11569984D02*
X7151134Y-11569984D01*
X7151134Y-11569984D02*
X7132086Y-11560460D01*
X7132086Y-11560460D02*
X7122563Y-11550936D01*
X7122563Y-11550936D02*
X7113039Y-11531888D01*
X7113039Y-11531888D02*
X7103515Y-11493793D01*
X7103515Y-11493793D02*
X7103515Y-11446174D01*
X7103515Y-11446174D02*
X7113039Y-11408079D01*
X7113039Y-11408079D02*
X7122563Y-11389031D01*
X7122563Y-11389031D02*
X7132086Y-11379508D01*
X7132086Y-11379508D02*
X7151134Y-11369984D01*
X7303515Y-11550936D02*
X7313039Y-11560460D01*
X7313039Y-11560460D02*
X7303515Y-11569984D01*
X7303515Y-11569984D02*
X7293991Y-11560460D01*
X7293991Y-11560460D02*
X7303515Y-11550936D01*
X7303515Y-11550936D02*
X7303515Y-11569984D01*
X7436848Y-11369984D02*
X7455896Y-11369984D01*
X7455896Y-11369984D02*
X7474944Y-11379508D01*
X7474944Y-11379508D02*
X7484467Y-11389031D01*
X7484467Y-11389031D02*
X7493991Y-11408079D01*
X7493991Y-11408079D02*
X7503515Y-11446174D01*
X7503515Y-11446174D02*
X7503515Y-11493793D01*
X7503515Y-11493793D02*
X7493991Y-11531888D01*
X7493991Y-11531888D02*
X7484467Y-11550936D01*
X7484467Y-11550936D02*
X7474944Y-11560460D01*
X7474944Y-11560460D02*
X7455896Y-11569984D01*
X7455896Y-11569984D02*
X7436848Y-11569984D01*
X7436848Y-11569984D02*
X7417801Y-11560460D01*
X7417801Y-11560460D02*
X7408277Y-11550936D01*
X7408277Y-11550936D02*
X7398753Y-11531888D01*
X7398753Y-11531888D02*
X7389229Y-11493793D01*
X7389229Y-11493793D02*
X7389229Y-11446174D01*
X7389229Y-11446174D02*
X7398753Y-11408079D01*
X7398753Y-11408079D02*
X7408277Y-11389031D01*
X7408277Y-11389031D02*
X7417801Y-11379508D01*
X7417801Y-11379508D02*
X7436848Y-11369984D01*
X7570182Y-11369984D02*
X7703515Y-11369984D01*
X7703515Y-11369984D02*
X7617801Y-11569984D01*
X7817801Y-11369984D02*
X7836848Y-11369984D01*
X7836848Y-11369984D02*
X7855896Y-11379508D01*
X7855896Y-11379508D02*
X7865420Y-11389031D01*
X7865420Y-11389031D02*
X7874944Y-11408079D01*
X7874944Y-11408079D02*
X7884467Y-11446174D01*
X7884467Y-11446174D02*
X7884467Y-11493793D01*
X7884467Y-11493793D02*
X7874944Y-11531888D01*
X7874944Y-11531888D02*
X7865420Y-11550936D01*
X7865420Y-11550936D02*
X7855896Y-11560460D01*
X7855896Y-11560460D02*
X7836848Y-11569984D01*
X7836848Y-11569984D02*
X7817801Y-11569984D01*
X7817801Y-11569984D02*
X7798753Y-11560460D01*
X7798753Y-11560460D02*
X7789229Y-11550936D01*
X7789229Y-11550936D02*
X7779706Y-11531888D01*
X7779706Y-11531888D02*
X7770182Y-11493793D01*
X7770182Y-11493793D02*
X7770182Y-11446174D01*
X7770182Y-11446174D02*
X7779706Y-11408079D01*
X7779706Y-11408079D02*
X7789229Y-11389031D01*
X7789229Y-11389031D02*
X7798753Y-11379508D01*
X7798753Y-11379508D02*
X7817801Y-11369984D01*
X7979706Y-11569984D02*
X8017801Y-11569984D01*
X8017801Y-11569984D02*
X8036848Y-11560460D01*
X8036848Y-11560460D02*
X8046372Y-11550936D01*
X8046372Y-11550936D02*
X8065420Y-11522365D01*
X8065420Y-11522365D02*
X8074944Y-11484269D01*
X8074944Y-11484269D02*
X8074944Y-11408079D01*
X8074944Y-11408079D02*
X8065420Y-11389031D01*
X8065420Y-11389031D02*
X8055896Y-11379508D01*
X8055896Y-11379508D02*
X8036848Y-11369984D01*
X8036848Y-11369984D02*
X7998753Y-11369984D01*
X7998753Y-11369984D02*
X7979706Y-11379508D01*
X7979706Y-11379508D02*
X7970182Y-11389031D01*
X7970182Y-11389031D02*
X7960658Y-11408079D01*
X7960658Y-11408079D02*
X7960658Y-11455698D01*
X7960658Y-11455698D02*
X7970182Y-11474746D01*
X7970182Y-11474746D02*
X7979706Y-11484269D01*
X7979706Y-11484269D02*
X7998753Y-11493793D01*
X7998753Y-11493793D02*
X8036848Y-11493793D01*
X8036848Y-11493793D02*
X8055896Y-11484269D01*
X8055896Y-11484269D02*
X8065420Y-11474746D01*
X8065420Y-11474746D02*
X8074944Y-11455698D01*
X8151134Y-11369984D02*
X8151134Y-11408079D01*
X8227325Y-11369984D02*
X8227325Y-11408079D01*
X8522563Y-11646174D02*
X8513039Y-11636650D01*
X8513039Y-11636650D02*
X8493991Y-11608079D01*
X8493991Y-11608079D02*
X8484468Y-11589031D01*
X8484468Y-11589031D02*
X8474944Y-11560460D01*
X8474944Y-11560460D02*
X8465420Y-11512841D01*
X8465420Y-11512841D02*
X8465420Y-11474746D01*
X8465420Y-11474746D02*
X8474944Y-11427127D01*
X8474944Y-11427127D02*
X8484468Y-11398555D01*
X8484468Y-11398555D02*
X8493991Y-11379508D01*
X8493991Y-11379508D02*
X8513039Y-11350936D01*
X8513039Y-11350936D02*
X8522563Y-11341412D01*
X8684468Y-11369984D02*
X8646372Y-11369984D01*
X8646372Y-11369984D02*
X8627325Y-11379508D01*
X8627325Y-11379508D02*
X8617801Y-11389031D01*
X8617801Y-11389031D02*
X8598753Y-11417603D01*
X8598753Y-11417603D02*
X8589230Y-11455698D01*
X8589230Y-11455698D02*
X8589230Y-11531888D01*
X8589230Y-11531888D02*
X8598753Y-11550936D01*
X8598753Y-11550936D02*
X8608277Y-11560460D01*
X8608277Y-11560460D02*
X8627325Y-11569984D01*
X8627325Y-11569984D02*
X8665420Y-11569984D01*
X8665420Y-11569984D02*
X8684468Y-11560460D01*
X8684468Y-11560460D02*
X8693991Y-11550936D01*
X8693991Y-11550936D02*
X8703515Y-11531888D01*
X8703515Y-11531888D02*
X8703515Y-11484269D01*
X8703515Y-11484269D02*
X8693991Y-11465222D01*
X8693991Y-11465222D02*
X8684468Y-11455698D01*
X8684468Y-11455698D02*
X8665420Y-11446174D01*
X8665420Y-11446174D02*
X8627325Y-11446174D01*
X8627325Y-11446174D02*
X8608277Y-11455698D01*
X8608277Y-11455698D02*
X8598753Y-11465222D01*
X8598753Y-11465222D02*
X8589230Y-11484269D01*
X8941611Y-11569984D02*
X8941611Y-11369984D01*
X9027325Y-11569984D02*
X9027325Y-11465222D01*
X9027325Y-11465222D02*
X9017801Y-11446174D01*
X9017801Y-11446174D02*
X8998753Y-11436650D01*
X8998753Y-11436650D02*
X8970182Y-11436650D01*
X8970182Y-11436650D02*
X8951134Y-11446174D01*
X8951134Y-11446174D02*
X8941611Y-11455698D01*
X9151134Y-11569984D02*
X9132087Y-11560460D01*
X9132087Y-11560460D02*
X9122563Y-11550936D01*
X9122563Y-11550936D02*
X9113039Y-11531888D01*
X9113039Y-11531888D02*
X9113039Y-11474746D01*
X9113039Y-11474746D02*
X9122563Y-11455698D01*
X9122563Y-11455698D02*
X9132087Y-11446174D01*
X9132087Y-11446174D02*
X9151134Y-11436650D01*
X9151134Y-11436650D02*
X9179706Y-11436650D01*
X9179706Y-11436650D02*
X9198753Y-11446174D01*
X9198753Y-11446174D02*
X9208277Y-11455698D01*
X9208277Y-11455698D02*
X9217801Y-11474746D01*
X9217801Y-11474746D02*
X9217801Y-11531888D01*
X9217801Y-11531888D02*
X9208277Y-11550936D01*
X9208277Y-11550936D02*
X9198753Y-11560460D01*
X9198753Y-11560460D02*
X9179706Y-11569984D01*
X9179706Y-11569984D02*
X9151134Y-11569984D01*
X9332087Y-11569984D02*
X9313039Y-11560460D01*
X9313039Y-11560460D02*
X9303515Y-11541412D01*
X9303515Y-11541412D02*
X9303515Y-11369984D01*
X9484468Y-11560460D02*
X9465420Y-11569984D01*
X9465420Y-11569984D02*
X9427325Y-11569984D01*
X9427325Y-11569984D02*
X9408277Y-11560460D01*
X9408277Y-11560460D02*
X9398753Y-11541412D01*
X9398753Y-11541412D02*
X9398753Y-11465222D01*
X9398753Y-11465222D02*
X9408277Y-11446174D01*
X9408277Y-11446174D02*
X9427325Y-11436650D01*
X9427325Y-11436650D02*
X9465420Y-11436650D01*
X9465420Y-11436650D02*
X9484468Y-11446174D01*
X9484468Y-11446174D02*
X9493992Y-11465222D01*
X9493992Y-11465222D02*
X9493992Y-11484269D01*
X9493992Y-11484269D02*
X9398753Y-11503317D01*
X9570182Y-11560460D02*
X9589230Y-11569984D01*
X9589230Y-11569984D02*
X9627325Y-11569984D01*
X9627325Y-11569984D02*
X9646373Y-11560460D01*
X9646373Y-11560460D02*
X9655896Y-11541412D01*
X9655896Y-11541412D02*
X9655896Y-11531888D01*
X9655896Y-11531888D02*
X9646373Y-11512841D01*
X9646373Y-11512841D02*
X9627325Y-11503317D01*
X9627325Y-11503317D02*
X9598753Y-11503317D01*
X9598753Y-11503317D02*
X9579706Y-11493793D01*
X9579706Y-11493793D02*
X9570182Y-11474746D01*
X9570182Y-11474746D02*
X9570182Y-11465222D01*
X9570182Y-11465222D02*
X9579706Y-11446174D01*
X9579706Y-11446174D02*
X9598753Y-11436650D01*
X9598753Y-11436650D02*
X9627325Y-11436650D01*
X9627325Y-11436650D02*
X9646373Y-11446174D01*
X9722563Y-11646174D02*
X9732087Y-11636650D01*
X9732087Y-11636650D02*
X9751134Y-11608079D01*
X9751134Y-11608079D02*
X9760658Y-11589031D01*
X9760658Y-11589031D02*
X9770182Y-11560460D01*
X9770182Y-11560460D02*
X9779706Y-11512841D01*
X9779706Y-11512841D02*
X9779706Y-11474746D01*
X9779706Y-11474746D02*
X9770182Y-11427127D01*
X9770182Y-11427127D02*
X9760658Y-11398555D01*
X9760658Y-11398555D02*
X9751134Y-11379508D01*
X9751134Y-11379508D02*
X9732087Y-11350936D01*
X9732087Y-11350936D02*
X9722563Y-11341412D01*
M02*
