%TF.GenerationSoftware,KiCad,Pcbnew,8.0.1*%
%TF.CreationDate,2024-04-12T14:20:24+02:00*%
%TF.ProjectId,C-Audio Input-Board (CIB),432d4175-6469-46f2-9049-6e7075742d42,rev?*%
%TF.SameCoordinates,Original*%
%TF.FileFunction,Drillmap*%
%TF.FilePolarity,Positive*%
%FSLAX45Y45*%
G04 Gerber Fmt 4.5, Leading zero omitted, Abs format (unit mm)*
G04 Created by KiCad (PCBNEW 8.0.1) date 2024-04-12 14:20:24*
%MOMM*%
%LPD*%
G01*
G04 APERTURE LIST*
%ADD10C,0.050000*%
%ADD11C,0.120000*%
%ADD12C,0.200000*%
%ADD13C,0.160000*%
%ADD14C,0.350000*%
G04 APERTURE END LIST*
D10*
X24650000Y-5650000D02*
X24650000Y-9350000D01*
X24650000Y-9350000D02*
G75*
G02*
X24500000Y-9500000I-150000J0D01*
G01*
X24500000Y-5500000D02*
G75*
G02*
X24650000Y-5650000I0J-150000D01*
G01*
X24500000Y-9500000D02*
X5100000Y-9500000D01*
X5100000Y-9500000D02*
G75*
G02*
X4950000Y-9350000I0J150000D01*
G01*
X5100000Y-5500000D02*
X24500000Y-5500000D01*
X4950000Y-9350000D02*
X4950000Y-5650000D01*
X4950000Y-5650000D02*
G75*
G02*
X5100000Y-5500000I150000J0D01*
G01*
D11*
X20530000Y-6327801D02*
X20350000Y-6327801D01*
X20350000Y-6007801D01*
X20530000Y-6007801D01*
X20530000Y-6327801D01*
X21950000Y-6327801D02*
X21770000Y-6327801D01*
X21770000Y-6007801D01*
X21950000Y-6007801D01*
X21950000Y-6327801D01*
X18510000Y-6328301D02*
X18330000Y-6328301D01*
X18330000Y-6008301D01*
X18510000Y-6008301D01*
X18510000Y-6328301D01*
X19930000Y-6328301D02*
X19750000Y-6328301D01*
X19750000Y-6008301D01*
X19930000Y-6008301D01*
X19930000Y-6328301D01*
D12*
D13*
X6608000Y-5812000D02*
X6768000Y-5972000D01*
X6768000Y-5812000D02*
X6608000Y-5972000D01*
X7370000Y-6320000D02*
X7530000Y-6480000D01*
X7530000Y-6320000D02*
X7370000Y-6480000D01*
X9778667Y-5812000D02*
X9938667Y-5972000D01*
X9938667Y-5812000D02*
X9778667Y-5972000D01*
X10540667Y-6320000D02*
X10700667Y-6480000D01*
X10700667Y-6320000D02*
X10540667Y-6480000D01*
X12949333Y-5812000D02*
X13109333Y-5972000D01*
X13109333Y-5812000D02*
X12949333Y-5972000D01*
X13711333Y-6320000D02*
X13871333Y-6480000D01*
X13871333Y-6320000D02*
X13711333Y-6480000D01*
X16120000Y-5812000D02*
X16280000Y-5972000D01*
X16280000Y-5812000D02*
X16120000Y-5972000D01*
X16882000Y-6320000D02*
X17042000Y-6480000D01*
X17042000Y-6320000D02*
X16882000Y-6480000D01*
D14*
X5525000Y-5900000D02*
G75*
G02*
X5175000Y-5900000I-175000J0D01*
G01*
X5175000Y-5900000D02*
G75*
G02*
X5525000Y-5900000I175000J0D01*
G01*
X5525000Y-9100000D02*
G75*
G02*
X5175000Y-9100000I-175000J0D01*
G01*
X5175000Y-9100000D02*
G75*
G02*
X5525000Y-9100000I175000J0D01*
G01*
X18075000Y-9100000D02*
G75*
G02*
X17725000Y-9100000I-175000J0D01*
G01*
X17725000Y-9100000D02*
G75*
G02*
X18075000Y-9100000I175000J0D01*
G01*
X24425000Y-5900000D02*
G75*
G02*
X24075000Y-5900000I-175000J0D01*
G01*
X24075000Y-5900000D02*
G75*
G02*
X24425000Y-5900000I175000J0D01*
G01*
X24425000Y-9100000D02*
G75*
G02*
X24075000Y-9100000I-175000J0D01*
G01*
X24075000Y-9100000D02*
G75*
G02*
X24425000Y-9100000I175000J0D01*
G01*
D12*
X5208277Y-9813984D02*
X5208277Y-9613984D01*
X5208277Y-9613984D02*
X5255896Y-9613984D01*
X5255896Y-9613984D02*
X5284467Y-9623508D01*
X5284467Y-9623508D02*
X5303515Y-9642555D01*
X5303515Y-9642555D02*
X5313039Y-9661603D01*
X5313039Y-9661603D02*
X5322563Y-9699698D01*
X5322563Y-9699698D02*
X5322563Y-9728270D01*
X5322563Y-9728270D02*
X5313039Y-9766365D01*
X5313039Y-9766365D02*
X5303515Y-9785412D01*
X5303515Y-9785412D02*
X5284467Y-9804460D01*
X5284467Y-9804460D02*
X5255896Y-9813984D01*
X5255896Y-9813984D02*
X5208277Y-9813984D01*
X5408277Y-9813984D02*
X5408277Y-9680650D01*
X5408277Y-9718746D02*
X5417801Y-9699698D01*
X5417801Y-9699698D02*
X5427324Y-9690174D01*
X5427324Y-9690174D02*
X5446372Y-9680650D01*
X5446372Y-9680650D02*
X5465420Y-9680650D01*
X5532086Y-9813984D02*
X5532086Y-9680650D01*
X5532086Y-9613984D02*
X5522563Y-9623508D01*
X5522563Y-9623508D02*
X5532086Y-9633031D01*
X5532086Y-9633031D02*
X5541610Y-9623508D01*
X5541610Y-9623508D02*
X5532086Y-9613984D01*
X5532086Y-9613984D02*
X5532086Y-9633031D01*
X5655896Y-9813984D02*
X5636848Y-9804460D01*
X5636848Y-9804460D02*
X5627324Y-9785412D01*
X5627324Y-9785412D02*
X5627324Y-9613984D01*
X5760658Y-9813984D02*
X5741610Y-9804460D01*
X5741610Y-9804460D02*
X5732086Y-9785412D01*
X5732086Y-9785412D02*
X5732086Y-9613984D01*
X5989229Y-9813984D02*
X5989229Y-9613984D01*
X5989229Y-9613984D02*
X6055896Y-9756841D01*
X6055896Y-9756841D02*
X6122562Y-9613984D01*
X6122562Y-9613984D02*
X6122562Y-9813984D01*
X6303515Y-9813984D02*
X6303515Y-9709222D01*
X6303515Y-9709222D02*
X6293991Y-9690174D01*
X6293991Y-9690174D02*
X6274943Y-9680650D01*
X6274943Y-9680650D02*
X6236848Y-9680650D01*
X6236848Y-9680650D02*
X6217801Y-9690174D01*
X6303515Y-9804460D02*
X6284467Y-9813984D01*
X6284467Y-9813984D02*
X6236848Y-9813984D01*
X6236848Y-9813984D02*
X6217801Y-9804460D01*
X6217801Y-9804460D02*
X6208277Y-9785412D01*
X6208277Y-9785412D02*
X6208277Y-9766365D01*
X6208277Y-9766365D02*
X6217801Y-9747317D01*
X6217801Y-9747317D02*
X6236848Y-9737793D01*
X6236848Y-9737793D02*
X6284467Y-9737793D01*
X6284467Y-9737793D02*
X6303515Y-9728270D01*
X6398753Y-9680650D02*
X6398753Y-9880650D01*
X6398753Y-9690174D02*
X6417801Y-9680650D01*
X6417801Y-9680650D02*
X6455896Y-9680650D01*
X6455896Y-9680650D02*
X6474943Y-9690174D01*
X6474943Y-9690174D02*
X6484467Y-9699698D01*
X6484467Y-9699698D02*
X6493991Y-9718746D01*
X6493991Y-9718746D02*
X6493991Y-9775889D01*
X6493991Y-9775889D02*
X6484467Y-9794936D01*
X6484467Y-9794936D02*
X6474943Y-9804460D01*
X6474943Y-9804460D02*
X6455896Y-9813984D01*
X6455896Y-9813984D02*
X6417801Y-9813984D01*
X6417801Y-9813984D02*
X6398753Y-9804460D01*
X6579705Y-9794936D02*
X6589229Y-9804460D01*
X6589229Y-9804460D02*
X6579705Y-9813984D01*
X6579705Y-9813984D02*
X6570182Y-9804460D01*
X6570182Y-9804460D02*
X6579705Y-9794936D01*
X6579705Y-9794936D02*
X6579705Y-9813984D01*
X6579705Y-9690174D02*
X6589229Y-9699698D01*
X6589229Y-9699698D02*
X6579705Y-9709222D01*
X6579705Y-9709222D02*
X6570182Y-9699698D01*
X6570182Y-9699698D02*
X6579705Y-9690174D01*
X6579705Y-9690174D02*
X6579705Y-9709222D01*
D13*
X4787500Y-10062500D02*
X4947500Y-10222500D01*
X4947500Y-10062500D02*
X4787500Y-10222500D01*
D12*
X5313039Y-10233984D02*
X5198753Y-10233984D01*
X5255896Y-10233984D02*
X5255896Y-10033984D01*
X5255896Y-10033984D02*
X5236848Y-10062555D01*
X5236848Y-10062555D02*
X5217801Y-10081603D01*
X5217801Y-10081603D02*
X5198753Y-10091127D01*
X5398753Y-10214936D02*
X5408277Y-10224460D01*
X5408277Y-10224460D02*
X5398753Y-10233984D01*
X5398753Y-10233984D02*
X5389229Y-10224460D01*
X5389229Y-10224460D02*
X5398753Y-10214936D01*
X5398753Y-10214936D02*
X5398753Y-10233984D01*
X5579705Y-10033984D02*
X5541610Y-10033984D01*
X5541610Y-10033984D02*
X5522563Y-10043508D01*
X5522563Y-10043508D02*
X5513039Y-10053031D01*
X5513039Y-10053031D02*
X5493991Y-10081603D01*
X5493991Y-10081603D02*
X5484467Y-10119698D01*
X5484467Y-10119698D02*
X5484467Y-10195889D01*
X5484467Y-10195889D02*
X5493991Y-10214936D01*
X5493991Y-10214936D02*
X5503515Y-10224460D01*
X5503515Y-10224460D02*
X5522563Y-10233984D01*
X5522563Y-10233984D02*
X5560658Y-10233984D01*
X5560658Y-10233984D02*
X5579705Y-10224460D01*
X5579705Y-10224460D02*
X5589229Y-10214936D01*
X5589229Y-10214936D02*
X5598753Y-10195889D01*
X5598753Y-10195889D02*
X5598753Y-10148270D01*
X5598753Y-10148270D02*
X5589229Y-10129222D01*
X5589229Y-10129222D02*
X5579705Y-10119698D01*
X5579705Y-10119698D02*
X5560658Y-10110174D01*
X5560658Y-10110174D02*
X5522563Y-10110174D01*
X5522563Y-10110174D02*
X5503515Y-10119698D01*
X5503515Y-10119698D02*
X5493991Y-10129222D01*
X5493991Y-10129222D02*
X5484467Y-10148270D01*
X5722562Y-10033984D02*
X5741610Y-10033984D01*
X5741610Y-10033984D02*
X5760658Y-10043508D01*
X5760658Y-10043508D02*
X5770182Y-10053031D01*
X5770182Y-10053031D02*
X5779705Y-10072079D01*
X5779705Y-10072079D02*
X5789229Y-10110174D01*
X5789229Y-10110174D02*
X5789229Y-10157793D01*
X5789229Y-10157793D02*
X5779705Y-10195889D01*
X5779705Y-10195889D02*
X5770182Y-10214936D01*
X5770182Y-10214936D02*
X5760658Y-10224460D01*
X5760658Y-10224460D02*
X5741610Y-10233984D01*
X5741610Y-10233984D02*
X5722562Y-10233984D01*
X5722562Y-10233984D02*
X5703515Y-10224460D01*
X5703515Y-10224460D02*
X5693991Y-10214936D01*
X5693991Y-10214936D02*
X5684467Y-10195889D01*
X5684467Y-10195889D02*
X5674943Y-10157793D01*
X5674943Y-10157793D02*
X5674943Y-10110174D01*
X5674943Y-10110174D02*
X5684467Y-10072079D01*
X5684467Y-10072079D02*
X5693991Y-10053031D01*
X5693991Y-10053031D02*
X5703515Y-10043508D01*
X5703515Y-10043508D02*
X5722562Y-10033984D01*
X5913039Y-10033984D02*
X5932086Y-10033984D01*
X5932086Y-10033984D02*
X5951134Y-10043508D01*
X5951134Y-10043508D02*
X5960658Y-10053031D01*
X5960658Y-10053031D02*
X5970182Y-10072079D01*
X5970182Y-10072079D02*
X5979705Y-10110174D01*
X5979705Y-10110174D02*
X5979705Y-10157793D01*
X5979705Y-10157793D02*
X5970182Y-10195889D01*
X5970182Y-10195889D02*
X5960658Y-10214936D01*
X5960658Y-10214936D02*
X5951134Y-10224460D01*
X5951134Y-10224460D02*
X5932086Y-10233984D01*
X5932086Y-10233984D02*
X5913039Y-10233984D01*
X5913039Y-10233984D02*
X5893991Y-10224460D01*
X5893991Y-10224460D02*
X5884467Y-10214936D01*
X5884467Y-10214936D02*
X5874943Y-10195889D01*
X5874943Y-10195889D02*
X5865420Y-10157793D01*
X5865420Y-10157793D02*
X5865420Y-10110174D01*
X5865420Y-10110174D02*
X5874943Y-10072079D01*
X5874943Y-10072079D02*
X5884467Y-10053031D01*
X5884467Y-10053031D02*
X5893991Y-10043508D01*
X5893991Y-10043508D02*
X5913039Y-10033984D01*
X6065420Y-10233984D02*
X6065420Y-10100650D01*
X6065420Y-10119698D02*
X6074943Y-10110174D01*
X6074943Y-10110174D02*
X6093991Y-10100650D01*
X6093991Y-10100650D02*
X6122563Y-10100650D01*
X6122563Y-10100650D02*
X6141610Y-10110174D01*
X6141610Y-10110174D02*
X6151134Y-10129222D01*
X6151134Y-10129222D02*
X6151134Y-10233984D01*
X6151134Y-10129222D02*
X6160658Y-10110174D01*
X6160658Y-10110174D02*
X6179705Y-10100650D01*
X6179705Y-10100650D02*
X6208277Y-10100650D01*
X6208277Y-10100650D02*
X6227324Y-10110174D01*
X6227324Y-10110174D02*
X6236848Y-10129222D01*
X6236848Y-10129222D02*
X6236848Y-10233984D01*
X6332086Y-10233984D02*
X6332086Y-10100650D01*
X6332086Y-10119698D02*
X6341610Y-10110174D01*
X6341610Y-10110174D02*
X6360658Y-10100650D01*
X6360658Y-10100650D02*
X6389229Y-10100650D01*
X6389229Y-10100650D02*
X6408277Y-10110174D01*
X6408277Y-10110174D02*
X6417801Y-10129222D01*
X6417801Y-10129222D02*
X6417801Y-10233984D01*
X6417801Y-10129222D02*
X6427324Y-10110174D01*
X6427324Y-10110174D02*
X6446372Y-10100650D01*
X6446372Y-10100650D02*
X6474943Y-10100650D01*
X6474943Y-10100650D02*
X6493991Y-10110174D01*
X6493991Y-10110174D02*
X6503515Y-10129222D01*
X6503515Y-10129222D02*
X6503515Y-10233984D01*
X6893991Y-10024460D02*
X6722563Y-10281603D01*
X7151134Y-10033984D02*
X7170182Y-10033984D01*
X7170182Y-10033984D02*
X7189229Y-10043508D01*
X7189229Y-10043508D02*
X7198753Y-10053031D01*
X7198753Y-10053031D02*
X7208277Y-10072079D01*
X7208277Y-10072079D02*
X7217801Y-10110174D01*
X7217801Y-10110174D02*
X7217801Y-10157793D01*
X7217801Y-10157793D02*
X7208277Y-10195889D01*
X7208277Y-10195889D02*
X7198753Y-10214936D01*
X7198753Y-10214936D02*
X7189229Y-10224460D01*
X7189229Y-10224460D02*
X7170182Y-10233984D01*
X7170182Y-10233984D02*
X7151134Y-10233984D01*
X7151134Y-10233984D02*
X7132086Y-10224460D01*
X7132086Y-10224460D02*
X7122563Y-10214936D01*
X7122563Y-10214936D02*
X7113039Y-10195889D01*
X7113039Y-10195889D02*
X7103515Y-10157793D01*
X7103515Y-10157793D02*
X7103515Y-10110174D01*
X7103515Y-10110174D02*
X7113039Y-10072079D01*
X7113039Y-10072079D02*
X7122563Y-10053031D01*
X7122563Y-10053031D02*
X7132086Y-10043508D01*
X7132086Y-10043508D02*
X7151134Y-10033984D01*
X7303515Y-10214936D02*
X7313039Y-10224460D01*
X7313039Y-10224460D02*
X7303515Y-10233984D01*
X7303515Y-10233984D02*
X7293991Y-10224460D01*
X7293991Y-10224460D02*
X7303515Y-10214936D01*
X7303515Y-10214936D02*
X7303515Y-10233984D01*
X7436848Y-10033984D02*
X7455896Y-10033984D01*
X7455896Y-10033984D02*
X7474944Y-10043508D01*
X7474944Y-10043508D02*
X7484467Y-10053031D01*
X7484467Y-10053031D02*
X7493991Y-10072079D01*
X7493991Y-10072079D02*
X7503515Y-10110174D01*
X7503515Y-10110174D02*
X7503515Y-10157793D01*
X7503515Y-10157793D02*
X7493991Y-10195889D01*
X7493991Y-10195889D02*
X7484467Y-10214936D01*
X7484467Y-10214936D02*
X7474944Y-10224460D01*
X7474944Y-10224460D02*
X7455896Y-10233984D01*
X7455896Y-10233984D02*
X7436848Y-10233984D01*
X7436848Y-10233984D02*
X7417801Y-10224460D01*
X7417801Y-10224460D02*
X7408277Y-10214936D01*
X7408277Y-10214936D02*
X7398753Y-10195889D01*
X7398753Y-10195889D02*
X7389229Y-10157793D01*
X7389229Y-10157793D02*
X7389229Y-10110174D01*
X7389229Y-10110174D02*
X7398753Y-10072079D01*
X7398753Y-10072079D02*
X7408277Y-10053031D01*
X7408277Y-10053031D02*
X7417801Y-10043508D01*
X7417801Y-10043508D02*
X7436848Y-10033984D01*
X7674944Y-10033984D02*
X7636848Y-10033984D01*
X7636848Y-10033984D02*
X7617801Y-10043508D01*
X7617801Y-10043508D02*
X7608277Y-10053031D01*
X7608277Y-10053031D02*
X7589229Y-10081603D01*
X7589229Y-10081603D02*
X7579706Y-10119698D01*
X7579706Y-10119698D02*
X7579706Y-10195889D01*
X7579706Y-10195889D02*
X7589229Y-10214936D01*
X7589229Y-10214936D02*
X7598753Y-10224460D01*
X7598753Y-10224460D02*
X7617801Y-10233984D01*
X7617801Y-10233984D02*
X7655896Y-10233984D01*
X7655896Y-10233984D02*
X7674944Y-10224460D01*
X7674944Y-10224460D02*
X7684467Y-10214936D01*
X7684467Y-10214936D02*
X7693991Y-10195889D01*
X7693991Y-10195889D02*
X7693991Y-10148270D01*
X7693991Y-10148270D02*
X7684467Y-10129222D01*
X7684467Y-10129222D02*
X7674944Y-10119698D01*
X7674944Y-10119698D02*
X7655896Y-10110174D01*
X7655896Y-10110174D02*
X7617801Y-10110174D01*
X7617801Y-10110174D02*
X7598753Y-10119698D01*
X7598753Y-10119698D02*
X7589229Y-10129222D01*
X7589229Y-10129222D02*
X7579706Y-10148270D01*
X7760658Y-10033984D02*
X7884467Y-10033984D01*
X7884467Y-10033984D02*
X7817801Y-10110174D01*
X7817801Y-10110174D02*
X7846372Y-10110174D01*
X7846372Y-10110174D02*
X7865420Y-10119698D01*
X7865420Y-10119698D02*
X7874944Y-10129222D01*
X7874944Y-10129222D02*
X7884467Y-10148270D01*
X7884467Y-10148270D02*
X7884467Y-10195889D01*
X7884467Y-10195889D02*
X7874944Y-10214936D01*
X7874944Y-10214936D02*
X7865420Y-10224460D01*
X7865420Y-10224460D02*
X7846372Y-10233984D01*
X7846372Y-10233984D02*
X7789229Y-10233984D01*
X7789229Y-10233984D02*
X7770182Y-10224460D01*
X7770182Y-10224460D02*
X7760658Y-10214936D01*
X8008277Y-10033984D02*
X8027325Y-10033984D01*
X8027325Y-10033984D02*
X8046372Y-10043508D01*
X8046372Y-10043508D02*
X8055896Y-10053031D01*
X8055896Y-10053031D02*
X8065420Y-10072079D01*
X8065420Y-10072079D02*
X8074944Y-10110174D01*
X8074944Y-10110174D02*
X8074944Y-10157793D01*
X8074944Y-10157793D02*
X8065420Y-10195889D01*
X8065420Y-10195889D02*
X8055896Y-10214936D01*
X8055896Y-10214936D02*
X8046372Y-10224460D01*
X8046372Y-10224460D02*
X8027325Y-10233984D01*
X8027325Y-10233984D02*
X8008277Y-10233984D01*
X8008277Y-10233984D02*
X7989229Y-10224460D01*
X7989229Y-10224460D02*
X7979706Y-10214936D01*
X7979706Y-10214936D02*
X7970182Y-10195889D01*
X7970182Y-10195889D02*
X7960658Y-10157793D01*
X7960658Y-10157793D02*
X7960658Y-10110174D01*
X7960658Y-10110174D02*
X7970182Y-10072079D01*
X7970182Y-10072079D02*
X7979706Y-10053031D01*
X7979706Y-10053031D02*
X7989229Y-10043508D01*
X7989229Y-10043508D02*
X8008277Y-10033984D01*
X8151134Y-10033984D02*
X8151134Y-10072079D01*
X8227325Y-10033984D02*
X8227325Y-10072079D01*
X8522563Y-10310174D02*
X8513039Y-10300650D01*
X8513039Y-10300650D02*
X8493991Y-10272079D01*
X8493991Y-10272079D02*
X8484468Y-10253031D01*
X8484468Y-10253031D02*
X8474944Y-10224460D01*
X8474944Y-10224460D02*
X8465420Y-10176841D01*
X8465420Y-10176841D02*
X8465420Y-10138746D01*
X8465420Y-10138746D02*
X8474944Y-10091127D01*
X8474944Y-10091127D02*
X8484468Y-10062555D01*
X8484468Y-10062555D02*
X8493991Y-10043508D01*
X8493991Y-10043508D02*
X8513039Y-10014936D01*
X8513039Y-10014936D02*
X8522563Y-10005412D01*
X8627325Y-10119698D02*
X8608277Y-10110174D01*
X8608277Y-10110174D02*
X8598753Y-10100650D01*
X8598753Y-10100650D02*
X8589230Y-10081603D01*
X8589230Y-10081603D02*
X8589230Y-10072079D01*
X8589230Y-10072079D02*
X8598753Y-10053031D01*
X8598753Y-10053031D02*
X8608277Y-10043508D01*
X8608277Y-10043508D02*
X8627325Y-10033984D01*
X8627325Y-10033984D02*
X8665420Y-10033984D01*
X8665420Y-10033984D02*
X8684468Y-10043508D01*
X8684468Y-10043508D02*
X8693991Y-10053031D01*
X8693991Y-10053031D02*
X8703515Y-10072079D01*
X8703515Y-10072079D02*
X8703515Y-10081603D01*
X8703515Y-10081603D02*
X8693991Y-10100650D01*
X8693991Y-10100650D02*
X8684468Y-10110174D01*
X8684468Y-10110174D02*
X8665420Y-10119698D01*
X8665420Y-10119698D02*
X8627325Y-10119698D01*
X8627325Y-10119698D02*
X8608277Y-10129222D01*
X8608277Y-10129222D02*
X8598753Y-10138746D01*
X8598753Y-10138746D02*
X8589230Y-10157793D01*
X8589230Y-10157793D02*
X8589230Y-10195889D01*
X8589230Y-10195889D02*
X8598753Y-10214936D01*
X8598753Y-10214936D02*
X8608277Y-10224460D01*
X8608277Y-10224460D02*
X8627325Y-10233984D01*
X8627325Y-10233984D02*
X8665420Y-10233984D01*
X8665420Y-10233984D02*
X8684468Y-10224460D01*
X8684468Y-10224460D02*
X8693991Y-10214936D01*
X8693991Y-10214936D02*
X8703515Y-10195889D01*
X8703515Y-10195889D02*
X8703515Y-10157793D01*
X8703515Y-10157793D02*
X8693991Y-10138746D01*
X8693991Y-10138746D02*
X8684468Y-10129222D01*
X8684468Y-10129222D02*
X8665420Y-10119698D01*
X8941611Y-10233984D02*
X8941611Y-10033984D01*
X9027325Y-10233984D02*
X9027325Y-10129222D01*
X9027325Y-10129222D02*
X9017801Y-10110174D01*
X9017801Y-10110174D02*
X8998753Y-10100650D01*
X8998753Y-10100650D02*
X8970182Y-10100650D01*
X8970182Y-10100650D02*
X8951134Y-10110174D01*
X8951134Y-10110174D02*
X8941611Y-10119698D01*
X9151134Y-10233984D02*
X9132087Y-10224460D01*
X9132087Y-10224460D02*
X9122563Y-10214936D01*
X9122563Y-10214936D02*
X9113039Y-10195889D01*
X9113039Y-10195889D02*
X9113039Y-10138746D01*
X9113039Y-10138746D02*
X9122563Y-10119698D01*
X9122563Y-10119698D02*
X9132087Y-10110174D01*
X9132087Y-10110174D02*
X9151134Y-10100650D01*
X9151134Y-10100650D02*
X9179706Y-10100650D01*
X9179706Y-10100650D02*
X9198753Y-10110174D01*
X9198753Y-10110174D02*
X9208277Y-10119698D01*
X9208277Y-10119698D02*
X9217801Y-10138746D01*
X9217801Y-10138746D02*
X9217801Y-10195889D01*
X9217801Y-10195889D02*
X9208277Y-10214936D01*
X9208277Y-10214936D02*
X9198753Y-10224460D01*
X9198753Y-10224460D02*
X9179706Y-10233984D01*
X9179706Y-10233984D02*
X9151134Y-10233984D01*
X9332087Y-10233984D02*
X9313039Y-10224460D01*
X9313039Y-10224460D02*
X9303515Y-10205412D01*
X9303515Y-10205412D02*
X9303515Y-10033984D01*
X9484468Y-10224460D02*
X9465420Y-10233984D01*
X9465420Y-10233984D02*
X9427325Y-10233984D01*
X9427325Y-10233984D02*
X9408277Y-10224460D01*
X9408277Y-10224460D02*
X9398753Y-10205412D01*
X9398753Y-10205412D02*
X9398753Y-10129222D01*
X9398753Y-10129222D02*
X9408277Y-10110174D01*
X9408277Y-10110174D02*
X9427325Y-10100650D01*
X9427325Y-10100650D02*
X9465420Y-10100650D01*
X9465420Y-10100650D02*
X9484468Y-10110174D01*
X9484468Y-10110174D02*
X9493992Y-10129222D01*
X9493992Y-10129222D02*
X9493992Y-10148270D01*
X9493992Y-10148270D02*
X9398753Y-10167317D01*
X9570182Y-10224460D02*
X9589230Y-10233984D01*
X9589230Y-10233984D02*
X9627325Y-10233984D01*
X9627325Y-10233984D02*
X9646373Y-10224460D01*
X9646373Y-10224460D02*
X9655896Y-10205412D01*
X9655896Y-10205412D02*
X9655896Y-10195889D01*
X9655896Y-10195889D02*
X9646373Y-10176841D01*
X9646373Y-10176841D02*
X9627325Y-10167317D01*
X9627325Y-10167317D02*
X9598753Y-10167317D01*
X9598753Y-10167317D02*
X9579706Y-10157793D01*
X9579706Y-10157793D02*
X9570182Y-10138746D01*
X9570182Y-10138746D02*
X9570182Y-10129222D01*
X9570182Y-10129222D02*
X9579706Y-10110174D01*
X9579706Y-10110174D02*
X9598753Y-10100650D01*
X9598753Y-10100650D02*
X9627325Y-10100650D01*
X9627325Y-10100650D02*
X9646373Y-10110174D01*
X9722563Y-10310174D02*
X9732087Y-10300650D01*
X9732087Y-10300650D02*
X9751134Y-10272079D01*
X9751134Y-10272079D02*
X9760658Y-10253031D01*
X9760658Y-10253031D02*
X9770182Y-10224460D01*
X9770182Y-10224460D02*
X9779706Y-10176841D01*
X9779706Y-10176841D02*
X9779706Y-10138746D01*
X9779706Y-10138746D02*
X9770182Y-10091127D01*
X9770182Y-10091127D02*
X9760658Y-10062555D01*
X9760658Y-10062555D02*
X9751134Y-10043508D01*
X9751134Y-10043508D02*
X9732087Y-10014936D01*
X9732087Y-10014936D02*
X9722563Y-10005412D01*
X10084468Y-10310174D02*
X10074944Y-10300650D01*
X10074944Y-10300650D02*
X10055896Y-10272079D01*
X10055896Y-10272079D02*
X10046373Y-10253031D01*
X10046373Y-10253031D02*
X10036849Y-10224460D01*
X10036849Y-10224460D02*
X10027325Y-10176841D01*
X10027325Y-10176841D02*
X10027325Y-10138746D01*
X10027325Y-10138746D02*
X10036849Y-10091127D01*
X10036849Y-10091127D02*
X10046373Y-10062555D01*
X10046373Y-10062555D02*
X10055896Y-10043508D01*
X10055896Y-10043508D02*
X10074944Y-10014936D01*
X10074944Y-10014936D02*
X10084468Y-10005412D01*
X10160658Y-10100650D02*
X10160658Y-10233984D01*
X10160658Y-10119698D02*
X10170182Y-10110174D01*
X10170182Y-10110174D02*
X10189230Y-10100650D01*
X10189230Y-10100650D02*
X10217801Y-10100650D01*
X10217801Y-10100650D02*
X10236849Y-10110174D01*
X10236849Y-10110174D02*
X10246373Y-10129222D01*
X10246373Y-10129222D02*
X10246373Y-10233984D01*
X10370182Y-10233984D02*
X10351134Y-10224460D01*
X10351134Y-10224460D02*
X10341611Y-10214936D01*
X10341611Y-10214936D02*
X10332087Y-10195889D01*
X10332087Y-10195889D02*
X10332087Y-10138746D01*
X10332087Y-10138746D02*
X10341611Y-10119698D01*
X10341611Y-10119698D02*
X10351134Y-10110174D01*
X10351134Y-10110174D02*
X10370182Y-10100650D01*
X10370182Y-10100650D02*
X10398754Y-10100650D01*
X10398754Y-10100650D02*
X10417801Y-10110174D01*
X10417801Y-10110174D02*
X10427325Y-10119698D01*
X10427325Y-10119698D02*
X10436849Y-10138746D01*
X10436849Y-10138746D02*
X10436849Y-10195889D01*
X10436849Y-10195889D02*
X10427325Y-10214936D01*
X10427325Y-10214936D02*
X10417801Y-10224460D01*
X10417801Y-10224460D02*
X10398754Y-10233984D01*
X10398754Y-10233984D02*
X10370182Y-10233984D01*
X10493992Y-10100650D02*
X10570182Y-10100650D01*
X10522563Y-10033984D02*
X10522563Y-10205412D01*
X10522563Y-10205412D02*
X10532087Y-10224460D01*
X10532087Y-10224460D02*
X10551134Y-10233984D01*
X10551134Y-10233984D02*
X10570182Y-10233984D01*
X10789230Y-10100650D02*
X10789230Y-10300650D01*
X10789230Y-10110174D02*
X10808277Y-10100650D01*
X10808277Y-10100650D02*
X10846373Y-10100650D01*
X10846373Y-10100650D02*
X10865420Y-10110174D01*
X10865420Y-10110174D02*
X10874944Y-10119698D01*
X10874944Y-10119698D02*
X10884468Y-10138746D01*
X10884468Y-10138746D02*
X10884468Y-10195889D01*
X10884468Y-10195889D02*
X10874944Y-10214936D01*
X10874944Y-10214936D02*
X10865420Y-10224460D01*
X10865420Y-10224460D02*
X10846373Y-10233984D01*
X10846373Y-10233984D02*
X10808277Y-10233984D01*
X10808277Y-10233984D02*
X10789230Y-10224460D01*
X10998754Y-10233984D02*
X10979706Y-10224460D01*
X10979706Y-10224460D02*
X10970182Y-10205412D01*
X10970182Y-10205412D02*
X10970182Y-10033984D01*
X11160658Y-10233984D02*
X11160658Y-10129222D01*
X11160658Y-10129222D02*
X11151135Y-10110174D01*
X11151135Y-10110174D02*
X11132087Y-10100650D01*
X11132087Y-10100650D02*
X11093992Y-10100650D01*
X11093992Y-10100650D02*
X11074944Y-10110174D01*
X11160658Y-10224460D02*
X11141611Y-10233984D01*
X11141611Y-10233984D02*
X11093992Y-10233984D01*
X11093992Y-10233984D02*
X11074944Y-10224460D01*
X11074944Y-10224460D02*
X11065420Y-10205412D01*
X11065420Y-10205412D02*
X11065420Y-10186365D01*
X11065420Y-10186365D02*
X11074944Y-10167317D01*
X11074944Y-10167317D02*
X11093992Y-10157793D01*
X11093992Y-10157793D02*
X11141611Y-10157793D01*
X11141611Y-10157793D02*
X11160658Y-10148270D01*
X11227325Y-10100650D02*
X11303515Y-10100650D01*
X11255896Y-10033984D02*
X11255896Y-10205412D01*
X11255896Y-10205412D02*
X11265420Y-10224460D01*
X11265420Y-10224460D02*
X11284468Y-10233984D01*
X11284468Y-10233984D02*
X11303515Y-10233984D01*
X11446373Y-10224460D02*
X11427325Y-10233984D01*
X11427325Y-10233984D02*
X11389230Y-10233984D01*
X11389230Y-10233984D02*
X11370182Y-10224460D01*
X11370182Y-10224460D02*
X11360658Y-10205412D01*
X11360658Y-10205412D02*
X11360658Y-10129222D01*
X11360658Y-10129222D02*
X11370182Y-10110174D01*
X11370182Y-10110174D02*
X11389230Y-10100650D01*
X11389230Y-10100650D02*
X11427325Y-10100650D01*
X11427325Y-10100650D02*
X11446373Y-10110174D01*
X11446373Y-10110174D02*
X11455896Y-10129222D01*
X11455896Y-10129222D02*
X11455896Y-10148270D01*
X11455896Y-10148270D02*
X11360658Y-10167317D01*
X11627325Y-10233984D02*
X11627325Y-10033984D01*
X11627325Y-10224460D02*
X11608277Y-10233984D01*
X11608277Y-10233984D02*
X11570182Y-10233984D01*
X11570182Y-10233984D02*
X11551134Y-10224460D01*
X11551134Y-10224460D02*
X11541611Y-10214936D01*
X11541611Y-10214936D02*
X11532087Y-10195889D01*
X11532087Y-10195889D02*
X11532087Y-10138746D01*
X11532087Y-10138746D02*
X11541611Y-10119698D01*
X11541611Y-10119698D02*
X11551134Y-10110174D01*
X11551134Y-10110174D02*
X11570182Y-10100650D01*
X11570182Y-10100650D02*
X11608277Y-10100650D01*
X11608277Y-10100650D02*
X11627325Y-10110174D01*
X11703515Y-10310174D02*
X11713039Y-10300650D01*
X11713039Y-10300650D02*
X11732087Y-10272079D01*
X11732087Y-10272079D02*
X11741611Y-10253031D01*
X11741611Y-10253031D02*
X11751134Y-10224460D01*
X11751134Y-10224460D02*
X11760658Y-10176841D01*
X11760658Y-10176841D02*
X11760658Y-10138746D01*
X11760658Y-10138746D02*
X11751134Y-10091127D01*
X11751134Y-10091127D02*
X11741611Y-10062555D01*
X11741611Y-10062555D02*
X11732087Y-10043508D01*
X11732087Y-10043508D02*
X11713039Y-10014936D01*
X11713039Y-10014936D02*
X11703515Y-10005412D01*
X4947500Y-10422500D02*
G75*
G02*
X4747500Y-10422500I-100000J0D01*
G01*
X4747500Y-10422500D02*
G75*
G02*
X4947500Y-10422500I100000J0D01*
G01*
X5189229Y-10313984D02*
X5313039Y-10313984D01*
X5313039Y-10313984D02*
X5246372Y-10390174D01*
X5246372Y-10390174D02*
X5274944Y-10390174D01*
X5274944Y-10390174D02*
X5293991Y-10399698D01*
X5293991Y-10399698D02*
X5303515Y-10409222D01*
X5303515Y-10409222D02*
X5313039Y-10428270D01*
X5313039Y-10428270D02*
X5313039Y-10475889D01*
X5313039Y-10475889D02*
X5303515Y-10494936D01*
X5303515Y-10494936D02*
X5293991Y-10504460D01*
X5293991Y-10504460D02*
X5274944Y-10513984D01*
X5274944Y-10513984D02*
X5217801Y-10513984D01*
X5217801Y-10513984D02*
X5198753Y-10504460D01*
X5198753Y-10504460D02*
X5189229Y-10494936D01*
X5398753Y-10494936D02*
X5408277Y-10504460D01*
X5408277Y-10504460D02*
X5398753Y-10513984D01*
X5398753Y-10513984D02*
X5389229Y-10504460D01*
X5389229Y-10504460D02*
X5398753Y-10494936D01*
X5398753Y-10494936D02*
X5398753Y-10513984D01*
X5589229Y-10313984D02*
X5493991Y-10313984D01*
X5493991Y-10313984D02*
X5484467Y-10409222D01*
X5484467Y-10409222D02*
X5493991Y-10399698D01*
X5493991Y-10399698D02*
X5513039Y-10390174D01*
X5513039Y-10390174D02*
X5560658Y-10390174D01*
X5560658Y-10390174D02*
X5579705Y-10399698D01*
X5579705Y-10399698D02*
X5589229Y-10409222D01*
X5589229Y-10409222D02*
X5598753Y-10428270D01*
X5598753Y-10428270D02*
X5598753Y-10475889D01*
X5598753Y-10475889D02*
X5589229Y-10494936D01*
X5589229Y-10494936D02*
X5579705Y-10504460D01*
X5579705Y-10504460D02*
X5560658Y-10513984D01*
X5560658Y-10513984D02*
X5513039Y-10513984D01*
X5513039Y-10513984D02*
X5493991Y-10504460D01*
X5493991Y-10504460D02*
X5484467Y-10494936D01*
X5722562Y-10313984D02*
X5741610Y-10313984D01*
X5741610Y-10313984D02*
X5760658Y-10323508D01*
X5760658Y-10323508D02*
X5770182Y-10333031D01*
X5770182Y-10333031D02*
X5779705Y-10352079D01*
X5779705Y-10352079D02*
X5789229Y-10390174D01*
X5789229Y-10390174D02*
X5789229Y-10437793D01*
X5789229Y-10437793D02*
X5779705Y-10475889D01*
X5779705Y-10475889D02*
X5770182Y-10494936D01*
X5770182Y-10494936D02*
X5760658Y-10504460D01*
X5760658Y-10504460D02*
X5741610Y-10513984D01*
X5741610Y-10513984D02*
X5722562Y-10513984D01*
X5722562Y-10513984D02*
X5703515Y-10504460D01*
X5703515Y-10504460D02*
X5693991Y-10494936D01*
X5693991Y-10494936D02*
X5684467Y-10475889D01*
X5684467Y-10475889D02*
X5674943Y-10437793D01*
X5674943Y-10437793D02*
X5674943Y-10390174D01*
X5674943Y-10390174D02*
X5684467Y-10352079D01*
X5684467Y-10352079D02*
X5693991Y-10333031D01*
X5693991Y-10333031D02*
X5703515Y-10323508D01*
X5703515Y-10323508D02*
X5722562Y-10313984D01*
X5913039Y-10313984D02*
X5932086Y-10313984D01*
X5932086Y-10313984D02*
X5951134Y-10323508D01*
X5951134Y-10323508D02*
X5960658Y-10333031D01*
X5960658Y-10333031D02*
X5970182Y-10352079D01*
X5970182Y-10352079D02*
X5979705Y-10390174D01*
X5979705Y-10390174D02*
X5979705Y-10437793D01*
X5979705Y-10437793D02*
X5970182Y-10475889D01*
X5970182Y-10475889D02*
X5960658Y-10494936D01*
X5960658Y-10494936D02*
X5951134Y-10504460D01*
X5951134Y-10504460D02*
X5932086Y-10513984D01*
X5932086Y-10513984D02*
X5913039Y-10513984D01*
X5913039Y-10513984D02*
X5893991Y-10504460D01*
X5893991Y-10504460D02*
X5884467Y-10494936D01*
X5884467Y-10494936D02*
X5874943Y-10475889D01*
X5874943Y-10475889D02*
X5865420Y-10437793D01*
X5865420Y-10437793D02*
X5865420Y-10390174D01*
X5865420Y-10390174D02*
X5874943Y-10352079D01*
X5874943Y-10352079D02*
X5884467Y-10333031D01*
X5884467Y-10333031D02*
X5893991Y-10323508D01*
X5893991Y-10323508D02*
X5913039Y-10313984D01*
X6065420Y-10513984D02*
X6065420Y-10380650D01*
X6065420Y-10399698D02*
X6074943Y-10390174D01*
X6074943Y-10390174D02*
X6093991Y-10380650D01*
X6093991Y-10380650D02*
X6122563Y-10380650D01*
X6122563Y-10380650D02*
X6141610Y-10390174D01*
X6141610Y-10390174D02*
X6151134Y-10409222D01*
X6151134Y-10409222D02*
X6151134Y-10513984D01*
X6151134Y-10409222D02*
X6160658Y-10390174D01*
X6160658Y-10390174D02*
X6179705Y-10380650D01*
X6179705Y-10380650D02*
X6208277Y-10380650D01*
X6208277Y-10380650D02*
X6227324Y-10390174D01*
X6227324Y-10390174D02*
X6236848Y-10409222D01*
X6236848Y-10409222D02*
X6236848Y-10513984D01*
X6332086Y-10513984D02*
X6332086Y-10380650D01*
X6332086Y-10399698D02*
X6341610Y-10390174D01*
X6341610Y-10390174D02*
X6360658Y-10380650D01*
X6360658Y-10380650D02*
X6389229Y-10380650D01*
X6389229Y-10380650D02*
X6408277Y-10390174D01*
X6408277Y-10390174D02*
X6417801Y-10409222D01*
X6417801Y-10409222D02*
X6417801Y-10513984D01*
X6417801Y-10409222D02*
X6427324Y-10390174D01*
X6427324Y-10390174D02*
X6446372Y-10380650D01*
X6446372Y-10380650D02*
X6474943Y-10380650D01*
X6474943Y-10380650D02*
X6493991Y-10390174D01*
X6493991Y-10390174D02*
X6503515Y-10409222D01*
X6503515Y-10409222D02*
X6503515Y-10513984D01*
X6893991Y-10304460D02*
X6722563Y-10561603D01*
X7151134Y-10313984D02*
X7170182Y-10313984D01*
X7170182Y-10313984D02*
X7189229Y-10323508D01*
X7189229Y-10323508D02*
X7198753Y-10333031D01*
X7198753Y-10333031D02*
X7208277Y-10352079D01*
X7208277Y-10352079D02*
X7217801Y-10390174D01*
X7217801Y-10390174D02*
X7217801Y-10437793D01*
X7217801Y-10437793D02*
X7208277Y-10475889D01*
X7208277Y-10475889D02*
X7198753Y-10494936D01*
X7198753Y-10494936D02*
X7189229Y-10504460D01*
X7189229Y-10504460D02*
X7170182Y-10513984D01*
X7170182Y-10513984D02*
X7151134Y-10513984D01*
X7151134Y-10513984D02*
X7132086Y-10504460D01*
X7132086Y-10504460D02*
X7122563Y-10494936D01*
X7122563Y-10494936D02*
X7113039Y-10475889D01*
X7113039Y-10475889D02*
X7103515Y-10437793D01*
X7103515Y-10437793D02*
X7103515Y-10390174D01*
X7103515Y-10390174D02*
X7113039Y-10352079D01*
X7113039Y-10352079D02*
X7122563Y-10333031D01*
X7122563Y-10333031D02*
X7132086Y-10323508D01*
X7132086Y-10323508D02*
X7151134Y-10313984D01*
X7303515Y-10494936D02*
X7313039Y-10504460D01*
X7313039Y-10504460D02*
X7303515Y-10513984D01*
X7303515Y-10513984D02*
X7293991Y-10504460D01*
X7293991Y-10504460D02*
X7303515Y-10494936D01*
X7303515Y-10494936D02*
X7303515Y-10513984D01*
X7503515Y-10513984D02*
X7389229Y-10513984D01*
X7446372Y-10513984D02*
X7446372Y-10313984D01*
X7446372Y-10313984D02*
X7427325Y-10342555D01*
X7427325Y-10342555D02*
X7408277Y-10361603D01*
X7408277Y-10361603D02*
X7389229Y-10371127D01*
X7570182Y-10313984D02*
X7693991Y-10313984D01*
X7693991Y-10313984D02*
X7627325Y-10390174D01*
X7627325Y-10390174D02*
X7655896Y-10390174D01*
X7655896Y-10390174D02*
X7674944Y-10399698D01*
X7674944Y-10399698D02*
X7684467Y-10409222D01*
X7684467Y-10409222D02*
X7693991Y-10428270D01*
X7693991Y-10428270D02*
X7693991Y-10475889D01*
X7693991Y-10475889D02*
X7684467Y-10494936D01*
X7684467Y-10494936D02*
X7674944Y-10504460D01*
X7674944Y-10504460D02*
X7655896Y-10513984D01*
X7655896Y-10513984D02*
X7598753Y-10513984D01*
X7598753Y-10513984D02*
X7579706Y-10504460D01*
X7579706Y-10504460D02*
X7570182Y-10494936D01*
X7760658Y-10313984D02*
X7893991Y-10313984D01*
X7893991Y-10313984D02*
X7808277Y-10513984D01*
X7998753Y-10399698D02*
X7979706Y-10390174D01*
X7979706Y-10390174D02*
X7970182Y-10380650D01*
X7970182Y-10380650D02*
X7960658Y-10361603D01*
X7960658Y-10361603D02*
X7960658Y-10352079D01*
X7960658Y-10352079D02*
X7970182Y-10333031D01*
X7970182Y-10333031D02*
X7979706Y-10323508D01*
X7979706Y-10323508D02*
X7998753Y-10313984D01*
X7998753Y-10313984D02*
X8036848Y-10313984D01*
X8036848Y-10313984D02*
X8055896Y-10323508D01*
X8055896Y-10323508D02*
X8065420Y-10333031D01*
X8065420Y-10333031D02*
X8074944Y-10352079D01*
X8074944Y-10352079D02*
X8074944Y-10361603D01*
X8074944Y-10361603D02*
X8065420Y-10380650D01*
X8065420Y-10380650D02*
X8055896Y-10390174D01*
X8055896Y-10390174D02*
X8036848Y-10399698D01*
X8036848Y-10399698D02*
X7998753Y-10399698D01*
X7998753Y-10399698D02*
X7979706Y-10409222D01*
X7979706Y-10409222D02*
X7970182Y-10418746D01*
X7970182Y-10418746D02*
X7960658Y-10437793D01*
X7960658Y-10437793D02*
X7960658Y-10475889D01*
X7960658Y-10475889D02*
X7970182Y-10494936D01*
X7970182Y-10494936D02*
X7979706Y-10504460D01*
X7979706Y-10504460D02*
X7998753Y-10513984D01*
X7998753Y-10513984D02*
X8036848Y-10513984D01*
X8036848Y-10513984D02*
X8055896Y-10504460D01*
X8055896Y-10504460D02*
X8065420Y-10494936D01*
X8065420Y-10494936D02*
X8074944Y-10475889D01*
X8074944Y-10475889D02*
X8074944Y-10437793D01*
X8074944Y-10437793D02*
X8065420Y-10418746D01*
X8065420Y-10418746D02*
X8055896Y-10409222D01*
X8055896Y-10409222D02*
X8036848Y-10399698D01*
X8151134Y-10313984D02*
X8151134Y-10352079D01*
X8227325Y-10313984D02*
X8227325Y-10352079D01*
X8522563Y-10590174D02*
X8513039Y-10580650D01*
X8513039Y-10580650D02*
X8493991Y-10552079D01*
X8493991Y-10552079D02*
X8484468Y-10533031D01*
X8484468Y-10533031D02*
X8474944Y-10504460D01*
X8474944Y-10504460D02*
X8465420Y-10456841D01*
X8465420Y-10456841D02*
X8465420Y-10418746D01*
X8465420Y-10418746D02*
X8474944Y-10371127D01*
X8474944Y-10371127D02*
X8484468Y-10342555D01*
X8484468Y-10342555D02*
X8493991Y-10323508D01*
X8493991Y-10323508D02*
X8513039Y-10294936D01*
X8513039Y-10294936D02*
X8522563Y-10285412D01*
X8693991Y-10313984D02*
X8598753Y-10313984D01*
X8598753Y-10313984D02*
X8589230Y-10409222D01*
X8589230Y-10409222D02*
X8598753Y-10399698D01*
X8598753Y-10399698D02*
X8617801Y-10390174D01*
X8617801Y-10390174D02*
X8665420Y-10390174D01*
X8665420Y-10390174D02*
X8684468Y-10399698D01*
X8684468Y-10399698D02*
X8693991Y-10409222D01*
X8693991Y-10409222D02*
X8703515Y-10428270D01*
X8703515Y-10428270D02*
X8703515Y-10475889D01*
X8703515Y-10475889D02*
X8693991Y-10494936D01*
X8693991Y-10494936D02*
X8684468Y-10504460D01*
X8684468Y-10504460D02*
X8665420Y-10513984D01*
X8665420Y-10513984D02*
X8617801Y-10513984D01*
X8617801Y-10513984D02*
X8598753Y-10504460D01*
X8598753Y-10504460D02*
X8589230Y-10494936D01*
X8941611Y-10513984D02*
X8941611Y-10313984D01*
X9027325Y-10513984D02*
X9027325Y-10409222D01*
X9027325Y-10409222D02*
X9017801Y-10390174D01*
X9017801Y-10390174D02*
X8998753Y-10380650D01*
X8998753Y-10380650D02*
X8970182Y-10380650D01*
X8970182Y-10380650D02*
X8951134Y-10390174D01*
X8951134Y-10390174D02*
X8941611Y-10399698D01*
X9151134Y-10513984D02*
X9132087Y-10504460D01*
X9132087Y-10504460D02*
X9122563Y-10494936D01*
X9122563Y-10494936D02*
X9113039Y-10475889D01*
X9113039Y-10475889D02*
X9113039Y-10418746D01*
X9113039Y-10418746D02*
X9122563Y-10399698D01*
X9122563Y-10399698D02*
X9132087Y-10390174D01*
X9132087Y-10390174D02*
X9151134Y-10380650D01*
X9151134Y-10380650D02*
X9179706Y-10380650D01*
X9179706Y-10380650D02*
X9198753Y-10390174D01*
X9198753Y-10390174D02*
X9208277Y-10399698D01*
X9208277Y-10399698D02*
X9217801Y-10418746D01*
X9217801Y-10418746D02*
X9217801Y-10475889D01*
X9217801Y-10475889D02*
X9208277Y-10494936D01*
X9208277Y-10494936D02*
X9198753Y-10504460D01*
X9198753Y-10504460D02*
X9179706Y-10513984D01*
X9179706Y-10513984D02*
X9151134Y-10513984D01*
X9332087Y-10513984D02*
X9313039Y-10504460D01*
X9313039Y-10504460D02*
X9303515Y-10485412D01*
X9303515Y-10485412D02*
X9303515Y-10313984D01*
X9484468Y-10504460D02*
X9465420Y-10513984D01*
X9465420Y-10513984D02*
X9427325Y-10513984D01*
X9427325Y-10513984D02*
X9408277Y-10504460D01*
X9408277Y-10504460D02*
X9398753Y-10485412D01*
X9398753Y-10485412D02*
X9398753Y-10409222D01*
X9398753Y-10409222D02*
X9408277Y-10390174D01*
X9408277Y-10390174D02*
X9427325Y-10380650D01*
X9427325Y-10380650D02*
X9465420Y-10380650D01*
X9465420Y-10380650D02*
X9484468Y-10390174D01*
X9484468Y-10390174D02*
X9493992Y-10409222D01*
X9493992Y-10409222D02*
X9493992Y-10428270D01*
X9493992Y-10428270D02*
X9398753Y-10447317D01*
X9570182Y-10504460D02*
X9589230Y-10513984D01*
X9589230Y-10513984D02*
X9627325Y-10513984D01*
X9627325Y-10513984D02*
X9646373Y-10504460D01*
X9646373Y-10504460D02*
X9655896Y-10485412D01*
X9655896Y-10485412D02*
X9655896Y-10475889D01*
X9655896Y-10475889D02*
X9646373Y-10456841D01*
X9646373Y-10456841D02*
X9627325Y-10447317D01*
X9627325Y-10447317D02*
X9598753Y-10447317D01*
X9598753Y-10447317D02*
X9579706Y-10437793D01*
X9579706Y-10437793D02*
X9570182Y-10418746D01*
X9570182Y-10418746D02*
X9570182Y-10409222D01*
X9570182Y-10409222D02*
X9579706Y-10390174D01*
X9579706Y-10390174D02*
X9598753Y-10380650D01*
X9598753Y-10380650D02*
X9627325Y-10380650D01*
X9627325Y-10380650D02*
X9646373Y-10390174D01*
X9722563Y-10590174D02*
X9732087Y-10580650D01*
X9732087Y-10580650D02*
X9751134Y-10552079D01*
X9751134Y-10552079D02*
X9760658Y-10533031D01*
X9760658Y-10533031D02*
X9770182Y-10504460D01*
X9770182Y-10504460D02*
X9779706Y-10456841D01*
X9779706Y-10456841D02*
X9779706Y-10418746D01*
X9779706Y-10418746D02*
X9770182Y-10371127D01*
X9770182Y-10371127D02*
X9760658Y-10342555D01*
X9760658Y-10342555D02*
X9751134Y-10323508D01*
X9751134Y-10323508D02*
X9732087Y-10294936D01*
X9732087Y-10294936D02*
X9722563Y-10285412D01*
X10084468Y-10590174D02*
X10074944Y-10580650D01*
X10074944Y-10580650D02*
X10055896Y-10552079D01*
X10055896Y-10552079D02*
X10046373Y-10533031D01*
X10046373Y-10533031D02*
X10036849Y-10504460D01*
X10036849Y-10504460D02*
X10027325Y-10456841D01*
X10027325Y-10456841D02*
X10027325Y-10418746D01*
X10027325Y-10418746D02*
X10036849Y-10371127D01*
X10036849Y-10371127D02*
X10046373Y-10342555D01*
X10046373Y-10342555D02*
X10055896Y-10323508D01*
X10055896Y-10323508D02*
X10074944Y-10294936D01*
X10074944Y-10294936D02*
X10084468Y-10285412D01*
X10160658Y-10380650D02*
X10160658Y-10513984D01*
X10160658Y-10399698D02*
X10170182Y-10390174D01*
X10170182Y-10390174D02*
X10189230Y-10380650D01*
X10189230Y-10380650D02*
X10217801Y-10380650D01*
X10217801Y-10380650D02*
X10236849Y-10390174D01*
X10236849Y-10390174D02*
X10246373Y-10409222D01*
X10246373Y-10409222D02*
X10246373Y-10513984D01*
X10370182Y-10513984D02*
X10351134Y-10504460D01*
X10351134Y-10504460D02*
X10341611Y-10494936D01*
X10341611Y-10494936D02*
X10332087Y-10475889D01*
X10332087Y-10475889D02*
X10332087Y-10418746D01*
X10332087Y-10418746D02*
X10341611Y-10399698D01*
X10341611Y-10399698D02*
X10351134Y-10390174D01*
X10351134Y-10390174D02*
X10370182Y-10380650D01*
X10370182Y-10380650D02*
X10398754Y-10380650D01*
X10398754Y-10380650D02*
X10417801Y-10390174D01*
X10417801Y-10390174D02*
X10427325Y-10399698D01*
X10427325Y-10399698D02*
X10436849Y-10418746D01*
X10436849Y-10418746D02*
X10436849Y-10475889D01*
X10436849Y-10475889D02*
X10427325Y-10494936D01*
X10427325Y-10494936D02*
X10417801Y-10504460D01*
X10417801Y-10504460D02*
X10398754Y-10513984D01*
X10398754Y-10513984D02*
X10370182Y-10513984D01*
X10493992Y-10380650D02*
X10570182Y-10380650D01*
X10522563Y-10313984D02*
X10522563Y-10485412D01*
X10522563Y-10485412D02*
X10532087Y-10504460D01*
X10532087Y-10504460D02*
X10551134Y-10513984D01*
X10551134Y-10513984D02*
X10570182Y-10513984D01*
X10789230Y-10380650D02*
X10789230Y-10580650D01*
X10789230Y-10390174D02*
X10808277Y-10380650D01*
X10808277Y-10380650D02*
X10846373Y-10380650D01*
X10846373Y-10380650D02*
X10865420Y-10390174D01*
X10865420Y-10390174D02*
X10874944Y-10399698D01*
X10874944Y-10399698D02*
X10884468Y-10418746D01*
X10884468Y-10418746D02*
X10884468Y-10475889D01*
X10884468Y-10475889D02*
X10874944Y-10494936D01*
X10874944Y-10494936D02*
X10865420Y-10504460D01*
X10865420Y-10504460D02*
X10846373Y-10513984D01*
X10846373Y-10513984D02*
X10808277Y-10513984D01*
X10808277Y-10513984D02*
X10789230Y-10504460D01*
X10998754Y-10513984D02*
X10979706Y-10504460D01*
X10979706Y-10504460D02*
X10970182Y-10485412D01*
X10970182Y-10485412D02*
X10970182Y-10313984D01*
X11160658Y-10513984D02*
X11160658Y-10409222D01*
X11160658Y-10409222D02*
X11151135Y-10390174D01*
X11151135Y-10390174D02*
X11132087Y-10380650D01*
X11132087Y-10380650D02*
X11093992Y-10380650D01*
X11093992Y-10380650D02*
X11074944Y-10390174D01*
X11160658Y-10504460D02*
X11141611Y-10513984D01*
X11141611Y-10513984D02*
X11093992Y-10513984D01*
X11093992Y-10513984D02*
X11074944Y-10504460D01*
X11074944Y-10504460D02*
X11065420Y-10485412D01*
X11065420Y-10485412D02*
X11065420Y-10466365D01*
X11065420Y-10466365D02*
X11074944Y-10447317D01*
X11074944Y-10447317D02*
X11093992Y-10437793D01*
X11093992Y-10437793D02*
X11141611Y-10437793D01*
X11141611Y-10437793D02*
X11160658Y-10428270D01*
X11227325Y-10380650D02*
X11303515Y-10380650D01*
X11255896Y-10313984D02*
X11255896Y-10485412D01*
X11255896Y-10485412D02*
X11265420Y-10504460D01*
X11265420Y-10504460D02*
X11284468Y-10513984D01*
X11284468Y-10513984D02*
X11303515Y-10513984D01*
X11446373Y-10504460D02*
X11427325Y-10513984D01*
X11427325Y-10513984D02*
X11389230Y-10513984D01*
X11389230Y-10513984D02*
X11370182Y-10504460D01*
X11370182Y-10504460D02*
X11360658Y-10485412D01*
X11360658Y-10485412D02*
X11360658Y-10409222D01*
X11360658Y-10409222D02*
X11370182Y-10390174D01*
X11370182Y-10390174D02*
X11389230Y-10380650D01*
X11389230Y-10380650D02*
X11427325Y-10380650D01*
X11427325Y-10380650D02*
X11446373Y-10390174D01*
X11446373Y-10390174D02*
X11455896Y-10409222D01*
X11455896Y-10409222D02*
X11455896Y-10428270D01*
X11455896Y-10428270D02*
X11360658Y-10447317D01*
X11627325Y-10513984D02*
X11627325Y-10313984D01*
X11627325Y-10504460D02*
X11608277Y-10513984D01*
X11608277Y-10513984D02*
X11570182Y-10513984D01*
X11570182Y-10513984D02*
X11551134Y-10504460D01*
X11551134Y-10504460D02*
X11541611Y-10494936D01*
X11541611Y-10494936D02*
X11532087Y-10475889D01*
X11532087Y-10475889D02*
X11532087Y-10418746D01*
X11532087Y-10418746D02*
X11541611Y-10399698D01*
X11541611Y-10399698D02*
X11551134Y-10390174D01*
X11551134Y-10390174D02*
X11570182Y-10380650D01*
X11570182Y-10380650D02*
X11608277Y-10380650D01*
X11608277Y-10380650D02*
X11627325Y-10390174D01*
X11703515Y-10590174D02*
X11713039Y-10580650D01*
X11713039Y-10580650D02*
X11732087Y-10552079D01*
X11732087Y-10552079D02*
X11741611Y-10533031D01*
X11741611Y-10533031D02*
X11751134Y-10504460D01*
X11751134Y-10504460D02*
X11760658Y-10456841D01*
X11760658Y-10456841D02*
X11760658Y-10418746D01*
X11760658Y-10418746D02*
X11751134Y-10371127D01*
X11751134Y-10371127D02*
X11741611Y-10342555D01*
X11741611Y-10342555D02*
X11732087Y-10323508D01*
X11732087Y-10323508D02*
X11713039Y-10294936D01*
X11713039Y-10294936D02*
X11703515Y-10285412D01*
M02*
