M48
; DRILL file {KiCad 9.0.7-1.fc43} date 2026-03-12T11:21:22+0100
; FORMAT={-:-/ absolute / inch / decimal}
; #@! TF.CreationDate,2026-03-12T11:21:22+01:00
; #@! TF.GenerationSoftware,Kicad,Pcbnew,9.0.7-1.fc43
; #@! TF.FileFunction,Plated,1,2,PTH
FMAT,2
INCH
; #@! TA.AperFunction,Plated,PTH,ViaDrill
T1C0.0118
; #@! TA.AperFunction,Plated,PTH,ComponentDrill
T2C0.0236
; #@! TA.AperFunction,Plated,PTH,ComponentDrill
T3C0.0374
; #@! TA.AperFunction,Plated,PTH,ComponentDrill
T4C0.0472
; #@! TA.AperFunction,Plated,PTH,ComponentDrill
T5C0.0512
; #@! TA.AperFunction,Plated,PTH,ComponentDrill
T6C0.0630
; #@! TA.AperFunction,Plated,PTH,ComponentDrill
T7C0.0709
%
G90
G05
T1
X6.6102Y-3.2795
X6.6102Y-3.315
X6.6102Y-3.4488
X6.6102Y-3.4843
T3
X2.563Y-3.6024
X2.6614Y-3.6024
X2.7598Y-3.6024
X3.1339Y-3.6024
X3.2323Y-3.6024
X3.3307Y-3.6024
X3.4291Y-3.6024
X3.5276Y-3.6024
X3.9016Y-3.6024
X4.0Y-3.6024
X4.0984Y-3.6024
X4.878Y-3.6024
X4.9764Y-3.6024
X5.0748Y-3.6024
X5.4488Y-3.6024
X5.5472Y-3.6024
X5.6457Y-3.6024
X5.7441Y-3.6024
X5.8425Y-3.6024
X6.2165Y-3.6024
X6.315Y-3.6024
X6.4134Y-3.6024
X6.7244Y-3.6024
X6.8228Y-3.6024
X6.9213Y-3.6024
X7.0197Y-3.6024
X7.1181Y-3.6024
X7.4409Y-3.626
X7.5394Y-3.626
X7.6378Y-3.626
X8.2283Y-3.626
X8.3268Y-3.626
X8.4252Y-3.626
X8.8189Y-3.6024
X8.9173Y-3.2559
X8.9173Y-3.6024
X9.0157Y-3.2559
X9.0157Y-3.6024
X9.1142Y-3.2559
X9.1142Y-3.6024
X9.2126Y-3.6024
T4
X2.7831Y-2.8449
X3.872Y-2.8449
X5.092Y-2.8449
X6.181Y-2.8449
T5
X3.1339Y-3.1299
X3.1339Y-3.3268
X3.3307Y-3.1299
X3.3307Y-3.3268
X3.5276Y-3.1299
X3.5276Y-3.3268
X5.4488Y-3.1299
X5.4488Y-3.3268
X5.6457Y-3.1299
X5.6457Y-3.3268
X5.8425Y-3.1299
X5.8425Y-3.3268
X6.7224Y-3.0886
X6.7224Y-3.2854
X6.9193Y-3.0886
X6.9193Y-3.2854
X7.1161Y-3.0886
X7.1161Y-3.2854
X7.3819Y-3.3465
X7.5394Y-3.3465
X7.6969Y-3.3465
X8.1693Y-3.3386
X8.3268Y-3.3386
X8.4843Y-3.3386
X8.6614Y-2.9134
X8.8386Y-2.9134
X8.9119Y-2.3957
X8.9316Y-2.6831
X9.0157Y-2.9134
X9.093Y-2.2421
X9.1914Y-2.5098
X9.1929Y-2.9134
X9.2977Y-2.5571
X9.3701Y-2.9134
T6
X2.6331Y-2.6697
X2.9331Y-2.6947
X3.722Y-2.6697
X4.022Y-2.6947
X4.942Y-2.6697
X5.242Y-2.6947
X6.031Y-2.6697
X6.331Y-2.6947
T7
X7.374Y-2.5533
X7.5315Y-2.4037
X7.6969Y-2.5927
X8.1693Y-2.5531
X8.3268Y-2.4035
X8.4921Y-2.5925
T2
G00X6.7882Y-2.7224
M15
G01X6.7882Y-2.6949
M16
G05
G00X6.8228Y-2.2441
M15
G01X6.8228Y-2.2165
M16
G05
G00X6.8228Y-2.3437
M15
G01X6.8228Y-2.3161
M16
G05
G00X6.8228Y-2.4437
M15
G01X6.8228Y-2.4161
M16
G05
G00X6.8228Y-2.5437
M15
G01X6.8228Y-2.5161
M16
G05
G00X6.8681Y-2.8346
M15
G01X6.8406Y-2.8346
M16
G05
G00X7.065Y-2.8346
M15
G01X7.0374Y-2.8346
M16
G05
G00X7.0906Y-2.2441
M15
G01X7.0906Y-2.2165
M16
G05
G00X7.0906Y-2.3437
M15
G01X7.0906Y-2.3161
M16
G05
G00X7.0906Y-2.4437
M15
G01X7.0906Y-2.4161
M16
G05
G00X7.0906Y-2.5437
M15
G01X7.0906Y-2.5161
M16
G05
G00X7.1248Y-2.7224
M15
G01X7.1248Y-2.6949
M16
G05
M30
