%TF.GenerationSoftware,KiCad,Pcbnew,9.0.7-1.fc43*%
%TF.CreationDate,2026-03-12T11:21:20+01:00*%
%TF.ProjectId,C-Audio Input Board,432d4175-6469-46f2-9049-6e7075742042,rev?*%
%TF.SameCoordinates,Original*%
%TF.FileFunction,Soldermask,Bot*%
%TF.FilePolarity,Negative*%
%FSLAX46Y46*%
G04 Gerber Fmt 4.6, Leading zero omitted, Abs format (unit mm)*
G04 Created by KiCad (PCBNEW 9.0.7-1.fc43) date 2026-03-12 11:21:20*
%MOMM*%
%LPD*%
G01*
G04 APERTURE LIST*
G04 Aperture macros list*
%AMRoundRect*
0 Rectangle with rounded corners*
0 $1 Rounding radius*
0 $2 $3 $4 $5 $6 $7 $8 $9 X,Y pos of 4 corners*
0 Add a 4 corners polygon primitive as box body*
4,1,4,$2,$3,$4,$5,$6,$7,$8,$9,$2,$3,0*
0 Add four circle primitives for the rounded corners*
1,1,$1+$1,$2,$3*
1,1,$1+$1,$4,$5*
1,1,$1+$1,$6,$7*
1,1,$1+$1,$8,$9*
0 Add four rect primitives between the rounded corners*
20,1,$1+$1,$2,$3,$4,$5,0*
20,1,$1+$1,$4,$5,$6,$7,0*
20,1,$1+$1,$6,$7,$8,$9,0*
20,1,$1+$1,$8,$9,$2,$3,0*%
G04 Aperture macros list end*
%ADD10RoundRect,0.250000X-0.600000X-0.725000X0.600000X-0.725000X0.600000X0.725000X-0.600000X0.725000X0*%
%ADD11O,1.700000X1.950000*%
%ADD12C,1.600000*%
%ADD13C,3.400000*%
%ADD14C,2.900000*%
%ADD15C,2.600000*%
%ADD16RoundRect,0.250000X0.600000X0.725000X-0.600000X0.725000X-0.600000X-0.725000X0.600000X-0.725000X0*%
%ADD17C,3.500000*%
%ADD18O,2.100000X2.800000*%
%ADD19O,2.800000X2.100000*%
%ADD20C,3.000000*%
%ADD21O,2.200000X4.000000*%
%ADD22O,4.000000X2.200000*%
%ADD23R,2.200000X4.000000*%
G04 APERTURE END LIST*
D10*
%TO.C,J17*%
X123900000Y-91500000D03*
D11*
X126400000Y-91500000D03*
X128900000Y-91500000D03*
%TD*%
D10*
%TO.C,J56*%
X170800000Y-91500000D03*
D11*
X173300000Y-91500000D03*
X175800000Y-91500000D03*
X178300000Y-91500000D03*
X180800000Y-91500000D03*
%TD*%
D12*
%TO.C,J13*%
X160806150Y-64000000D03*
X153186150Y-58920000D03*
D13*
X153186150Y-67810000D03*
X160806150Y-68445000D03*
D14*
X156996150Y-72260000D03*
%TD*%
D15*
%TO.C,J59*%
X175750000Y-78450000D03*
%TD*%
%TO.C,J26*%
X211500000Y-84800000D03*
%TD*%
D10*
%TO.C,J18*%
X138400000Y-91500000D03*
D11*
X140900000Y-91500000D03*
X143400000Y-91500000D03*
X145900000Y-91500000D03*
X148400000Y-91500000D03*
%TD*%
D15*
%TO.C,J52*%
X170750000Y-78450000D03*
%TD*%
%TO.C,J58*%
X180750000Y-83450000D03*
%TD*%
D16*
%TO.C,J32*%
X194000000Y-92100000D03*
D11*
X191500000Y-92100000D03*
X189000000Y-92100000D03*
%TD*%
D15*
%TO.C,J8*%
X89600000Y-79500000D03*
%TD*%
%TO.C,J25*%
X207500000Y-84800000D03*
%TD*%
%TO.C,J15*%
X138400000Y-84500000D03*
%TD*%
%TO.C,J54*%
X175750000Y-83450000D03*
%TD*%
D17*
%TO.C,H3*%
X53500000Y-91000000D03*
%TD*%
D10*
%TO.C,J40*%
X226500000Y-82700000D03*
D11*
X229000000Y-82700000D03*
X231500000Y-82700000D03*
%TD*%
D17*
%TO.C,H5*%
X163850000Y-80400000D03*
%TD*%
D15*
%TO.C,J14*%
X138400000Y-79500000D03*
%TD*%
D17*
%TO.C,H4*%
X242500000Y-91000000D03*
%TD*%
D15*
%TO.C,J16*%
X143400000Y-84500000D03*
%TD*%
%TO.C,J34*%
X220000000Y-74000000D03*
%TD*%
%TO.C,J24*%
X215500000Y-84800000D03*
%TD*%
D12*
%TO.C,J12*%
X133146150Y-64000000D03*
X125526150Y-58920000D03*
D13*
X125526150Y-67810000D03*
X133146150Y-68445000D03*
D14*
X129336150Y-72260000D03*
%TD*%
D18*
%TO.C,J49*%
X180100000Y-56650000D03*
X173300000Y-56650000D03*
D19*
X179100000Y-72000000D03*
X174100000Y-72000000D03*
D18*
X180100000Y-64260000D03*
X173300000Y-64260000D03*
X180100000Y-61720000D03*
X173300000Y-61720000D03*
X180100000Y-59180000D03*
X173300000Y-59180000D03*
X172420000Y-68800000D03*
X180970000Y-68800000D03*
%TD*%
D10*
%TO.C,J6*%
X65100000Y-91500000D03*
D11*
X67600000Y-91500000D03*
X70100000Y-91500000D03*
%TD*%
D15*
%TO.C,J30*%
X187500000Y-85000000D03*
%TD*%
%TO.C,J3*%
X79600000Y-79500000D03*
%TD*%
%TO.C,J10*%
X84600000Y-79500000D03*
%TD*%
%TO.C,J31*%
X191500000Y-85000000D03*
%TD*%
%TO.C,J9*%
X89600000Y-84500000D03*
%TD*%
%TO.C,J37*%
X224500000Y-74000000D03*
%TD*%
%TO.C,J36*%
X229000000Y-74000000D03*
%TD*%
D12*
%TO.C,J1*%
X74500000Y-64000000D03*
X66880000Y-58920000D03*
D13*
X66880000Y-67810000D03*
X74500000Y-68445000D03*
D14*
X70690000Y-72260000D03*
%TD*%
D16*
%TO.C,J27*%
X214000000Y-92100000D03*
D11*
X211500000Y-92100000D03*
X209000000Y-92100000D03*
%TD*%
D20*
%TO.C,J23*%
X211500000Y-61050000D03*
X207500000Y-64850000D03*
X215700000Y-65850000D03*
%TD*%
D10*
%TO.C,J22*%
X157900000Y-91500000D03*
D11*
X160400000Y-91500000D03*
X162900000Y-91500000D03*
%TD*%
D15*
%TO.C,J29*%
X195500000Y-85000000D03*
%TD*%
%TO.C,J57*%
X180750000Y-78450000D03*
%TD*%
%TO.C,J19*%
X148400000Y-79500000D03*
%TD*%
%TO.C,J5*%
X84600000Y-84500000D03*
%TD*%
D21*
%TO.C,J33*%
X236162487Y-64950000D03*
X233462487Y-63750000D03*
D22*
X230962487Y-56950000D03*
D23*
X226362487Y-60850000D03*
D22*
X226862487Y-68150000D03*
%TD*%
D10*
%TO.C,J39*%
X224000000Y-91500000D03*
D11*
X226500000Y-91500000D03*
X229000000Y-91500000D03*
X231500000Y-91500000D03*
X234000000Y-91500000D03*
%TD*%
D10*
%TO.C,J7*%
X79600000Y-91500000D03*
D11*
X82100000Y-91500000D03*
X84600000Y-91500000D03*
X87100000Y-91500000D03*
X89600000Y-91500000D03*
%TD*%
D15*
%TO.C,J35*%
X238000000Y-74000000D03*
%TD*%
%TO.C,J4*%
X79600000Y-84500000D03*
%TD*%
D17*
%TO.C,H2*%
X242500000Y-59000000D03*
%TD*%
D15*
%TO.C,J53*%
X170750000Y-83450000D03*
%TD*%
D20*
%TO.C,J28*%
X191300000Y-61055000D03*
X187300000Y-64855000D03*
X195500000Y-65855000D03*
%TD*%
D10*
%TO.C,J11*%
X99100000Y-91500000D03*
D11*
X101600000Y-91500000D03*
X104100000Y-91500000D03*
%TD*%
D15*
%TO.C,J38*%
X233500000Y-74000000D03*
%TD*%
%TO.C,J20*%
X148400000Y-84500000D03*
%TD*%
%TO.C,J21*%
X143400000Y-79500000D03*
%TD*%
D12*
%TO.C,J2*%
X102160000Y-64000000D03*
X94540000Y-58920000D03*
D13*
X94540000Y-67810000D03*
X102160000Y-68445000D03*
D14*
X98350000Y-72260000D03*
%TD*%
D17*
%TO.C,H1*%
X53500000Y-59000000D03*
%TD*%
M02*
