%TF.GenerationSoftware,KiCad,Pcbnew,9.0.7-1.fc43*%
%TF.CreationDate,2026-03-12T11:21:20+01:00*%
%TF.ProjectId,C-Audio Input Board,432d4175-6469-46f2-9049-6e7075742042,rev?*%
%TF.SameCoordinates,Original*%
%TF.FileFunction,Legend,Bot*%
%TF.FilePolarity,Positive*%
%FSLAX46Y46*%
G04 Gerber Fmt 4.6, Leading zero omitted, Abs format (unit mm)*
G04 Created by KiCad (PCBNEW 9.0.7-1.fc43) date 2026-03-12 11:21:20*
%MOMM*%
%LPD*%
G01*
G04 APERTURE LIST*
%ADD10C,0.010000*%
G04 APERTURE END LIST*
D10*
%TO.C,REF\u002A\u002A*%
X104655563Y-83945328D02*
X104681284Y-83961026D01*
X104707935Y-83982606D01*
X104707935Y-84630063D01*
X104681284Y-84651643D01*
X104649924Y-84669118D01*
X104614123Y-84669954D01*
X104582685Y-84649461D01*
X104578809Y-84644795D01*
X104573343Y-84635328D01*
X104569136Y-84621646D01*
X104566024Y-84601127D01*
X104563844Y-84571147D01*
X104562433Y-84529083D01*
X104561628Y-84472311D01*
X104561264Y-84398209D01*
X104561179Y-84304152D01*
X104561179Y-83982606D01*
X104587830Y-83961026D01*
X104611543Y-83946256D01*
X104634557Y-83939446D01*
X104655563Y-83945328D01*
G36*
X104655563Y-83945328D02*
G01*
X104681284Y-83961026D01*
X104707935Y-83982606D01*
X104707935Y-84630063D01*
X104681284Y-84651643D01*
X104649924Y-84669118D01*
X104614123Y-84669954D01*
X104582685Y-84649461D01*
X104578809Y-84644795D01*
X104573343Y-84635328D01*
X104569136Y-84621646D01*
X104566024Y-84601127D01*
X104563844Y-84571147D01*
X104562433Y-84529083D01*
X104561628Y-84472311D01*
X104561264Y-84398209D01*
X104561179Y-84304152D01*
X104561179Y-83982606D01*
X104587830Y-83961026D01*
X104611543Y-83946256D01*
X104634557Y-83939446D01*
X104655563Y-83945328D01*
G37*
X111786294Y-83943842D02*
X111820448Y-83967155D01*
X111848157Y-83994864D01*
X111848157Y-84307916D01*
X111848116Y-84391946D01*
X111847858Y-84466168D01*
X111847187Y-84522920D01*
X111845909Y-84564891D01*
X111843830Y-84594768D01*
X111840756Y-84615240D01*
X111836491Y-84628993D01*
X111830841Y-84638716D01*
X111823612Y-84647096D01*
X111792148Y-84668560D01*
X111756983Y-84670326D01*
X111723979Y-84650646D01*
X111718673Y-84644777D01*
X111713223Y-84635693D01*
X111709057Y-84622352D01*
X111706003Y-84602136D01*
X111703889Y-84572428D01*
X111702543Y-84530611D01*
X111701795Y-84474068D01*
X111701471Y-84400181D01*
X111701402Y-84306335D01*
X111701441Y-84230673D01*
X111701696Y-84152764D01*
X111702340Y-84092754D01*
X111703544Y-84048027D01*
X111705481Y-84015964D01*
X111708321Y-83993950D01*
X111712236Y-83979366D01*
X111717399Y-83969597D01*
X111723979Y-83962024D01*
X111753163Y-83943002D01*
X111786294Y-83943842D01*
G36*
X111786294Y-83943842D02*
G01*
X111820448Y-83967155D01*
X111848157Y-83994864D01*
X111848157Y-84307916D01*
X111848116Y-84391946D01*
X111847858Y-84466168D01*
X111847187Y-84522920D01*
X111845909Y-84564891D01*
X111843830Y-84594768D01*
X111840756Y-84615240D01*
X111836491Y-84628993D01*
X111830841Y-84638716D01*
X111823612Y-84647096D01*
X111792148Y-84668560D01*
X111756983Y-84670326D01*
X111723979Y-84650646D01*
X111718673Y-84644777D01*
X111713223Y-84635693D01*
X111709057Y-84622352D01*
X111706003Y-84602136D01*
X111703889Y-84572428D01*
X111702543Y-84530611D01*
X111701795Y-84474068D01*
X111701471Y-84400181D01*
X111701402Y-84306335D01*
X111701441Y-84230673D01*
X111701696Y-84152764D01*
X111702340Y-84092754D01*
X111703544Y-84048027D01*
X111705481Y-84015964D01*
X111708321Y-83993950D01*
X111712236Y-83979366D01*
X111717399Y-83969597D01*
X111723979Y-83962024D01*
X111753163Y-83943002D01*
X111786294Y-83943842D01*
G37*
X111254719Y-78703229D02*
X111337470Y-78730432D01*
X111412563Y-78775863D01*
X111484455Y-78841681D01*
X111523003Y-78885946D01*
X111562413Y-78944340D01*
X111587603Y-79004965D01*
X111601018Y-79074244D01*
X111605105Y-79158601D01*
X111604826Y-79204686D01*
X111602617Y-79245829D01*
X111597051Y-79277961D01*
X111586743Y-79308501D01*
X111570305Y-79344868D01*
X111556357Y-79372107D01*
X111497822Y-79457808D01*
X111425776Y-79526996D01*
X111342104Y-79578120D01*
X111248688Y-79609629D01*
X111215591Y-79616604D01*
X111175117Y-79623473D01*
X111142156Y-79625298D01*
X111107855Y-79622326D01*
X111063357Y-79614805D01*
X111012091Y-79602381D01*
X110921591Y-79564491D01*
X110842502Y-79510215D01*
X110776685Y-79442149D01*
X110725997Y-79362890D01*
X110692297Y-79275033D01*
X110677443Y-79181174D01*
X110683293Y-79083909D01*
X110709556Y-78987599D01*
X110754575Y-78898873D01*
X110815530Y-78823798D01*
X110890341Y-78764020D01*
X110976925Y-78721188D01*
X111073200Y-78696950D01*
X111177085Y-78692955D01*
X111254719Y-78703229D01*
G36*
X111254719Y-78703229D02*
G01*
X111337470Y-78730432D01*
X111412563Y-78775863D01*
X111484455Y-78841681D01*
X111523003Y-78885946D01*
X111562413Y-78944340D01*
X111587603Y-79004965D01*
X111601018Y-79074244D01*
X111605105Y-79158601D01*
X111604826Y-79204686D01*
X111602617Y-79245829D01*
X111597051Y-79277961D01*
X111586743Y-79308501D01*
X111570305Y-79344868D01*
X111556357Y-79372107D01*
X111497822Y-79457808D01*
X111425776Y-79526996D01*
X111342104Y-79578120D01*
X111248688Y-79609629D01*
X111215591Y-79616604D01*
X111175117Y-79623473D01*
X111142156Y-79625298D01*
X111107855Y-79622326D01*
X111063357Y-79614805D01*
X111012091Y-79602381D01*
X110921591Y-79564491D01*
X110842502Y-79510215D01*
X110776685Y-79442149D01*
X110725997Y-79362890D01*
X110692297Y-79275033D01*
X110677443Y-79181174D01*
X110683293Y-79083909D01*
X110709556Y-78987599D01*
X110754575Y-78898873D01*
X110815530Y-78823798D01*
X110890341Y-78764020D01*
X110976925Y-78721188D01*
X111073200Y-78696950D01*
X111177085Y-78692955D01*
X111254719Y-78703229D01*
G37*
X103955924Y-83939447D02*
X104050047Y-83939537D01*
X104124562Y-83939877D01*
X104181968Y-83940618D01*
X104224768Y-83941914D01*
X104255461Y-83943916D01*
X104276548Y-83946775D01*
X104290530Y-83950645D01*
X104299907Y-83955677D01*
X104307179Y-83962024D01*
X104325985Y-83994741D01*
X104327432Y-84032318D01*
X104311074Y-84065557D01*
X104309714Y-84067010D01*
X104298511Y-84075371D01*
X104281409Y-84080926D01*
X104254239Y-84084219D01*
X104212835Y-84085797D01*
X104153030Y-84086201D01*
X104013668Y-84086201D01*
X104013668Y-84349968D01*
X104013593Y-84425796D01*
X104013185Y-84492462D01*
X104012203Y-84542246D01*
X104010407Y-84578163D01*
X104007556Y-84603229D01*
X104003410Y-84620460D01*
X103997728Y-84632871D01*
X103990271Y-84643479D01*
X103987981Y-84646285D01*
X103956803Y-84668927D01*
X103922423Y-84670491D01*
X103889491Y-84650646D01*
X103882512Y-84642570D01*
X103877040Y-84631972D01*
X103873020Y-84616128D01*
X103870229Y-84592152D01*
X103868445Y-84557153D01*
X103867446Y-84508243D01*
X103867009Y-84442533D01*
X103866913Y-84357135D01*
X103866913Y-84086201D01*
X103720977Y-84086201D01*
X103709877Y-84086200D01*
X103653359Y-84085975D01*
X103614515Y-84084836D01*
X103589122Y-84082036D01*
X103572961Y-84076829D01*
X103561809Y-84068468D01*
X103551446Y-84056205D01*
X103535598Y-84025517D01*
X103538700Y-83991737D01*
X103564344Y-83959201D01*
X103569286Y-83955484D01*
X103579495Y-83950648D01*
X103594921Y-83946885D01*
X103618043Y-83944062D01*
X103651340Y-83942049D01*
X103697294Y-83940712D01*
X103758385Y-83939921D01*
X103837092Y-83939542D01*
X103935897Y-83939446D01*
X103955924Y-83939447D01*
G36*
X103955924Y-83939447D02*
G01*
X104050047Y-83939537D01*
X104124562Y-83939877D01*
X104181968Y-83940618D01*
X104224768Y-83941914D01*
X104255461Y-83943916D01*
X104276548Y-83946775D01*
X104290530Y-83950645D01*
X104299907Y-83955677D01*
X104307179Y-83962024D01*
X104325985Y-83994741D01*
X104327432Y-84032318D01*
X104311074Y-84065557D01*
X104309714Y-84067010D01*
X104298511Y-84075371D01*
X104281409Y-84080926D01*
X104254239Y-84084219D01*
X104212835Y-84085797D01*
X104153030Y-84086201D01*
X104013668Y-84086201D01*
X104013668Y-84349968D01*
X104013593Y-84425796D01*
X104013185Y-84492462D01*
X104012203Y-84542246D01*
X104010407Y-84578163D01*
X104007556Y-84603229D01*
X104003410Y-84620460D01*
X103997728Y-84632871D01*
X103990271Y-84643479D01*
X103987981Y-84646285D01*
X103956803Y-84668927D01*
X103922423Y-84670491D01*
X103889491Y-84650646D01*
X103882512Y-84642570D01*
X103877040Y-84631972D01*
X103873020Y-84616128D01*
X103870229Y-84592152D01*
X103868445Y-84557153D01*
X103867446Y-84508243D01*
X103867009Y-84442533D01*
X103866913Y-84357135D01*
X103866913Y-84086201D01*
X103720977Y-84086201D01*
X103709877Y-84086200D01*
X103653359Y-84085975D01*
X103614515Y-84084836D01*
X103589122Y-84082036D01*
X103572961Y-84076829D01*
X103561809Y-84068468D01*
X103551446Y-84056205D01*
X103535598Y-84025517D01*
X103538700Y-83991737D01*
X103564344Y-83959201D01*
X103569286Y-83955484D01*
X103579495Y-83950648D01*
X103594921Y-83946885D01*
X103618043Y-83944062D01*
X103651340Y-83942049D01*
X103697294Y-83940712D01*
X103758385Y-83939921D01*
X103837092Y-83939542D01*
X103935897Y-83939446D01*
X103955924Y-83939447D01*
G37*
X103279891Y-83962024D02*
X103285523Y-83968214D01*
X103290613Y-83976420D01*
X103294700Y-83988196D01*
X103297878Y-84005655D01*
X103300244Y-84030909D01*
X103301895Y-84066069D01*
X103302926Y-84113248D01*
X103303434Y-84174556D01*
X103303516Y-84252106D01*
X103303266Y-84348010D01*
X103302782Y-84464379D01*
X103302714Y-84478554D01*
X103302128Y-84540316D01*
X103300805Y-84583999D01*
X103298260Y-84613380D01*
X103294005Y-84632234D01*
X103287553Y-84644338D01*
X103278419Y-84653468D01*
X103244961Y-84670885D01*
X103210013Y-84667983D01*
X103179110Y-84643479D01*
X103170101Y-84630276D01*
X103162649Y-84611740D01*
X103158281Y-84585712D01*
X103156226Y-84547166D01*
X103155713Y-84491079D01*
X103155713Y-84368424D01*
X102659002Y-84368424D01*
X102659002Y-84503250D01*
X102658929Y-84539041D01*
X102658166Y-84585371D01*
X102655990Y-84615905D01*
X102651693Y-84634936D01*
X102644569Y-84646753D01*
X102633912Y-84655650D01*
X102601661Y-84670720D01*
X102566374Y-84668052D01*
X102535643Y-84643479D01*
X102530988Y-84637224D01*
X102525052Y-84626700D01*
X102520521Y-84612770D01*
X102517205Y-84592696D01*
X102514916Y-84563739D01*
X102513465Y-84523159D01*
X102512662Y-84468219D01*
X102512319Y-84396178D01*
X102512246Y-84304299D01*
X102512246Y-83994864D01*
X102539955Y-83967155D01*
X102571334Y-83944912D01*
X102604563Y-83942223D01*
X102636424Y-83962024D01*
X102644710Y-83971794D01*
X102652122Y-83987686D01*
X102656459Y-84011654D01*
X102658495Y-84048527D01*
X102659002Y-84103135D01*
X102659002Y-84221668D01*
X103155713Y-84221668D01*
X103155713Y-84106155D01*
X103156151Y-84054457D01*
X103158115Y-84019933D01*
X103162631Y-83997357D01*
X103170724Y-83981505D01*
X103183422Y-83967155D01*
X103214800Y-83944912D01*
X103248029Y-83942223D01*
X103279891Y-83962024D01*
G36*
X103279891Y-83962024D02*
G01*
X103285523Y-83968214D01*
X103290613Y-83976420D01*
X103294700Y-83988196D01*
X103297878Y-84005655D01*
X103300244Y-84030909D01*
X103301895Y-84066069D01*
X103302926Y-84113248D01*
X103303434Y-84174556D01*
X103303516Y-84252106D01*
X103303266Y-84348010D01*
X103302782Y-84464379D01*
X103302714Y-84478554D01*
X103302128Y-84540316D01*
X103300805Y-84583999D01*
X103298260Y-84613380D01*
X103294005Y-84632234D01*
X103287553Y-84644338D01*
X103278419Y-84653468D01*
X103244961Y-84670885D01*
X103210013Y-84667983D01*
X103179110Y-84643479D01*
X103170101Y-84630276D01*
X103162649Y-84611740D01*
X103158281Y-84585712D01*
X103156226Y-84547166D01*
X103155713Y-84491079D01*
X103155713Y-84368424D01*
X102659002Y-84368424D01*
X102659002Y-84503250D01*
X102658929Y-84539041D01*
X102658166Y-84585371D01*
X102655990Y-84615905D01*
X102651693Y-84634936D01*
X102644569Y-84646753D01*
X102633912Y-84655650D01*
X102601661Y-84670720D01*
X102566374Y-84668052D01*
X102535643Y-84643479D01*
X102530988Y-84637224D01*
X102525052Y-84626700D01*
X102520521Y-84612770D01*
X102517205Y-84592696D01*
X102514916Y-84563739D01*
X102513465Y-84523159D01*
X102512662Y-84468219D01*
X102512319Y-84396178D01*
X102512246Y-84304299D01*
X102512246Y-83994864D01*
X102539955Y-83967155D01*
X102571334Y-83944912D01*
X102604563Y-83942223D01*
X102636424Y-83962024D01*
X102644710Y-83971794D01*
X102652122Y-83987686D01*
X102656459Y-84011654D01*
X102658495Y-84048527D01*
X102659002Y-84103135D01*
X102659002Y-84221668D01*
X103155713Y-84221668D01*
X103155713Y-84106155D01*
X103156151Y-84054457D01*
X103158115Y-84019933D01*
X103162631Y-83997357D01*
X103170724Y-83981505D01*
X103183422Y-83967155D01*
X103214800Y-83944912D01*
X103248029Y-83942223D01*
X103279891Y-83962024D01*
G37*
X107985290Y-84550775D02*
X107983320Y-84583554D01*
X107980392Y-84606474D01*
X107976315Y-84622276D01*
X107970900Y-84633698D01*
X107963960Y-84643479D01*
X107940563Y-84673224D01*
X107774871Y-84672630D01*
X107740075Y-84672332D01*
X107641592Y-84668901D01*
X107560630Y-84661218D01*
X107493536Y-84648661D01*
X107436653Y-84630606D01*
X107386326Y-84606431D01*
X107382967Y-84604514D01*
X107325155Y-84567796D01*
X107282801Y-84530830D01*
X107249985Y-84487345D01*
X107220785Y-84431068D01*
X107216503Y-84421452D01*
X107193926Y-84358266D01*
X107188191Y-84312712D01*
X107337436Y-84312712D01*
X107343049Y-84337440D01*
X107348775Y-84353318D01*
X107381705Y-84413226D01*
X107429043Y-84458979D01*
X107492809Y-84492115D01*
X107575018Y-84514169D01*
X107577812Y-84514671D01*
X107624097Y-84520634D01*
X107680493Y-84524862D01*
X107735431Y-84526468D01*
X107829313Y-84526468D01*
X107829313Y-84086201D01*
X107741824Y-84086649D01*
X107674904Y-84089125D01*
X107582506Y-84100377D01*
X107503191Y-84119916D01*
X107441217Y-84146890D01*
X107410277Y-84167619D01*
X107382157Y-84197385D01*
X107358817Y-84239813D01*
X107351690Y-84255779D01*
X107339866Y-84288281D01*
X107337436Y-84312712D01*
X107188191Y-84312712D01*
X107186954Y-84302888D01*
X107195556Y-84247862D01*
X107219698Y-84185730D01*
X107220494Y-84184037D01*
X107260945Y-84114615D01*
X107311630Y-84058017D01*
X107374355Y-84013449D01*
X107450931Y-83980120D01*
X107543166Y-83957240D01*
X107652869Y-83944015D01*
X107781848Y-83939654D01*
X107785420Y-83939649D01*
X107845440Y-83939789D01*
X107887371Y-83940825D01*
X107915485Y-83943419D01*
X107934054Y-83948232D01*
X107947351Y-83955923D01*
X107959648Y-83967155D01*
X107987357Y-83994864D01*
X107987357Y-84304299D01*
X107987332Y-84365905D01*
X107987107Y-84444690D01*
X107986489Y-84505400D01*
X107985932Y-84526468D01*
X107985290Y-84550775D01*
G36*
X107985290Y-84550775D02*
G01*
X107983320Y-84583554D01*
X107980392Y-84606474D01*
X107976315Y-84622276D01*
X107970900Y-84633698D01*
X107963960Y-84643479D01*
X107940563Y-84673224D01*
X107774871Y-84672630D01*
X107740075Y-84672332D01*
X107641592Y-84668901D01*
X107560630Y-84661218D01*
X107493536Y-84648661D01*
X107436653Y-84630606D01*
X107386326Y-84606431D01*
X107382967Y-84604514D01*
X107325155Y-84567796D01*
X107282801Y-84530830D01*
X107249985Y-84487345D01*
X107220785Y-84431068D01*
X107216503Y-84421452D01*
X107193926Y-84358266D01*
X107188191Y-84312712D01*
X107337436Y-84312712D01*
X107343049Y-84337440D01*
X107348775Y-84353318D01*
X107381705Y-84413226D01*
X107429043Y-84458979D01*
X107492809Y-84492115D01*
X107575018Y-84514169D01*
X107577812Y-84514671D01*
X107624097Y-84520634D01*
X107680493Y-84524862D01*
X107735431Y-84526468D01*
X107829313Y-84526468D01*
X107829313Y-84086201D01*
X107741824Y-84086649D01*
X107674904Y-84089125D01*
X107582506Y-84100377D01*
X107503191Y-84119916D01*
X107441217Y-84146890D01*
X107410277Y-84167619D01*
X107382157Y-84197385D01*
X107358817Y-84239813D01*
X107351690Y-84255779D01*
X107339866Y-84288281D01*
X107337436Y-84312712D01*
X107188191Y-84312712D01*
X107186954Y-84302888D01*
X107195556Y-84247862D01*
X107219698Y-84185730D01*
X107220494Y-84184037D01*
X107260945Y-84114615D01*
X107311630Y-84058017D01*
X107374355Y-84013449D01*
X107450931Y-83980120D01*
X107543166Y-83957240D01*
X107652869Y-83944015D01*
X107781848Y-83939654D01*
X107785420Y-83939649D01*
X107845440Y-83939789D01*
X107887371Y-83940825D01*
X107915485Y-83943419D01*
X107934054Y-83948232D01*
X107947351Y-83955923D01*
X107959648Y-83967155D01*
X107987357Y-83994864D01*
X107987357Y-84304299D01*
X107987332Y-84365905D01*
X107987107Y-84444690D01*
X107986489Y-84505400D01*
X107985932Y-84526468D01*
X107985290Y-84550775D01*
G37*
X115076974Y-84124806D02*
X115077027Y-84205420D01*
X115076779Y-84306335D01*
X115076740Y-84381996D01*
X115076485Y-84459905D01*
X115075841Y-84519915D01*
X115074637Y-84564643D01*
X115072700Y-84596705D01*
X115069860Y-84618719D01*
X115065945Y-84633303D01*
X115060783Y-84643073D01*
X115054202Y-84650646D01*
X115047234Y-84656880D01*
X115034236Y-84664180D01*
X115015088Y-84668933D01*
X114985685Y-84671671D01*
X114941919Y-84672924D01*
X114879685Y-84673224D01*
X114830739Y-84672848D01*
X114723879Y-84668420D01*
X114634651Y-84658332D01*
X114559853Y-84641744D01*
X114496282Y-84617814D01*
X114440736Y-84585700D01*
X114390011Y-84544561D01*
X114384023Y-84538709D01*
X114347156Y-84490200D01*
X114316056Y-84429392D01*
X114294574Y-84365148D01*
X114289293Y-84326405D01*
X114436510Y-84326405D01*
X114454792Y-84377340D01*
X114484462Y-84423257D01*
X114531159Y-84465666D01*
X114592549Y-84495469D01*
X114671695Y-84514605D01*
X114673185Y-84514843D01*
X114722156Y-84520635D01*
X114780850Y-84524775D01*
X114836891Y-84526383D01*
X114930024Y-84526468D01*
X114930024Y-84086201D01*
X114853824Y-84086187D01*
X114850796Y-84086196D01*
X114799676Y-84088161D01*
X114739573Y-84092886D01*
X114682865Y-84099414D01*
X114632907Y-84108710D01*
X114558155Y-84134979D01*
X114500646Y-84174278D01*
X114459145Y-84227312D01*
X114437928Y-84278579D01*
X114436510Y-84326405D01*
X114289293Y-84326405D01*
X114286557Y-84306335D01*
X114287836Y-84285118D01*
X114300148Y-84227702D01*
X114322677Y-84167792D01*
X114351907Y-84113742D01*
X114384324Y-84073911D01*
X114403865Y-84056889D01*
X114458577Y-84017701D01*
X114518880Y-83987572D01*
X114588076Y-83965611D01*
X114669468Y-83950929D01*
X114766357Y-83942638D01*
X114882046Y-83939846D01*
X114921528Y-83939445D01*
X114967239Y-83939032D01*
X115003040Y-83940836D01*
X115030131Y-83947118D01*
X115049713Y-83960138D01*
X115062987Y-83982157D01*
X115071155Y-84015434D01*
X115075417Y-84062230D01*
X115076014Y-84086201D01*
X115076974Y-84124806D01*
G36*
X115076974Y-84124806D02*
G01*
X115077027Y-84205420D01*
X115076779Y-84306335D01*
X115076740Y-84381996D01*
X115076485Y-84459905D01*
X115075841Y-84519915D01*
X115074637Y-84564643D01*
X115072700Y-84596705D01*
X115069860Y-84618719D01*
X115065945Y-84633303D01*
X115060783Y-84643073D01*
X115054202Y-84650646D01*
X115047234Y-84656880D01*
X115034236Y-84664180D01*
X115015088Y-84668933D01*
X114985685Y-84671671D01*
X114941919Y-84672924D01*
X114879685Y-84673224D01*
X114830739Y-84672848D01*
X114723879Y-84668420D01*
X114634651Y-84658332D01*
X114559853Y-84641744D01*
X114496282Y-84617814D01*
X114440736Y-84585700D01*
X114390011Y-84544561D01*
X114384023Y-84538709D01*
X114347156Y-84490200D01*
X114316056Y-84429392D01*
X114294574Y-84365148D01*
X114289293Y-84326405D01*
X114436510Y-84326405D01*
X114454792Y-84377340D01*
X114484462Y-84423257D01*
X114531159Y-84465666D01*
X114592549Y-84495469D01*
X114671695Y-84514605D01*
X114673185Y-84514843D01*
X114722156Y-84520635D01*
X114780850Y-84524775D01*
X114836891Y-84526383D01*
X114930024Y-84526468D01*
X114930024Y-84086201D01*
X114853824Y-84086187D01*
X114850796Y-84086196D01*
X114799676Y-84088161D01*
X114739573Y-84092886D01*
X114682865Y-84099414D01*
X114632907Y-84108710D01*
X114558155Y-84134979D01*
X114500646Y-84174278D01*
X114459145Y-84227312D01*
X114437928Y-84278579D01*
X114436510Y-84326405D01*
X114289293Y-84326405D01*
X114286557Y-84306335D01*
X114287836Y-84285118D01*
X114300148Y-84227702D01*
X114322677Y-84167792D01*
X114351907Y-84113742D01*
X114384324Y-84073911D01*
X114403865Y-84056889D01*
X114458577Y-84017701D01*
X114518880Y-83987572D01*
X114588076Y-83965611D01*
X114669468Y-83950929D01*
X114766357Y-83942638D01*
X114882046Y-83939846D01*
X114921528Y-83939445D01*
X114967239Y-83939032D01*
X115003040Y-83940836D01*
X115030131Y-83947118D01*
X115049713Y-83960138D01*
X115062987Y-83982157D01*
X115071155Y-84015434D01*
X115075417Y-84062230D01*
X115076014Y-84086201D01*
X115076974Y-84124806D01*
G37*
X110132050Y-83938271D02*
X110143458Y-83944408D01*
X110154007Y-83955070D01*
X110165293Y-83969190D01*
X110169746Y-83975151D01*
X110175745Y-83985647D01*
X110180324Y-83999472D01*
X110183676Y-84019377D01*
X110185990Y-84048111D01*
X110187458Y-84088424D01*
X110188270Y-84143066D01*
X110188617Y-84214786D01*
X110188691Y-84306335D01*
X110188668Y-84364865D01*
X110188449Y-84443952D01*
X110187840Y-84504895D01*
X110186649Y-84550441D01*
X110184686Y-84583342D01*
X110181760Y-84606347D01*
X110177680Y-84622205D01*
X110172254Y-84633665D01*
X110165293Y-84643479D01*
X110134865Y-84667872D01*
X110099922Y-84670751D01*
X110062941Y-84651661D01*
X110058757Y-84648186D01*
X110050581Y-84639658D01*
X110044521Y-84628107D01*
X110040138Y-84610275D01*
X110036996Y-84582903D01*
X110034659Y-84542733D01*
X110032688Y-84486507D01*
X110030646Y-84410968D01*
X110025002Y-84191837D01*
X109759713Y-84432478D01*
X109685879Y-84499254D01*
X109620699Y-84557370D01*
X109568505Y-84602328D01*
X109527430Y-84635250D01*
X109495612Y-84657258D01*
X109471183Y-84669473D01*
X109452281Y-84673018D01*
X109437040Y-84669015D01*
X109423596Y-84658586D01*
X109410084Y-84642853D01*
X109403839Y-84634370D01*
X109398207Y-84623792D01*
X109393996Y-84609634D01*
X109391044Y-84589182D01*
X109389189Y-84559721D01*
X109388270Y-84518540D01*
X109388125Y-84462923D01*
X109388592Y-84390158D01*
X109389509Y-84297530D01*
X109392824Y-83982578D01*
X109419475Y-83961012D01*
X109445540Y-83944820D01*
X109478398Y-83942049D01*
X109512929Y-83961002D01*
X109517241Y-83964587D01*
X109525373Y-83973116D01*
X109531402Y-83984708D01*
X109535763Y-84002614D01*
X109538891Y-84030085D01*
X109541220Y-84070373D01*
X109543186Y-84126730D01*
X109545224Y-84202408D01*
X109550868Y-84422257D01*
X109731491Y-84258463D01*
X109818229Y-84179830D01*
X109894000Y-84111437D01*
X109956137Y-84056087D01*
X110006235Y-84012717D01*
X110045892Y-83980260D01*
X110076705Y-83957652D01*
X110100271Y-83943827D01*
X110118187Y-83937722D01*
X110132050Y-83938271D01*
G36*
X110132050Y-83938271D02*
G01*
X110143458Y-83944408D01*
X110154007Y-83955070D01*
X110165293Y-83969190D01*
X110169746Y-83975151D01*
X110175745Y-83985647D01*
X110180324Y-83999472D01*
X110183676Y-84019377D01*
X110185990Y-84048111D01*
X110187458Y-84088424D01*
X110188270Y-84143066D01*
X110188617Y-84214786D01*
X110188691Y-84306335D01*
X110188668Y-84364865D01*
X110188449Y-84443952D01*
X110187840Y-84504895D01*
X110186649Y-84550441D01*
X110184686Y-84583342D01*
X110181760Y-84606347D01*
X110177680Y-84622205D01*
X110172254Y-84633665D01*
X110165293Y-84643479D01*
X110134865Y-84667872D01*
X110099922Y-84670751D01*
X110062941Y-84651661D01*
X110058757Y-84648186D01*
X110050581Y-84639658D01*
X110044521Y-84628107D01*
X110040138Y-84610275D01*
X110036996Y-84582903D01*
X110034659Y-84542733D01*
X110032688Y-84486507D01*
X110030646Y-84410968D01*
X110025002Y-84191837D01*
X109759713Y-84432478D01*
X109685879Y-84499254D01*
X109620699Y-84557370D01*
X109568505Y-84602328D01*
X109527430Y-84635250D01*
X109495612Y-84657258D01*
X109471183Y-84669473D01*
X109452281Y-84673018D01*
X109437040Y-84669015D01*
X109423596Y-84658586D01*
X109410084Y-84642853D01*
X109403839Y-84634370D01*
X109398207Y-84623792D01*
X109393996Y-84609634D01*
X109391044Y-84589182D01*
X109389189Y-84559721D01*
X109388270Y-84518540D01*
X109388125Y-84462923D01*
X109388592Y-84390158D01*
X109389509Y-84297530D01*
X109392824Y-83982578D01*
X109419475Y-83961012D01*
X109445540Y-83944820D01*
X109478398Y-83942049D01*
X109512929Y-83961002D01*
X109517241Y-83964587D01*
X109525373Y-83973116D01*
X109531402Y-83984708D01*
X109535763Y-84002614D01*
X109538891Y-84030085D01*
X109541220Y-84070373D01*
X109543186Y-84126730D01*
X109545224Y-84202408D01*
X109550868Y-84422257D01*
X109731491Y-84258463D01*
X109818229Y-84179830D01*
X109894000Y-84111437D01*
X109956137Y-84056087D01*
X110006235Y-84012717D01*
X110045892Y-83980260D01*
X110076705Y-83957652D01*
X110100271Y-83943827D01*
X110118187Y-83937722D01*
X110132050Y-83938271D01*
G37*
X110929307Y-83944558D02*
X111035314Y-83960873D01*
X111129126Y-83988924D01*
X111207922Y-84027831D01*
X111268876Y-84076713D01*
X111294946Y-84109574D01*
X111324454Y-84158773D01*
X111349725Y-84212631D01*
X111367375Y-84263798D01*
X111374015Y-84304923D01*
X111372455Y-84324638D01*
X111359514Y-84375971D01*
X111336351Y-84432497D01*
X111306459Y-84486414D01*
X111273330Y-84529918D01*
X111263134Y-84540266D01*
X111196049Y-84592041D01*
X111115923Y-84631933D01*
X111029713Y-84656335D01*
X110974749Y-84664447D01*
X110881296Y-84671052D01*
X110791515Y-84668965D01*
X110709026Y-84658719D01*
X110637443Y-84640849D01*
X110580385Y-84615887D01*
X110541468Y-84584367D01*
X110540093Y-84582391D01*
X110533005Y-84557165D01*
X110528766Y-84509914D01*
X110527357Y-84440450D01*
X110528217Y-84378217D01*
X110532937Y-84330835D01*
X110544627Y-84298732D01*
X110566396Y-84279179D01*
X110601355Y-84269449D01*
X110652613Y-84266812D01*
X110723280Y-84268540D01*
X110771900Y-84271552D01*
X110822096Y-84279745D01*
X110854590Y-84293798D01*
X110872049Y-84315033D01*
X110877140Y-84344773D01*
X110877034Y-84349315D01*
X110868332Y-84384109D01*
X110844322Y-84407526D01*
X110803057Y-84420726D01*
X110742588Y-84424868D01*
X110674113Y-84424868D01*
X110674113Y-84463220D01*
X110674163Y-84472355D01*
X110676384Y-84489606D01*
X110685651Y-84499900D01*
X110707032Y-84506838D01*
X110745593Y-84514020D01*
X110751067Y-84514954D01*
X110848017Y-84524857D01*
X110938009Y-84521938D01*
X111018917Y-84507208D01*
X111088616Y-84481678D01*
X111144981Y-84446357D01*
X111185886Y-84402258D01*
X111209208Y-84350391D01*
X111212820Y-84291767D01*
X111207302Y-84262873D01*
X111180618Y-84206983D01*
X111134430Y-84161324D01*
X111069448Y-84126487D01*
X110986386Y-84103069D01*
X110961712Y-84098620D01*
X110872383Y-84088121D01*
X110792576Y-84089350D01*
X110714483Y-84102285D01*
X110679340Y-84109075D01*
X110633902Y-84110092D01*
X110602587Y-84097561D01*
X110582434Y-84070774D01*
X110576050Y-84042527D01*
X110585536Y-84011303D01*
X110594865Y-83997878D01*
X110629100Y-83974346D01*
X110681722Y-83956474D01*
X110750238Y-83944978D01*
X110832157Y-83940571D01*
X110929307Y-83944558D01*
G36*
X110929307Y-83944558D02*
G01*
X111035314Y-83960873D01*
X111129126Y-83988924D01*
X111207922Y-84027831D01*
X111268876Y-84076713D01*
X111294946Y-84109574D01*
X111324454Y-84158773D01*
X111349725Y-84212631D01*
X111367375Y-84263798D01*
X111374015Y-84304923D01*
X111372455Y-84324638D01*
X111359514Y-84375971D01*
X111336351Y-84432497D01*
X111306459Y-84486414D01*
X111273330Y-84529918D01*
X111263134Y-84540266D01*
X111196049Y-84592041D01*
X111115923Y-84631933D01*
X111029713Y-84656335D01*
X110974749Y-84664447D01*
X110881296Y-84671052D01*
X110791515Y-84668965D01*
X110709026Y-84658719D01*
X110637443Y-84640849D01*
X110580385Y-84615887D01*
X110541468Y-84584367D01*
X110540093Y-84582391D01*
X110533005Y-84557165D01*
X110528766Y-84509914D01*
X110527357Y-84440450D01*
X110528217Y-84378217D01*
X110532937Y-84330835D01*
X110544627Y-84298732D01*
X110566396Y-84279179D01*
X110601355Y-84269449D01*
X110652613Y-84266812D01*
X110723280Y-84268540D01*
X110771900Y-84271552D01*
X110822096Y-84279745D01*
X110854590Y-84293798D01*
X110872049Y-84315033D01*
X110877140Y-84344773D01*
X110877034Y-84349315D01*
X110868332Y-84384109D01*
X110844322Y-84407526D01*
X110803057Y-84420726D01*
X110742588Y-84424868D01*
X110674113Y-84424868D01*
X110674113Y-84463220D01*
X110674163Y-84472355D01*
X110676384Y-84489606D01*
X110685651Y-84499900D01*
X110707032Y-84506838D01*
X110745593Y-84514020D01*
X110751067Y-84514954D01*
X110848017Y-84524857D01*
X110938009Y-84521938D01*
X111018917Y-84507208D01*
X111088616Y-84481678D01*
X111144981Y-84446357D01*
X111185886Y-84402258D01*
X111209208Y-84350391D01*
X111212820Y-84291767D01*
X111207302Y-84262873D01*
X111180618Y-84206983D01*
X111134430Y-84161324D01*
X111069448Y-84126487D01*
X110986386Y-84103069D01*
X110961712Y-84098620D01*
X110872383Y-84088121D01*
X110792576Y-84089350D01*
X110714483Y-84102285D01*
X110679340Y-84109075D01*
X110633902Y-84110092D01*
X110602587Y-84097561D01*
X110582434Y-84070774D01*
X110576050Y-84042527D01*
X110585536Y-84011303D01*
X110594865Y-83997878D01*
X110629100Y-83974346D01*
X110681722Y-83956474D01*
X110750238Y-83944978D01*
X110832157Y-83940571D01*
X110929307Y-83944558D01*
G37*
X108979960Y-83969190D02*
X108984909Y-83975874D01*
X108990753Y-83986445D01*
X108995214Y-84000532D01*
X108998478Y-84020857D01*
X109000731Y-84050144D01*
X109002159Y-84091116D01*
X109002949Y-84146496D01*
X109003286Y-84219007D01*
X109003357Y-84311373D01*
X109003328Y-84377290D01*
X109003096Y-84455607D01*
X109002476Y-84515875D01*
X109001283Y-84560772D01*
X108999336Y-84592981D01*
X108996451Y-84615179D01*
X108992445Y-84630048D01*
X108987136Y-84640268D01*
X108980340Y-84648517D01*
X108975825Y-84653174D01*
X108967595Y-84659661D01*
X108956235Y-84664573D01*
X108938967Y-84668128D01*
X108913012Y-84670546D01*
X108875593Y-84672046D01*
X108823930Y-84672846D01*
X108755246Y-84673166D01*
X108666763Y-84673224D01*
X108647088Y-84673217D01*
X108560063Y-84672951D01*
X108492411Y-84672185D01*
X108441456Y-84670771D01*
X108404524Y-84668559D01*
X108378940Y-84665401D01*
X108362028Y-84661148D01*
X108351114Y-84655650D01*
X108340621Y-84645664D01*
X108327360Y-84614547D01*
X108328543Y-84578659D01*
X108344707Y-84547112D01*
X108346896Y-84544836D01*
X108355584Y-84538568D01*
X108368926Y-84533902D01*
X108389909Y-84530606D01*
X108421520Y-84528447D01*
X108466747Y-84527193D01*
X108528577Y-84526610D01*
X108609996Y-84526468D01*
X108856602Y-84526468D01*
X108856602Y-84368424D01*
X108694163Y-84368424D01*
X108658495Y-84368343D01*
X108602725Y-84367546D01*
X108563587Y-84365541D01*
X108537133Y-84361900D01*
X108519416Y-84356191D01*
X108506486Y-84347986D01*
X108502843Y-84344802D01*
X108484435Y-84313827D01*
X108483801Y-84277491D01*
X108501340Y-84243872D01*
X108501402Y-84243803D01*
X108511073Y-84235177D01*
X108524366Y-84229121D01*
X108545074Y-84225190D01*
X108576985Y-84222935D01*
X108623891Y-84221910D01*
X108689581Y-84221668D01*
X108857728Y-84221668D01*
X108854343Y-84156757D01*
X108850957Y-84091846D01*
X108608880Y-84088793D01*
X108583864Y-84088465D01*
X108502244Y-84086985D01*
X108439925Y-84084601D01*
X108394311Y-84080606D01*
X108362809Y-84074292D01*
X108342824Y-84064953D01*
X108331761Y-84051882D01*
X108327026Y-84034371D01*
X108326024Y-84011714D01*
X108326030Y-84009349D01*
X108327184Y-83989318D01*
X108331981Y-83973525D01*
X108342789Y-83961469D01*
X108361974Y-83952646D01*
X108391902Y-83946554D01*
X108434940Y-83942690D01*
X108493456Y-83940553D01*
X108569814Y-83939639D01*
X108666383Y-83939446D01*
X108956563Y-83939446D01*
X108979960Y-83969190D01*
G36*
X108979960Y-83969190D02*
G01*
X108984909Y-83975874D01*
X108990753Y-83986445D01*
X108995214Y-84000532D01*
X108998478Y-84020857D01*
X109000731Y-84050144D01*
X109002159Y-84091116D01*
X109002949Y-84146496D01*
X109003286Y-84219007D01*
X109003357Y-84311373D01*
X109003328Y-84377290D01*
X109003096Y-84455607D01*
X109002476Y-84515875D01*
X109001283Y-84560772D01*
X108999336Y-84592981D01*
X108996451Y-84615179D01*
X108992445Y-84630048D01*
X108987136Y-84640268D01*
X108980340Y-84648517D01*
X108975825Y-84653174D01*
X108967595Y-84659661D01*
X108956235Y-84664573D01*
X108938967Y-84668128D01*
X108913012Y-84670546D01*
X108875593Y-84672046D01*
X108823930Y-84672846D01*
X108755246Y-84673166D01*
X108666763Y-84673224D01*
X108647088Y-84673217D01*
X108560063Y-84672951D01*
X108492411Y-84672185D01*
X108441456Y-84670771D01*
X108404524Y-84668559D01*
X108378940Y-84665401D01*
X108362028Y-84661148D01*
X108351114Y-84655650D01*
X108340621Y-84645664D01*
X108327360Y-84614547D01*
X108328543Y-84578659D01*
X108344707Y-84547112D01*
X108346896Y-84544836D01*
X108355584Y-84538568D01*
X108368926Y-84533902D01*
X108389909Y-84530606D01*
X108421520Y-84528447D01*
X108466747Y-84527193D01*
X108528577Y-84526610D01*
X108609996Y-84526468D01*
X108856602Y-84526468D01*
X108856602Y-84368424D01*
X108694163Y-84368424D01*
X108658495Y-84368343D01*
X108602725Y-84367546D01*
X108563587Y-84365541D01*
X108537133Y-84361900D01*
X108519416Y-84356191D01*
X108506486Y-84347986D01*
X108502843Y-84344802D01*
X108484435Y-84313827D01*
X108483801Y-84277491D01*
X108501340Y-84243872D01*
X108501402Y-84243803D01*
X108511073Y-84235177D01*
X108524366Y-84229121D01*
X108545074Y-84225190D01*
X108576985Y-84222935D01*
X108623891Y-84221910D01*
X108689581Y-84221668D01*
X108857728Y-84221668D01*
X108854343Y-84156757D01*
X108850957Y-84091846D01*
X108608880Y-84088793D01*
X108583864Y-84088465D01*
X108502244Y-84086985D01*
X108439925Y-84084601D01*
X108394311Y-84080606D01*
X108362809Y-84074292D01*
X108342824Y-84064953D01*
X108331761Y-84051882D01*
X108327026Y-84034371D01*
X108326024Y-84011714D01*
X108326030Y-84009349D01*
X108327184Y-83989318D01*
X108331981Y-83973525D01*
X108342789Y-83961469D01*
X108361974Y-83952646D01*
X108391902Y-83946554D01*
X108434940Y-83942690D01*
X108493456Y-83940553D01*
X108569814Y-83939639D01*
X108666383Y-83939446D01*
X108956563Y-83939446D01*
X108979960Y-83969190D01*
G37*
X113656891Y-83939462D02*
X113733988Y-83939654D01*
X113792934Y-83940239D01*
X113836521Y-83941430D01*
X113867540Y-83943443D01*
X113888782Y-83946491D01*
X113903039Y-83950788D01*
X113913102Y-83956551D01*
X113921763Y-83963991D01*
X113923548Y-83965672D01*
X113930792Y-83973211D01*
X113936434Y-83982229D01*
X113940674Y-83995363D01*
X113943713Y-84015251D01*
X113945751Y-84044530D01*
X113946987Y-84085837D01*
X113947622Y-84141810D01*
X113947857Y-84215086D01*
X113947891Y-84308302D01*
X113947854Y-84381092D01*
X113947605Y-84459268D01*
X113946969Y-84519482D01*
X113945772Y-84564361D01*
X113943841Y-84596531D01*
X113941003Y-84618618D01*
X113937084Y-84633249D01*
X113931912Y-84643049D01*
X113925313Y-84650646D01*
X113921979Y-84653823D01*
X113913457Y-84659933D01*
X113901455Y-84664608D01*
X113883244Y-84668038D01*
X113856097Y-84670415D01*
X113817286Y-84671931D01*
X113764081Y-84672777D01*
X113693755Y-84673144D01*
X113603579Y-84673224D01*
X113561471Y-84673212D01*
X113480324Y-84673030D01*
X113417832Y-84672477D01*
X113371266Y-84671361D01*
X113337898Y-84669492D01*
X113315001Y-84666677D01*
X113299845Y-84662725D01*
X113289703Y-84657445D01*
X113281846Y-84650646D01*
X113267120Y-84629046D01*
X113259268Y-84599846D01*
X113264767Y-84575939D01*
X113281846Y-84549046D01*
X113286825Y-84544438D01*
X113296600Y-84538151D01*
X113310716Y-84533525D01*
X113332211Y-84530309D01*
X113364125Y-84528249D01*
X113409499Y-84527091D01*
X113471370Y-84526581D01*
X113552779Y-84526468D01*
X113801135Y-84526468D01*
X113801135Y-84368424D01*
X113639958Y-84368424D01*
X113604140Y-84368278D01*
X113538516Y-84366555D01*
X113491275Y-84362120D01*
X113459540Y-84354016D01*
X113440434Y-84341285D01*
X113431080Y-84322971D01*
X113428602Y-84298117D01*
X113429399Y-84277861D01*
X113434651Y-84256035D01*
X113447445Y-84240683D01*
X113470785Y-84230688D01*
X113507674Y-84224932D01*
X113561116Y-84222298D01*
X113634115Y-84221668D01*
X113802262Y-84221668D01*
X113798876Y-84156757D01*
X113795491Y-84091846D01*
X113547774Y-84088797D01*
X113485183Y-84087918D01*
X113416722Y-84086474D01*
X113365818Y-84084543D01*
X113329565Y-84081893D01*
X113305058Y-84078289D01*
X113289392Y-84073500D01*
X113279663Y-84067292D01*
X113273648Y-84060889D01*
X113260639Y-84029207D01*
X113264200Y-83993521D01*
X113283975Y-83962463D01*
X113287226Y-83959540D01*
X113296206Y-83953189D01*
X113308310Y-83948336D01*
X113326316Y-83944782D01*
X113353004Y-83942325D01*
X113391154Y-83940764D01*
X113443543Y-83939897D01*
X113512951Y-83939525D01*
X113602158Y-83939446D01*
X113656891Y-83939462D01*
G36*
X113656891Y-83939462D02*
G01*
X113733988Y-83939654D01*
X113792934Y-83940239D01*
X113836521Y-83941430D01*
X113867540Y-83943443D01*
X113888782Y-83946491D01*
X113903039Y-83950788D01*
X113913102Y-83956551D01*
X113921763Y-83963991D01*
X113923548Y-83965672D01*
X113930792Y-83973211D01*
X113936434Y-83982229D01*
X113940674Y-83995363D01*
X113943713Y-84015251D01*
X113945751Y-84044530D01*
X113946987Y-84085837D01*
X113947622Y-84141810D01*
X113947857Y-84215086D01*
X113947891Y-84308302D01*
X113947854Y-84381092D01*
X113947605Y-84459268D01*
X113946969Y-84519482D01*
X113945772Y-84564361D01*
X113943841Y-84596531D01*
X113941003Y-84618618D01*
X113937084Y-84633249D01*
X113931912Y-84643049D01*
X113925313Y-84650646D01*
X113921979Y-84653823D01*
X113913457Y-84659933D01*
X113901455Y-84664608D01*
X113883244Y-84668038D01*
X113856097Y-84670415D01*
X113817286Y-84671931D01*
X113764081Y-84672777D01*
X113693755Y-84673144D01*
X113603579Y-84673224D01*
X113561471Y-84673212D01*
X113480324Y-84673030D01*
X113417832Y-84672477D01*
X113371266Y-84671361D01*
X113337898Y-84669492D01*
X113315001Y-84666677D01*
X113299845Y-84662725D01*
X113289703Y-84657445D01*
X113281846Y-84650646D01*
X113267120Y-84629046D01*
X113259268Y-84599846D01*
X113264767Y-84575939D01*
X113281846Y-84549046D01*
X113286825Y-84544438D01*
X113296600Y-84538151D01*
X113310716Y-84533525D01*
X113332211Y-84530309D01*
X113364125Y-84528249D01*
X113409499Y-84527091D01*
X113471370Y-84526581D01*
X113552779Y-84526468D01*
X113801135Y-84526468D01*
X113801135Y-84368424D01*
X113639958Y-84368424D01*
X113604140Y-84368278D01*
X113538516Y-84366555D01*
X113491275Y-84362120D01*
X113459540Y-84354016D01*
X113440434Y-84341285D01*
X113431080Y-84322971D01*
X113428602Y-84298117D01*
X113429399Y-84277861D01*
X113434651Y-84256035D01*
X113447445Y-84240683D01*
X113470785Y-84230688D01*
X113507674Y-84224932D01*
X113561116Y-84222298D01*
X113634115Y-84221668D01*
X113802262Y-84221668D01*
X113798876Y-84156757D01*
X113795491Y-84091846D01*
X113547774Y-84088797D01*
X113485183Y-84087918D01*
X113416722Y-84086474D01*
X113365818Y-84084543D01*
X113329565Y-84081893D01*
X113305058Y-84078289D01*
X113289392Y-84073500D01*
X113279663Y-84067292D01*
X113273648Y-84060889D01*
X113260639Y-84029207D01*
X113264200Y-83993521D01*
X113283975Y-83962463D01*
X113287226Y-83959540D01*
X113296206Y-83953189D01*
X113308310Y-83948336D01*
X113326316Y-83944782D01*
X113353004Y-83942325D01*
X113391154Y-83940764D01*
X113443543Y-83939897D01*
X113512951Y-83939525D01*
X113602158Y-83939446D01*
X113656891Y-83939462D01*
G37*
X105089859Y-83948857D02*
X105107820Y-83967368D01*
X105128420Y-83998450D01*
X105153252Y-84044135D01*
X105183907Y-84106457D01*
X105221977Y-84187450D01*
X105236611Y-84218833D01*
X105266360Y-84282017D01*
X105292454Y-84336623D01*
X105313449Y-84379669D01*
X105327896Y-84408172D01*
X105334348Y-84419149D01*
X105335707Y-84418568D01*
X105345699Y-84404621D01*
X105362990Y-84375083D01*
X105385587Y-84333466D01*
X105411495Y-84283282D01*
X105427468Y-84251793D01*
X105456418Y-84196440D01*
X105478906Y-84157423D01*
X105497122Y-84131945D01*
X105513253Y-84117210D01*
X105529487Y-84110421D01*
X105548014Y-84108779D01*
X105558517Y-84109254D01*
X105574633Y-84113461D01*
X105589947Y-84124325D01*
X105606545Y-84144598D01*
X105626514Y-84177033D01*
X105651940Y-84224383D01*
X105684909Y-84289401D01*
X105694642Y-84308656D01*
X105719100Y-84355325D01*
X105739335Y-84391488D01*
X105753468Y-84413876D01*
X105759617Y-84419224D01*
X105760984Y-84415952D01*
X105770359Y-84395043D01*
X105787219Y-84358104D01*
X105810136Y-84308253D01*
X105837677Y-84248605D01*
X105868412Y-84182277D01*
X105895127Y-84125056D01*
X105924750Y-84063067D01*
X105947821Y-84017328D01*
X105965800Y-83985287D01*
X105980147Y-83964393D01*
X105992323Y-83952097D01*
X106003789Y-83945845D01*
X106013199Y-83942953D01*
X106038304Y-83942804D01*
X106065447Y-83958147D01*
X106066747Y-83959132D01*
X106088831Y-83981767D01*
X106099880Y-84003992D01*
X106099926Y-84004632D01*
X106095385Y-84022294D01*
X106082521Y-84056860D01*
X106062762Y-84105205D01*
X106037538Y-84164204D01*
X106008276Y-84230734D01*
X105976407Y-84301670D01*
X105943358Y-84373886D01*
X105910558Y-84444259D01*
X105879437Y-84509664D01*
X105851422Y-84566976D01*
X105827943Y-84613071D01*
X105810429Y-84644825D01*
X105800308Y-84659112D01*
X105765900Y-84672481D01*
X105724203Y-84666120D01*
X105718838Y-84661423D01*
X105703009Y-84639272D01*
X105680807Y-84602511D01*
X105654390Y-84554794D01*
X105625917Y-84499772D01*
X105546143Y-84340529D01*
X105472956Y-84487121D01*
X105463260Y-84506411D01*
X105436282Y-84558759D01*
X105412253Y-84603549D01*
X105393489Y-84636533D01*
X105382303Y-84653468D01*
X105381157Y-84654711D01*
X105353036Y-84669998D01*
X105317974Y-84671681D01*
X105286933Y-84659112D01*
X105284507Y-84656263D01*
X105272247Y-84635638D01*
X105252509Y-84598087D01*
X105226605Y-84546259D01*
X105195842Y-84482802D01*
X105161532Y-84410364D01*
X105124982Y-84331595D01*
X105104742Y-84287472D01*
X105067969Y-84206744D01*
X105039512Y-84143066D01*
X105018488Y-84094131D01*
X105004011Y-84057636D01*
X104995196Y-84031274D01*
X104991161Y-84012740D01*
X104991019Y-83999731D01*
X104993887Y-83989940D01*
X105008544Y-83969057D01*
X105035147Y-83948756D01*
X105035902Y-83948414D01*
X105055492Y-83941413D01*
X105072947Y-83940883D01*
X105089859Y-83948857D01*
G36*
X105089859Y-83948857D02*
G01*
X105107820Y-83967368D01*
X105128420Y-83998450D01*
X105153252Y-84044135D01*
X105183907Y-84106457D01*
X105221977Y-84187450D01*
X105236611Y-84218833D01*
X105266360Y-84282017D01*
X105292454Y-84336623D01*
X105313449Y-84379669D01*
X105327896Y-84408172D01*
X105334348Y-84419149D01*
X105335707Y-84418568D01*
X105345699Y-84404621D01*
X105362990Y-84375083D01*
X105385587Y-84333466D01*
X105411495Y-84283282D01*
X105427468Y-84251793D01*
X105456418Y-84196440D01*
X105478906Y-84157423D01*
X105497122Y-84131945D01*
X105513253Y-84117210D01*
X105529487Y-84110421D01*
X105548014Y-84108779D01*
X105558517Y-84109254D01*
X105574633Y-84113461D01*
X105589947Y-84124325D01*
X105606545Y-84144598D01*
X105626514Y-84177033D01*
X105651940Y-84224383D01*
X105684909Y-84289401D01*
X105694642Y-84308656D01*
X105719100Y-84355325D01*
X105739335Y-84391488D01*
X105753468Y-84413876D01*
X105759617Y-84419224D01*
X105760984Y-84415952D01*
X105770359Y-84395043D01*
X105787219Y-84358104D01*
X105810136Y-84308253D01*
X105837677Y-84248605D01*
X105868412Y-84182277D01*
X105895127Y-84125056D01*
X105924750Y-84063067D01*
X105947821Y-84017328D01*
X105965800Y-83985287D01*
X105980147Y-83964393D01*
X105992323Y-83952097D01*
X106003789Y-83945845D01*
X106013199Y-83942953D01*
X106038304Y-83942804D01*
X106065447Y-83958147D01*
X106066747Y-83959132D01*
X106088831Y-83981767D01*
X106099880Y-84003992D01*
X106099926Y-84004632D01*
X106095385Y-84022294D01*
X106082521Y-84056860D01*
X106062762Y-84105205D01*
X106037538Y-84164204D01*
X106008276Y-84230734D01*
X105976407Y-84301670D01*
X105943358Y-84373886D01*
X105910558Y-84444259D01*
X105879437Y-84509664D01*
X105851422Y-84566976D01*
X105827943Y-84613071D01*
X105810429Y-84644825D01*
X105800308Y-84659112D01*
X105765900Y-84672481D01*
X105724203Y-84666120D01*
X105718838Y-84661423D01*
X105703009Y-84639272D01*
X105680807Y-84602511D01*
X105654390Y-84554794D01*
X105625917Y-84499772D01*
X105546143Y-84340529D01*
X105472956Y-84487121D01*
X105463260Y-84506411D01*
X105436282Y-84558759D01*
X105412253Y-84603549D01*
X105393489Y-84636533D01*
X105382303Y-84653468D01*
X105381157Y-84654711D01*
X105353036Y-84669998D01*
X105317974Y-84671681D01*
X105286933Y-84659112D01*
X105284507Y-84656263D01*
X105272247Y-84635638D01*
X105252509Y-84598087D01*
X105226605Y-84546259D01*
X105195842Y-84482802D01*
X105161532Y-84410364D01*
X105124982Y-84331595D01*
X105104742Y-84287472D01*
X105067969Y-84206744D01*
X105039512Y-84143066D01*
X105018488Y-84094131D01*
X105004011Y-84057636D01*
X104995196Y-84031274D01*
X104991161Y-84012740D01*
X104991019Y-83999731D01*
X104993887Y-83989940D01*
X105008544Y-83969057D01*
X105035147Y-83948756D01*
X105035902Y-83948414D01*
X105055492Y-83941413D01*
X105072947Y-83940883D01*
X105089859Y-83948857D01*
G37*
X112641010Y-83940315D02*
X112707257Y-83945745D01*
X112762557Y-83955343D01*
X112813440Y-83970204D01*
X112884752Y-84003337D01*
X112935909Y-84046019D01*
X112966732Y-84098084D01*
X112977046Y-84159362D01*
X112976109Y-84190611D01*
X112970317Y-84215408D01*
X112955510Y-84237078D01*
X112927537Y-84264428D01*
X112919559Y-84271757D01*
X112895849Y-84292660D01*
X112873455Y-84309630D01*
X112849422Y-84323584D01*
X112820794Y-84335435D01*
X112784617Y-84346099D01*
X112737937Y-84356490D01*
X112677798Y-84367525D01*
X112601247Y-84380117D01*
X112505328Y-84395183D01*
X112486965Y-84398217D01*
X112424635Y-84411837D01*
X112379417Y-84427571D01*
X112353133Y-84444642D01*
X112347604Y-84462276D01*
X112350225Y-84466547D01*
X112368157Y-84481612D01*
X112396283Y-84498246D01*
X112409083Y-84504236D01*
X112430381Y-84511429D01*
X112456767Y-84516206D01*
X112492611Y-84519025D01*
X112542285Y-84520343D01*
X112610157Y-84520616D01*
X112627942Y-84520543D01*
X112695563Y-84519432D01*
X112760502Y-84517207D01*
X112816127Y-84514141D01*
X112855808Y-84510506D01*
X112891319Y-84506438D01*
X112920572Y-84505655D01*
X112939472Y-84510255D01*
X112954586Y-84520930D01*
X112958242Y-84524523D01*
X112974584Y-84556297D01*
X112973264Y-84591951D01*
X112954307Y-84622569D01*
X112933937Y-84634175D01*
X112897953Y-84646870D01*
X112855529Y-84656920D01*
X112852079Y-84657519D01*
X112809409Y-84662735D01*
X112752023Y-84667109D01*
X112687006Y-84670197D01*
X112621446Y-84671556D01*
X112605214Y-84671597D01*
X112506901Y-84669120D01*
X112426849Y-84661114D01*
X112361670Y-84646582D01*
X112307974Y-84624528D01*
X112262373Y-84593955D01*
X112221480Y-84553865D01*
X112201359Y-84527638D01*
X112189733Y-84498091D01*
X112186824Y-84458374D01*
X112186965Y-84446405D01*
X112190838Y-84413724D01*
X112203222Y-84387198D01*
X112228387Y-84356350D01*
X112249599Y-84334210D01*
X112275995Y-84311664D01*
X112305712Y-84293296D01*
X112341942Y-84278040D01*
X112387874Y-84264828D01*
X112446701Y-84252593D01*
X112521613Y-84240268D01*
X112615802Y-84226785D01*
X112661114Y-84219775D01*
X112729068Y-84205216D01*
X112778204Y-84188716D01*
X112807771Y-84170818D01*
X112817021Y-84152064D01*
X112805205Y-84132994D01*
X112771573Y-84114150D01*
X112768527Y-84112936D01*
X112722168Y-84100858D01*
X112659518Y-84092658D01*
X112586084Y-84088498D01*
X112507374Y-84088540D01*
X112428896Y-84092948D01*
X112356157Y-84101884D01*
X112352230Y-84102533D01*
X112303414Y-84110240D01*
X112271162Y-84113852D01*
X112250165Y-84113255D01*
X112235111Y-84108333D01*
X112220691Y-84098975D01*
X112219521Y-84098104D01*
X112195004Y-84067730D01*
X112190211Y-84032229D01*
X112206017Y-83997648D01*
X112210563Y-83993192D01*
X112240177Y-83978052D01*
X112287159Y-83964929D01*
X112347463Y-83954129D01*
X112417045Y-83945960D01*
X112491860Y-83940730D01*
X112567863Y-83938746D01*
X112641010Y-83940315D01*
G36*
X112641010Y-83940315D02*
G01*
X112707257Y-83945745D01*
X112762557Y-83955343D01*
X112813440Y-83970204D01*
X112884752Y-84003337D01*
X112935909Y-84046019D01*
X112966732Y-84098084D01*
X112977046Y-84159362D01*
X112976109Y-84190611D01*
X112970317Y-84215408D01*
X112955510Y-84237078D01*
X112927537Y-84264428D01*
X112919559Y-84271757D01*
X112895849Y-84292660D01*
X112873455Y-84309630D01*
X112849422Y-84323584D01*
X112820794Y-84335435D01*
X112784617Y-84346099D01*
X112737937Y-84356490D01*
X112677798Y-84367525D01*
X112601247Y-84380117D01*
X112505328Y-84395183D01*
X112486965Y-84398217D01*
X112424635Y-84411837D01*
X112379417Y-84427571D01*
X112353133Y-84444642D01*
X112347604Y-84462276D01*
X112350225Y-84466547D01*
X112368157Y-84481612D01*
X112396283Y-84498246D01*
X112409083Y-84504236D01*
X112430381Y-84511429D01*
X112456767Y-84516206D01*
X112492611Y-84519025D01*
X112542285Y-84520343D01*
X112610157Y-84520616D01*
X112627942Y-84520543D01*
X112695563Y-84519432D01*
X112760502Y-84517207D01*
X112816127Y-84514141D01*
X112855808Y-84510506D01*
X112891319Y-84506438D01*
X112920572Y-84505655D01*
X112939472Y-84510255D01*
X112954586Y-84520930D01*
X112958242Y-84524523D01*
X112974584Y-84556297D01*
X112973264Y-84591951D01*
X112954307Y-84622569D01*
X112933937Y-84634175D01*
X112897953Y-84646870D01*
X112855529Y-84656920D01*
X112852079Y-84657519D01*
X112809409Y-84662735D01*
X112752023Y-84667109D01*
X112687006Y-84670197D01*
X112621446Y-84671556D01*
X112605214Y-84671597D01*
X112506901Y-84669120D01*
X112426849Y-84661114D01*
X112361670Y-84646582D01*
X112307974Y-84624528D01*
X112262373Y-84593955D01*
X112221480Y-84553865D01*
X112201359Y-84527638D01*
X112189733Y-84498091D01*
X112186824Y-84458374D01*
X112186965Y-84446405D01*
X112190838Y-84413724D01*
X112203222Y-84387198D01*
X112228387Y-84356350D01*
X112249599Y-84334210D01*
X112275995Y-84311664D01*
X112305712Y-84293296D01*
X112341942Y-84278040D01*
X112387874Y-84264828D01*
X112446701Y-84252593D01*
X112521613Y-84240268D01*
X112615802Y-84226785D01*
X112661114Y-84219775D01*
X112729068Y-84205216D01*
X112778204Y-84188716D01*
X112807771Y-84170818D01*
X112817021Y-84152064D01*
X112805205Y-84132994D01*
X112771573Y-84114150D01*
X112768527Y-84112936D01*
X112722168Y-84100858D01*
X112659518Y-84092658D01*
X112586084Y-84088498D01*
X112507374Y-84088540D01*
X112428896Y-84092948D01*
X112356157Y-84101884D01*
X112352230Y-84102533D01*
X112303414Y-84110240D01*
X112271162Y-84113852D01*
X112250165Y-84113255D01*
X112235111Y-84108333D01*
X112220691Y-84098975D01*
X112219521Y-84098104D01*
X112195004Y-84067730D01*
X112190211Y-84032229D01*
X112206017Y-83997648D01*
X112210563Y-83993192D01*
X112240177Y-83978052D01*
X112287159Y-83964929D01*
X112347463Y-83954129D01*
X112417045Y-83945960D01*
X112491860Y-83940730D01*
X112567863Y-83938746D01*
X112641010Y-83940315D01*
G37*
X108788868Y-79632412D02*
X108884425Y-79649902D01*
X109048715Y-79694943D01*
X109202746Y-79758035D01*
X109348666Y-79840294D01*
X109488623Y-79942836D01*
X109624765Y-80066778D01*
X109668630Y-80112040D01*
X109780915Y-80244244D01*
X109874129Y-80382211D01*
X109950876Y-80530129D01*
X110013760Y-80692182D01*
X110017577Y-80703770D01*
X110067664Y-80889771D01*
X110101056Y-81085900D01*
X110117741Y-81287947D01*
X110117708Y-81491704D01*
X110100948Y-81692960D01*
X110067449Y-81887507D01*
X110017201Y-82071135D01*
X109973347Y-82188432D01*
X109895505Y-82351330D01*
X109801985Y-82505245D01*
X109694979Y-82647050D01*
X109576676Y-82773618D01*
X109449268Y-82881820D01*
X109371763Y-82934499D01*
X109244882Y-83004129D01*
X109107400Y-83062847D01*
X108965873Y-83107966D01*
X108826859Y-83136801D01*
X108812754Y-83138485D01*
X108769310Y-83141813D01*
X108711880Y-83144654D01*
X108646279Y-83146752D01*
X108578324Y-83147847D01*
X108451535Y-83145519D01*
X108303830Y-83132515D01*
X108165936Y-83107512D01*
X108032171Y-83069697D01*
X108008719Y-83061268D01*
X107960769Y-83041787D01*
X107904297Y-83016852D01*
X107842536Y-82988101D01*
X107778720Y-82957169D01*
X107716083Y-82925694D01*
X107657860Y-82895313D01*
X107607284Y-82867662D01*
X107567590Y-82844378D01*
X107542011Y-82827097D01*
X107533782Y-82817458D01*
X107535233Y-82814363D01*
X107546407Y-82794458D01*
X107567291Y-82758799D01*
X107596422Y-82709838D01*
X107632338Y-82650025D01*
X107673577Y-82581812D01*
X107718674Y-82507650D01*
X107899942Y-82210387D01*
X107946472Y-82254918D01*
X108037880Y-82333244D01*
X108151491Y-82407818D01*
X108269279Y-82461853D01*
X108389716Y-82494669D01*
X108511274Y-82505590D01*
X108552742Y-82504247D01*
X108670237Y-82485991D01*
X108780246Y-82446996D01*
X108881587Y-82388049D01*
X108973078Y-82309936D01*
X109053537Y-82213443D01*
X109121784Y-82099357D01*
X109138065Y-82065103D01*
X109184139Y-81941619D01*
X109219263Y-81803297D01*
X109243354Y-81653940D01*
X109256330Y-81497352D01*
X109258106Y-81337335D01*
X109248600Y-81177693D01*
X109227729Y-81022229D01*
X109195409Y-80874745D01*
X109151556Y-80739046D01*
X109114139Y-80652455D01*
X109049342Y-80539067D01*
X108973929Y-80445449D01*
X108887575Y-80371338D01*
X108789952Y-80316473D01*
X108680734Y-80280591D01*
X108559596Y-80263430D01*
X108490195Y-80262259D01*
X108367325Y-80276520D01*
X108251821Y-80311620D01*
X108145110Y-80367061D01*
X108048621Y-80442343D01*
X108032877Y-80456819D01*
X108002307Y-80483341D01*
X107979966Y-80500517D01*
X107969848Y-80505166D01*
X107967863Y-80502976D01*
X107953398Y-80484100D01*
X107929557Y-80450776D01*
X107898186Y-80405759D01*
X107861131Y-80351804D01*
X107820240Y-80291664D01*
X107777359Y-80228097D01*
X107734335Y-80163855D01*
X107693014Y-80101694D01*
X107655243Y-80044370D01*
X107622869Y-79994636D01*
X107597739Y-79955247D01*
X107581699Y-79928959D01*
X107576596Y-79918526D01*
X107581207Y-79914320D01*
X107600424Y-79909312D01*
X107609995Y-79906765D01*
X107637966Y-79895628D01*
X107679605Y-79877181D01*
X107731152Y-79853104D01*
X107788847Y-79825078D01*
X107800114Y-79819533D01*
X107977844Y-79740268D01*
X108147647Y-79680764D01*
X108311587Y-79640624D01*
X108471728Y-79619450D01*
X108630134Y-79616845D01*
X108788868Y-79632412D01*
G36*
X108788868Y-79632412D02*
G01*
X108884425Y-79649902D01*
X109048715Y-79694943D01*
X109202746Y-79758035D01*
X109348666Y-79840294D01*
X109488623Y-79942836D01*
X109624765Y-80066778D01*
X109668630Y-80112040D01*
X109780915Y-80244244D01*
X109874129Y-80382211D01*
X109950876Y-80530129D01*
X110013760Y-80692182D01*
X110017577Y-80703770D01*
X110067664Y-80889771D01*
X110101056Y-81085900D01*
X110117741Y-81287947D01*
X110117708Y-81491704D01*
X110100948Y-81692960D01*
X110067449Y-81887507D01*
X110017201Y-82071135D01*
X109973347Y-82188432D01*
X109895505Y-82351330D01*
X109801985Y-82505245D01*
X109694979Y-82647050D01*
X109576676Y-82773618D01*
X109449268Y-82881820D01*
X109371763Y-82934499D01*
X109244882Y-83004129D01*
X109107400Y-83062847D01*
X108965873Y-83107966D01*
X108826859Y-83136801D01*
X108812754Y-83138485D01*
X108769310Y-83141813D01*
X108711880Y-83144654D01*
X108646279Y-83146752D01*
X108578324Y-83147847D01*
X108451535Y-83145519D01*
X108303830Y-83132515D01*
X108165936Y-83107512D01*
X108032171Y-83069697D01*
X108008719Y-83061268D01*
X107960769Y-83041787D01*
X107904297Y-83016852D01*
X107842536Y-82988101D01*
X107778720Y-82957169D01*
X107716083Y-82925694D01*
X107657860Y-82895313D01*
X107607284Y-82867662D01*
X107567590Y-82844378D01*
X107542011Y-82827097D01*
X107533782Y-82817458D01*
X107535233Y-82814363D01*
X107546407Y-82794458D01*
X107567291Y-82758799D01*
X107596422Y-82709838D01*
X107632338Y-82650025D01*
X107673577Y-82581812D01*
X107718674Y-82507650D01*
X107899942Y-82210387D01*
X107946472Y-82254918D01*
X108037880Y-82333244D01*
X108151491Y-82407818D01*
X108269279Y-82461853D01*
X108389716Y-82494669D01*
X108511274Y-82505590D01*
X108552742Y-82504247D01*
X108670237Y-82485991D01*
X108780246Y-82446996D01*
X108881587Y-82388049D01*
X108973078Y-82309936D01*
X109053537Y-82213443D01*
X109121784Y-82099357D01*
X109138065Y-82065103D01*
X109184139Y-81941619D01*
X109219263Y-81803297D01*
X109243354Y-81653940D01*
X109256330Y-81497352D01*
X109258106Y-81337335D01*
X109248600Y-81177693D01*
X109227729Y-81022229D01*
X109195409Y-80874745D01*
X109151556Y-80739046D01*
X109114139Y-80652455D01*
X109049342Y-80539067D01*
X108973929Y-80445449D01*
X108887575Y-80371338D01*
X108789952Y-80316473D01*
X108680734Y-80280591D01*
X108559596Y-80263430D01*
X108490195Y-80262259D01*
X108367325Y-80276520D01*
X108251821Y-80311620D01*
X108145110Y-80367061D01*
X108048621Y-80442343D01*
X108032877Y-80456819D01*
X108002307Y-80483341D01*
X107979966Y-80500517D01*
X107969848Y-80505166D01*
X107967863Y-80502976D01*
X107953398Y-80484100D01*
X107929557Y-80450776D01*
X107898186Y-80405759D01*
X107861131Y-80351804D01*
X107820240Y-80291664D01*
X107777359Y-80228097D01*
X107734335Y-80163855D01*
X107693014Y-80101694D01*
X107655243Y-80044370D01*
X107622869Y-79994636D01*
X107597739Y-79955247D01*
X107581699Y-79928959D01*
X107576596Y-79918526D01*
X107581207Y-79914320D01*
X107600424Y-79909312D01*
X107609995Y-79906765D01*
X107637966Y-79895628D01*
X107679605Y-79877181D01*
X107731152Y-79853104D01*
X107788847Y-79825078D01*
X107800114Y-79819533D01*
X107977844Y-79740268D01*
X108147647Y-79680764D01*
X108311587Y-79640624D01*
X108471728Y-79619450D01*
X108630134Y-79616845D01*
X108788868Y-79632412D01*
G37*
X104986151Y-81913090D02*
X104985425Y-81990537D01*
X104976846Y-82141973D01*
X104957990Y-82278662D01*
X104927994Y-82404655D01*
X104885993Y-82524004D01*
X104831126Y-82640760D01*
X104764324Y-82751558D01*
X104673520Y-82865118D01*
X104569865Y-82960590D01*
X104454044Y-83037452D01*
X104326743Y-83095176D01*
X104188646Y-83133237D01*
X104150950Y-83139045D01*
X104071909Y-83144775D01*
X103983786Y-83144962D01*
X103894393Y-83139918D01*
X103811541Y-83129957D01*
X103743044Y-83115391D01*
X103712192Y-83105743D01*
X103634887Y-83075502D01*
X103557836Y-83037996D01*
X103488357Y-82996993D01*
X103433772Y-82956258D01*
X103411073Y-82936884D01*
X103388358Y-82919041D01*
X103376936Y-82912157D01*
X103375694Y-82913803D01*
X103372885Y-82931584D01*
X103370933Y-82964749D01*
X103370202Y-83008112D01*
X103370202Y-83104068D01*
X102512053Y-83104068D01*
X102546318Y-83043353D01*
X102551512Y-83034247D01*
X102559872Y-83019628D01*
X102567445Y-83005552D01*
X102574269Y-82990919D01*
X102580384Y-82974628D01*
X102585830Y-82955577D01*
X102590644Y-82932665D01*
X102594865Y-82904792D01*
X102598534Y-82870857D01*
X102601688Y-82829758D01*
X102604368Y-82780394D01*
X102606611Y-82721665D01*
X102608456Y-82652469D01*
X102609944Y-82571705D01*
X102611112Y-82478273D01*
X102612001Y-82371071D01*
X102612648Y-82248999D01*
X102613093Y-82110955D01*
X102613375Y-81955838D01*
X102613532Y-81782547D01*
X102613605Y-81589982D01*
X102613631Y-81377041D01*
X102613642Y-81240909D01*
X103415357Y-81240909D01*
X103415357Y-82391100D01*
X103485913Y-82437468D01*
X103526574Y-82461170D01*
X103580703Y-82487018D01*
X103629846Y-82505208D01*
X103693322Y-82520930D01*
X103789488Y-82531920D01*
X103874057Y-82523744D01*
X103947376Y-82496184D01*
X104009794Y-82449021D01*
X104061659Y-82382037D01*
X104103317Y-82295012D01*
X104135119Y-82187729D01*
X104137702Y-82175388D01*
X104146157Y-82114151D01*
X104151820Y-82037071D01*
X104154733Y-81949381D01*
X104154940Y-81856313D01*
X104152487Y-81763099D01*
X104147418Y-81674973D01*
X104139776Y-81597167D01*
X104129605Y-81534912D01*
X104128324Y-81529045D01*
X104099283Y-81418500D01*
X104064767Y-81327954D01*
X104023613Y-81255332D01*
X103974656Y-81198560D01*
X103916731Y-81155563D01*
X103884777Y-81139994D01*
X103811941Y-81121101D01*
X103730600Y-81117844D01*
X103645476Y-81129768D01*
X103561290Y-81156419D01*
X103482765Y-81197341D01*
X103415357Y-81240909D01*
X102613642Y-81240909D01*
X102613650Y-81142624D01*
X102613846Y-79457757D01*
X103519174Y-79457757D01*
X103494742Y-79494446D01*
X103488475Y-79504026D01*
X103462365Y-79550360D01*
X103444626Y-79597481D01*
X103433065Y-79652630D01*
X103425488Y-79723046D01*
X103424996Y-79730029D01*
X103423219Y-79768020D01*
X103421601Y-79821955D01*
X103420156Y-79889082D01*
X103418897Y-79966650D01*
X103417837Y-80051907D01*
X103416986Y-80142103D01*
X103416360Y-80234486D01*
X103415969Y-80326304D01*
X103415827Y-80414806D01*
X103415947Y-80497241D01*
X103416340Y-80570858D01*
X103417019Y-80632905D01*
X103417998Y-80680630D01*
X103419289Y-80711283D01*
X103420904Y-80722112D01*
X103429114Y-80717712D01*
X103450804Y-80702741D01*
X103480171Y-80680827D01*
X103529036Y-80646615D01*
X103617282Y-80600093D01*
X103716073Y-80566425D01*
X103828667Y-80544610D01*
X103958321Y-80533644D01*
X104050827Y-80532598D01*
X104172168Y-80542393D01*
X104282256Y-80566553D01*
X104385546Y-80606164D01*
X104486495Y-80662311D01*
X104531660Y-80693262D01*
X104637068Y-80784494D01*
X104728695Y-80893485D01*
X104806489Y-81020105D01*
X104870398Y-81164224D01*
X104920371Y-81325711D01*
X104956355Y-81504438D01*
X104978300Y-81700274D01*
X104984057Y-81856313D01*
X104986151Y-81913090D01*
G36*
X104986151Y-81913090D02*
G01*
X104985425Y-81990537D01*
X104976846Y-82141973D01*
X104957990Y-82278662D01*
X104927994Y-82404655D01*
X104885993Y-82524004D01*
X104831126Y-82640760D01*
X104764324Y-82751558D01*
X104673520Y-82865118D01*
X104569865Y-82960590D01*
X104454044Y-83037452D01*
X104326743Y-83095176D01*
X104188646Y-83133237D01*
X104150950Y-83139045D01*
X104071909Y-83144775D01*
X103983786Y-83144962D01*
X103894393Y-83139918D01*
X103811541Y-83129957D01*
X103743044Y-83115391D01*
X103712192Y-83105743D01*
X103634887Y-83075502D01*
X103557836Y-83037996D01*
X103488357Y-82996993D01*
X103433772Y-82956258D01*
X103411073Y-82936884D01*
X103388358Y-82919041D01*
X103376936Y-82912157D01*
X103375694Y-82913803D01*
X103372885Y-82931584D01*
X103370933Y-82964749D01*
X103370202Y-83008112D01*
X103370202Y-83104068D01*
X102512053Y-83104068D01*
X102546318Y-83043353D01*
X102551512Y-83034247D01*
X102559872Y-83019628D01*
X102567445Y-83005552D01*
X102574269Y-82990919D01*
X102580384Y-82974628D01*
X102585830Y-82955577D01*
X102590644Y-82932665D01*
X102594865Y-82904792D01*
X102598534Y-82870857D01*
X102601688Y-82829758D01*
X102604368Y-82780394D01*
X102606611Y-82721665D01*
X102608456Y-82652469D01*
X102609944Y-82571705D01*
X102611112Y-82478273D01*
X102612001Y-82371071D01*
X102612648Y-82248999D01*
X102613093Y-82110955D01*
X102613375Y-81955838D01*
X102613532Y-81782547D01*
X102613605Y-81589982D01*
X102613631Y-81377041D01*
X102613642Y-81240909D01*
X103415357Y-81240909D01*
X103415357Y-82391100D01*
X103485913Y-82437468D01*
X103526574Y-82461170D01*
X103580703Y-82487018D01*
X103629846Y-82505208D01*
X103693322Y-82520930D01*
X103789488Y-82531920D01*
X103874057Y-82523744D01*
X103947376Y-82496184D01*
X104009794Y-82449021D01*
X104061659Y-82382037D01*
X104103317Y-82295012D01*
X104135119Y-82187729D01*
X104137702Y-82175388D01*
X104146157Y-82114151D01*
X104151820Y-82037071D01*
X104154733Y-81949381D01*
X104154940Y-81856313D01*
X104152487Y-81763099D01*
X104147418Y-81674973D01*
X104139776Y-81597167D01*
X104129605Y-81534912D01*
X104128324Y-81529045D01*
X104099283Y-81418500D01*
X104064767Y-81327954D01*
X104023613Y-81255332D01*
X103974656Y-81198560D01*
X103916731Y-81155563D01*
X103884777Y-81139994D01*
X103811941Y-81121101D01*
X103730600Y-81117844D01*
X103645476Y-81129768D01*
X103561290Y-81156419D01*
X103482765Y-81197341D01*
X103415357Y-81240909D01*
X102613642Y-81240909D01*
X102613650Y-81142624D01*
X102613846Y-79457757D01*
X103519174Y-79457757D01*
X103494742Y-79494446D01*
X103488475Y-79504026D01*
X103462365Y-79550360D01*
X103444626Y-79597481D01*
X103433065Y-79652630D01*
X103425488Y-79723046D01*
X103424996Y-79730029D01*
X103423219Y-79768020D01*
X103421601Y-79821955D01*
X103420156Y-79889082D01*
X103418897Y-79966650D01*
X103417837Y-80051907D01*
X103416986Y-80142103D01*
X103416360Y-80234486D01*
X103415969Y-80326304D01*
X103415827Y-80414806D01*
X103415947Y-80497241D01*
X103416340Y-80570858D01*
X103417019Y-80632905D01*
X103417998Y-80680630D01*
X103419289Y-80711283D01*
X103420904Y-80722112D01*
X103429114Y-80717712D01*
X103450804Y-80702741D01*
X103480171Y-80680827D01*
X103529036Y-80646615D01*
X103617282Y-80600093D01*
X103716073Y-80566425D01*
X103828667Y-80544610D01*
X103958321Y-80533644D01*
X104050827Y-80532598D01*
X104172168Y-80542393D01*
X104282256Y-80566553D01*
X104385546Y-80606164D01*
X104486495Y-80662311D01*
X104531660Y-80693262D01*
X104637068Y-80784494D01*
X104728695Y-80893485D01*
X104806489Y-81020105D01*
X104870398Y-81164224D01*
X104920371Y-81325711D01*
X104956355Y-81504438D01*
X104978300Y-81700274D01*
X104984057Y-81856313D01*
X104986151Y-81913090D01*
G37*
X107527912Y-82313846D02*
X107527418Y-82347742D01*
X107523789Y-82422581D01*
X107516179Y-82484780D01*
X107503845Y-82541363D01*
X107459470Y-82667455D01*
X107396557Y-82782058D01*
X107316395Y-82882947D01*
X107219897Y-82969303D01*
X107107979Y-83040311D01*
X106981554Y-83095155D01*
X106841535Y-83133017D01*
X106805306Y-83138730D01*
X106726312Y-83144692D01*
X106637998Y-83145025D01*
X106548232Y-83140038D01*
X106464879Y-83130045D01*
X106395808Y-83115357D01*
X106309344Y-83085128D01*
X106199443Y-83030436D01*
X106102113Y-82962922D01*
X106040024Y-82911935D01*
X106036762Y-83008001D01*
X106033500Y-83104068D01*
X105610607Y-83104068D01*
X105599700Y-83104065D01*
X105505213Y-83103759D01*
X105418488Y-83102995D01*
X105341994Y-83101830D01*
X105278200Y-83100321D01*
X105229575Y-83098526D01*
X105198590Y-83096500D01*
X105187713Y-83094301D01*
X105187735Y-83093842D01*
X105194771Y-83078289D01*
X105210591Y-83055450D01*
X105214891Y-83050017D01*
X105225934Y-83035985D01*
X105235468Y-83022565D01*
X105243618Y-83008101D01*
X105250509Y-82990935D01*
X105256268Y-82969413D01*
X105261019Y-82941877D01*
X105264888Y-82906671D01*
X105268001Y-82862139D01*
X105270482Y-82806625D01*
X105272457Y-82738472D01*
X105274051Y-82656024D01*
X105275391Y-82557625D01*
X105276601Y-82441618D01*
X105277806Y-82306347D01*
X105278752Y-82194965D01*
X106079535Y-82194965D01*
X106079535Y-82390841D01*
X106124205Y-82447352D01*
X106136942Y-82462591D01*
X106183761Y-82505223D01*
X106244412Y-82541051D01*
X106255054Y-82546229D01*
X106293833Y-82563124D01*
X106328849Y-82573288D01*
X106368879Y-82578704D01*
X106422698Y-82581357D01*
X106440805Y-82581762D01*
X106516168Y-82578919D01*
X106576900Y-82566999D01*
X106628609Y-82544416D01*
X106676903Y-82509590D01*
X106681960Y-82505177D01*
X106730429Y-82449539D01*
X106758616Y-82385712D01*
X106767909Y-82310661D01*
X106760677Y-82239072D01*
X106735953Y-82176024D01*
X106691406Y-82118137D01*
X106636476Y-82071187D01*
X106564051Y-82031340D01*
X106477497Y-82003642D01*
X106374827Y-81987475D01*
X106254051Y-81982221D01*
X106245164Y-81982236D01*
X106189817Y-81983034D01*
X106142893Y-81984867D01*
X106109110Y-81987490D01*
X106093185Y-81990653D01*
X106089100Y-81997120D01*
X106084729Y-82019254D01*
X106081761Y-82058367D01*
X106080071Y-82116318D01*
X106079535Y-82194965D01*
X105278752Y-82194965D01*
X105279132Y-82150157D01*
X105280385Y-82007391D01*
X105281808Y-81862321D01*
X105283333Y-81736406D01*
X105285090Y-81627815D01*
X105287208Y-81534713D01*
X105289817Y-81455270D01*
X105293047Y-81387652D01*
X105297026Y-81330028D01*
X105301885Y-81280564D01*
X105307754Y-81237429D01*
X105314761Y-81198789D01*
X105323037Y-81162813D01*
X105332711Y-81127668D01*
X105343913Y-81091521D01*
X105356773Y-81052540D01*
X105372247Y-81009470D01*
X105415151Y-80917250D01*
X105468892Y-80837478D01*
X105537733Y-80763344D01*
X105615342Y-80699784D01*
X105719918Y-80638104D01*
X105839401Y-80590581D01*
X105974665Y-80556946D01*
X106126583Y-80536931D01*
X106296029Y-80530268D01*
X106354047Y-80530666D01*
X106419555Y-80532714D01*
X106480850Y-80537083D01*
X106542254Y-80544414D01*
X106608089Y-80555348D01*
X106682677Y-80570526D01*
X106770341Y-80590588D01*
X106875402Y-80616176D01*
X106903963Y-80623199D01*
X106979211Y-80641155D01*
X107049545Y-80657199D01*
X107110724Y-80670407D01*
X107158511Y-80679853D01*
X107188668Y-80684610D01*
X107216940Y-80688289D01*
X107243217Y-80693566D01*
X107253216Y-80698321D01*
X107250109Y-80707160D01*
X107239351Y-80734451D01*
X107222021Y-80777285D01*
X107199283Y-80832804D01*
X107172304Y-80898151D01*
X107142247Y-80970468D01*
X107135650Y-80986258D01*
X107097064Y-81076863D01*
X107065925Y-81146596D01*
X107042074Y-81195784D01*
X107025355Y-81224753D01*
X107015611Y-81233831D01*
X107007923Y-81231784D01*
X106981572Y-81222139D01*
X106943139Y-81206569D01*
X106897979Y-81187194D01*
X106803450Y-81149193D01*
X106666637Y-81108159D01*
X106525446Y-81082991D01*
X106487471Y-81078990D01*
X106384216Y-81076826D01*
X106297109Y-81090001D01*
X106225286Y-81119135D01*
X106167888Y-81164845D01*
X106124053Y-81227751D01*
X106092919Y-81308471D01*
X106073627Y-81407624D01*
X106066207Y-81466603D01*
X106228093Y-81459824D01*
X106354652Y-81458192D01*
X106506108Y-81464573D01*
X106654553Y-81479156D01*
X106790735Y-81501261D01*
X106855402Y-81516200D01*
X106987647Y-81559120D01*
X107109919Y-81615719D01*
X107219842Y-81684396D01*
X107315040Y-81763549D01*
X107393137Y-81851575D01*
X107451756Y-81946872D01*
X107475752Y-81999243D01*
X107501389Y-82069969D01*
X107517635Y-82141191D01*
X107525979Y-82220091D01*
X107527847Y-82310661D01*
X107527912Y-82313846D01*
G36*
X107527912Y-82313846D02*
G01*
X107527418Y-82347742D01*
X107523789Y-82422581D01*
X107516179Y-82484780D01*
X107503845Y-82541363D01*
X107459470Y-82667455D01*
X107396557Y-82782058D01*
X107316395Y-82882947D01*
X107219897Y-82969303D01*
X107107979Y-83040311D01*
X106981554Y-83095155D01*
X106841535Y-83133017D01*
X106805306Y-83138730D01*
X106726312Y-83144692D01*
X106637998Y-83145025D01*
X106548232Y-83140038D01*
X106464879Y-83130045D01*
X106395808Y-83115357D01*
X106309344Y-83085128D01*
X106199443Y-83030436D01*
X106102113Y-82962922D01*
X106040024Y-82911935D01*
X106036762Y-83008001D01*
X106033500Y-83104068D01*
X105610607Y-83104068D01*
X105599700Y-83104065D01*
X105505213Y-83103759D01*
X105418488Y-83102995D01*
X105341994Y-83101830D01*
X105278200Y-83100321D01*
X105229575Y-83098526D01*
X105198590Y-83096500D01*
X105187713Y-83094301D01*
X105187735Y-83093842D01*
X105194771Y-83078289D01*
X105210591Y-83055450D01*
X105214891Y-83050017D01*
X105225934Y-83035985D01*
X105235468Y-83022565D01*
X105243618Y-83008101D01*
X105250509Y-82990935D01*
X105256268Y-82969413D01*
X105261019Y-82941877D01*
X105264888Y-82906671D01*
X105268001Y-82862139D01*
X105270482Y-82806625D01*
X105272457Y-82738472D01*
X105274051Y-82656024D01*
X105275391Y-82557625D01*
X105276601Y-82441618D01*
X105277806Y-82306347D01*
X105278752Y-82194965D01*
X106079535Y-82194965D01*
X106079535Y-82390841D01*
X106124205Y-82447352D01*
X106136942Y-82462591D01*
X106183761Y-82505223D01*
X106244412Y-82541051D01*
X106255054Y-82546229D01*
X106293833Y-82563124D01*
X106328849Y-82573288D01*
X106368879Y-82578704D01*
X106422698Y-82581357D01*
X106440805Y-82581762D01*
X106516168Y-82578919D01*
X106576900Y-82566999D01*
X106628609Y-82544416D01*
X106676903Y-82509590D01*
X106681960Y-82505177D01*
X106730429Y-82449539D01*
X106758616Y-82385712D01*
X106767909Y-82310661D01*
X106760677Y-82239072D01*
X106735953Y-82176024D01*
X106691406Y-82118137D01*
X106636476Y-82071187D01*
X106564051Y-82031340D01*
X106477497Y-82003642D01*
X106374827Y-81987475D01*
X106254051Y-81982221D01*
X106245164Y-81982236D01*
X106189817Y-81983034D01*
X106142893Y-81984867D01*
X106109110Y-81987490D01*
X106093185Y-81990653D01*
X106089100Y-81997120D01*
X106084729Y-82019254D01*
X106081761Y-82058367D01*
X106080071Y-82116318D01*
X106079535Y-82194965D01*
X105278752Y-82194965D01*
X105279132Y-82150157D01*
X105280385Y-82007391D01*
X105281808Y-81862321D01*
X105283333Y-81736406D01*
X105285090Y-81627815D01*
X105287208Y-81534713D01*
X105289817Y-81455270D01*
X105293047Y-81387652D01*
X105297026Y-81330028D01*
X105301885Y-81280564D01*
X105307754Y-81237429D01*
X105314761Y-81198789D01*
X105323037Y-81162813D01*
X105332711Y-81127668D01*
X105343913Y-81091521D01*
X105356773Y-81052540D01*
X105372247Y-81009470D01*
X105415151Y-80917250D01*
X105468892Y-80837478D01*
X105537733Y-80763344D01*
X105615342Y-80699784D01*
X105719918Y-80638104D01*
X105839401Y-80590581D01*
X105974665Y-80556946D01*
X106126583Y-80536931D01*
X106296029Y-80530268D01*
X106354047Y-80530666D01*
X106419555Y-80532714D01*
X106480850Y-80537083D01*
X106542254Y-80544414D01*
X106608089Y-80555348D01*
X106682677Y-80570526D01*
X106770341Y-80590588D01*
X106875402Y-80616176D01*
X106903963Y-80623199D01*
X106979211Y-80641155D01*
X107049545Y-80657199D01*
X107110724Y-80670407D01*
X107158511Y-80679853D01*
X107188668Y-80684610D01*
X107216940Y-80688289D01*
X107243217Y-80693566D01*
X107253216Y-80698321D01*
X107250109Y-80707160D01*
X107239351Y-80734451D01*
X107222021Y-80777285D01*
X107199283Y-80832804D01*
X107172304Y-80898151D01*
X107142247Y-80970468D01*
X107135650Y-80986258D01*
X107097064Y-81076863D01*
X107065925Y-81146596D01*
X107042074Y-81195784D01*
X107025355Y-81224753D01*
X107015611Y-81233831D01*
X107007923Y-81231784D01*
X106981572Y-81222139D01*
X106943139Y-81206569D01*
X106897979Y-81187194D01*
X106803450Y-81149193D01*
X106666637Y-81108159D01*
X106525446Y-81082991D01*
X106487471Y-81078990D01*
X106384216Y-81076826D01*
X106297109Y-81090001D01*
X106225286Y-81119135D01*
X106167888Y-81164845D01*
X106124053Y-81227751D01*
X106092919Y-81308471D01*
X106073627Y-81407624D01*
X106066207Y-81466603D01*
X106228093Y-81459824D01*
X106354652Y-81458192D01*
X106506108Y-81464573D01*
X106654553Y-81479156D01*
X106790735Y-81501261D01*
X106855402Y-81516200D01*
X106987647Y-81559120D01*
X107109919Y-81615719D01*
X107219842Y-81684396D01*
X107315040Y-81763549D01*
X107393137Y-81851575D01*
X107451756Y-81946872D01*
X107475752Y-81999243D01*
X107501389Y-82069969D01*
X107517635Y-82141191D01*
X107525979Y-82220091D01*
X107527847Y-82310661D01*
X107527912Y-82313846D01*
G37*
X115075771Y-79782171D02*
X115076216Y-79913390D01*
X115076519Y-80060595D01*
X115076705Y-80224728D01*
X115076799Y-80406731D01*
X115076828Y-80607544D01*
X115076818Y-80828111D01*
X115076793Y-81069371D01*
X115076779Y-81332268D01*
X115076779Y-81374419D01*
X115076803Y-81635047D01*
X115076842Y-81874175D01*
X115076865Y-82092739D01*
X115076844Y-82291674D01*
X115076750Y-82471914D01*
X115076552Y-82634394D01*
X115076220Y-82780049D01*
X115075726Y-82909813D01*
X115075040Y-83024622D01*
X115074133Y-83125409D01*
X115072974Y-83213109D01*
X115071535Y-83288658D01*
X115069786Y-83352990D01*
X115067697Y-83407040D01*
X115065240Y-83451742D01*
X115062384Y-83488031D01*
X115059100Y-83516842D01*
X115055359Y-83539110D01*
X115051131Y-83555769D01*
X115046386Y-83567754D01*
X115041096Y-83576000D01*
X115035230Y-83581441D01*
X115028759Y-83585013D01*
X115021654Y-83587649D01*
X115013885Y-83590285D01*
X115005423Y-83593856D01*
X115001065Y-83595524D01*
X114992552Y-83597490D01*
X114979851Y-83599290D01*
X114962042Y-83600934D01*
X114938206Y-83602426D01*
X114907423Y-83603776D01*
X114868774Y-83604990D01*
X114821339Y-83606076D01*
X114764200Y-83607040D01*
X114696436Y-83607890D01*
X114617128Y-83608632D01*
X114525356Y-83609276D01*
X114420201Y-83609826D01*
X114300744Y-83610292D01*
X114166065Y-83610679D01*
X114015245Y-83610995D01*
X113847363Y-83611248D01*
X113661502Y-83611445D01*
X113456740Y-83611592D01*
X113232159Y-83611697D01*
X112986839Y-83611768D01*
X112719861Y-83611811D01*
X112681478Y-83611816D01*
X112416079Y-83611859D01*
X112172207Y-83611904D01*
X111948940Y-83611927D01*
X111745353Y-83611903D01*
X111560524Y-83611809D01*
X111393530Y-83611622D01*
X111243447Y-83611318D01*
X111109353Y-83610873D01*
X110990323Y-83610264D01*
X110885436Y-83609468D01*
X110793767Y-83608459D01*
X110714394Y-83607216D01*
X110646394Y-83605714D01*
X110588843Y-83603930D01*
X110540819Y-83601840D01*
X110501397Y-83599421D01*
X110469656Y-83596649D01*
X110444671Y-83593500D01*
X110425521Y-83589951D01*
X110411280Y-83585977D01*
X110401028Y-83581557D01*
X110393839Y-83576665D01*
X110388792Y-83571279D01*
X110384962Y-83565375D01*
X110381428Y-83558928D01*
X110377265Y-83551916D01*
X110376182Y-83550066D01*
X110373970Y-83544559D01*
X110371943Y-83536247D01*
X110370095Y-83524188D01*
X110368418Y-83507442D01*
X110366902Y-83485066D01*
X110365540Y-83456119D01*
X110364324Y-83419659D01*
X110363246Y-83374746D01*
X110362297Y-83320436D01*
X110361469Y-83255789D01*
X110360754Y-83179863D01*
X110360144Y-83091717D01*
X110360099Y-83082872D01*
X110651535Y-83082872D01*
X110655417Y-83084144D01*
X110678677Y-83086170D01*
X110721031Y-83088005D01*
X110780289Y-83089606D01*
X110854264Y-83090928D01*
X110940767Y-83091927D01*
X111037609Y-83092559D01*
X111142602Y-83092779D01*
X111840808Y-83092779D01*
X112995247Y-83092779D01*
X112994613Y-83016579D01*
X112995731Y-82974539D01*
X113001461Y-82938713D01*
X113014047Y-82901151D01*
X113035725Y-82852956D01*
X113038946Y-82846276D01*
X113064345Y-82796738D01*
X113091153Y-82748748D01*
X113114074Y-82711845D01*
X113118642Y-82705213D01*
X113140673Y-82673972D01*
X113172850Y-82629033D01*
X113213614Y-82572526D01*
X113261402Y-82506583D01*
X113314655Y-82433336D01*
X113371812Y-82354915D01*
X113431312Y-82273451D01*
X113491594Y-82191077D01*
X113551097Y-82109923D01*
X113608262Y-82032121D01*
X113661527Y-81959802D01*
X113709331Y-81895097D01*
X113750114Y-81840138D01*
X113782315Y-81797055D01*
X113804373Y-81767981D01*
X113814728Y-81755046D01*
X113819201Y-81750730D01*
X113823393Y-81748691D01*
X113826800Y-81751305D01*
X113829482Y-81760365D01*
X113831498Y-81777664D01*
X113832905Y-81804993D01*
X113833762Y-81844144D01*
X113834127Y-81896912D01*
X113834060Y-81965086D01*
X113833617Y-82050461D01*
X113832859Y-82154828D01*
X113831842Y-82279979D01*
X113831465Y-82324679D01*
X113830326Y-82445774D01*
X113829129Y-82547067D01*
X113827793Y-82630641D01*
X113826234Y-82698583D01*
X113824372Y-82752978D01*
X113822123Y-82795911D01*
X113819405Y-82829468D01*
X113816136Y-82855734D01*
X113812235Y-82876795D01*
X113807618Y-82894736D01*
X113799349Y-82921149D01*
X113775740Y-82983151D01*
X113749842Y-83035952D01*
X113724692Y-83073024D01*
X113723496Y-83074454D01*
X113721325Y-83078803D01*
X113723485Y-83082405D01*
X113731801Y-83085330D01*
X113748097Y-83087648D01*
X113774198Y-83089430D01*
X113811928Y-83090746D01*
X113863113Y-83091665D01*
X113929577Y-83092257D01*
X114013144Y-83092594D01*
X114115640Y-83092744D01*
X114238889Y-83092779D01*
X114770453Y-83092779D01*
X114731680Y-83035162D01*
X114725589Y-83026272D01*
X114715133Y-83011448D01*
X114705736Y-82997801D01*
X114697340Y-82984144D01*
X114689890Y-82969290D01*
X114683330Y-82952049D01*
X114677603Y-82931234D01*
X114672652Y-82905659D01*
X114668423Y-82874134D01*
X114664858Y-82835472D01*
X114661901Y-82788486D01*
X114659497Y-82731987D01*
X114657588Y-82664788D01*
X114656119Y-82585701D01*
X114655033Y-82493539D01*
X114654275Y-82387113D01*
X114653787Y-82265236D01*
X114653515Y-82126720D01*
X114653400Y-81970378D01*
X114653388Y-81795021D01*
X114653422Y-81599461D01*
X114653446Y-81382512D01*
X114653437Y-81259892D01*
X114653400Y-81054826D01*
X114653384Y-80870495D01*
X114653445Y-80705713D01*
X114653641Y-80559295D01*
X114654027Y-80430053D01*
X114654662Y-80316801D01*
X114655601Y-80218354D01*
X114656902Y-80133523D01*
X114658621Y-80061123D01*
X114660816Y-79999968D01*
X114663542Y-79948871D01*
X114666858Y-79906646D01*
X114670819Y-79872106D01*
X114675482Y-79844065D01*
X114680904Y-79821337D01*
X114687143Y-79802735D01*
X114694254Y-79787072D01*
X114702295Y-79773163D01*
X114711323Y-79759820D01*
X114721393Y-79745858D01*
X114732564Y-79730090D01*
X114772354Y-79672246D01*
X113712471Y-79672246D01*
X113750468Y-79735345D01*
X113765150Y-79760384D01*
X113779688Y-79787965D01*
X113791784Y-79816079D01*
X113801689Y-79846930D01*
X113809651Y-79882723D01*
X113815918Y-79925662D01*
X113820739Y-79977953D01*
X113824363Y-80041798D01*
X113827038Y-80119404D01*
X113829014Y-80212973D01*
X113830539Y-80324712D01*
X113831861Y-80456824D01*
X113832770Y-80576813D01*
X113833177Y-80693442D01*
X113832924Y-80788910D01*
X113832014Y-80862935D01*
X113830450Y-80915234D01*
X113828236Y-80945528D01*
X113825377Y-80953535D01*
X113822318Y-80950237D01*
X113804163Y-80928787D01*
X113774432Y-80892268D01*
X113734796Y-80842821D01*
X113686928Y-80782586D01*
X113632500Y-80713706D01*
X113573184Y-80638322D01*
X113510652Y-80558575D01*
X113446578Y-80476607D01*
X113382632Y-80394559D01*
X113320488Y-80314573D01*
X113261818Y-80238790D01*
X113208294Y-80169352D01*
X113161587Y-80108400D01*
X113123371Y-80058075D01*
X113095318Y-80020519D01*
X113079100Y-79997874D01*
X113033792Y-79925591D01*
X112993818Y-79845842D01*
X112972287Y-79777567D01*
X112968984Y-79720223D01*
X112974273Y-79672246D01*
X111842513Y-79672496D01*
X111882024Y-79703101D01*
X111891405Y-79710468D01*
X111954340Y-79764817D01*
X112023154Y-79832638D01*
X112099753Y-79915895D01*
X112186045Y-80016557D01*
X112203209Y-80037226D01*
X112243990Y-80086788D01*
X112293745Y-80147705D01*
X112351112Y-80218277D01*
X112414726Y-80296803D01*
X112483226Y-80381583D01*
X112555247Y-80470916D01*
X112629427Y-80563101D01*
X112644674Y-80582081D01*
X112704403Y-80656439D01*
X112778810Y-80749227D01*
X112851288Y-80839767D01*
X112920471Y-80926357D01*
X112984998Y-81007297D01*
X113043504Y-81080885D01*
X113094627Y-81145423D01*
X113137004Y-81199208D01*
X113169272Y-81240541D01*
X113190067Y-81267721D01*
X113198026Y-81279047D01*
X113196268Y-81283150D01*
X113183387Y-81303713D01*
X113159042Y-81339940D01*
X113124404Y-81390203D01*
X113080643Y-81452871D01*
X113028932Y-81526315D01*
X112970441Y-81608906D01*
X112906341Y-81699015D01*
X112837803Y-81795010D01*
X112766000Y-81895264D01*
X112692101Y-81998147D01*
X112617278Y-82102029D01*
X112542702Y-82205280D01*
X112469544Y-82306271D01*
X112398976Y-82403373D01*
X112332168Y-82494956D01*
X112270292Y-82579390D01*
X112214518Y-82655046D01*
X112166019Y-82720295D01*
X112125964Y-82773507D01*
X112095526Y-82813052D01*
X112075101Y-82838405D01*
X112029056Y-82892674D01*
X111978769Y-82949154D01*
X111931972Y-82999048D01*
X111840808Y-83092779D01*
X111142602Y-83092779D01*
X111211513Y-83092728D01*
X111309764Y-83092470D01*
X111399187Y-83092016D01*
X111477490Y-83091389D01*
X111542380Y-83090614D01*
X111591568Y-83089714D01*
X111622761Y-83088713D01*
X111633668Y-83087636D01*
X111632479Y-83084416D01*
X111622333Y-83066831D01*
X111605197Y-83040537D01*
X111596697Y-83028070D01*
X111587486Y-83014001D01*
X111579390Y-82999730D01*
X111572342Y-82983858D01*
X111566274Y-82964988D01*
X111561118Y-82941720D01*
X111556808Y-82912657D01*
X111553276Y-82876400D01*
X111550454Y-82831549D01*
X111548275Y-82776707D01*
X111546671Y-82710476D01*
X111545576Y-82631456D01*
X111544922Y-82538250D01*
X111544641Y-82429458D01*
X111544666Y-82303682D01*
X111544929Y-82159524D01*
X111545363Y-81995586D01*
X111545902Y-81810468D01*
X111546436Y-81631611D01*
X111546962Y-81472753D01*
X111547507Y-81333695D01*
X111548102Y-81213044D01*
X111548776Y-81109407D01*
X111549560Y-81021390D01*
X111550483Y-80947602D01*
X111551576Y-80886648D01*
X111552869Y-80837136D01*
X111554392Y-80797672D01*
X111556176Y-80766863D01*
X111558249Y-80743317D01*
X111560643Y-80725639D01*
X111563387Y-80712438D01*
X111566513Y-80702319D01*
X111570049Y-80693890D01*
X111573948Y-80685754D01*
X111593595Y-80648923D01*
X111612382Y-80618770D01*
X111613429Y-80617287D01*
X111627759Y-80595038D01*
X111633668Y-80582081D01*
X111632661Y-80581628D01*
X111615462Y-80580182D01*
X111578813Y-80578859D01*
X111525119Y-80577695D01*
X111456787Y-80576726D01*
X111376221Y-80575990D01*
X111285827Y-80575521D01*
X111188010Y-80575357D01*
X110742352Y-80575357D01*
X110739277Y-81752224D01*
X110736202Y-82929090D01*
X110709564Y-82988001D01*
X110697642Y-83012562D01*
X110680403Y-83042813D01*
X110667231Y-83059939D01*
X110659233Y-83067970D01*
X110651535Y-83082872D01*
X110360099Y-83082872D01*
X110359631Y-82990408D01*
X110359207Y-82874996D01*
X110358863Y-82744539D01*
X110358591Y-82598095D01*
X110358384Y-82434723D01*
X110358233Y-82253480D01*
X110358129Y-82053427D01*
X110358065Y-81833620D01*
X110358033Y-81593118D01*
X110358024Y-81330981D01*
X110358024Y-79139410D01*
X110396406Y-79101028D01*
X110423512Y-79077290D01*
X110450410Y-79065490D01*
X110486717Y-79062646D01*
X110538646Y-79062646D01*
X110538646Y-79150585D01*
X110540584Y-79200481D01*
X110559356Y-79310902D01*
X110596374Y-79412366D01*
X110649526Y-79503531D01*
X110716703Y-79583052D01*
X110795795Y-79649584D01*
X110884691Y-79701785D01*
X110981282Y-79738309D01*
X111083457Y-79757813D01*
X111189107Y-79758952D01*
X111296121Y-79740384D01*
X111402389Y-79700763D01*
X111499376Y-79642895D01*
X111584450Y-79568063D01*
X111653172Y-79479994D01*
X111704075Y-79380995D01*
X111735692Y-79273372D01*
X111746557Y-79159433D01*
X111746557Y-79062646D01*
X113366910Y-79062646D01*
X113578054Y-79062659D01*
X113782177Y-79062709D01*
X113965843Y-79062809D01*
X114130148Y-79062971D01*
X114276186Y-79063208D01*
X114405051Y-79063532D01*
X114517840Y-79063954D01*
X114615645Y-79064488D01*
X114699561Y-79065146D01*
X114770684Y-79065940D01*
X114830107Y-79066883D01*
X114878925Y-79067987D01*
X114918234Y-79069263D01*
X114949126Y-79070726D01*
X114972698Y-79072386D01*
X114990043Y-79074257D01*
X115002256Y-79076351D01*
X115010432Y-79078679D01*
X115015665Y-79081255D01*
X115021661Y-79084824D01*
X115028436Y-79088357D01*
X115034635Y-79091867D01*
X115040283Y-79096297D01*
X115045404Y-79102587D01*
X115050026Y-79111680D01*
X115054172Y-79124518D01*
X115057870Y-79142041D01*
X115061144Y-79165192D01*
X115064020Y-79194913D01*
X115066524Y-79232144D01*
X115068681Y-79277828D01*
X115070517Y-79332906D01*
X115072057Y-79398320D01*
X115073327Y-79475012D01*
X115074352Y-79563923D01*
X115075158Y-79665996D01*
X115075191Y-79672246D01*
X115075771Y-79782171D01*
G36*
X115075771Y-79782171D02*
G01*
X115076216Y-79913390D01*
X115076519Y-80060595D01*
X115076705Y-80224728D01*
X115076799Y-80406731D01*
X115076828Y-80607544D01*
X115076818Y-80828111D01*
X115076793Y-81069371D01*
X115076779Y-81332268D01*
X115076779Y-81374419D01*
X115076803Y-81635047D01*
X115076842Y-81874175D01*
X115076865Y-82092739D01*
X115076844Y-82291674D01*
X115076750Y-82471914D01*
X115076552Y-82634394D01*
X115076220Y-82780049D01*
X115075726Y-82909813D01*
X115075040Y-83024622D01*
X115074133Y-83125409D01*
X115072974Y-83213109D01*
X115071535Y-83288658D01*
X115069786Y-83352990D01*
X115067697Y-83407040D01*
X115065240Y-83451742D01*
X115062384Y-83488031D01*
X115059100Y-83516842D01*
X115055359Y-83539110D01*
X115051131Y-83555769D01*
X115046386Y-83567754D01*
X115041096Y-83576000D01*
X115035230Y-83581441D01*
X115028759Y-83585013D01*
X115021654Y-83587649D01*
X115013885Y-83590285D01*
X115005423Y-83593856D01*
X115001065Y-83595524D01*
X114992552Y-83597490D01*
X114979851Y-83599290D01*
X114962042Y-83600934D01*
X114938206Y-83602426D01*
X114907423Y-83603776D01*
X114868774Y-83604990D01*
X114821339Y-83606076D01*
X114764200Y-83607040D01*
X114696436Y-83607890D01*
X114617128Y-83608632D01*
X114525356Y-83609276D01*
X114420201Y-83609826D01*
X114300744Y-83610292D01*
X114166065Y-83610679D01*
X114015245Y-83610995D01*
X113847363Y-83611248D01*
X113661502Y-83611445D01*
X113456740Y-83611592D01*
X113232159Y-83611697D01*
X112986839Y-83611768D01*
X112719861Y-83611811D01*
X112681478Y-83611816D01*
X112416079Y-83611859D01*
X112172207Y-83611904D01*
X111948940Y-83611927D01*
X111745353Y-83611903D01*
X111560524Y-83611809D01*
X111393530Y-83611622D01*
X111243447Y-83611318D01*
X111109353Y-83610873D01*
X110990323Y-83610264D01*
X110885436Y-83609468D01*
X110793767Y-83608459D01*
X110714394Y-83607216D01*
X110646394Y-83605714D01*
X110588843Y-83603930D01*
X110540819Y-83601840D01*
X110501397Y-83599421D01*
X110469656Y-83596649D01*
X110444671Y-83593500D01*
X110425521Y-83589951D01*
X110411280Y-83585977D01*
X110401028Y-83581557D01*
X110393839Y-83576665D01*
X110388792Y-83571279D01*
X110384962Y-83565375D01*
X110381428Y-83558928D01*
X110377265Y-83551916D01*
X110376182Y-83550066D01*
X110373970Y-83544559D01*
X110371943Y-83536247D01*
X110370095Y-83524188D01*
X110368418Y-83507442D01*
X110366902Y-83485066D01*
X110365540Y-83456119D01*
X110364324Y-83419659D01*
X110363246Y-83374746D01*
X110362297Y-83320436D01*
X110361469Y-83255789D01*
X110360754Y-83179863D01*
X110360144Y-83091717D01*
X110360099Y-83082872D01*
X110651535Y-83082872D01*
X110655417Y-83084144D01*
X110678677Y-83086170D01*
X110721031Y-83088005D01*
X110780289Y-83089606D01*
X110854264Y-83090928D01*
X110940767Y-83091927D01*
X111037609Y-83092559D01*
X111142602Y-83092779D01*
X111840808Y-83092779D01*
X112995247Y-83092779D01*
X112994613Y-83016579D01*
X112995731Y-82974539D01*
X113001461Y-82938713D01*
X113014047Y-82901151D01*
X113035725Y-82852956D01*
X113038946Y-82846276D01*
X113064345Y-82796738D01*
X113091153Y-82748748D01*
X113114074Y-82711845D01*
X113118642Y-82705213D01*
X113140673Y-82673972D01*
X113172850Y-82629033D01*
X113213614Y-82572526D01*
X113261402Y-82506583D01*
X113314655Y-82433336D01*
X113371812Y-82354915D01*
X113431312Y-82273451D01*
X113491594Y-82191077D01*
X113551097Y-82109923D01*
X113608262Y-82032121D01*
X113661527Y-81959802D01*
X113709331Y-81895097D01*
X113750114Y-81840138D01*
X113782315Y-81797055D01*
X113804373Y-81767981D01*
X113814728Y-81755046D01*
X113819201Y-81750730D01*
X113823393Y-81748691D01*
X113826800Y-81751305D01*
X113829482Y-81760365D01*
X113831498Y-81777664D01*
X113832905Y-81804993D01*
X113833762Y-81844144D01*
X113834127Y-81896912D01*
X113834060Y-81965086D01*
X113833617Y-82050461D01*
X113832859Y-82154828D01*
X113831842Y-82279979D01*
X113831465Y-82324679D01*
X113830326Y-82445774D01*
X113829129Y-82547067D01*
X113827793Y-82630641D01*
X113826234Y-82698583D01*
X113824372Y-82752978D01*
X113822123Y-82795911D01*
X113819405Y-82829468D01*
X113816136Y-82855734D01*
X113812235Y-82876795D01*
X113807618Y-82894736D01*
X113799349Y-82921149D01*
X113775740Y-82983151D01*
X113749842Y-83035952D01*
X113724692Y-83073024D01*
X113723496Y-83074454D01*
X113721325Y-83078803D01*
X113723485Y-83082405D01*
X113731801Y-83085330D01*
X113748097Y-83087648D01*
X113774198Y-83089430D01*
X113811928Y-83090746D01*
X113863113Y-83091665D01*
X113929577Y-83092257D01*
X114013144Y-83092594D01*
X114115640Y-83092744D01*
X114238889Y-83092779D01*
X114770453Y-83092779D01*
X114731680Y-83035162D01*
X114725589Y-83026272D01*
X114715133Y-83011448D01*
X114705736Y-82997801D01*
X114697340Y-82984144D01*
X114689890Y-82969290D01*
X114683330Y-82952049D01*
X114677603Y-82931234D01*
X114672652Y-82905659D01*
X114668423Y-82874134D01*
X114664858Y-82835472D01*
X114661901Y-82788486D01*
X114659497Y-82731987D01*
X114657588Y-82664788D01*
X114656119Y-82585701D01*
X114655033Y-82493539D01*
X114654275Y-82387113D01*
X114653787Y-82265236D01*
X114653515Y-82126720D01*
X114653400Y-81970378D01*
X114653388Y-81795021D01*
X114653422Y-81599461D01*
X114653446Y-81382512D01*
X114653437Y-81259892D01*
X114653400Y-81054826D01*
X114653384Y-80870495D01*
X114653445Y-80705713D01*
X114653641Y-80559295D01*
X114654027Y-80430053D01*
X114654662Y-80316801D01*
X114655601Y-80218354D01*
X114656902Y-80133523D01*
X114658621Y-80061123D01*
X114660816Y-79999968D01*
X114663542Y-79948871D01*
X114666858Y-79906646D01*
X114670819Y-79872106D01*
X114675482Y-79844065D01*
X114680904Y-79821337D01*
X114687143Y-79802735D01*
X114694254Y-79787072D01*
X114702295Y-79773163D01*
X114711323Y-79759820D01*
X114721393Y-79745858D01*
X114732564Y-79730090D01*
X114772354Y-79672246D01*
X113712471Y-79672246D01*
X113750468Y-79735345D01*
X113765150Y-79760384D01*
X113779688Y-79787965D01*
X113791784Y-79816079D01*
X113801689Y-79846930D01*
X113809651Y-79882723D01*
X113815918Y-79925662D01*
X113820739Y-79977953D01*
X113824363Y-80041798D01*
X113827038Y-80119404D01*
X113829014Y-80212973D01*
X113830539Y-80324712D01*
X113831861Y-80456824D01*
X113832770Y-80576813D01*
X113833177Y-80693442D01*
X113832924Y-80788910D01*
X113832014Y-80862935D01*
X113830450Y-80915234D01*
X113828236Y-80945528D01*
X113825377Y-80953535D01*
X113822318Y-80950237D01*
X113804163Y-80928787D01*
X113774432Y-80892268D01*
X113734796Y-80842821D01*
X113686928Y-80782586D01*
X113632500Y-80713706D01*
X113573184Y-80638322D01*
X113510652Y-80558575D01*
X113446578Y-80476607D01*
X113382632Y-80394559D01*
X113320488Y-80314573D01*
X113261818Y-80238790D01*
X113208294Y-80169352D01*
X113161587Y-80108400D01*
X113123371Y-80058075D01*
X113095318Y-80020519D01*
X113079100Y-79997874D01*
X113033792Y-79925591D01*
X112993818Y-79845842D01*
X112972287Y-79777567D01*
X112968984Y-79720223D01*
X112974273Y-79672246D01*
X111842513Y-79672496D01*
X111882024Y-79703101D01*
X111891405Y-79710468D01*
X111954340Y-79764817D01*
X112023154Y-79832638D01*
X112099753Y-79915895D01*
X112186045Y-80016557D01*
X112203209Y-80037226D01*
X112243990Y-80086788D01*
X112293745Y-80147705D01*
X112351112Y-80218277D01*
X112414726Y-80296803D01*
X112483226Y-80381583D01*
X112555247Y-80470916D01*
X112629427Y-80563101D01*
X112644674Y-80582081D01*
X112704403Y-80656439D01*
X112778810Y-80749227D01*
X112851288Y-80839767D01*
X112920471Y-80926357D01*
X112984998Y-81007297D01*
X113043504Y-81080885D01*
X113094627Y-81145423D01*
X113137004Y-81199208D01*
X113169272Y-81240541D01*
X113190067Y-81267721D01*
X113198026Y-81279047D01*
X113196268Y-81283150D01*
X113183387Y-81303713D01*
X113159042Y-81339940D01*
X113124404Y-81390203D01*
X113080643Y-81452871D01*
X113028932Y-81526315D01*
X112970441Y-81608906D01*
X112906341Y-81699015D01*
X112837803Y-81795010D01*
X112766000Y-81895264D01*
X112692101Y-81998147D01*
X112617278Y-82102029D01*
X112542702Y-82205280D01*
X112469544Y-82306271D01*
X112398976Y-82403373D01*
X112332168Y-82494956D01*
X112270292Y-82579390D01*
X112214518Y-82655046D01*
X112166019Y-82720295D01*
X112125964Y-82773507D01*
X112095526Y-82813052D01*
X112075101Y-82838405D01*
X112029056Y-82892674D01*
X111978769Y-82949154D01*
X111931972Y-82999048D01*
X111840808Y-83092779D01*
X111142602Y-83092779D01*
X111211513Y-83092728D01*
X111309764Y-83092470D01*
X111399187Y-83092016D01*
X111477490Y-83091389D01*
X111542380Y-83090614D01*
X111591568Y-83089714D01*
X111622761Y-83088713D01*
X111633668Y-83087636D01*
X111632479Y-83084416D01*
X111622333Y-83066831D01*
X111605197Y-83040537D01*
X111596697Y-83028070D01*
X111587486Y-83014001D01*
X111579390Y-82999730D01*
X111572342Y-82983858D01*
X111566274Y-82964988D01*
X111561118Y-82941720D01*
X111556808Y-82912657D01*
X111553276Y-82876400D01*
X111550454Y-82831549D01*
X111548275Y-82776707D01*
X111546671Y-82710476D01*
X111545576Y-82631456D01*
X111544922Y-82538250D01*
X111544641Y-82429458D01*
X111544666Y-82303682D01*
X111544929Y-82159524D01*
X111545363Y-81995586D01*
X111545902Y-81810468D01*
X111546436Y-81631611D01*
X111546962Y-81472753D01*
X111547507Y-81333695D01*
X111548102Y-81213044D01*
X111548776Y-81109407D01*
X111549560Y-81021390D01*
X111550483Y-80947602D01*
X111551576Y-80886648D01*
X111552869Y-80837136D01*
X111554392Y-80797672D01*
X111556176Y-80766863D01*
X111558249Y-80743317D01*
X111560643Y-80725639D01*
X111563387Y-80712438D01*
X111566513Y-80702319D01*
X111570049Y-80693890D01*
X111573948Y-80685754D01*
X111593595Y-80648923D01*
X111612382Y-80618770D01*
X111613429Y-80617287D01*
X111627759Y-80595038D01*
X111633668Y-80582081D01*
X111632661Y-80581628D01*
X111615462Y-80580182D01*
X111578813Y-80578859D01*
X111525119Y-80577695D01*
X111456787Y-80576726D01*
X111376221Y-80575990D01*
X111285827Y-80575521D01*
X111188010Y-80575357D01*
X110742352Y-80575357D01*
X110739277Y-81752224D01*
X110736202Y-82929090D01*
X110709564Y-82988001D01*
X110697642Y-83012562D01*
X110680403Y-83042813D01*
X110667231Y-83059939D01*
X110659233Y-83067970D01*
X110651535Y-83082872D01*
X110360099Y-83082872D01*
X110359631Y-82990408D01*
X110359207Y-82874996D01*
X110358863Y-82744539D01*
X110358591Y-82598095D01*
X110358384Y-82434723D01*
X110358233Y-82253480D01*
X110358129Y-82053427D01*
X110358065Y-81833620D01*
X110358033Y-81593118D01*
X110358024Y-81330981D01*
X110358024Y-79139410D01*
X110396406Y-79101028D01*
X110423512Y-79077290D01*
X110450410Y-79065490D01*
X110486717Y-79062646D01*
X110538646Y-79062646D01*
X110538646Y-79150585D01*
X110540584Y-79200481D01*
X110559356Y-79310902D01*
X110596374Y-79412366D01*
X110649526Y-79503531D01*
X110716703Y-79583052D01*
X110795795Y-79649584D01*
X110884691Y-79701785D01*
X110981282Y-79738309D01*
X111083457Y-79757813D01*
X111189107Y-79758952D01*
X111296121Y-79740384D01*
X111402389Y-79700763D01*
X111499376Y-79642895D01*
X111584450Y-79568063D01*
X111653172Y-79479994D01*
X111704075Y-79380995D01*
X111735692Y-79273372D01*
X111746557Y-79159433D01*
X111746557Y-79062646D01*
X113366910Y-79062646D01*
X113578054Y-79062659D01*
X113782177Y-79062709D01*
X113965843Y-79062809D01*
X114130148Y-79062971D01*
X114276186Y-79063208D01*
X114405051Y-79063532D01*
X114517840Y-79063954D01*
X114615645Y-79064488D01*
X114699561Y-79065146D01*
X114770684Y-79065940D01*
X114830107Y-79066883D01*
X114878925Y-79067987D01*
X114918234Y-79069263D01*
X114949126Y-79070726D01*
X114972698Y-79072386D01*
X114990043Y-79074257D01*
X115002256Y-79076351D01*
X115010432Y-79078679D01*
X115015665Y-79081255D01*
X115021661Y-79084824D01*
X115028436Y-79088357D01*
X115034635Y-79091867D01*
X115040283Y-79096297D01*
X115045404Y-79102587D01*
X115050026Y-79111680D01*
X115054172Y-79124518D01*
X115057870Y-79142041D01*
X115061144Y-79165192D01*
X115064020Y-79194913D01*
X115066524Y-79232144D01*
X115068681Y-79277828D01*
X115070517Y-79332906D01*
X115072057Y-79398320D01*
X115073327Y-79475012D01*
X115074352Y-79563923D01*
X115075158Y-79665996D01*
X115075191Y-79672246D01*
X115075771Y-79782171D01*
G37*
X118182986Y-83521476D02*
X118242910Y-83543734D01*
X118267830Y-83560459D01*
X118293067Y-83584422D01*
X118311069Y-83614905D01*
X118323015Y-83656402D01*
X118330087Y-83713411D01*
X118333465Y-83790426D01*
X118334328Y-83891944D01*
X118334159Y-83944406D01*
X118333310Y-84016094D01*
X118331868Y-84073304D01*
X118329971Y-84111188D01*
X118327754Y-84124893D01*
X118313329Y-84120360D01*
X118284211Y-84108049D01*
X118283338Y-84107651D01*
X118268217Y-84099735D01*
X118258048Y-84088874D01*
X118251848Y-84069850D01*
X118248635Y-84037448D01*
X118247427Y-83986450D01*
X118247243Y-83911640D01*
X118246871Y-83864183D01*
X118242907Y-83774994D01*
X118233830Y-83709666D01*
X118218681Y-83664772D01*
X118196502Y-83636886D01*
X118166332Y-83622582D01*
X118162147Y-83621585D01*
X118105637Y-83620806D01*
X118061567Y-83646123D01*
X118031129Y-83696881D01*
X118025701Y-83711554D01*
X118013328Y-83744028D01*
X118007062Y-83758951D01*
X117994193Y-83756895D01*
X117966090Y-83745736D01*
X117939878Y-83727306D01*
X117927928Y-83692477D01*
X117931493Y-83667530D01*
X117953392Y-83616926D01*
X117988801Y-83569507D01*
X118030209Y-83536713D01*
X118047557Y-83529131D01*
X118113246Y-83516455D01*
X118182986Y-83521476D01*
G36*
X118182986Y-83521476D02*
G01*
X118242910Y-83543734D01*
X118267830Y-83560459D01*
X118293067Y-83584422D01*
X118311069Y-83614905D01*
X118323015Y-83656402D01*
X118330087Y-83713411D01*
X118333465Y-83790426D01*
X118334328Y-83891944D01*
X118334159Y-83944406D01*
X118333310Y-84016094D01*
X118331868Y-84073304D01*
X118329971Y-84111188D01*
X118327754Y-84124893D01*
X118313329Y-84120360D01*
X118284211Y-84108049D01*
X118283338Y-84107651D01*
X118268217Y-84099735D01*
X118258048Y-84088874D01*
X118251848Y-84069850D01*
X118248635Y-84037448D01*
X118247427Y-83986450D01*
X118247243Y-83911640D01*
X118246871Y-83864183D01*
X118242907Y-83774994D01*
X118233830Y-83709666D01*
X118218681Y-83664772D01*
X118196502Y-83636886D01*
X118166332Y-83622582D01*
X118162147Y-83621585D01*
X118105637Y-83620806D01*
X118061567Y-83646123D01*
X118031129Y-83696881D01*
X118025701Y-83711554D01*
X118013328Y-83744028D01*
X118007062Y-83758951D01*
X117994193Y-83756895D01*
X117966090Y-83745736D01*
X117939878Y-83727306D01*
X117927928Y-83692477D01*
X117931493Y-83667530D01*
X117953392Y-83616926D01*
X117988801Y-83569507D01*
X118030209Y-83536713D01*
X118047557Y-83529131D01*
X118113246Y-83516455D01*
X118182986Y-83521476D01*
G37*
X122131177Y-83488201D02*
X122198967Y-83520059D01*
X122254523Y-83575149D01*
X122266038Y-83592395D01*
X122275589Y-83611941D01*
X122282363Y-83636577D01*
X122286976Y-83671090D01*
X122290045Y-83720268D01*
X122292186Y-83788898D01*
X122294016Y-83881768D01*
X122298561Y-84139386D01*
X122260382Y-84124870D01*
X122225425Y-84111535D01*
X122199254Y-84098702D01*
X122182170Y-84082159D01*
X122172243Y-84056844D01*
X122167543Y-84017695D01*
X122166139Y-83959647D01*
X122166100Y-83877640D01*
X122165901Y-83812274D01*
X122164716Y-83749552D01*
X122161886Y-83706713D01*
X122156766Y-83678599D01*
X122148710Y-83660054D01*
X122137071Y-83645922D01*
X122108460Y-83625979D01*
X122060396Y-83618462D01*
X122012845Y-83637458D01*
X122009707Y-83639890D01*
X121999926Y-83651127D01*
X121992710Y-83669149D01*
X121987456Y-83698405D01*
X121983559Y-83743341D01*
X121980413Y-83808407D01*
X121977414Y-83898049D01*
X121970157Y-84138076D01*
X121908471Y-84110423D01*
X121846786Y-84082770D01*
X121846786Y-83863625D01*
X121847041Y-83804090D01*
X121849243Y-83721271D01*
X121854818Y-83659606D01*
X121865098Y-83614127D01*
X121881415Y-83579863D01*
X121905100Y-83551845D01*
X121937485Y-83525102D01*
X121984064Y-83498159D01*
X122057444Y-83480570D01*
X122131177Y-83488201D01*
G36*
X122131177Y-83488201D02*
G01*
X122198967Y-83520059D01*
X122254523Y-83575149D01*
X122266038Y-83592395D01*
X122275589Y-83611941D01*
X122282363Y-83636577D01*
X122286976Y-83671090D01*
X122290045Y-83720268D01*
X122292186Y-83788898D01*
X122294016Y-83881768D01*
X122298561Y-84139386D01*
X122260382Y-84124870D01*
X122225425Y-84111535D01*
X122199254Y-84098702D01*
X122182170Y-84082159D01*
X122172243Y-84056844D01*
X122167543Y-84017695D01*
X122166139Y-83959647D01*
X122166100Y-83877640D01*
X122165901Y-83812274D01*
X122164716Y-83749552D01*
X122161886Y-83706713D01*
X122156766Y-83678599D01*
X122148710Y-83660054D01*
X122137071Y-83645922D01*
X122108460Y-83625979D01*
X122060396Y-83618462D01*
X122012845Y-83637458D01*
X122009707Y-83639890D01*
X121999926Y-83651127D01*
X121992710Y-83669149D01*
X121987456Y-83698405D01*
X121983559Y-83743341D01*
X121980413Y-83808407D01*
X121977414Y-83898049D01*
X121970157Y-84138076D01*
X121908471Y-84110423D01*
X121846786Y-84082770D01*
X121846786Y-83863625D01*
X121847041Y-83804090D01*
X121849243Y-83721271D01*
X121854818Y-83659606D01*
X121865098Y-83614127D01*
X121881415Y-83579863D01*
X121905100Y-83551845D01*
X121937485Y-83525102D01*
X121984064Y-83498159D01*
X122057444Y-83480570D01*
X122131177Y-83488201D01*
G37*
X120307848Y-83536846D02*
X120312430Y-83539382D01*
X120349861Y-83568436D01*
X120383327Y-83605789D01*
X120389164Y-83614231D01*
X120400322Y-83633932D01*
X120408293Y-83657314D01*
X120413775Y-83689446D01*
X120417464Y-83735398D01*
X120420056Y-83800238D01*
X120422249Y-83889036D01*
X120422559Y-83904048D01*
X120423557Y-84001378D01*
X120422151Y-84070313D01*
X120418321Y-84111327D01*
X120412046Y-84124893D01*
X120393055Y-84120831D01*
X120360795Y-84108523D01*
X120353198Y-84104924D01*
X120341333Y-84096777D01*
X120333151Y-84083383D01*
X120327800Y-84059987D01*
X120324426Y-84021834D01*
X120322176Y-83964169D01*
X120320197Y-83882236D01*
X120319655Y-83858286D01*
X120317560Y-83782645D01*
X120314840Y-83729707D01*
X120310672Y-83694454D01*
X120304236Y-83671866D01*
X120294707Y-83656923D01*
X120281263Y-83644606D01*
X120241462Y-83623013D01*
X120192498Y-83618855D01*
X120148686Y-83635378D01*
X120117165Y-83669589D01*
X120105071Y-83718493D01*
X120104735Y-83731786D01*
X120098129Y-83755851D01*
X120078627Y-83759523D01*
X120040440Y-83745192D01*
X120031595Y-83740596D01*
X120007691Y-83713565D01*
X120007218Y-83673373D01*
X120029993Y-83617788D01*
X120050884Y-83587496D01*
X120104299Y-83544463D01*
X120170231Y-83520134D01*
X120240731Y-83516822D01*
X120307848Y-83536846D01*
G36*
X120307848Y-83536846D02*
G01*
X120312430Y-83539382D01*
X120349861Y-83568436D01*
X120383327Y-83605789D01*
X120389164Y-83614231D01*
X120400322Y-83633932D01*
X120408293Y-83657314D01*
X120413775Y-83689446D01*
X120417464Y-83735398D01*
X120420056Y-83800238D01*
X120422249Y-83889036D01*
X120422559Y-83904048D01*
X120423557Y-84001378D01*
X120422151Y-84070313D01*
X120418321Y-84111327D01*
X120412046Y-84124893D01*
X120393055Y-84120831D01*
X120360795Y-84108523D01*
X120353198Y-84104924D01*
X120341333Y-84096777D01*
X120333151Y-84083383D01*
X120327800Y-84059987D01*
X120324426Y-84021834D01*
X120322176Y-83964169D01*
X120320197Y-83882236D01*
X120319655Y-83858286D01*
X120317560Y-83782645D01*
X120314840Y-83729707D01*
X120310672Y-83694454D01*
X120304236Y-83671866D01*
X120294707Y-83656923D01*
X120281263Y-83644606D01*
X120241462Y-83623013D01*
X120192498Y-83618855D01*
X120148686Y-83635378D01*
X120117165Y-83669589D01*
X120105071Y-83718493D01*
X120104735Y-83731786D01*
X120098129Y-83755851D01*
X120078627Y-83759523D01*
X120040440Y-83745192D01*
X120031595Y-83740596D01*
X120007691Y-83713565D01*
X120007218Y-83673373D01*
X120029993Y-83617788D01*
X120050884Y-83587496D01*
X120104299Y-83544463D01*
X120170231Y-83520134D01*
X120240731Y-83516822D01*
X120307848Y-83536846D01*
G37*
X121378700Y-83319823D02*
X121425871Y-83339721D01*
X121425871Y-83736888D01*
X121425676Y-83839877D01*
X121425155Y-83932520D01*
X121424356Y-84011079D01*
X121423329Y-84071818D01*
X121422120Y-84111002D01*
X121420780Y-84124893D01*
X121420256Y-84124847D01*
X121402444Y-84119799D01*
X121369980Y-84108959D01*
X121324271Y-84093025D01*
X121324271Y-83888552D01*
X121323981Y-83808211D01*
X121322631Y-83749941D01*
X121319526Y-83710288D01*
X121313969Y-83683997D01*
X121305264Y-83665815D01*
X121292713Y-83650486D01*
X121284156Y-83642334D01*
X121237885Y-83619754D01*
X121186885Y-83621754D01*
X121140150Y-83648452D01*
X121133346Y-83655077D01*
X121122450Y-83668835D01*
X121114993Y-83687021D01*
X121110326Y-83714556D01*
X121107799Y-83756360D01*
X121106759Y-83817352D01*
X121106557Y-83902452D01*
X121106460Y-83945613D01*
X121105831Y-84016603D01*
X121104713Y-84073455D01*
X121103220Y-84111207D01*
X121101466Y-84124893D01*
X121100942Y-84124847D01*
X121083130Y-84119799D01*
X121050666Y-84108959D01*
X121004957Y-84093025D01*
X121004980Y-83887616D01*
X121005014Y-83869330D01*
X121006935Y-83774005D01*
X121012835Y-83701922D01*
X121024158Y-83648192D01*
X121042344Y-83607928D01*
X121068836Y-83576240D01*
X121105075Y-83548240D01*
X121140420Y-83530712D01*
X121196930Y-83517164D01*
X121252513Y-83516394D01*
X121295243Y-83529574D01*
X121298455Y-83531394D01*
X121308362Y-83531199D01*
X121315132Y-83515951D01*
X121320018Y-83480992D01*
X121324271Y-83421668D01*
X121331528Y-83299926D01*
X121378700Y-83319823D01*
G36*
X121378700Y-83319823D02*
G01*
X121425871Y-83339721D01*
X121425871Y-83736888D01*
X121425676Y-83839877D01*
X121425155Y-83932520D01*
X121424356Y-84011079D01*
X121423329Y-84071818D01*
X121422120Y-84111002D01*
X121420780Y-84124893D01*
X121420256Y-84124847D01*
X121402444Y-84119799D01*
X121369980Y-84108959D01*
X121324271Y-84093025D01*
X121324271Y-83888552D01*
X121323981Y-83808211D01*
X121322631Y-83749941D01*
X121319526Y-83710288D01*
X121313969Y-83683997D01*
X121305264Y-83665815D01*
X121292713Y-83650486D01*
X121284156Y-83642334D01*
X121237885Y-83619754D01*
X121186885Y-83621754D01*
X121140150Y-83648452D01*
X121133346Y-83655077D01*
X121122450Y-83668835D01*
X121114993Y-83687021D01*
X121110326Y-83714556D01*
X121107799Y-83756360D01*
X121106759Y-83817352D01*
X121106557Y-83902452D01*
X121106460Y-83945613D01*
X121105831Y-84016603D01*
X121104713Y-84073455D01*
X121103220Y-84111207D01*
X121101466Y-84124893D01*
X121100942Y-84124847D01*
X121083130Y-84119799D01*
X121050666Y-84108959D01*
X121004957Y-84093025D01*
X121004980Y-83887616D01*
X121005014Y-83869330D01*
X121006935Y-83774005D01*
X121012835Y-83701922D01*
X121024158Y-83648192D01*
X121042344Y-83607928D01*
X121068836Y-83576240D01*
X121105075Y-83548240D01*
X121140420Y-83530712D01*
X121196930Y-83517164D01*
X121252513Y-83516394D01*
X121295243Y-83529574D01*
X121298455Y-83531394D01*
X121308362Y-83531199D01*
X121315132Y-83515951D01*
X121320018Y-83480992D01*
X121324271Y-83421668D01*
X121331528Y-83299926D01*
X121378700Y-83319823D01*
G37*
X119354098Y-83519661D02*
X119385931Y-83532137D01*
X119422900Y-83548981D01*
X119422900Y-84035575D01*
X119376969Y-84081506D01*
X119366477Y-84091806D01*
X119337412Y-84114699D01*
X119308100Y-84122114D01*
X119264483Y-84118700D01*
X119246725Y-84116493D01*
X119200924Y-84111824D01*
X119168900Y-84109964D01*
X119159401Y-84110248D01*
X119120431Y-84113327D01*
X119073317Y-84118700D01*
X119058242Y-84120547D01*
X119020267Y-84121272D01*
X118992482Y-84109808D01*
X118960831Y-84081506D01*
X118914900Y-84035575D01*
X118914900Y-83775434D01*
X118915258Y-83698559D01*
X118916373Y-83625265D01*
X118918109Y-83567229D01*
X118920324Y-83529042D01*
X118922878Y-83515293D01*
X118923413Y-83515330D01*
X118941965Y-83522172D01*
X118973310Y-83537247D01*
X119015765Y-83559201D01*
X119019761Y-83787619D01*
X119023757Y-84016036D01*
X119110843Y-84016036D01*
X119114814Y-83765665D01*
X119116073Y-83697606D01*
X119117875Y-83624861D01*
X119119828Y-83567109D01*
X119121769Y-83529027D01*
X119123534Y-83515293D01*
X119124042Y-83515341D01*
X119141639Y-83520394D01*
X119173991Y-83531228D01*
X119219700Y-83547162D01*
X119219922Y-83767085D01*
X119220145Y-83805288D01*
X119221688Y-83879525D01*
X119224449Y-83941524D01*
X119228134Y-83985687D01*
X119232449Y-84006420D01*
X119247889Y-84017510D01*
X119279398Y-84020935D01*
X119314043Y-84016036D01*
X119318014Y-83765665D01*
X119319435Y-83702042D01*
X119322382Y-83626735D01*
X119326236Y-83567665D01*
X119330699Y-83529097D01*
X119335474Y-83515293D01*
X119354098Y-83519661D01*
G36*
X119354098Y-83519661D02*
G01*
X119385931Y-83532137D01*
X119422900Y-83548981D01*
X119422900Y-84035575D01*
X119376969Y-84081506D01*
X119366477Y-84091806D01*
X119337412Y-84114699D01*
X119308100Y-84122114D01*
X119264483Y-84118700D01*
X119246725Y-84116493D01*
X119200924Y-84111824D01*
X119168900Y-84109964D01*
X119159401Y-84110248D01*
X119120431Y-84113327D01*
X119073317Y-84118700D01*
X119058242Y-84120547D01*
X119020267Y-84121272D01*
X118992482Y-84109808D01*
X118960831Y-84081506D01*
X118914900Y-84035575D01*
X118914900Y-83775434D01*
X118915258Y-83698559D01*
X118916373Y-83625265D01*
X118918109Y-83567229D01*
X118920324Y-83529042D01*
X118922878Y-83515293D01*
X118923413Y-83515330D01*
X118941965Y-83522172D01*
X118973310Y-83537247D01*
X119015765Y-83559201D01*
X119019761Y-83787619D01*
X119023757Y-84016036D01*
X119110843Y-84016036D01*
X119114814Y-83765665D01*
X119116073Y-83697606D01*
X119117875Y-83624861D01*
X119119828Y-83567109D01*
X119121769Y-83529027D01*
X119123534Y-83515293D01*
X119124042Y-83515341D01*
X119141639Y-83520394D01*
X119173991Y-83531228D01*
X119219700Y-83547162D01*
X119219922Y-83767085D01*
X119220145Y-83805288D01*
X119221688Y-83879525D01*
X119224449Y-83941524D01*
X119228134Y-83985687D01*
X119232449Y-84006420D01*
X119247889Y-84017510D01*
X119279398Y-84020935D01*
X119314043Y-84016036D01*
X119318014Y-83765665D01*
X119319435Y-83702042D01*
X119322382Y-83626735D01*
X119326236Y-83567665D01*
X119330699Y-83529097D01*
X119335474Y-83515293D01*
X119354098Y-83519661D01*
G37*
X123965871Y-83805579D02*
X123965858Y-83821314D01*
X123965071Y-83891498D01*
X123962367Y-83940401D01*
X123956763Y-83974557D01*
X123947276Y-84000503D01*
X123932925Y-84024776D01*
X123929394Y-84029812D01*
X123892035Y-84069522D01*
X123849468Y-84099471D01*
X123827609Y-84109189D01*
X123749065Y-84125399D01*
X123671388Y-84114914D01*
X123599802Y-84079086D01*
X123539531Y-84019266D01*
X123534443Y-84011252D01*
X123517887Y-83964721D01*
X123506730Y-83899931D01*
X123501317Y-83825106D01*
X123501925Y-83755892D01*
X123648405Y-83755892D01*
X123649559Y-83851778D01*
X123650023Y-83857948D01*
X123656786Y-83910857D01*
X123668828Y-83944408D01*
X123689162Y-83967395D01*
X123723254Y-83988927D01*
X123756971Y-83990059D01*
X123791700Y-83965236D01*
X123797741Y-83958704D01*
X123809574Y-83939158D01*
X123816561Y-83910765D01*
X123819884Y-83866809D01*
X123820728Y-83800571D01*
X123819282Y-83738529D01*
X123812064Y-83679421D01*
X123797163Y-83642065D01*
X123772793Y-83622531D01*
X123737165Y-83616893D01*
X123723597Y-83618014D01*
X123685587Y-83638573D01*
X123660469Y-83684678D01*
X123648405Y-83755892D01*
X123501925Y-83755892D01*
X123501990Y-83748475D01*
X123509094Y-83678261D01*
X123522972Y-83622691D01*
X123540806Y-83585680D01*
X123591012Y-83528112D01*
X123659042Y-83492341D01*
X123742315Y-83480044D01*
X123764555Y-83480710D01*
X123830048Y-83494326D01*
X123883844Y-83528628D01*
X123933214Y-83587717D01*
X123936152Y-83592101D01*
X123949444Y-83615678D01*
X123958089Y-83642328D01*
X123963061Y-83678538D01*
X123965331Y-83730792D01*
X123965835Y-83800571D01*
X123965871Y-83805579D01*
G36*
X123965871Y-83805579D02*
G01*
X123965858Y-83821314D01*
X123965071Y-83891498D01*
X123962367Y-83940401D01*
X123956763Y-83974557D01*
X123947276Y-84000503D01*
X123932925Y-84024776D01*
X123929394Y-84029812D01*
X123892035Y-84069522D01*
X123849468Y-84099471D01*
X123827609Y-84109189D01*
X123749065Y-84125399D01*
X123671388Y-84114914D01*
X123599802Y-84079086D01*
X123539531Y-84019266D01*
X123534443Y-84011252D01*
X123517887Y-83964721D01*
X123506730Y-83899931D01*
X123501317Y-83825106D01*
X123501925Y-83755892D01*
X123648405Y-83755892D01*
X123649559Y-83851778D01*
X123650023Y-83857948D01*
X123656786Y-83910857D01*
X123668828Y-83944408D01*
X123689162Y-83967395D01*
X123723254Y-83988927D01*
X123756971Y-83990059D01*
X123791700Y-83965236D01*
X123797741Y-83958704D01*
X123809574Y-83939158D01*
X123816561Y-83910765D01*
X123819884Y-83866809D01*
X123820728Y-83800571D01*
X123819282Y-83738529D01*
X123812064Y-83679421D01*
X123797163Y-83642065D01*
X123772793Y-83622531D01*
X123737165Y-83616893D01*
X123723597Y-83618014D01*
X123685587Y-83638573D01*
X123660469Y-83684678D01*
X123648405Y-83755892D01*
X123501925Y-83755892D01*
X123501990Y-83748475D01*
X123509094Y-83678261D01*
X123522972Y-83622691D01*
X123540806Y-83585680D01*
X123591012Y-83528112D01*
X123659042Y-83492341D01*
X123742315Y-83480044D01*
X123764555Y-83480710D01*
X123830048Y-83494326D01*
X123883844Y-83528628D01*
X123933214Y-83587717D01*
X123936152Y-83592101D01*
X123949444Y-83615678D01*
X123958089Y-83642328D01*
X123963061Y-83678538D01*
X123965331Y-83730792D01*
X123965835Y-83800571D01*
X123965871Y-83805579D01*
G37*
X117840747Y-83823001D02*
X117840464Y-83861684D01*
X117836919Y-83937900D01*
X117827640Y-83993673D01*
X117810532Y-84034992D01*
X117783501Y-84067846D01*
X117744449Y-84098225D01*
X117719602Y-84112039D01*
X117679772Y-84121344D01*
X117623822Y-84120609D01*
X117592542Y-84117662D01*
X117554810Y-84108662D01*
X117524651Y-84089099D01*
X117489565Y-84052646D01*
X117484877Y-84047322D01*
X117453334Y-84006348D01*
X117438285Y-83970662D01*
X117434443Y-83928345D01*
X117434443Y-83866158D01*
X117477899Y-83882561D01*
X117509581Y-83901735D01*
X117537119Y-83946726D01*
X117542868Y-83961131D01*
X117575012Y-84001925D01*
X117618768Y-84022460D01*
X117666411Y-84020614D01*
X117710214Y-83994265D01*
X117725268Y-83977834D01*
X117738920Y-83953046D01*
X117734650Y-83930523D01*
X117710073Y-83907343D01*
X117662808Y-83880581D01*
X117590471Y-83847313D01*
X117441700Y-83782195D01*
X117437752Y-83717687D01*
X117439236Y-83676599D01*
X117536167Y-83676599D01*
X117543525Y-83702036D01*
X117577005Y-83729193D01*
X117637771Y-83760093D01*
X117647826Y-83764569D01*
X117695908Y-83785396D01*
X117731883Y-83800044D01*
X117748601Y-83805579D01*
X117751134Y-83801505D01*
X117752150Y-83776626D01*
X117748526Y-83736636D01*
X117739399Y-83697531D01*
X117710930Y-83648263D01*
X117669835Y-83620501D01*
X117620747Y-83616743D01*
X117568301Y-83639488D01*
X117553766Y-83650860D01*
X117536167Y-83676599D01*
X117439236Y-83676599D01*
X117439495Y-83669443D01*
X117461438Y-83608475D01*
X117489136Y-83574876D01*
X117546562Y-83537345D01*
X117614684Y-83518385D01*
X117685104Y-83519886D01*
X117749424Y-83543734D01*
X117763583Y-83552892D01*
X117796061Y-83581228D01*
X117818273Y-83617074D01*
X117831961Y-83665763D01*
X117838872Y-83732628D01*
X117839785Y-83776626D01*
X117840747Y-83823001D01*
G36*
X117840747Y-83823001D02*
G01*
X117840464Y-83861684D01*
X117836919Y-83937900D01*
X117827640Y-83993673D01*
X117810532Y-84034992D01*
X117783501Y-84067846D01*
X117744449Y-84098225D01*
X117719602Y-84112039D01*
X117679772Y-84121344D01*
X117623822Y-84120609D01*
X117592542Y-84117662D01*
X117554810Y-84108662D01*
X117524651Y-84089099D01*
X117489565Y-84052646D01*
X117484877Y-84047322D01*
X117453334Y-84006348D01*
X117438285Y-83970662D01*
X117434443Y-83928345D01*
X117434443Y-83866158D01*
X117477899Y-83882561D01*
X117509581Y-83901735D01*
X117537119Y-83946726D01*
X117542868Y-83961131D01*
X117575012Y-84001925D01*
X117618768Y-84022460D01*
X117666411Y-84020614D01*
X117710214Y-83994265D01*
X117725268Y-83977834D01*
X117738920Y-83953046D01*
X117734650Y-83930523D01*
X117710073Y-83907343D01*
X117662808Y-83880581D01*
X117590471Y-83847313D01*
X117441700Y-83782195D01*
X117437752Y-83717687D01*
X117439236Y-83676599D01*
X117536167Y-83676599D01*
X117543525Y-83702036D01*
X117577005Y-83729193D01*
X117637771Y-83760093D01*
X117647826Y-83764569D01*
X117695908Y-83785396D01*
X117731883Y-83800044D01*
X117748601Y-83805579D01*
X117751134Y-83801505D01*
X117752150Y-83776626D01*
X117748526Y-83736636D01*
X117739399Y-83697531D01*
X117710930Y-83648263D01*
X117669835Y-83620501D01*
X117620747Y-83616743D01*
X117568301Y-83639488D01*
X117553766Y-83650860D01*
X117536167Y-83676599D01*
X117439236Y-83676599D01*
X117439495Y-83669443D01*
X117461438Y-83608475D01*
X117489136Y-83574876D01*
X117546562Y-83537345D01*
X117614684Y-83518385D01*
X117685104Y-83519886D01*
X117749424Y-83543734D01*
X117763583Y-83552892D01*
X117796061Y-83581228D01*
X117818273Y-83617074D01*
X117831961Y-83665763D01*
X117838872Y-83732628D01*
X117839785Y-83776626D01*
X117840747Y-83823001D01*
G37*
X119930855Y-83820093D02*
X119929694Y-83876692D01*
X119921502Y-83953841D01*
X119903676Y-84011655D01*
X119874132Y-84055801D01*
X119830782Y-84091947D01*
X119789489Y-84112842D01*
X119720144Y-84124469D01*
X119650893Y-84111756D01*
X119588302Y-84076324D01*
X119538936Y-84019797D01*
X119532975Y-84009374D01*
X119525102Y-83991112D01*
X119519263Y-83967808D01*
X119515156Y-83935464D01*
X119512482Y-83890083D01*
X119510938Y-83827666D01*
X119510891Y-83822127D01*
X119611586Y-83822127D01*
X119611929Y-83874956D01*
X119614099Y-83922741D01*
X119619464Y-83953588D01*
X119629374Y-83974314D01*
X119645178Y-83991735D01*
X119648881Y-83995084D01*
X119696456Y-84019798D01*
X119746792Y-84017269D01*
X119793674Y-83987667D01*
X119807634Y-83972332D01*
X119819317Y-83952001D01*
X119825843Y-83923893D01*
X119828681Y-83880929D01*
X119829300Y-83816026D01*
X119828994Y-83766501D01*
X119826879Y-83718161D01*
X119821547Y-83686966D01*
X119811617Y-83666026D01*
X119795707Y-83648452D01*
X119786361Y-83640538D01*
X119737933Y-83619222D01*
X119687197Y-83622577D01*
X119643144Y-83650486D01*
X119633661Y-83661552D01*
X119622096Y-83682388D01*
X119615409Y-83711485D01*
X119612330Y-83755760D01*
X119611586Y-83822127D01*
X119510891Y-83822127D01*
X119510224Y-83744216D01*
X119510040Y-83635737D01*
X119509986Y-83298980D01*
X119557157Y-83318741D01*
X119569629Y-83324149D01*
X119589481Y-83336364D01*
X119600844Y-83354861D01*
X119607090Y-83387208D01*
X119611586Y-83440972D01*
X119615692Y-83489245D01*
X119621120Y-83520936D01*
X119628896Y-83532762D01*
X119640614Y-83529591D01*
X119670475Y-83518446D01*
X119723841Y-83515683D01*
X119781250Y-83526004D01*
X119830782Y-83548240D01*
X119858033Y-83568822D01*
X119893022Y-83608979D01*
X119915431Y-83660465D01*
X119927347Y-83728947D01*
X119930699Y-83816026D01*
X119930855Y-83820093D01*
G36*
X119930855Y-83820093D02*
G01*
X119929694Y-83876692D01*
X119921502Y-83953841D01*
X119903676Y-84011655D01*
X119874132Y-84055801D01*
X119830782Y-84091947D01*
X119789489Y-84112842D01*
X119720144Y-84124469D01*
X119650893Y-84111756D01*
X119588302Y-84076324D01*
X119538936Y-84019797D01*
X119532975Y-84009374D01*
X119525102Y-83991112D01*
X119519263Y-83967808D01*
X119515156Y-83935464D01*
X119512482Y-83890083D01*
X119510938Y-83827666D01*
X119510891Y-83822127D01*
X119611586Y-83822127D01*
X119611929Y-83874956D01*
X119614099Y-83922741D01*
X119619464Y-83953588D01*
X119629374Y-83974314D01*
X119645178Y-83991735D01*
X119648881Y-83995084D01*
X119696456Y-84019798D01*
X119746792Y-84017269D01*
X119793674Y-83987667D01*
X119807634Y-83972332D01*
X119819317Y-83952001D01*
X119825843Y-83923893D01*
X119828681Y-83880929D01*
X119829300Y-83816026D01*
X119828994Y-83766501D01*
X119826879Y-83718161D01*
X119821547Y-83686966D01*
X119811617Y-83666026D01*
X119795707Y-83648452D01*
X119786361Y-83640538D01*
X119737933Y-83619222D01*
X119687197Y-83622577D01*
X119643144Y-83650486D01*
X119633661Y-83661552D01*
X119622096Y-83682388D01*
X119615409Y-83711485D01*
X119612330Y-83755760D01*
X119611586Y-83822127D01*
X119510891Y-83822127D01*
X119510224Y-83744216D01*
X119510040Y-83635737D01*
X119509986Y-83298980D01*
X119557157Y-83318741D01*
X119569629Y-83324149D01*
X119589481Y-83336364D01*
X119600844Y-83354861D01*
X119607090Y-83387208D01*
X119611586Y-83440972D01*
X119615692Y-83489245D01*
X119621120Y-83520936D01*
X119628896Y-83532762D01*
X119640614Y-83529591D01*
X119670475Y-83518446D01*
X119723841Y-83515683D01*
X119781250Y-83526004D01*
X119830782Y-83548240D01*
X119858033Y-83568822D01*
X119893022Y-83608979D01*
X119915431Y-83660465D01*
X119927347Y-83728947D01*
X119930699Y-83816026D01*
X119930855Y-83820093D01*
G37*
X122862456Y-83764434D02*
X122857841Y-83874457D01*
X122855235Y-83897766D01*
X122835817Y-83980731D01*
X122800730Y-84043827D01*
X122747369Y-84092187D01*
X122744353Y-84094183D01*
X122676519Y-84122564D01*
X122605692Y-84125090D01*
X122537446Y-84103476D01*
X122477353Y-84059441D01*
X122430986Y-83994701D01*
X122430207Y-83993140D01*
X122414800Y-83952937D01*
X122403514Y-83907245D01*
X122397527Y-83864351D01*
X122398018Y-83832539D01*
X122406164Y-83820093D01*
X122413401Y-83820850D01*
X122448008Y-83834614D01*
X122487235Y-83859925D01*
X122520605Y-83889224D01*
X122537640Y-83914951D01*
X122555349Y-83949850D01*
X122591642Y-83981591D01*
X122633787Y-83994265D01*
X122649234Y-83990600D01*
X122679726Y-83972153D01*
X122706285Y-83946545D01*
X122717643Y-83923313D01*
X122717639Y-83923227D01*
X122704753Y-83912558D01*
X122670398Y-83893312D01*
X122619750Y-83868192D01*
X122557986Y-83839903D01*
X122557646Y-83839753D01*
X122490545Y-83809877D01*
X122445568Y-83788352D01*
X122418302Y-83771816D01*
X122404335Y-83756910D01*
X122399254Y-83740272D01*
X122398647Y-83718541D01*
X122402869Y-83677392D01*
X122546157Y-83677392D01*
X122560948Y-83690328D01*
X122597801Y-83709712D01*
X122598882Y-83710260D01*
X122642362Y-83730966D01*
X122681259Y-83747484D01*
X122705935Y-83754472D01*
X122715833Y-83745132D01*
X122717643Y-83713127D01*
X122710123Y-83673294D01*
X122684054Y-83637096D01*
X122646311Y-83618329D01*
X122604234Y-83620224D01*
X122565162Y-83646011D01*
X122549804Y-83663830D01*
X122546157Y-83677392D01*
X122402869Y-83677392D01*
X122403990Y-83666465D01*
X122430408Y-83595714D01*
X122474630Y-83540114D01*
X122531854Y-83501618D01*
X122597277Y-83482176D01*
X122666094Y-83483738D01*
X122733504Y-83508257D01*
X122794701Y-83557681D01*
X122828607Y-83606591D01*
X122852963Y-83676406D01*
X122856924Y-83713127D01*
X122862456Y-83764434D01*
G36*
X122862456Y-83764434D02*
G01*
X122857841Y-83874457D01*
X122855235Y-83897766D01*
X122835817Y-83980731D01*
X122800730Y-84043827D01*
X122747369Y-84092187D01*
X122744353Y-84094183D01*
X122676519Y-84122564D01*
X122605692Y-84125090D01*
X122537446Y-84103476D01*
X122477353Y-84059441D01*
X122430986Y-83994701D01*
X122430207Y-83993140D01*
X122414800Y-83952937D01*
X122403514Y-83907245D01*
X122397527Y-83864351D01*
X122398018Y-83832539D01*
X122406164Y-83820093D01*
X122413401Y-83820850D01*
X122448008Y-83834614D01*
X122487235Y-83859925D01*
X122520605Y-83889224D01*
X122537640Y-83914951D01*
X122555349Y-83949850D01*
X122591642Y-83981591D01*
X122633787Y-83994265D01*
X122649234Y-83990600D01*
X122679726Y-83972153D01*
X122706285Y-83946545D01*
X122717643Y-83923313D01*
X122717639Y-83923227D01*
X122704753Y-83912558D01*
X122670398Y-83893312D01*
X122619750Y-83868192D01*
X122557986Y-83839903D01*
X122557646Y-83839753D01*
X122490545Y-83809877D01*
X122445568Y-83788352D01*
X122418302Y-83771816D01*
X122404335Y-83756910D01*
X122399254Y-83740272D01*
X122398647Y-83718541D01*
X122402869Y-83677392D01*
X122546157Y-83677392D01*
X122560948Y-83690328D01*
X122597801Y-83709712D01*
X122598882Y-83710260D01*
X122642362Y-83730966D01*
X122681259Y-83747484D01*
X122705935Y-83754472D01*
X122715833Y-83745132D01*
X122717643Y-83713127D01*
X122710123Y-83673294D01*
X122684054Y-83637096D01*
X122646311Y-83618329D01*
X122604234Y-83620224D01*
X122565162Y-83646011D01*
X122549804Y-83663830D01*
X122546157Y-83677392D01*
X122402869Y-83677392D01*
X122403990Y-83666465D01*
X122430408Y-83595714D01*
X122474630Y-83540114D01*
X122531854Y-83501618D01*
X122597277Y-83482176D01*
X122666094Y-83483738D01*
X122733504Y-83508257D01*
X122794701Y-83557681D01*
X122828607Y-83606591D01*
X122852963Y-83676406D01*
X122856924Y-83713127D01*
X122862456Y-83764434D01*
G37*
X120789640Y-83530948D02*
X120839533Y-83560040D01*
X120861482Y-83582706D01*
X120903661Y-83650461D01*
X120917871Y-83724329D01*
X120917871Y-83775149D01*
X120871156Y-83755507D01*
X120838849Y-83735687D01*
X120813388Y-83694539D01*
X120810773Y-83686054D01*
X120782635Y-83642830D01*
X120740224Y-83619482D01*
X120691527Y-83618479D01*
X120644530Y-83642293D01*
X120637514Y-83648435D01*
X120614050Y-83675124D01*
X120610176Y-83698393D01*
X120627925Y-83721241D01*
X120669336Y-83746666D01*
X120736443Y-83777667D01*
X120740981Y-83779631D01*
X120815479Y-83814369D01*
X120866360Y-83845142D01*
X120897682Y-83875867D01*
X120913500Y-83910461D01*
X120917871Y-83952841D01*
X120912143Y-83999825D01*
X120883219Y-84059964D01*
X120832335Y-84103167D01*
X120795531Y-84116138D01*
X120743591Y-84123235D01*
X120693156Y-84121719D01*
X120657140Y-84111011D01*
X120653315Y-84108345D01*
X120643155Y-84089716D01*
X120650205Y-84056884D01*
X120662454Y-84031114D01*
X120682096Y-84020385D01*
X120719348Y-84020918D01*
X120771065Y-84017841D01*
X120804858Y-83996591D01*
X120816271Y-83957256D01*
X120816261Y-83956126D01*
X120809344Y-83933292D01*
X120785816Y-83912342D01*
X120740071Y-83888194D01*
X120677861Y-83859120D01*
X120636656Y-83843304D01*
X120612869Y-83844323D01*
X120601754Y-83865216D01*
X120598565Y-83909020D01*
X120598557Y-83978772D01*
X120598201Y-84021831D01*
X120596570Y-84075005D01*
X120593918Y-84111401D01*
X120590579Y-84124893D01*
X120589687Y-84124802D01*
X120570394Y-84117489D01*
X120538441Y-84102057D01*
X120494281Y-84079221D01*
X120499528Y-83873457D01*
X120499893Y-83859811D01*
X120504061Y-83764030D01*
X120511425Y-83691841D01*
X120523487Y-83638437D01*
X120541750Y-83599012D01*
X120567717Y-83568759D01*
X120602890Y-83542872D01*
X120603541Y-83542466D01*
X120660413Y-83521347D01*
X120726190Y-83517779D01*
X120789640Y-83530948D01*
G36*
X120789640Y-83530948D02*
G01*
X120839533Y-83560040D01*
X120861482Y-83582706D01*
X120903661Y-83650461D01*
X120917871Y-83724329D01*
X120917871Y-83775149D01*
X120871156Y-83755507D01*
X120838849Y-83735687D01*
X120813388Y-83694539D01*
X120810773Y-83686054D01*
X120782635Y-83642830D01*
X120740224Y-83619482D01*
X120691527Y-83618479D01*
X120644530Y-83642293D01*
X120637514Y-83648435D01*
X120614050Y-83675124D01*
X120610176Y-83698393D01*
X120627925Y-83721241D01*
X120669336Y-83746666D01*
X120736443Y-83777667D01*
X120740981Y-83779631D01*
X120815479Y-83814369D01*
X120866360Y-83845142D01*
X120897682Y-83875867D01*
X120913500Y-83910461D01*
X120917871Y-83952841D01*
X120912143Y-83999825D01*
X120883219Y-84059964D01*
X120832335Y-84103167D01*
X120795531Y-84116138D01*
X120743591Y-84123235D01*
X120693156Y-84121719D01*
X120657140Y-84111011D01*
X120653315Y-84108345D01*
X120643155Y-84089716D01*
X120650205Y-84056884D01*
X120662454Y-84031114D01*
X120682096Y-84020385D01*
X120719348Y-84020918D01*
X120771065Y-84017841D01*
X120804858Y-83996591D01*
X120816271Y-83957256D01*
X120816261Y-83956126D01*
X120809344Y-83933292D01*
X120785816Y-83912342D01*
X120740071Y-83888194D01*
X120677861Y-83859120D01*
X120636656Y-83843304D01*
X120612869Y-83844323D01*
X120601754Y-83865216D01*
X120598565Y-83909020D01*
X120598557Y-83978772D01*
X120598201Y-84021831D01*
X120596570Y-84075005D01*
X120593918Y-84111401D01*
X120590579Y-84124893D01*
X120589687Y-84124802D01*
X120570394Y-84117489D01*
X120538441Y-84102057D01*
X120494281Y-84079221D01*
X120499528Y-83873457D01*
X120499893Y-83859811D01*
X120504061Y-83764030D01*
X120511425Y-83691841D01*
X120523487Y-83638437D01*
X120541750Y-83599012D01*
X120567717Y-83568759D01*
X120602890Y-83542872D01*
X120603541Y-83542466D01*
X120660413Y-83521347D01*
X120726190Y-83517779D01*
X120789640Y-83530948D01*
G37*
X123409972Y-83871903D02*
X123411409Y-83983379D01*
X123411808Y-84015718D01*
X123413086Y-84123834D01*
X123413342Y-84206565D01*
X123411791Y-84266805D01*
X123407647Y-84307452D01*
X123400121Y-84331402D01*
X123388428Y-84341550D01*
X123371781Y-84340793D01*
X123349393Y-84332027D01*
X123320478Y-84318148D01*
X123314299Y-84315187D01*
X123288570Y-84300690D01*
X123275133Y-84283444D01*
X123269991Y-84254687D01*
X123269147Y-84205662D01*
X123269109Y-84117636D01*
X123178433Y-84117636D01*
X123122655Y-84115194D01*
X123078797Y-84105287D01*
X123042375Y-84085265D01*
X123039660Y-84083308D01*
X123002703Y-84050248D01*
X122976983Y-84010310D01*
X122960763Y-83958036D01*
X122952305Y-83887967D01*
X122950240Y-83808809D01*
X123095014Y-83808809D01*
X123095039Y-83822076D01*
X123096418Y-83881963D01*
X123100844Y-83921111D01*
X123109618Y-83946532D01*
X123124043Y-83965236D01*
X123124941Y-83966129D01*
X123160394Y-83990331D01*
X123194753Y-83987946D01*
X123233560Y-83958639D01*
X123243052Y-83948623D01*
X123257033Y-83928087D01*
X123264917Y-83901376D01*
X123268402Y-83860878D01*
X123269186Y-83798982D01*
X123268507Y-83761509D01*
X123261140Y-83693359D01*
X123244325Y-83648709D01*
X123216391Y-83624305D01*
X123175666Y-83616893D01*
X123158507Y-83618473D01*
X123128817Y-83634145D01*
X123109188Y-83669070D01*
X123098345Y-83726280D01*
X123095014Y-83808809D01*
X122950240Y-83808809D01*
X122949871Y-83794646D01*
X122950410Y-83726548D01*
X122952864Y-83674966D01*
X122958315Y-83639195D01*
X122967843Y-83612394D01*
X122982528Y-83587717D01*
X122996009Y-83568859D01*
X123044956Y-83517947D01*
X123100413Y-83490297D01*
X123170085Y-83481544D01*
X123249821Y-83490269D01*
X123318752Y-83521564D01*
X123373270Y-83576760D01*
X123377380Y-83582603D01*
X123386965Y-83598132D01*
X123394308Y-83615877D01*
X123399769Y-83639669D01*
X123403707Y-83673337D01*
X123406480Y-83720712D01*
X123408449Y-83785624D01*
X123408685Y-83798982D01*
X123409972Y-83871903D01*
G36*
X123409972Y-83871903D02*
G01*
X123411409Y-83983379D01*
X123411808Y-84015718D01*
X123413086Y-84123834D01*
X123413342Y-84206565D01*
X123411791Y-84266805D01*
X123407647Y-84307452D01*
X123400121Y-84331402D01*
X123388428Y-84341550D01*
X123371781Y-84340793D01*
X123349393Y-84332027D01*
X123320478Y-84318148D01*
X123314299Y-84315187D01*
X123288570Y-84300690D01*
X123275133Y-84283444D01*
X123269991Y-84254687D01*
X123269147Y-84205662D01*
X123269109Y-84117636D01*
X123178433Y-84117636D01*
X123122655Y-84115194D01*
X123078797Y-84105287D01*
X123042375Y-84085265D01*
X123039660Y-84083308D01*
X123002703Y-84050248D01*
X122976983Y-84010310D01*
X122960763Y-83958036D01*
X122952305Y-83887967D01*
X122950240Y-83808809D01*
X123095014Y-83808809D01*
X123095039Y-83822076D01*
X123096418Y-83881963D01*
X123100844Y-83921111D01*
X123109618Y-83946532D01*
X123124043Y-83965236D01*
X123124941Y-83966129D01*
X123160394Y-83990331D01*
X123194753Y-83987946D01*
X123233560Y-83958639D01*
X123243052Y-83948623D01*
X123257033Y-83928087D01*
X123264917Y-83901376D01*
X123268402Y-83860878D01*
X123269186Y-83798982D01*
X123268507Y-83761509D01*
X123261140Y-83693359D01*
X123244325Y-83648709D01*
X123216391Y-83624305D01*
X123175666Y-83616893D01*
X123158507Y-83618473D01*
X123128817Y-83634145D01*
X123109188Y-83669070D01*
X123098345Y-83726280D01*
X123095014Y-83808809D01*
X122950240Y-83808809D01*
X122949871Y-83794646D01*
X122950410Y-83726548D01*
X122952864Y-83674966D01*
X122958315Y-83639195D01*
X122967843Y-83612394D01*
X122982528Y-83587717D01*
X122996009Y-83568859D01*
X123044956Y-83517947D01*
X123100413Y-83490297D01*
X123170085Y-83481544D01*
X123249821Y-83490269D01*
X123318752Y-83521564D01*
X123373270Y-83576760D01*
X123377380Y-83582603D01*
X123386965Y-83598132D01*
X123394308Y-83615877D01*
X123399769Y-83639669D01*
X123403707Y-83673337D01*
X123406480Y-83720712D01*
X123408449Y-83785624D01*
X123408685Y-83798982D01*
X123409972Y-83871903D01*
G37*
X118667652Y-83516599D02*
X118698756Y-83524500D01*
X118727716Y-83544196D01*
X118764988Y-83580863D01*
X118788958Y-83606757D01*
X118813927Y-83640376D01*
X118825188Y-83671885D01*
X118827814Y-83711864D01*
X118827814Y-83777296D01*
X118783192Y-83754221D01*
X118747830Y-83726103D01*
X118723608Y-83688227D01*
X118719448Y-83677930D01*
X118687751Y-83638016D01*
X118643711Y-83618003D01*
X118595688Y-83619951D01*
X118552043Y-83645922D01*
X118533577Y-83667014D01*
X118522820Y-83693998D01*
X118534335Y-83718013D01*
X118570138Y-83742170D01*
X118632247Y-83769578D01*
X118641672Y-83773364D01*
X118698215Y-83798138D01*
X118746737Y-83822568D01*
X118777608Y-83841865D01*
X118808528Y-83876332D01*
X118829084Y-83931336D01*
X118826901Y-83990362D01*
X118802581Y-84046224D01*
X118756725Y-84091734D01*
X118719595Y-84111106D01*
X118647868Y-84124671D01*
X118608009Y-84122841D01*
X118571110Y-84112947D01*
X118556954Y-84092185D01*
X118562248Y-84057992D01*
X118563788Y-84053471D01*
X118575999Y-84029495D01*
X118596331Y-84020421D01*
X118635065Y-84021028D01*
X118662414Y-84021853D01*
X118694414Y-84014771D01*
X118716339Y-83993598D01*
X118728827Y-83967531D01*
X118730219Y-83940224D01*
X118730155Y-83940064D01*
X118713964Y-83925309D01*
X118679312Y-83903836D01*
X118634478Y-83879837D01*
X118587739Y-83857504D01*
X118547374Y-83841031D01*
X118521661Y-83834608D01*
X118517836Y-83840897D01*
X118513021Y-83870494D01*
X118509723Y-83918826D01*
X118508500Y-83979751D01*
X118508215Y-84021921D01*
X118506875Y-84075032D01*
X118504685Y-84111404D01*
X118501926Y-84124893D01*
X118487501Y-84120360D01*
X118458383Y-84108049D01*
X118421414Y-84091205D01*
X118421414Y-83875100D01*
X118421650Y-83819706D01*
X118423886Y-83735586D01*
X118429580Y-83673179D01*
X118440060Y-83627737D01*
X118456654Y-83594512D01*
X118480688Y-83568757D01*
X118513490Y-83545723D01*
X118555281Y-83526714D01*
X118632444Y-83515293D01*
X118667652Y-83516599D01*
G36*
X118667652Y-83516599D02*
G01*
X118698756Y-83524500D01*
X118727716Y-83544196D01*
X118764988Y-83580863D01*
X118788958Y-83606757D01*
X118813927Y-83640376D01*
X118825188Y-83671885D01*
X118827814Y-83711864D01*
X118827814Y-83777296D01*
X118783192Y-83754221D01*
X118747830Y-83726103D01*
X118723608Y-83688227D01*
X118719448Y-83677930D01*
X118687751Y-83638016D01*
X118643711Y-83618003D01*
X118595688Y-83619951D01*
X118552043Y-83645922D01*
X118533577Y-83667014D01*
X118522820Y-83693998D01*
X118534335Y-83718013D01*
X118570138Y-83742170D01*
X118632247Y-83769578D01*
X118641672Y-83773364D01*
X118698215Y-83798138D01*
X118746737Y-83822568D01*
X118777608Y-83841865D01*
X118808528Y-83876332D01*
X118829084Y-83931336D01*
X118826901Y-83990362D01*
X118802581Y-84046224D01*
X118756725Y-84091734D01*
X118719595Y-84111106D01*
X118647868Y-84124671D01*
X118608009Y-84122841D01*
X118571110Y-84112947D01*
X118556954Y-84092185D01*
X118562248Y-84057992D01*
X118563788Y-84053471D01*
X118575999Y-84029495D01*
X118596331Y-84020421D01*
X118635065Y-84021028D01*
X118662414Y-84021853D01*
X118694414Y-84014771D01*
X118716339Y-83993598D01*
X118728827Y-83967531D01*
X118730219Y-83940224D01*
X118730155Y-83940064D01*
X118713964Y-83925309D01*
X118679312Y-83903836D01*
X118634478Y-83879837D01*
X118587739Y-83857504D01*
X118547374Y-83841031D01*
X118521661Y-83834608D01*
X118517836Y-83840897D01*
X118513021Y-83870494D01*
X118509723Y-83918826D01*
X118508500Y-83979751D01*
X118508215Y-84021921D01*
X118506875Y-84075032D01*
X118504685Y-84111404D01*
X118501926Y-84124893D01*
X118487501Y-84120360D01*
X118458383Y-84108049D01*
X118421414Y-84091205D01*
X118421414Y-83875100D01*
X118421650Y-83819706D01*
X118423886Y-83735586D01*
X118429580Y-83673179D01*
X118440060Y-83627737D01*
X118456654Y-83594512D01*
X118480688Y-83568757D01*
X118513490Y-83545723D01*
X118555281Y-83526714D01*
X118632444Y-83515293D01*
X118667652Y-83516599D01*
G37*
X120814090Y-78812750D02*
X120890013Y-78813244D01*
X120944648Y-78814514D01*
X120981657Y-78816926D01*
X121004704Y-78820846D01*
X121017453Y-78826641D01*
X121023568Y-78834678D01*
X121026713Y-78845322D01*
X121026803Y-78845704D01*
X121031971Y-78870726D01*
X121041366Y-78919060D01*
X121054024Y-78985639D01*
X121068982Y-79065393D01*
X121085276Y-79153254D01*
X121086605Y-79160443D01*
X121102848Y-79245719D01*
X121117962Y-79320621D01*
X121130965Y-79380598D01*
X121140872Y-79421096D01*
X121146701Y-79437563D01*
X121146732Y-79437589D01*
X121165100Y-79446699D01*
X121202797Y-79461836D01*
X121251700Y-79479737D01*
X121254454Y-79480709D01*
X121316974Y-79504338D01*
X121389700Y-79533974D01*
X121457451Y-79563441D01*
X121568860Y-79614005D01*
X121815556Y-79445539D01*
X121832932Y-79433690D01*
X121907359Y-79383326D01*
X121973771Y-79338991D01*
X122028196Y-79303295D01*
X122066663Y-79278850D01*
X122085199Y-79268268D01*
X122097900Y-79270694D01*
X122126736Y-79289489D01*
X122171300Y-79326709D01*
X122232827Y-79383399D01*
X122312555Y-79460606D01*
X122319689Y-79467634D01*
X122382953Y-79530601D01*
X122439147Y-79587647D01*
X122484834Y-79635196D01*
X122516571Y-79669676D01*
X122530921Y-79687510D01*
X122530967Y-79687596D01*
X122532790Y-79701174D01*
X122526067Y-79723199D01*
X122509103Y-79756683D01*
X122480201Y-79804640D01*
X122437665Y-79870083D01*
X122379801Y-79956024D01*
X122369940Y-79970530D01*
X122320070Y-80044014D01*
X122276062Y-80109066D01*
X122240537Y-80161796D01*
X122216116Y-80198315D01*
X122205421Y-80214735D01*
X122204615Y-80218213D01*
X122209675Y-80244164D01*
X122224834Y-80286538D01*
X122247620Y-80338107D01*
X122278586Y-80405549D01*
X122313161Y-80485574D01*
X122342523Y-80558008D01*
X122349802Y-80576756D01*
X122368867Y-80624625D01*
X122382872Y-80657975D01*
X122389198Y-80670493D01*
X122396182Y-80671429D01*
X122427570Y-80676840D01*
X122478944Y-80686185D01*
X122544959Y-80698448D01*
X122620270Y-80712611D01*
X122699532Y-80727659D01*
X122777400Y-80742574D01*
X122848527Y-80756340D01*
X122907569Y-80767941D01*
X122949179Y-80776359D01*
X122968014Y-80780578D01*
X122971137Y-80781768D01*
X122978748Y-80788184D01*
X122984411Y-80801844D01*
X122988408Y-80826378D01*
X122991023Y-80865417D01*
X122992541Y-80922592D01*
X122993243Y-81001533D01*
X122993414Y-81105871D01*
X122993414Y-81423178D01*
X122917214Y-81438218D01*
X122907997Y-81440021D01*
X122859048Y-81449359D01*
X122791362Y-81462048D01*
X122712635Y-81476652D01*
X122630557Y-81491734D01*
X122598235Y-81497801D01*
X122526012Y-81512560D01*
X122465823Y-81526516D01*
X122423197Y-81538331D01*
X122403667Y-81546666D01*
X122394817Y-81560284D01*
X122378705Y-81596317D01*
X122362222Y-81642951D01*
X122356420Y-81660413D01*
X122335063Y-81717737D01*
X122307516Y-81785580D01*
X122278264Y-81852734D01*
X122262620Y-81887809D01*
X122240331Y-81940201D01*
X122225014Y-81979437D01*
X122219319Y-81998942D01*
X122219635Y-82000415D01*
X122230438Y-82021108D01*
X122254795Y-82061044D01*
X122290238Y-82116351D01*
X122334293Y-82183160D01*
X122384489Y-82257599D01*
X122549658Y-82500002D01*
X122332660Y-82717362D01*
X122311673Y-82738278D01*
X122247499Y-82800884D01*
X122190147Y-82854874D01*
X122142977Y-82897205D01*
X122109349Y-82924836D01*
X122092624Y-82934722D01*
X122074460Y-82927200D01*
X122036422Y-82905606D01*
X121982883Y-82872530D01*
X121918041Y-82830570D01*
X121846097Y-82782322D01*
X121775432Y-82734670D01*
X121711683Y-82692707D01*
X121659670Y-82659544D01*
X121623436Y-82637757D01*
X121607024Y-82629922D01*
X121606062Y-82629993D01*
X121584260Y-82637717D01*
X121545597Y-82655702D01*
X121497769Y-82680392D01*
X121497267Y-82680663D01*
X121433744Y-82712478D01*
X121390217Y-82728021D01*
X121363209Y-82728064D01*
X121349247Y-82713379D01*
X121343337Y-82698923D01*
X121327386Y-82660210D01*
X121302817Y-82600695D01*
X121270936Y-82523544D01*
X121233050Y-82431920D01*
X121190467Y-82328986D01*
X121144494Y-82217905D01*
X121102824Y-82116851D01*
X121060425Y-82013159D01*
X121022913Y-81920498D01*
X120991545Y-81842021D01*
X120967582Y-81780879D01*
X120952280Y-81740222D01*
X120946900Y-81723204D01*
X120957175Y-81707598D01*
X120985720Y-81681541D01*
X121026128Y-81651266D01*
X121123136Y-81572063D01*
X121209950Y-81470854D01*
X121273479Y-81359495D01*
X121313334Y-81241272D01*
X121329122Y-81119474D01*
X121320453Y-80997389D01*
X121286935Y-80878304D01*
X121228178Y-80765508D01*
X121143789Y-80662290D01*
X121099788Y-80622092D01*
X120994368Y-80551017D01*
X120881567Y-80504680D01*
X120764682Y-80481978D01*
X120647010Y-80481807D01*
X120531847Y-80503066D01*
X120422492Y-80544649D01*
X120322240Y-80605455D01*
X120234390Y-80684380D01*
X120162237Y-80780320D01*
X120109079Y-80892174D01*
X120078214Y-81018836D01*
X120072549Y-81079886D01*
X120080342Y-81212155D01*
X120115441Y-81337645D01*
X120176806Y-81454138D01*
X120263400Y-81559418D01*
X120374186Y-81651266D01*
X120413088Y-81680309D01*
X120442261Y-81706651D01*
X120453414Y-81723179D01*
X120448967Y-81737588D01*
X120434535Y-81776194D01*
X120411330Y-81835580D01*
X120380609Y-81912594D01*
X120343631Y-82004082D01*
X120301653Y-82106895D01*
X120255935Y-82217881D01*
X120214335Y-82318451D01*
X120171379Y-82422326D01*
X120132986Y-82515198D01*
X120100462Y-82593904D01*
X120075115Y-82655278D01*
X120058252Y-82696158D01*
X120051182Y-82713379D01*
X120051100Y-82713583D01*
X120036955Y-82728124D01*
X120009816Y-82727958D01*
X119966180Y-82712306D01*
X119902545Y-82680392D01*
X119897536Y-82677705D01*
X119850282Y-82653529D01*
X119812968Y-82636416D01*
X119793290Y-82629922D01*
X119777162Y-82637597D01*
X119741116Y-82659250D01*
X119689249Y-82692307D01*
X119625602Y-82734189D01*
X119554217Y-82782322D01*
X119483881Y-82829510D01*
X119418827Y-82871646D01*
X119364977Y-82904957D01*
X119326531Y-82926848D01*
X119307691Y-82934722D01*
X119304482Y-82933722D01*
X119282111Y-82917963D01*
X119243890Y-82885412D01*
X119193178Y-82839112D01*
X119133338Y-82782105D01*
X119067728Y-82717437D01*
X118850805Y-82500151D01*
X119019758Y-82251632D01*
X119188710Y-82003112D01*
X119137340Y-81891974D01*
X119137188Y-81891645D01*
X119106340Y-81820797D01*
X119074818Y-81741902D01*
X119049423Y-81671979D01*
X119045580Y-81660701D01*
X119026204Y-81608346D01*
X119008731Y-81567662D01*
X118996545Y-81546666D01*
X118991583Y-81543701D01*
X118961791Y-81533754D01*
X118911204Y-81520884D01*
X118845351Y-81506432D01*
X118769757Y-81491734D01*
X118747114Y-81487589D01*
X118665195Y-81472495D01*
X118588757Y-81458278D01*
X118525494Y-81446374D01*
X118483100Y-81438218D01*
X118406900Y-81423178D01*
X118406900Y-81105871D01*
X118406917Y-81066855D01*
X118407239Y-80971671D01*
X118408190Y-80900634D01*
X118410053Y-80850113D01*
X118413112Y-80816477D01*
X118417651Y-80796097D01*
X118423952Y-80785341D01*
X118432300Y-80780578D01*
X118440381Y-80778649D01*
X118473329Y-80771824D01*
X118525893Y-80761401D01*
X118592726Y-80748397D01*
X118668485Y-80733828D01*
X118747822Y-80718712D01*
X118825394Y-80704064D01*
X118895855Y-80690902D01*
X118953859Y-80680242D01*
X118994061Y-80673100D01*
X119011116Y-80670493D01*
X119012269Y-80668920D01*
X119021542Y-80648498D01*
X119037589Y-80609424D01*
X119057792Y-80558008D01*
X119085829Y-80488732D01*
X119120343Y-80408669D01*
X119152695Y-80338107D01*
X119160109Y-80322268D01*
X119180912Y-80272672D01*
X119193376Y-80234417D01*
X119195020Y-80214735D01*
X119194172Y-80213341D01*
X119180705Y-80192799D01*
X119154007Y-80152895D01*
X119116696Y-80097519D01*
X119071391Y-80030556D01*
X119020709Y-79955896D01*
X118963602Y-79871071D01*
X118920764Y-79805179D01*
X118891617Y-79756857D01*
X118874474Y-79723112D01*
X118867652Y-79700951D01*
X118869463Y-79687381D01*
X118870072Y-79686363D01*
X118886454Y-79666589D01*
X118919852Y-79630554D01*
X118966828Y-79581830D01*
X119023943Y-79523991D01*
X119087760Y-79460606D01*
X119153959Y-79396284D01*
X119218805Y-79335826D01*
X119266456Y-79295034D01*
X119298147Y-79272863D01*
X119315115Y-79268268D01*
X119317332Y-79269300D01*
X119340681Y-79283216D01*
X119383069Y-79310409D01*
X119440526Y-79348268D01*
X119509080Y-79394182D01*
X119584758Y-79445539D01*
X119831455Y-79614005D01*
X119942863Y-79563441D01*
X119946100Y-79561976D01*
X120014500Y-79532344D01*
X120087064Y-79502872D01*
X120148614Y-79479737D01*
X120148886Y-79479641D01*
X120197752Y-79461746D01*
X120235369Y-79446632D01*
X120253614Y-79437563D01*
X120253909Y-79437234D01*
X120260103Y-79418661D01*
X120270296Y-79376424D01*
X120283505Y-79315075D01*
X120298747Y-79239168D01*
X120315038Y-79153254D01*
X120315606Y-79150175D01*
X120331870Y-79062507D01*
X120346765Y-78983120D01*
X120359328Y-78917080D01*
X120368595Y-78869458D01*
X120373601Y-78845322D01*
X120373921Y-78843984D01*
X120377217Y-78833652D01*
X120383895Y-78825885D01*
X120397619Y-78820319D01*
X120422052Y-78816586D01*
X120460859Y-78814321D01*
X120517703Y-78813157D01*
X120596247Y-78812727D01*
X120700157Y-78812665D01*
X120713213Y-78812665D01*
X120814090Y-78812750D01*
G36*
X120814090Y-78812750D02*
G01*
X120890013Y-78813244D01*
X120944648Y-78814514D01*
X120981657Y-78816926D01*
X121004704Y-78820846D01*
X121017453Y-78826641D01*
X121023568Y-78834678D01*
X121026713Y-78845322D01*
X121026803Y-78845704D01*
X121031971Y-78870726D01*
X121041366Y-78919060D01*
X121054024Y-78985639D01*
X121068982Y-79065393D01*
X121085276Y-79153254D01*
X121086605Y-79160443D01*
X121102848Y-79245719D01*
X121117962Y-79320621D01*
X121130965Y-79380598D01*
X121140872Y-79421096D01*
X121146701Y-79437563D01*
X121146732Y-79437589D01*
X121165100Y-79446699D01*
X121202797Y-79461836D01*
X121251700Y-79479737D01*
X121254454Y-79480709D01*
X121316974Y-79504338D01*
X121389700Y-79533974D01*
X121457451Y-79563441D01*
X121568860Y-79614005D01*
X121815556Y-79445539D01*
X121832932Y-79433690D01*
X121907359Y-79383326D01*
X121973771Y-79338991D01*
X122028196Y-79303295D01*
X122066663Y-79278850D01*
X122085199Y-79268268D01*
X122097900Y-79270694D01*
X122126736Y-79289489D01*
X122171300Y-79326709D01*
X122232827Y-79383399D01*
X122312555Y-79460606D01*
X122319689Y-79467634D01*
X122382953Y-79530601D01*
X122439147Y-79587647D01*
X122484834Y-79635196D01*
X122516571Y-79669676D01*
X122530921Y-79687510D01*
X122530967Y-79687596D01*
X122532790Y-79701174D01*
X122526067Y-79723199D01*
X122509103Y-79756683D01*
X122480201Y-79804640D01*
X122437665Y-79870083D01*
X122379801Y-79956024D01*
X122369940Y-79970530D01*
X122320070Y-80044014D01*
X122276062Y-80109066D01*
X122240537Y-80161796D01*
X122216116Y-80198315D01*
X122205421Y-80214735D01*
X122204615Y-80218213D01*
X122209675Y-80244164D01*
X122224834Y-80286538D01*
X122247620Y-80338107D01*
X122278586Y-80405549D01*
X122313161Y-80485574D01*
X122342523Y-80558008D01*
X122349802Y-80576756D01*
X122368867Y-80624625D01*
X122382872Y-80657975D01*
X122389198Y-80670493D01*
X122396182Y-80671429D01*
X122427570Y-80676840D01*
X122478944Y-80686185D01*
X122544959Y-80698448D01*
X122620270Y-80712611D01*
X122699532Y-80727659D01*
X122777400Y-80742574D01*
X122848527Y-80756340D01*
X122907569Y-80767941D01*
X122949179Y-80776359D01*
X122968014Y-80780578D01*
X122971137Y-80781768D01*
X122978748Y-80788184D01*
X122984411Y-80801844D01*
X122988408Y-80826378D01*
X122991023Y-80865417D01*
X122992541Y-80922592D01*
X122993243Y-81001533D01*
X122993414Y-81105871D01*
X122993414Y-81423178D01*
X122917214Y-81438218D01*
X122907997Y-81440021D01*
X122859048Y-81449359D01*
X122791362Y-81462048D01*
X122712635Y-81476652D01*
X122630557Y-81491734D01*
X122598235Y-81497801D01*
X122526012Y-81512560D01*
X122465823Y-81526516D01*
X122423197Y-81538331D01*
X122403667Y-81546666D01*
X122394817Y-81560284D01*
X122378705Y-81596317D01*
X122362222Y-81642951D01*
X122356420Y-81660413D01*
X122335063Y-81717737D01*
X122307516Y-81785580D01*
X122278264Y-81852734D01*
X122262620Y-81887809D01*
X122240331Y-81940201D01*
X122225014Y-81979437D01*
X122219319Y-81998942D01*
X122219635Y-82000415D01*
X122230438Y-82021108D01*
X122254795Y-82061044D01*
X122290238Y-82116351D01*
X122334293Y-82183160D01*
X122384489Y-82257599D01*
X122549658Y-82500002D01*
X122332660Y-82717362D01*
X122311673Y-82738278D01*
X122247499Y-82800884D01*
X122190147Y-82854874D01*
X122142977Y-82897205D01*
X122109349Y-82924836D01*
X122092624Y-82934722D01*
X122074460Y-82927200D01*
X122036422Y-82905606D01*
X121982883Y-82872530D01*
X121918041Y-82830570D01*
X121846097Y-82782322D01*
X121775432Y-82734670D01*
X121711683Y-82692707D01*
X121659670Y-82659544D01*
X121623436Y-82637757D01*
X121607024Y-82629922D01*
X121606062Y-82629993D01*
X121584260Y-82637717D01*
X121545597Y-82655702D01*
X121497769Y-82680392D01*
X121497267Y-82680663D01*
X121433744Y-82712478D01*
X121390217Y-82728021D01*
X121363209Y-82728064D01*
X121349247Y-82713379D01*
X121343337Y-82698923D01*
X121327386Y-82660210D01*
X121302817Y-82600695D01*
X121270936Y-82523544D01*
X121233050Y-82431920D01*
X121190467Y-82328986D01*
X121144494Y-82217905D01*
X121102824Y-82116851D01*
X121060425Y-82013159D01*
X121022913Y-81920498D01*
X120991545Y-81842021D01*
X120967582Y-81780879D01*
X120952280Y-81740222D01*
X120946900Y-81723204D01*
X120957175Y-81707598D01*
X120985720Y-81681541D01*
X121026128Y-81651266D01*
X121123136Y-81572063D01*
X121209950Y-81470854D01*
X121273479Y-81359495D01*
X121313334Y-81241272D01*
X121329122Y-81119474D01*
X121320453Y-80997389D01*
X121286935Y-80878304D01*
X121228178Y-80765508D01*
X121143789Y-80662290D01*
X121099788Y-80622092D01*
X120994368Y-80551017D01*
X120881567Y-80504680D01*
X120764682Y-80481978D01*
X120647010Y-80481807D01*
X120531847Y-80503066D01*
X120422492Y-80544649D01*
X120322240Y-80605455D01*
X120234390Y-80684380D01*
X120162237Y-80780320D01*
X120109079Y-80892174D01*
X120078214Y-81018836D01*
X120072549Y-81079886D01*
X120080342Y-81212155D01*
X120115441Y-81337645D01*
X120176806Y-81454138D01*
X120263400Y-81559418D01*
X120374186Y-81651266D01*
X120413088Y-81680309D01*
X120442261Y-81706651D01*
X120453414Y-81723179D01*
X120448967Y-81737588D01*
X120434535Y-81776194D01*
X120411330Y-81835580D01*
X120380609Y-81912594D01*
X120343631Y-82004082D01*
X120301653Y-82106895D01*
X120255935Y-82217881D01*
X120214335Y-82318451D01*
X120171379Y-82422326D01*
X120132986Y-82515198D01*
X120100462Y-82593904D01*
X120075115Y-82655278D01*
X120058252Y-82696158D01*
X120051182Y-82713379D01*
X120051100Y-82713583D01*
X120036955Y-82728124D01*
X120009816Y-82727958D01*
X119966180Y-82712306D01*
X119902545Y-82680392D01*
X119897536Y-82677705D01*
X119850282Y-82653529D01*
X119812968Y-82636416D01*
X119793290Y-82629922D01*
X119777162Y-82637597D01*
X119741116Y-82659250D01*
X119689249Y-82692307D01*
X119625602Y-82734189D01*
X119554217Y-82782322D01*
X119483881Y-82829510D01*
X119418827Y-82871646D01*
X119364977Y-82904957D01*
X119326531Y-82926848D01*
X119307691Y-82934722D01*
X119304482Y-82933722D01*
X119282111Y-82917963D01*
X119243890Y-82885412D01*
X119193178Y-82839112D01*
X119133338Y-82782105D01*
X119067728Y-82717437D01*
X118850805Y-82500151D01*
X119019758Y-82251632D01*
X119188710Y-82003112D01*
X119137340Y-81891974D01*
X119137188Y-81891645D01*
X119106340Y-81820797D01*
X119074818Y-81741902D01*
X119049423Y-81671979D01*
X119045580Y-81660701D01*
X119026204Y-81608346D01*
X119008731Y-81567662D01*
X118996545Y-81546666D01*
X118991583Y-81543701D01*
X118961791Y-81533754D01*
X118911204Y-81520884D01*
X118845351Y-81506432D01*
X118769757Y-81491734D01*
X118747114Y-81487589D01*
X118665195Y-81472495D01*
X118588757Y-81458278D01*
X118525494Y-81446374D01*
X118483100Y-81438218D01*
X118406900Y-81423178D01*
X118406900Y-81105871D01*
X118406917Y-81066855D01*
X118407239Y-80971671D01*
X118408190Y-80900634D01*
X118410053Y-80850113D01*
X118413112Y-80816477D01*
X118417651Y-80796097D01*
X118423952Y-80785341D01*
X118432300Y-80780578D01*
X118440381Y-80778649D01*
X118473329Y-80771824D01*
X118525893Y-80761401D01*
X118592726Y-80748397D01*
X118668485Y-80733828D01*
X118747822Y-80718712D01*
X118825394Y-80704064D01*
X118895855Y-80690902D01*
X118953859Y-80680242D01*
X118994061Y-80673100D01*
X119011116Y-80670493D01*
X119012269Y-80668920D01*
X119021542Y-80648498D01*
X119037589Y-80609424D01*
X119057792Y-80558008D01*
X119085829Y-80488732D01*
X119120343Y-80408669D01*
X119152695Y-80338107D01*
X119160109Y-80322268D01*
X119180912Y-80272672D01*
X119193376Y-80234417D01*
X119195020Y-80214735D01*
X119194172Y-80213341D01*
X119180705Y-80192799D01*
X119154007Y-80152895D01*
X119116696Y-80097519D01*
X119071391Y-80030556D01*
X119020709Y-79955896D01*
X118963602Y-79871071D01*
X118920764Y-79805179D01*
X118891617Y-79756857D01*
X118874474Y-79723112D01*
X118867652Y-79700951D01*
X118869463Y-79687381D01*
X118870072Y-79686363D01*
X118886454Y-79666589D01*
X118919852Y-79630554D01*
X118966828Y-79581830D01*
X119023943Y-79523991D01*
X119087760Y-79460606D01*
X119153959Y-79396284D01*
X119218805Y-79335826D01*
X119266456Y-79295034D01*
X119298147Y-79272863D01*
X119315115Y-79268268D01*
X119317332Y-79269300D01*
X119340681Y-79283216D01*
X119383069Y-79310409D01*
X119440526Y-79348268D01*
X119509080Y-79394182D01*
X119584758Y-79445539D01*
X119831455Y-79614005D01*
X119942863Y-79563441D01*
X119946100Y-79561976D01*
X120014500Y-79532344D01*
X120087064Y-79502872D01*
X120148614Y-79479737D01*
X120148886Y-79479641D01*
X120197752Y-79461746D01*
X120235369Y-79446632D01*
X120253614Y-79437563D01*
X120253909Y-79437234D01*
X120260103Y-79418661D01*
X120270296Y-79376424D01*
X120283505Y-79315075D01*
X120298747Y-79239168D01*
X120315038Y-79153254D01*
X120315606Y-79150175D01*
X120331870Y-79062507D01*
X120346765Y-78983120D01*
X120359328Y-78917080D01*
X120368595Y-78869458D01*
X120373601Y-78845322D01*
X120373921Y-78843984D01*
X120377217Y-78833652D01*
X120383895Y-78825885D01*
X120397619Y-78820319D01*
X120422052Y-78816586D01*
X120460859Y-78814321D01*
X120517703Y-78813157D01*
X120596247Y-78812727D01*
X120700157Y-78812665D01*
X120713213Y-78812665D01*
X120814090Y-78812750D01*
G37*
%TD*%
M02*
